M48
;DRILL file {KiCad 4.0.7} date 05/15/18 20:27:56
;FORMAT={-:-/ absolute / inch / decimal}
FMAT,2
INCH,TZ
T1C0.013
T2C0.031
T3C0.039
%
G90
G05
M72
T1
X2.Y-4.89
X2.1Y-4.99
X2.2Y-5.09
X2.89Y-4.89
X2.99Y-4.99
X3.09Y-5.09
T2
X1.45Y-1.82
X1.45Y-2.12
X1.45Y-2.66
X1.45Y-2.96
X1.45Y-3.5
X1.45Y-3.8
X1.45Y-4.34
X1.45Y-4.64
X1.55Y-1.82
X1.55Y-2.12
X1.55Y-2.66
X1.55Y-2.96
X1.55Y-3.5
X1.55Y-3.8
X1.55Y-4.34
X1.55Y-4.64
X1.65Y-1.82
X1.65Y-2.12
X1.65Y-2.66
X1.65Y-2.96
X1.65Y-3.5
X1.65Y-3.8
X1.65Y-4.34
X1.65Y-4.64
X1.75Y-1.82
X1.75Y-2.12
X1.75Y-2.66
X1.75Y-2.96
X1.75Y-3.5
X1.75Y-3.8
X1.75Y-4.34
X1.75Y-4.64
X1.85Y-1.82
X1.85Y-2.12
X1.85Y-2.66
X1.85Y-2.96
X1.85Y-3.5
X1.85Y-3.8
X1.85Y-4.34
X1.85Y-4.64
X1.95Y-1.82
X1.95Y-2.12
X1.95Y-2.66
X1.95Y-2.96
X1.95Y-3.5
X1.95Y-3.8
X1.95Y-4.34
X1.95Y-4.64
X2.05Y-1.82
X2.05Y-2.12
X2.05Y-2.66
X2.05Y-2.96
X2.05Y-3.5
X2.05Y-3.8
X2.05Y-4.34
X2.05Y-4.64
X2.15Y-1.82
X2.15Y-2.12
X2.15Y-2.66
X2.15Y-2.96
X2.15Y-3.5
X2.15Y-3.8
X2.15Y-4.34
X2.15Y-4.64
X2.34Y-1.82
X2.34Y-2.12
X2.34Y-2.66
X2.34Y-2.96
X2.34Y-3.5
X2.34Y-3.8
X2.34Y-4.34
X2.34Y-4.64
X2.44Y-1.82
X2.44Y-2.12
X2.44Y-2.66
X2.44Y-2.96
X2.44Y-3.5
X2.44Y-3.8
X2.44Y-4.34
X2.44Y-4.64
X2.54Y-1.82
X2.54Y-2.12
X2.54Y-2.66
X2.54Y-2.96
X2.54Y-3.5
X2.54Y-3.8
X2.54Y-4.34
X2.54Y-4.64
X2.64Y-1.82
X2.64Y-2.12
X2.64Y-2.66
X2.64Y-2.96
X2.64Y-3.5
X2.64Y-3.8
X2.64Y-4.34
X2.64Y-4.64
X2.74Y-1.82
X2.74Y-2.12
X2.74Y-2.66
X2.74Y-2.96
X2.74Y-3.5
X2.74Y-3.8
X2.74Y-4.34
X2.74Y-4.64
X2.84Y-1.82
X2.84Y-2.12
X2.84Y-2.66
X2.84Y-2.96
X2.84Y-3.5
X2.84Y-3.8
X2.84Y-4.34
X2.84Y-4.64
X2.94Y-1.82
X2.94Y-2.12
X2.94Y-2.66
X2.94Y-2.96
X2.94Y-3.5
X2.94Y-3.8
X2.94Y-4.34
X2.94Y-4.64
X3.04Y-1.82
X3.04Y-2.12
X3.04Y-2.66
X3.04Y-2.96
X3.04Y-3.5
X3.04Y-3.8
X3.04Y-4.34
X3.04Y-4.64
T3
X1.075Y-2.95
X1.075Y-3.05
X1.075Y-3.15
X1.075Y-3.25
X1.075Y-3.35
X1.075Y-3.45
X1.075Y-3.55
X1.075Y-3.65
X1.12Y-3.89
X1.12Y-3.99
X1.12Y-4.09
X1.12Y-4.19
X1.12Y-4.29
X1.12Y-4.39
X1.12Y-4.49
X1.12Y-4.59
X1.12Y-4.69
X1.12Y-4.79
X1.12Y-4.89
X1.12Y-4.99
X1.12Y-5.09
X1.175Y-2.95
X1.175Y-3.05
X1.175Y-3.15
X1.175Y-3.25
X1.175Y-3.35
X1.175Y-3.45
X1.175Y-3.55
X1.175Y-3.65
X1.46Y-1.685
X1.46Y-2.25
X1.46Y-2.525
X1.46Y-3.09
X1.46Y-3.365
X1.46Y-3.93
X1.46Y-4.205
X1.46Y-4.77
X1.56Y-1.685
X1.56Y-2.25
X1.56Y-2.525
X1.56Y-3.09
X1.56Y-3.365
X1.56Y-3.93
X1.56Y-4.205
X1.56Y-4.77
X1.66Y-1.685
X1.66Y-2.25
X1.66Y-2.525
X1.66Y-3.09
X1.66Y-3.365
X1.66Y-3.93
X1.66Y-4.205
X1.66Y-4.77
X1.76Y-1.685
X1.76Y-2.25
X1.76Y-2.525
X1.76Y-3.09
X1.76Y-3.365
X1.76Y-3.93
X1.76Y-4.205
X1.76Y-4.77
X2.35Y-1.685
X2.35Y-2.25
X2.35Y-2.525
X2.35Y-3.09
X2.35Y-3.365
X2.35Y-3.93
X2.35Y-4.205
X2.35Y-4.77
X2.45Y-1.685
X2.45Y-2.25
X2.45Y-2.525
X2.45Y-3.09
X2.45Y-3.365
X2.45Y-3.93
X2.45Y-4.205
X2.45Y-4.77
X2.55Y-1.685
X2.55Y-2.25
X2.55Y-2.525
X2.55Y-3.09
X2.55Y-3.365
X2.55Y-3.93
X2.55Y-4.205
X2.55Y-4.77
X2.65Y-1.685
X2.65Y-2.25
X2.65Y-2.525
X2.65Y-3.09
X2.65Y-3.365
X2.65Y-3.93
X2.65Y-4.205
X2.65Y-4.77
T0
M30
