G04 #@! TF.FileFunction,Soldermask,Top*
%FSLAX46Y46*%
G04 Gerber Fmt 4.6, Leading zero omitted, Abs format (unit mm)*
G04 Created by KiCad (PCBNEW 4.0.7) date 05/11/18 02:19:54*
%MOMM*%
%LPD*%
G01*
G04 APERTURE LIST*
%ADD10C,0.100000*%
%ADD11R,1.801600X1.801600*%
%ADD12O,1.801600X1.801600*%
%ADD13R,1.701600X1.701600*%
%ADD14O,1.701600X1.701600*%
%ADD15C,3.301600*%
G04 APERTURE END LIST*
D10*
D11*
X37084000Y-78486000D03*
D12*
X39624000Y-78486000D03*
X42164000Y-78486000D03*
X44704000Y-78486000D03*
D11*
X37084000Y-64135000D03*
D12*
X39624000Y-64135000D03*
X42164000Y-64135000D03*
X44704000Y-64135000D03*
D13*
X36830000Y-75184000D03*
D14*
X54610000Y-67564000D03*
X39370000Y-75184000D03*
X52070000Y-67564000D03*
X41910000Y-75184000D03*
X49530000Y-67564000D03*
X44450000Y-75184000D03*
X46990000Y-67564000D03*
X46990000Y-75184000D03*
X44450000Y-67564000D03*
X49530000Y-75184000D03*
X41910000Y-67564000D03*
X52070000Y-75184000D03*
X39370000Y-67564000D03*
X54610000Y-75184000D03*
X36830000Y-67564000D03*
D13*
X59436000Y-75184000D03*
D14*
X77216000Y-67564000D03*
X61976000Y-75184000D03*
X74676000Y-67564000D03*
X64516000Y-75184000D03*
X72136000Y-67564000D03*
X67056000Y-75184000D03*
X69596000Y-67564000D03*
X69596000Y-75184000D03*
X67056000Y-67564000D03*
X72136000Y-75184000D03*
X64516000Y-67564000D03*
X74676000Y-75184000D03*
X61976000Y-67564000D03*
X77216000Y-75184000D03*
X59436000Y-67564000D03*
D11*
X59690000Y-64135000D03*
D12*
X62230000Y-64135000D03*
X64770000Y-64135000D03*
X67310000Y-64135000D03*
D11*
X59690000Y-78486000D03*
D12*
X62230000Y-78486000D03*
X64770000Y-78486000D03*
X67310000Y-78486000D03*
D11*
X59690000Y-57150000D03*
D12*
X62230000Y-57150000D03*
X64770000Y-57150000D03*
X67310000Y-57150000D03*
D11*
X59690000Y-42799000D03*
D12*
X62230000Y-42799000D03*
X64770000Y-42799000D03*
X67310000Y-42799000D03*
D13*
X59436000Y-53848000D03*
D14*
X77216000Y-46228000D03*
X61976000Y-53848000D03*
X74676000Y-46228000D03*
X64516000Y-53848000D03*
X72136000Y-46228000D03*
X67056000Y-53848000D03*
X69596000Y-46228000D03*
X69596000Y-53848000D03*
X67056000Y-46228000D03*
X72136000Y-53848000D03*
X64516000Y-46228000D03*
X74676000Y-53848000D03*
X61976000Y-46228000D03*
X77216000Y-53848000D03*
X59436000Y-46228000D03*
D13*
X36830000Y-53848000D03*
D14*
X54610000Y-46228000D03*
X39370000Y-53848000D03*
X52070000Y-46228000D03*
X41910000Y-53848000D03*
X49530000Y-46228000D03*
X44450000Y-53848000D03*
X46990000Y-46228000D03*
X46990000Y-53848000D03*
X44450000Y-46228000D03*
X49530000Y-53848000D03*
X41910000Y-46228000D03*
X52070000Y-53848000D03*
X39370000Y-46228000D03*
X54610000Y-53848000D03*
X36830000Y-46228000D03*
D11*
X37084000Y-42799000D03*
D12*
X39624000Y-42799000D03*
X42164000Y-42799000D03*
X44704000Y-42799000D03*
D11*
X37084000Y-57150000D03*
D12*
X39624000Y-57150000D03*
X42164000Y-57150000D03*
X44704000Y-57150000D03*
D11*
X37084000Y-99822000D03*
D12*
X39624000Y-99822000D03*
X42164000Y-99822000D03*
X44704000Y-99822000D03*
D11*
X37084000Y-85471000D03*
D12*
X39624000Y-85471000D03*
X42164000Y-85471000D03*
X44704000Y-85471000D03*
D13*
X36830000Y-96520000D03*
D14*
X54610000Y-88900000D03*
X39370000Y-96520000D03*
X52070000Y-88900000D03*
X41910000Y-96520000D03*
X49530000Y-88900000D03*
X44450000Y-96520000D03*
X46990000Y-88900000D03*
X46990000Y-96520000D03*
X44450000Y-88900000D03*
X49530000Y-96520000D03*
X41910000Y-88900000D03*
X52070000Y-96520000D03*
X39370000Y-88900000D03*
X54610000Y-96520000D03*
X36830000Y-88900000D03*
D13*
X59436000Y-96520000D03*
D14*
X77216000Y-88900000D03*
X61976000Y-96520000D03*
X74676000Y-88900000D03*
X64516000Y-96520000D03*
X72136000Y-88900000D03*
X67056000Y-96520000D03*
X69596000Y-88900000D03*
X69596000Y-96520000D03*
X67056000Y-88900000D03*
X72136000Y-96520000D03*
X64516000Y-88900000D03*
X74676000Y-96520000D03*
X61976000Y-88900000D03*
X77216000Y-96520000D03*
X59436000Y-88900000D03*
D11*
X59690000Y-85471000D03*
D12*
X62230000Y-85471000D03*
X64770000Y-85471000D03*
X67310000Y-85471000D03*
D11*
X59690000Y-99822000D03*
D12*
X62230000Y-99822000D03*
X64770000Y-99822000D03*
X67310000Y-99822000D03*
D11*
X59690000Y-121158000D03*
D12*
X62230000Y-121158000D03*
X64770000Y-121158000D03*
X67310000Y-121158000D03*
D11*
X59690000Y-106807000D03*
D12*
X62230000Y-106807000D03*
X64770000Y-106807000D03*
X67310000Y-106807000D03*
D13*
X59436000Y-117856000D03*
D14*
X77216000Y-110236000D03*
X61976000Y-117856000D03*
X74676000Y-110236000D03*
X64516000Y-117856000D03*
X72136000Y-110236000D03*
X67056000Y-117856000D03*
X69596000Y-110236000D03*
X69596000Y-117856000D03*
X67056000Y-110236000D03*
X72136000Y-117856000D03*
X64516000Y-110236000D03*
X74676000Y-117856000D03*
X61976000Y-110236000D03*
X77216000Y-117856000D03*
X59436000Y-110236000D03*
D11*
X28448000Y-129286000D03*
D12*
X28448000Y-126746000D03*
X28448000Y-124206000D03*
X28448000Y-121666000D03*
X28448000Y-119126000D03*
X28448000Y-116586000D03*
X28448000Y-114046000D03*
X28448000Y-111506000D03*
X28448000Y-108966000D03*
X28448000Y-106426000D03*
X28448000Y-103886000D03*
X28448000Y-101346000D03*
X28448000Y-98806000D03*
D13*
X36830000Y-117856000D03*
D14*
X54610000Y-110236000D03*
X39370000Y-117856000D03*
X52070000Y-110236000D03*
X41910000Y-117856000D03*
X49530000Y-110236000D03*
X44450000Y-117856000D03*
X46990000Y-110236000D03*
X46990000Y-117856000D03*
X44450000Y-110236000D03*
X49530000Y-117856000D03*
X41910000Y-110236000D03*
X52070000Y-117856000D03*
X39370000Y-110236000D03*
X54610000Y-117856000D03*
X36830000Y-110236000D03*
D11*
X37084000Y-106807000D03*
D12*
X39624000Y-106807000D03*
X42164000Y-106807000D03*
X44704000Y-106807000D03*
D11*
X37084000Y-121158000D03*
D12*
X39624000Y-121158000D03*
X42164000Y-121158000D03*
X44704000Y-121158000D03*
D11*
X27305000Y-74930000D03*
D12*
X29845000Y-74930000D03*
X27305000Y-77470000D03*
X29845000Y-77470000D03*
X27305000Y-80010000D03*
X29845000Y-80010000D03*
X27305000Y-82550000D03*
X29845000Y-82550000D03*
X27305000Y-85090000D03*
X29845000Y-85090000D03*
X27305000Y-87630000D03*
X29845000Y-87630000D03*
X27305000Y-90170000D03*
X29845000Y-90170000D03*
X27305000Y-92710000D03*
X29845000Y-92710000D03*
D15*
X28321000Y-134493000D03*
X81026000Y-134493000D03*
X28321000Y-36068000D03*
X81026000Y-36068000D03*
M02*
