G04 #@! TF.FileFunction,Copper,L1,Top,Signal*
%FSLAX46Y46*%
G04 Gerber Fmt 4.6, Leading zero omitted, Abs format (unit mm)*
G04 Created by KiCad (PCBNEW 4.0.7) date 05/15/18 20:44:28*
%MOMM*%
%LPD*%
G01*
G04 APERTURE LIST*
%ADD10C,0.100000*%
%ADD11R,1.700000X1.700000*%
%ADD12O,1.700000X1.700000*%
%ADD13R,1.600000X1.600000*%
%ADD14O,1.600000X1.600000*%
%ADD15C,0.685800*%
%ADD16C,0.254000*%
%ADD17C,0.203200*%
G04 APERTURE END LIST*
D10*
D11*
X37084000Y-78486000D03*
D12*
X39624000Y-78486000D03*
X42164000Y-78486000D03*
X44704000Y-78486000D03*
D11*
X37084000Y-64135000D03*
D12*
X39624000Y-64135000D03*
X42164000Y-64135000D03*
X44704000Y-64135000D03*
D13*
X36830000Y-75184000D03*
D14*
X54610000Y-67564000D03*
X39370000Y-75184000D03*
X52070000Y-67564000D03*
X41910000Y-75184000D03*
X49530000Y-67564000D03*
X44450000Y-75184000D03*
X46990000Y-67564000D03*
X46990000Y-75184000D03*
X44450000Y-67564000D03*
X49530000Y-75184000D03*
X41910000Y-67564000D03*
X52070000Y-75184000D03*
X39370000Y-67564000D03*
X54610000Y-75184000D03*
X36830000Y-67564000D03*
D13*
X59436000Y-75184000D03*
D14*
X77216000Y-67564000D03*
X61976000Y-75184000D03*
X74676000Y-67564000D03*
X64516000Y-75184000D03*
X72136000Y-67564000D03*
X67056000Y-75184000D03*
X69596000Y-67564000D03*
X69596000Y-75184000D03*
X67056000Y-67564000D03*
X72136000Y-75184000D03*
X64516000Y-67564000D03*
X74676000Y-75184000D03*
X61976000Y-67564000D03*
X77216000Y-75184000D03*
X59436000Y-67564000D03*
D11*
X59690000Y-64135000D03*
D12*
X62230000Y-64135000D03*
X64770000Y-64135000D03*
X67310000Y-64135000D03*
D11*
X59690000Y-78486000D03*
D12*
X62230000Y-78486000D03*
X64770000Y-78486000D03*
X67310000Y-78486000D03*
D11*
X59690000Y-57150000D03*
D12*
X62230000Y-57150000D03*
X64770000Y-57150000D03*
X67310000Y-57150000D03*
D11*
X59690000Y-42799000D03*
D12*
X62230000Y-42799000D03*
X64770000Y-42799000D03*
X67310000Y-42799000D03*
D13*
X59436000Y-53848000D03*
D14*
X77216000Y-46228000D03*
X61976000Y-53848000D03*
X74676000Y-46228000D03*
X64516000Y-53848000D03*
X72136000Y-46228000D03*
X67056000Y-53848000D03*
X69596000Y-46228000D03*
X69596000Y-53848000D03*
X67056000Y-46228000D03*
X72136000Y-53848000D03*
X64516000Y-46228000D03*
X74676000Y-53848000D03*
X61976000Y-46228000D03*
X77216000Y-53848000D03*
X59436000Y-46228000D03*
D13*
X36830000Y-53848000D03*
D14*
X54610000Y-46228000D03*
X39370000Y-53848000D03*
X52070000Y-46228000D03*
X41910000Y-53848000D03*
X49530000Y-46228000D03*
X44450000Y-53848000D03*
X46990000Y-46228000D03*
X46990000Y-53848000D03*
X44450000Y-46228000D03*
X49530000Y-53848000D03*
X41910000Y-46228000D03*
X52070000Y-53848000D03*
X39370000Y-46228000D03*
X54610000Y-53848000D03*
X36830000Y-46228000D03*
D11*
X37084000Y-42799000D03*
D12*
X39624000Y-42799000D03*
X42164000Y-42799000D03*
X44704000Y-42799000D03*
D11*
X37084000Y-57150000D03*
D12*
X39624000Y-57150000D03*
X42164000Y-57150000D03*
X44704000Y-57150000D03*
D11*
X37084000Y-99822000D03*
D12*
X39624000Y-99822000D03*
X42164000Y-99822000D03*
X44704000Y-99822000D03*
D11*
X37084000Y-85471000D03*
D12*
X39624000Y-85471000D03*
X42164000Y-85471000D03*
X44704000Y-85471000D03*
D13*
X36830000Y-96520000D03*
D14*
X54610000Y-88900000D03*
X39370000Y-96520000D03*
X52070000Y-88900000D03*
X41910000Y-96520000D03*
X49530000Y-88900000D03*
X44450000Y-96520000D03*
X46990000Y-88900000D03*
X46990000Y-96520000D03*
X44450000Y-88900000D03*
X49530000Y-96520000D03*
X41910000Y-88900000D03*
X52070000Y-96520000D03*
X39370000Y-88900000D03*
X54610000Y-96520000D03*
X36830000Y-88900000D03*
D13*
X59436000Y-96520000D03*
D14*
X77216000Y-88900000D03*
X61976000Y-96520000D03*
X74676000Y-88900000D03*
X64516000Y-96520000D03*
X72136000Y-88900000D03*
X67056000Y-96520000D03*
X69596000Y-88900000D03*
X69596000Y-96520000D03*
X67056000Y-88900000D03*
X72136000Y-96520000D03*
X64516000Y-88900000D03*
X74676000Y-96520000D03*
X61976000Y-88900000D03*
X77216000Y-96520000D03*
X59436000Y-88900000D03*
D11*
X59690000Y-85471000D03*
D12*
X62230000Y-85471000D03*
X64770000Y-85471000D03*
X67310000Y-85471000D03*
D11*
X59690000Y-99822000D03*
D12*
X62230000Y-99822000D03*
X64770000Y-99822000D03*
X67310000Y-99822000D03*
D11*
X59690000Y-121158000D03*
D12*
X62230000Y-121158000D03*
X64770000Y-121158000D03*
X67310000Y-121158000D03*
D11*
X59690000Y-106807000D03*
D12*
X62230000Y-106807000D03*
X64770000Y-106807000D03*
X67310000Y-106807000D03*
D13*
X59436000Y-117856000D03*
D14*
X77216000Y-110236000D03*
X61976000Y-117856000D03*
X74676000Y-110236000D03*
X64516000Y-117856000D03*
X72136000Y-110236000D03*
X67056000Y-117856000D03*
X69596000Y-110236000D03*
X69596000Y-117856000D03*
X67056000Y-110236000D03*
X72136000Y-117856000D03*
X64516000Y-110236000D03*
X74676000Y-117856000D03*
X61976000Y-110236000D03*
X77216000Y-117856000D03*
X59436000Y-110236000D03*
D11*
X28448000Y-129286000D03*
D12*
X28448000Y-126746000D03*
X28448000Y-124206000D03*
X28448000Y-121666000D03*
X28448000Y-119126000D03*
X28448000Y-116586000D03*
X28448000Y-114046000D03*
X28448000Y-111506000D03*
X28448000Y-108966000D03*
X28448000Y-106426000D03*
X28448000Y-103886000D03*
X28448000Y-101346000D03*
X28448000Y-98806000D03*
D13*
X36830000Y-117856000D03*
D14*
X54610000Y-110236000D03*
X39370000Y-117856000D03*
X52070000Y-110236000D03*
X41910000Y-117856000D03*
X49530000Y-110236000D03*
X44450000Y-117856000D03*
X46990000Y-110236000D03*
X46990000Y-117856000D03*
X44450000Y-110236000D03*
X49530000Y-117856000D03*
X41910000Y-110236000D03*
X52070000Y-117856000D03*
X39370000Y-110236000D03*
X54610000Y-117856000D03*
X36830000Y-110236000D03*
D11*
X37084000Y-106807000D03*
D12*
X39624000Y-106807000D03*
X42164000Y-106807000D03*
X44704000Y-106807000D03*
D11*
X37084000Y-121158000D03*
D12*
X39624000Y-121158000D03*
X42164000Y-121158000D03*
X44704000Y-121158000D03*
D11*
X27305000Y-74930000D03*
D12*
X29845000Y-74930000D03*
X27305000Y-77470000D03*
X29845000Y-77470000D03*
X27305000Y-80010000D03*
X29845000Y-80010000D03*
X27305000Y-82550000D03*
X29845000Y-82550000D03*
X27305000Y-85090000D03*
X29845000Y-85090000D03*
X27305000Y-87630000D03*
X29845000Y-87630000D03*
X27305000Y-90170000D03*
X29845000Y-90170000D03*
X27305000Y-92710000D03*
X29845000Y-92710000D03*
D15*
X50800000Y-124206000D03*
X73406000Y-124206000D03*
X53340000Y-126746000D03*
X75946000Y-126746000D03*
X55880000Y-129286000D03*
X78486000Y-129286000D03*
D16*
X41910000Y-117856000D02*
X41910000Y-116586000D01*
X35306000Y-121666000D02*
X28448000Y-121666000D01*
X35306000Y-116586000D02*
X35306000Y-121666000D01*
X41910000Y-116586000D02*
X35306000Y-116586000D01*
X35941000Y-116078000D02*
X64516000Y-116078000D01*
X34899598Y-116103402D02*
X34925000Y-116078000D01*
X34925000Y-116078000D02*
X35941000Y-116078000D01*
X34899598Y-116713000D02*
X34899598Y-116103402D01*
X64516000Y-116078000D02*
X64516000Y-117856000D01*
X34899598Y-116586000D02*
X34899598Y-116713000D01*
X34899598Y-116713000D02*
X34899598Y-119126000D01*
X34899598Y-119126000D02*
X28448000Y-119126000D01*
X34493196Y-116586000D02*
X34493196Y-95173804D01*
X28448000Y-116586000D02*
X34493196Y-116586000D01*
X41910000Y-95123000D02*
X35179000Y-95123000D01*
X41910000Y-95123000D02*
X41910000Y-96520000D01*
X34544000Y-95123000D02*
X35179000Y-95123000D01*
X34493196Y-95173804D02*
X34544000Y-95123000D01*
X34163000Y-94615000D02*
X64516000Y-94615000D01*
X34086794Y-94691206D02*
X34163000Y-94615000D01*
X28448000Y-114046000D02*
X34086794Y-114046000D01*
X34086794Y-114046000D02*
X34086794Y-95005466D01*
X34086794Y-95005466D02*
X34086794Y-94691206D01*
X64516000Y-94615000D02*
X64516000Y-96520000D01*
X33655000Y-111506000D02*
X33655000Y-73914000D01*
X28448000Y-111506000D02*
X33655000Y-111506000D01*
X41910000Y-73914000D02*
X35179000Y-73914000D01*
X41910000Y-73914000D02*
X41910000Y-75184000D01*
X33655000Y-73914000D02*
X35179000Y-73914000D01*
X33274000Y-73406000D02*
X64516000Y-73406000D01*
X33248598Y-73431402D02*
X33274000Y-73406000D01*
X33248598Y-73914000D02*
X33248598Y-108966000D01*
X28448000Y-108966000D02*
X33248598Y-108966000D01*
X33248598Y-73914000D02*
X33248598Y-73431402D01*
X64516000Y-73406000D02*
X64516000Y-75184000D01*
X32842196Y-106426000D02*
X32842196Y-52628804D01*
X28448000Y-106426000D02*
X32842196Y-106426000D01*
X41910000Y-52578000D02*
X35179000Y-52578000D01*
X41910000Y-52578000D02*
X41910000Y-53848000D01*
X32893000Y-52578000D02*
X35179000Y-52578000D01*
X32842196Y-52628804D02*
X32893000Y-52578000D01*
X64516000Y-53848000D02*
X64516000Y-52070000D01*
X32435794Y-52146206D02*
X32512000Y-52070000D01*
X32512000Y-52070000D02*
X64516000Y-52070000D01*
X32435794Y-103886000D02*
X28448000Y-103886000D01*
X32435794Y-103886000D02*
X32435794Y-52146206D01*
X50800000Y-124206000D02*
X28448000Y-124206000D01*
X73406000Y-124206000D02*
X50800000Y-124206000D01*
X53340000Y-126746000D02*
X75946000Y-126746000D01*
X28448000Y-126746000D02*
X53340000Y-126746000D01*
X55880000Y-129286000D02*
X28448000Y-129286000D01*
X78486000Y-129286000D02*
X55880000Y-129286000D01*
X39370000Y-110236000D02*
X39370000Y-109601000D01*
X39370000Y-109601000D02*
X42164000Y-106807000D01*
D17*
X39370000Y-109601000D02*
X42164000Y-106807000D01*
D16*
X46990000Y-117856000D02*
X45212000Y-119634000D01*
X45212000Y-119634000D02*
X40005000Y-119634000D01*
X40005000Y-119634000D02*
X39624000Y-120015000D01*
X39624000Y-120015000D02*
X39624000Y-121158000D01*
D17*
X39624000Y-121158000D02*
X39624000Y-120015000D01*
X40005000Y-119634000D02*
X45212000Y-119634000D01*
X39624000Y-120015000D02*
X40005000Y-119634000D01*
D16*
X61976000Y-110236000D02*
X61976000Y-109601000D01*
X61976000Y-109601000D02*
X64770000Y-106807000D01*
D17*
X61976000Y-109601000D02*
X64770000Y-106807000D01*
D16*
X69596000Y-117856000D02*
X67818000Y-119634000D01*
X67818000Y-119634000D02*
X62611000Y-119634000D01*
X62611000Y-119634000D02*
X62230000Y-120015000D01*
X62230000Y-120015000D02*
X62230000Y-121158000D01*
D17*
X62230000Y-120015000D02*
X62611000Y-119634000D01*
X62611000Y-119634000D02*
X67818000Y-119634000D01*
X62230000Y-121158000D02*
X62230000Y-120015000D01*
D16*
X39370000Y-88900000D02*
X39370000Y-88265000D01*
X39370000Y-88265000D02*
X42164000Y-85471000D01*
D17*
X39370000Y-88265000D02*
X42164000Y-85471000D01*
D16*
X46990000Y-96520000D02*
X45212000Y-98298000D01*
X45212000Y-98298000D02*
X40005000Y-98298000D01*
X40005000Y-98298000D02*
X39624000Y-98679000D01*
X39624000Y-98679000D02*
X39624000Y-99822000D01*
D17*
X39624000Y-98679000D02*
X40005000Y-98298000D01*
X40005000Y-98298000D02*
X45212000Y-98298000D01*
X39624000Y-99822000D02*
X39624000Y-98679000D01*
D16*
X61976000Y-88900000D02*
X61976000Y-88265000D01*
X61976000Y-88265000D02*
X64770000Y-85471000D01*
D17*
X61976000Y-88265000D02*
X64770000Y-85471000D01*
D16*
X69596000Y-96520000D02*
X67818000Y-98298000D01*
X67818000Y-98298000D02*
X62611000Y-98298000D01*
X62611000Y-98298000D02*
X62230000Y-98679000D01*
X62230000Y-98679000D02*
X62230000Y-99822000D01*
D17*
X62230000Y-99822000D02*
X62230000Y-98679000D01*
X62611000Y-98298000D02*
X67818000Y-98298000D01*
X62230000Y-98679000D02*
X62611000Y-98298000D01*
D16*
X39370000Y-67564000D02*
X39370000Y-66929000D01*
X39370000Y-66929000D02*
X42164000Y-64135000D01*
D17*
X39370000Y-66929000D02*
X42164000Y-64135000D01*
D16*
X46990000Y-75184000D02*
X45212000Y-76962000D01*
X45212000Y-76962000D02*
X40005000Y-76962000D01*
X40005000Y-76962000D02*
X39624000Y-77343000D01*
X39624000Y-77343000D02*
X39624000Y-78486000D01*
D17*
X39624000Y-77343000D02*
X40005000Y-76962000D01*
X40005000Y-76962000D02*
X45212000Y-76962000D01*
X39624000Y-78486000D02*
X39624000Y-77343000D01*
D16*
X61976000Y-67564000D02*
X61976000Y-66929000D01*
X61976000Y-66929000D02*
X64770000Y-64135000D01*
D17*
X61976000Y-66929000D02*
X64770000Y-64135000D01*
D16*
X69596000Y-75184000D02*
X67818000Y-76962000D01*
X67818000Y-76962000D02*
X62611000Y-76962000D01*
X62611000Y-76962000D02*
X62230000Y-77343000D01*
X62230000Y-77343000D02*
X62230000Y-78486000D01*
D17*
X62230000Y-78486000D02*
X62230000Y-77343000D01*
X62611000Y-76962000D02*
X67818000Y-76962000D01*
X62230000Y-77343000D02*
X62611000Y-76962000D01*
D16*
X39370000Y-46228000D02*
X39370000Y-45593000D01*
X39370000Y-45593000D02*
X42164000Y-42799000D01*
D17*
X39370000Y-45593000D02*
X42164000Y-42799000D01*
D16*
X46990000Y-53848000D02*
X45212000Y-55626000D01*
X45212000Y-55626000D02*
X40005000Y-55626000D01*
X40005000Y-55626000D02*
X39624000Y-56007000D01*
X39624000Y-56007000D02*
X39624000Y-57150000D01*
D17*
X39624000Y-57150000D02*
X39624000Y-56007000D01*
X40005000Y-55626000D02*
X45212000Y-55626000D01*
X39624000Y-56007000D02*
X40005000Y-55626000D01*
D16*
X61976000Y-46228000D02*
X61976000Y-45593000D01*
X61976000Y-45593000D02*
X64770000Y-42799000D01*
D17*
X61976000Y-45593000D02*
X64770000Y-42799000D01*
D16*
X69596000Y-53848000D02*
X67818000Y-55626000D01*
X67818000Y-55626000D02*
X62611000Y-55626000D01*
X62611000Y-55626000D02*
X62230000Y-56007000D01*
X62230000Y-56007000D02*
X62230000Y-57150000D01*
D17*
X62230000Y-56007000D02*
X62611000Y-55626000D01*
X62611000Y-55626000D02*
X67818000Y-55626000D01*
X62230000Y-57150000D02*
X62230000Y-56007000D01*
D16*
G36*
X84380000Y-137847000D02*
X24967000Y-137847000D01*
X24967000Y-134935619D01*
X26085613Y-134935619D01*
X26425155Y-135757372D01*
X27053321Y-136386636D01*
X27874481Y-136727611D01*
X28763619Y-136728387D01*
X29585372Y-136388845D01*
X30214636Y-135760679D01*
X30555611Y-134939519D01*
X30555614Y-134935619D01*
X78790613Y-134935619D01*
X79130155Y-135757372D01*
X79758321Y-136386636D01*
X80579481Y-136727611D01*
X81468619Y-136728387D01*
X82290372Y-136388845D01*
X82919636Y-135760679D01*
X83260611Y-134939519D01*
X83261387Y-134050381D01*
X82921845Y-133228628D01*
X82293679Y-132599364D01*
X81472519Y-132258389D01*
X80583381Y-132257613D01*
X79761628Y-132597155D01*
X79132364Y-133225321D01*
X78791389Y-134046481D01*
X78790613Y-134935619D01*
X30555614Y-134935619D01*
X30556387Y-134050381D01*
X30216845Y-133228628D01*
X29588679Y-132599364D01*
X28767519Y-132258389D01*
X27878381Y-132257613D01*
X27056628Y-132597155D01*
X26427364Y-133225321D01*
X26086389Y-134046481D01*
X26085613Y-134935619D01*
X24967000Y-134935619D01*
X24967000Y-103886000D01*
X26933907Y-103886000D01*
X27046946Y-104454285D01*
X27368853Y-104936054D01*
X27698026Y-105156000D01*
X27368853Y-105375946D01*
X27046946Y-105857715D01*
X26933907Y-106426000D01*
X27046946Y-106994285D01*
X27368853Y-107476054D01*
X27698026Y-107696000D01*
X27368853Y-107915946D01*
X27046946Y-108397715D01*
X26933907Y-108966000D01*
X27046946Y-109534285D01*
X27368853Y-110016054D01*
X27698026Y-110236000D01*
X27368853Y-110455946D01*
X27046946Y-110937715D01*
X26933907Y-111506000D01*
X27046946Y-112074285D01*
X27368853Y-112556054D01*
X27698026Y-112776000D01*
X27368853Y-112995946D01*
X27046946Y-113477715D01*
X26933907Y-114046000D01*
X27046946Y-114614285D01*
X27368853Y-115096054D01*
X27698026Y-115316000D01*
X27368853Y-115535946D01*
X27046946Y-116017715D01*
X26933907Y-116586000D01*
X27046946Y-117154285D01*
X27368853Y-117636054D01*
X27698026Y-117856000D01*
X27368853Y-118075946D01*
X27046946Y-118557715D01*
X26933907Y-119126000D01*
X27046946Y-119694285D01*
X27368853Y-120176054D01*
X27698026Y-120396000D01*
X27368853Y-120615946D01*
X27046946Y-121097715D01*
X26933907Y-121666000D01*
X27046946Y-122234285D01*
X27368853Y-122716054D01*
X27698026Y-122936000D01*
X27368853Y-123155946D01*
X27046946Y-123637715D01*
X26933907Y-124206000D01*
X27046946Y-124774285D01*
X27368853Y-125256054D01*
X27698026Y-125476000D01*
X27368853Y-125695946D01*
X27046946Y-126177715D01*
X26933907Y-126746000D01*
X27046946Y-127314285D01*
X27368853Y-127796054D01*
X27410452Y-127823850D01*
X27362683Y-127832838D01*
X27146559Y-127971910D01*
X27001569Y-128184110D01*
X26950560Y-128436000D01*
X26950560Y-130136000D01*
X26994838Y-130371317D01*
X27133910Y-130587441D01*
X27346110Y-130732431D01*
X27598000Y-130783440D01*
X29298000Y-130783440D01*
X29533317Y-130739162D01*
X29749441Y-130600090D01*
X29894431Y-130387890D01*
X29945440Y-130136000D01*
X29945440Y-130048000D01*
X55258917Y-130048000D01*
X55325341Y-130114540D01*
X55684630Y-130263730D01*
X56073663Y-130264069D01*
X56433212Y-130115507D01*
X56500837Y-130048000D01*
X77864917Y-130048000D01*
X77931341Y-130114540D01*
X78290630Y-130263730D01*
X78679663Y-130264069D01*
X79039212Y-130115507D01*
X79314540Y-129840659D01*
X79463730Y-129481370D01*
X79464069Y-129092337D01*
X79315507Y-128732788D01*
X79040659Y-128457460D01*
X78681370Y-128308270D01*
X78292337Y-128307931D01*
X77932788Y-128456493D01*
X77865163Y-128524000D01*
X56501083Y-128524000D01*
X56434659Y-128457460D01*
X56075370Y-128308270D01*
X55686337Y-128307931D01*
X55326788Y-128456493D01*
X55259163Y-128524000D01*
X29945440Y-128524000D01*
X29945440Y-128436000D01*
X29901162Y-128200683D01*
X29762090Y-127984559D01*
X29549890Y-127839569D01*
X29482459Y-127825914D01*
X29527147Y-127796054D01*
X29719618Y-127508000D01*
X52718917Y-127508000D01*
X52785341Y-127574540D01*
X53144630Y-127723730D01*
X53533663Y-127724069D01*
X53893212Y-127575507D01*
X53960837Y-127508000D01*
X75324917Y-127508000D01*
X75391341Y-127574540D01*
X75750630Y-127723730D01*
X76139663Y-127724069D01*
X76499212Y-127575507D01*
X76774540Y-127300659D01*
X76923730Y-126941370D01*
X76924069Y-126552337D01*
X76775507Y-126192788D01*
X76500659Y-125917460D01*
X76141370Y-125768270D01*
X75752337Y-125767931D01*
X75392788Y-125916493D01*
X75325163Y-125984000D01*
X53961083Y-125984000D01*
X53894659Y-125917460D01*
X53535370Y-125768270D01*
X53146337Y-125767931D01*
X52786788Y-125916493D01*
X52719163Y-125984000D01*
X29719618Y-125984000D01*
X29527147Y-125695946D01*
X29197974Y-125476000D01*
X29527147Y-125256054D01*
X29719618Y-124968000D01*
X50178917Y-124968000D01*
X50245341Y-125034540D01*
X50604630Y-125183730D01*
X50993663Y-125184069D01*
X51353212Y-125035507D01*
X51420837Y-124968000D01*
X72784917Y-124968000D01*
X72851341Y-125034540D01*
X73210630Y-125183730D01*
X73599663Y-125184069D01*
X73959212Y-125035507D01*
X74234540Y-124760659D01*
X74383730Y-124401370D01*
X74384069Y-124012337D01*
X74235507Y-123652788D01*
X73960659Y-123377460D01*
X73601370Y-123228270D01*
X73212337Y-123227931D01*
X72852788Y-123376493D01*
X72785163Y-123444000D01*
X51421083Y-123444000D01*
X51354659Y-123377460D01*
X50995370Y-123228270D01*
X50606337Y-123227931D01*
X50246788Y-123376493D01*
X50179163Y-123444000D01*
X29719618Y-123444000D01*
X29527147Y-123155946D01*
X29197974Y-122936000D01*
X29527147Y-122716054D01*
X29719618Y-122428000D01*
X35306000Y-122428000D01*
X35597605Y-122369996D01*
X35677851Y-122316377D01*
X35769910Y-122459441D01*
X35982110Y-122604431D01*
X36234000Y-122655440D01*
X37934000Y-122655440D01*
X38169317Y-122611162D01*
X38385441Y-122472090D01*
X38530431Y-122259890D01*
X38544086Y-122192459D01*
X38573946Y-122237147D01*
X39055715Y-122559054D01*
X39624000Y-122672093D01*
X40192285Y-122559054D01*
X40674054Y-122237147D01*
X40894000Y-121907974D01*
X41113946Y-122237147D01*
X41595715Y-122559054D01*
X42164000Y-122672093D01*
X42732285Y-122559054D01*
X43214054Y-122237147D01*
X43434000Y-121907974D01*
X43653946Y-122237147D01*
X44135715Y-122559054D01*
X44704000Y-122672093D01*
X45272285Y-122559054D01*
X45754054Y-122237147D01*
X46075961Y-121755378D01*
X46189000Y-121187093D01*
X46189000Y-121128907D01*
X46075961Y-120560622D01*
X45790392Y-120133238D01*
X46668473Y-119255157D01*
X46990000Y-119319113D01*
X47539151Y-119209880D01*
X48004698Y-118898811D01*
X48315767Y-118433264D01*
X48425000Y-117884113D01*
X48425000Y-117827887D01*
X48315767Y-117278736D01*
X48022613Y-116840000D01*
X58032301Y-116840000D01*
X57988560Y-117056000D01*
X57988560Y-118656000D01*
X58032838Y-118891317D01*
X58171910Y-119107441D01*
X58384110Y-119252431D01*
X58636000Y-119303440D01*
X60236000Y-119303440D01*
X60471317Y-119259162D01*
X60687441Y-119120090D01*
X60832431Y-118907890D01*
X60863815Y-118752911D01*
X60961302Y-118898811D01*
X61426849Y-119209880D01*
X61869451Y-119297919D01*
X61691185Y-119476185D01*
X61526004Y-119723395D01*
X61497505Y-119866667D01*
X61179946Y-120078853D01*
X61152150Y-120120452D01*
X61143162Y-120072683D01*
X61004090Y-119856559D01*
X60791890Y-119711569D01*
X60540000Y-119660560D01*
X58840000Y-119660560D01*
X58604683Y-119704838D01*
X58388559Y-119843910D01*
X58243569Y-120056110D01*
X58192560Y-120308000D01*
X58192560Y-122008000D01*
X58236838Y-122243317D01*
X58375910Y-122459441D01*
X58588110Y-122604431D01*
X58840000Y-122655440D01*
X60540000Y-122655440D01*
X60775317Y-122611162D01*
X60991441Y-122472090D01*
X61136431Y-122259890D01*
X61150086Y-122192459D01*
X61179946Y-122237147D01*
X61661715Y-122559054D01*
X62230000Y-122672093D01*
X62798285Y-122559054D01*
X63280054Y-122237147D01*
X63500000Y-121907974D01*
X63719946Y-122237147D01*
X64201715Y-122559054D01*
X64770000Y-122672093D01*
X65338285Y-122559054D01*
X65820054Y-122237147D01*
X66040000Y-121907974D01*
X66259946Y-122237147D01*
X66741715Y-122559054D01*
X67310000Y-122672093D01*
X67878285Y-122559054D01*
X68360054Y-122237147D01*
X68681961Y-121755378D01*
X68795000Y-121187093D01*
X68795000Y-121128907D01*
X68681961Y-120560622D01*
X68396392Y-120133238D01*
X69274473Y-119255157D01*
X69596000Y-119319113D01*
X70145151Y-119209880D01*
X70610698Y-118898811D01*
X70921767Y-118433264D01*
X71031000Y-117884113D01*
X71031000Y-117827887D01*
X70921767Y-117278736D01*
X70610698Y-116813189D01*
X70145151Y-116502120D01*
X69596000Y-116392887D01*
X69046849Y-116502120D01*
X68581302Y-116813189D01*
X68326000Y-117195275D01*
X68070698Y-116813189D01*
X67605151Y-116502120D01*
X67056000Y-116392887D01*
X66506849Y-116502120D01*
X66041302Y-116813189D01*
X65786000Y-117195275D01*
X65530698Y-116813189D01*
X65278000Y-116644341D01*
X65278000Y-116078000D01*
X65219996Y-115786395D01*
X65054815Y-115539185D01*
X64807605Y-115374004D01*
X64516000Y-115316000D01*
X35255196Y-115316000D01*
X35255196Y-110207887D01*
X35395000Y-110207887D01*
X35395000Y-110264113D01*
X35504233Y-110813264D01*
X35815302Y-111278811D01*
X36280849Y-111589880D01*
X36830000Y-111699113D01*
X37379151Y-111589880D01*
X37844698Y-111278811D01*
X38100000Y-110896725D01*
X38355302Y-111278811D01*
X38820849Y-111589880D01*
X39370000Y-111699113D01*
X39919151Y-111589880D01*
X40384698Y-111278811D01*
X40640000Y-110896725D01*
X40895302Y-111278811D01*
X41360849Y-111589880D01*
X41910000Y-111699113D01*
X42459151Y-111589880D01*
X42924698Y-111278811D01*
X43180000Y-110896725D01*
X43435302Y-111278811D01*
X43900849Y-111589880D01*
X44450000Y-111699113D01*
X44999151Y-111589880D01*
X45464698Y-111278811D01*
X45720000Y-110896725D01*
X45975302Y-111278811D01*
X46440849Y-111589880D01*
X46990000Y-111699113D01*
X47539151Y-111589880D01*
X48004698Y-111278811D01*
X48260000Y-110896725D01*
X48515302Y-111278811D01*
X48980849Y-111589880D01*
X49530000Y-111699113D01*
X50079151Y-111589880D01*
X50544698Y-111278811D01*
X50800000Y-110896725D01*
X51055302Y-111278811D01*
X51520849Y-111589880D01*
X52070000Y-111699113D01*
X52619151Y-111589880D01*
X53084698Y-111278811D01*
X53340000Y-110896725D01*
X53595302Y-111278811D01*
X54060849Y-111589880D01*
X54610000Y-111699113D01*
X55159151Y-111589880D01*
X55624698Y-111278811D01*
X55935767Y-110813264D01*
X56045000Y-110264113D01*
X56045000Y-110207887D01*
X58001000Y-110207887D01*
X58001000Y-110264113D01*
X58110233Y-110813264D01*
X58421302Y-111278811D01*
X58886849Y-111589880D01*
X59436000Y-111699113D01*
X59985151Y-111589880D01*
X60450698Y-111278811D01*
X60706000Y-110896725D01*
X60961302Y-111278811D01*
X61426849Y-111589880D01*
X61976000Y-111699113D01*
X62525151Y-111589880D01*
X62990698Y-111278811D01*
X63246000Y-110896725D01*
X63501302Y-111278811D01*
X63966849Y-111589880D01*
X64516000Y-111699113D01*
X65065151Y-111589880D01*
X65530698Y-111278811D01*
X65786000Y-110896725D01*
X66041302Y-111278811D01*
X66506849Y-111589880D01*
X67056000Y-111699113D01*
X67605151Y-111589880D01*
X68070698Y-111278811D01*
X68326000Y-110896725D01*
X68581302Y-111278811D01*
X69046849Y-111589880D01*
X69596000Y-111699113D01*
X70145151Y-111589880D01*
X70610698Y-111278811D01*
X70866000Y-110896725D01*
X71121302Y-111278811D01*
X71586849Y-111589880D01*
X72136000Y-111699113D01*
X72685151Y-111589880D01*
X73150698Y-111278811D01*
X73406000Y-110896725D01*
X73661302Y-111278811D01*
X74126849Y-111589880D01*
X74676000Y-111699113D01*
X75225151Y-111589880D01*
X75690698Y-111278811D01*
X75946000Y-110896725D01*
X76201302Y-111278811D01*
X76666849Y-111589880D01*
X77216000Y-111699113D01*
X77765151Y-111589880D01*
X78230698Y-111278811D01*
X78541767Y-110813264D01*
X78651000Y-110264113D01*
X78651000Y-110207887D01*
X78541767Y-109658736D01*
X78230698Y-109193189D01*
X77765151Y-108882120D01*
X77216000Y-108772887D01*
X76666849Y-108882120D01*
X76201302Y-109193189D01*
X75946000Y-109575275D01*
X75690698Y-109193189D01*
X75225151Y-108882120D01*
X74676000Y-108772887D01*
X74126849Y-108882120D01*
X73661302Y-109193189D01*
X73406000Y-109575275D01*
X73150698Y-109193189D01*
X72685151Y-108882120D01*
X72136000Y-108772887D01*
X71586849Y-108882120D01*
X71121302Y-109193189D01*
X70866000Y-109575275D01*
X70610698Y-109193189D01*
X70145151Y-108882120D01*
X69596000Y-108772887D01*
X69046849Y-108882120D01*
X68581302Y-109193189D01*
X68326000Y-109575275D01*
X68070698Y-109193189D01*
X67605151Y-108882120D01*
X67056000Y-108772887D01*
X66506849Y-108882120D01*
X66041302Y-109193189D01*
X65786000Y-109575275D01*
X65530698Y-109193189D01*
X65065151Y-108882120D01*
X64516000Y-108772887D01*
X63966849Y-108882120D01*
X63501302Y-109193189D01*
X63246000Y-109575275D01*
X63179251Y-109475379D01*
X64405951Y-108248679D01*
X64770000Y-108321093D01*
X65338285Y-108208054D01*
X65820054Y-107886147D01*
X66040000Y-107556974D01*
X66259946Y-107886147D01*
X66741715Y-108208054D01*
X67310000Y-108321093D01*
X67878285Y-108208054D01*
X68360054Y-107886147D01*
X68681961Y-107404378D01*
X68795000Y-106836093D01*
X68795000Y-106777907D01*
X68681961Y-106209622D01*
X68360054Y-105727853D01*
X67878285Y-105405946D01*
X67310000Y-105292907D01*
X66741715Y-105405946D01*
X66259946Y-105727853D01*
X66040000Y-106057026D01*
X65820054Y-105727853D01*
X65338285Y-105405946D01*
X64770000Y-105292907D01*
X64201715Y-105405946D01*
X63719946Y-105727853D01*
X63500000Y-106057026D01*
X63280054Y-105727853D01*
X62798285Y-105405946D01*
X62230000Y-105292907D01*
X61661715Y-105405946D01*
X61179946Y-105727853D01*
X61152150Y-105769452D01*
X61143162Y-105721683D01*
X61004090Y-105505559D01*
X60791890Y-105360569D01*
X60540000Y-105309560D01*
X58840000Y-105309560D01*
X58604683Y-105353838D01*
X58388559Y-105492910D01*
X58243569Y-105705110D01*
X58192560Y-105957000D01*
X58192560Y-107657000D01*
X58236838Y-107892317D01*
X58375910Y-108108441D01*
X58588110Y-108253431D01*
X58840000Y-108304440D01*
X60540000Y-108304440D01*
X60775317Y-108260162D01*
X60991441Y-108121090D01*
X61136431Y-107908890D01*
X61150086Y-107841459D01*
X61179946Y-107886147D01*
X61661715Y-108208054D01*
X62186858Y-108312512D01*
X61664527Y-108834843D01*
X61426849Y-108882120D01*
X60961302Y-109193189D01*
X60706000Y-109575275D01*
X60450698Y-109193189D01*
X59985151Y-108882120D01*
X59436000Y-108772887D01*
X58886849Y-108882120D01*
X58421302Y-109193189D01*
X58110233Y-109658736D01*
X58001000Y-110207887D01*
X56045000Y-110207887D01*
X55935767Y-109658736D01*
X55624698Y-109193189D01*
X55159151Y-108882120D01*
X54610000Y-108772887D01*
X54060849Y-108882120D01*
X53595302Y-109193189D01*
X53340000Y-109575275D01*
X53084698Y-109193189D01*
X52619151Y-108882120D01*
X52070000Y-108772887D01*
X51520849Y-108882120D01*
X51055302Y-109193189D01*
X50800000Y-109575275D01*
X50544698Y-109193189D01*
X50079151Y-108882120D01*
X49530000Y-108772887D01*
X48980849Y-108882120D01*
X48515302Y-109193189D01*
X48260000Y-109575275D01*
X48004698Y-109193189D01*
X47539151Y-108882120D01*
X46990000Y-108772887D01*
X46440849Y-108882120D01*
X45975302Y-109193189D01*
X45720000Y-109575275D01*
X45464698Y-109193189D01*
X44999151Y-108882120D01*
X44450000Y-108772887D01*
X43900849Y-108882120D01*
X43435302Y-109193189D01*
X43180000Y-109575275D01*
X42924698Y-109193189D01*
X42459151Y-108882120D01*
X41910000Y-108772887D01*
X41360849Y-108882120D01*
X40895302Y-109193189D01*
X40640000Y-109575275D01*
X40573251Y-109475379D01*
X41799951Y-108248679D01*
X42164000Y-108321093D01*
X42732285Y-108208054D01*
X43214054Y-107886147D01*
X43434000Y-107556974D01*
X43653946Y-107886147D01*
X44135715Y-108208054D01*
X44704000Y-108321093D01*
X45272285Y-108208054D01*
X45754054Y-107886147D01*
X46075961Y-107404378D01*
X46189000Y-106836093D01*
X46189000Y-106777907D01*
X46075961Y-106209622D01*
X45754054Y-105727853D01*
X45272285Y-105405946D01*
X44704000Y-105292907D01*
X44135715Y-105405946D01*
X43653946Y-105727853D01*
X43434000Y-106057026D01*
X43214054Y-105727853D01*
X42732285Y-105405946D01*
X42164000Y-105292907D01*
X41595715Y-105405946D01*
X41113946Y-105727853D01*
X40894000Y-106057026D01*
X40674054Y-105727853D01*
X40192285Y-105405946D01*
X39624000Y-105292907D01*
X39055715Y-105405946D01*
X38573946Y-105727853D01*
X38546150Y-105769452D01*
X38537162Y-105721683D01*
X38398090Y-105505559D01*
X38185890Y-105360569D01*
X37934000Y-105309560D01*
X36234000Y-105309560D01*
X35998683Y-105353838D01*
X35782559Y-105492910D01*
X35637569Y-105705110D01*
X35586560Y-105957000D01*
X35586560Y-107657000D01*
X35630838Y-107892317D01*
X35769910Y-108108441D01*
X35982110Y-108253431D01*
X36234000Y-108304440D01*
X37934000Y-108304440D01*
X38169317Y-108260162D01*
X38385441Y-108121090D01*
X38530431Y-107908890D01*
X38544086Y-107841459D01*
X38573946Y-107886147D01*
X39055715Y-108208054D01*
X39580858Y-108312512D01*
X39058527Y-108834843D01*
X38820849Y-108882120D01*
X38355302Y-109193189D01*
X38100000Y-109575275D01*
X37844698Y-109193189D01*
X37379151Y-108882120D01*
X36830000Y-108772887D01*
X36280849Y-108882120D01*
X35815302Y-109193189D01*
X35504233Y-109658736D01*
X35395000Y-110207887D01*
X35255196Y-110207887D01*
X35255196Y-95885000D01*
X35382560Y-95885000D01*
X35382560Y-97320000D01*
X35426838Y-97555317D01*
X35565910Y-97771441D01*
X35778110Y-97916431D01*
X36030000Y-97967440D01*
X37630000Y-97967440D01*
X37865317Y-97923162D01*
X38081441Y-97784090D01*
X38226431Y-97571890D01*
X38257815Y-97416911D01*
X38355302Y-97562811D01*
X38820849Y-97873880D01*
X39263451Y-97961919D01*
X39085185Y-98140185D01*
X38920004Y-98387395D01*
X38891505Y-98530667D01*
X38573946Y-98742853D01*
X38546150Y-98784452D01*
X38537162Y-98736683D01*
X38398090Y-98520559D01*
X38185890Y-98375569D01*
X37934000Y-98324560D01*
X36234000Y-98324560D01*
X35998683Y-98368838D01*
X35782559Y-98507910D01*
X35637569Y-98720110D01*
X35586560Y-98972000D01*
X35586560Y-100672000D01*
X35630838Y-100907317D01*
X35769910Y-101123441D01*
X35982110Y-101268431D01*
X36234000Y-101319440D01*
X37934000Y-101319440D01*
X38169317Y-101275162D01*
X38385441Y-101136090D01*
X38530431Y-100923890D01*
X38544086Y-100856459D01*
X38573946Y-100901147D01*
X39055715Y-101223054D01*
X39624000Y-101336093D01*
X40192285Y-101223054D01*
X40674054Y-100901147D01*
X40894000Y-100571974D01*
X41113946Y-100901147D01*
X41595715Y-101223054D01*
X42164000Y-101336093D01*
X42732285Y-101223054D01*
X43214054Y-100901147D01*
X43434000Y-100571974D01*
X43653946Y-100901147D01*
X44135715Y-101223054D01*
X44704000Y-101336093D01*
X45272285Y-101223054D01*
X45754054Y-100901147D01*
X46075961Y-100419378D01*
X46189000Y-99851093D01*
X46189000Y-99792907D01*
X46075961Y-99224622D01*
X45790392Y-98797238D01*
X46668473Y-97919157D01*
X46990000Y-97983113D01*
X47539151Y-97873880D01*
X48004698Y-97562811D01*
X48315767Y-97097264D01*
X48425000Y-96548113D01*
X48425000Y-96491887D01*
X48315767Y-95942736D01*
X48004698Y-95477189D01*
X47854755Y-95377000D01*
X58101822Y-95377000D01*
X58039569Y-95468110D01*
X57988560Y-95720000D01*
X57988560Y-97320000D01*
X58032838Y-97555317D01*
X58171910Y-97771441D01*
X58384110Y-97916431D01*
X58636000Y-97967440D01*
X60236000Y-97967440D01*
X60471317Y-97923162D01*
X60687441Y-97784090D01*
X60832431Y-97571890D01*
X60863815Y-97416911D01*
X60961302Y-97562811D01*
X61426849Y-97873880D01*
X61869451Y-97961919D01*
X61691185Y-98140185D01*
X61526004Y-98387395D01*
X61497505Y-98530667D01*
X61179946Y-98742853D01*
X61152150Y-98784452D01*
X61143162Y-98736683D01*
X61004090Y-98520559D01*
X60791890Y-98375569D01*
X60540000Y-98324560D01*
X58840000Y-98324560D01*
X58604683Y-98368838D01*
X58388559Y-98507910D01*
X58243569Y-98720110D01*
X58192560Y-98972000D01*
X58192560Y-100672000D01*
X58236838Y-100907317D01*
X58375910Y-101123441D01*
X58588110Y-101268431D01*
X58840000Y-101319440D01*
X60540000Y-101319440D01*
X60775317Y-101275162D01*
X60991441Y-101136090D01*
X61136431Y-100923890D01*
X61150086Y-100856459D01*
X61179946Y-100901147D01*
X61661715Y-101223054D01*
X62230000Y-101336093D01*
X62798285Y-101223054D01*
X63280054Y-100901147D01*
X63500000Y-100571974D01*
X63719946Y-100901147D01*
X64201715Y-101223054D01*
X64770000Y-101336093D01*
X65338285Y-101223054D01*
X65820054Y-100901147D01*
X66040000Y-100571974D01*
X66259946Y-100901147D01*
X66741715Y-101223054D01*
X67310000Y-101336093D01*
X67878285Y-101223054D01*
X68360054Y-100901147D01*
X68681961Y-100419378D01*
X68795000Y-99851093D01*
X68795000Y-99792907D01*
X68681961Y-99224622D01*
X68396392Y-98797238D01*
X69274473Y-97919157D01*
X69596000Y-97983113D01*
X70145151Y-97873880D01*
X70610698Y-97562811D01*
X70921767Y-97097264D01*
X71031000Y-96548113D01*
X71031000Y-96491887D01*
X70921767Y-95942736D01*
X70610698Y-95477189D01*
X70145151Y-95166120D01*
X69596000Y-95056887D01*
X69046849Y-95166120D01*
X68581302Y-95477189D01*
X68326000Y-95859275D01*
X68070698Y-95477189D01*
X67605151Y-95166120D01*
X67056000Y-95056887D01*
X66506849Y-95166120D01*
X66041302Y-95477189D01*
X65786000Y-95859275D01*
X65530698Y-95477189D01*
X65278000Y-95308341D01*
X65278000Y-94615000D01*
X65219996Y-94323395D01*
X65054815Y-94076185D01*
X64807605Y-93911004D01*
X64516000Y-93853000D01*
X34417000Y-93853000D01*
X34417000Y-88871887D01*
X35395000Y-88871887D01*
X35395000Y-88928113D01*
X35504233Y-89477264D01*
X35815302Y-89942811D01*
X36280849Y-90253880D01*
X36830000Y-90363113D01*
X37379151Y-90253880D01*
X37844698Y-89942811D01*
X38100000Y-89560725D01*
X38355302Y-89942811D01*
X38820849Y-90253880D01*
X39370000Y-90363113D01*
X39919151Y-90253880D01*
X40384698Y-89942811D01*
X40640000Y-89560725D01*
X40895302Y-89942811D01*
X41360849Y-90253880D01*
X41910000Y-90363113D01*
X42459151Y-90253880D01*
X42924698Y-89942811D01*
X43180000Y-89560725D01*
X43435302Y-89942811D01*
X43900849Y-90253880D01*
X44450000Y-90363113D01*
X44999151Y-90253880D01*
X45464698Y-89942811D01*
X45720000Y-89560725D01*
X45975302Y-89942811D01*
X46440849Y-90253880D01*
X46990000Y-90363113D01*
X47539151Y-90253880D01*
X48004698Y-89942811D01*
X48260000Y-89560725D01*
X48515302Y-89942811D01*
X48980849Y-90253880D01*
X49530000Y-90363113D01*
X50079151Y-90253880D01*
X50544698Y-89942811D01*
X50800000Y-89560725D01*
X51055302Y-89942811D01*
X51520849Y-90253880D01*
X52070000Y-90363113D01*
X52619151Y-90253880D01*
X53084698Y-89942811D01*
X53340000Y-89560725D01*
X53595302Y-89942811D01*
X54060849Y-90253880D01*
X54610000Y-90363113D01*
X55159151Y-90253880D01*
X55624698Y-89942811D01*
X55935767Y-89477264D01*
X56045000Y-88928113D01*
X56045000Y-88871887D01*
X58001000Y-88871887D01*
X58001000Y-88928113D01*
X58110233Y-89477264D01*
X58421302Y-89942811D01*
X58886849Y-90253880D01*
X59436000Y-90363113D01*
X59985151Y-90253880D01*
X60450698Y-89942811D01*
X60706000Y-89560725D01*
X60961302Y-89942811D01*
X61426849Y-90253880D01*
X61976000Y-90363113D01*
X62525151Y-90253880D01*
X62990698Y-89942811D01*
X63246000Y-89560725D01*
X63501302Y-89942811D01*
X63966849Y-90253880D01*
X64516000Y-90363113D01*
X65065151Y-90253880D01*
X65530698Y-89942811D01*
X65786000Y-89560725D01*
X66041302Y-89942811D01*
X66506849Y-90253880D01*
X67056000Y-90363113D01*
X67605151Y-90253880D01*
X68070698Y-89942811D01*
X68326000Y-89560725D01*
X68581302Y-89942811D01*
X69046849Y-90253880D01*
X69596000Y-90363113D01*
X70145151Y-90253880D01*
X70610698Y-89942811D01*
X70866000Y-89560725D01*
X71121302Y-89942811D01*
X71586849Y-90253880D01*
X72136000Y-90363113D01*
X72685151Y-90253880D01*
X73150698Y-89942811D01*
X73406000Y-89560725D01*
X73661302Y-89942811D01*
X74126849Y-90253880D01*
X74676000Y-90363113D01*
X75225151Y-90253880D01*
X75690698Y-89942811D01*
X75946000Y-89560725D01*
X76201302Y-89942811D01*
X76666849Y-90253880D01*
X77216000Y-90363113D01*
X77765151Y-90253880D01*
X78230698Y-89942811D01*
X78541767Y-89477264D01*
X78651000Y-88928113D01*
X78651000Y-88871887D01*
X78541767Y-88322736D01*
X78230698Y-87857189D01*
X77765151Y-87546120D01*
X77216000Y-87436887D01*
X76666849Y-87546120D01*
X76201302Y-87857189D01*
X75946000Y-88239275D01*
X75690698Y-87857189D01*
X75225151Y-87546120D01*
X74676000Y-87436887D01*
X74126849Y-87546120D01*
X73661302Y-87857189D01*
X73406000Y-88239275D01*
X73150698Y-87857189D01*
X72685151Y-87546120D01*
X72136000Y-87436887D01*
X71586849Y-87546120D01*
X71121302Y-87857189D01*
X70866000Y-88239275D01*
X70610698Y-87857189D01*
X70145151Y-87546120D01*
X69596000Y-87436887D01*
X69046849Y-87546120D01*
X68581302Y-87857189D01*
X68326000Y-88239275D01*
X68070698Y-87857189D01*
X67605151Y-87546120D01*
X67056000Y-87436887D01*
X66506849Y-87546120D01*
X66041302Y-87857189D01*
X65786000Y-88239275D01*
X65530698Y-87857189D01*
X65065151Y-87546120D01*
X64516000Y-87436887D01*
X63966849Y-87546120D01*
X63501302Y-87857189D01*
X63246000Y-88239275D01*
X63179251Y-88139379D01*
X64405951Y-86912679D01*
X64770000Y-86985093D01*
X65338285Y-86872054D01*
X65820054Y-86550147D01*
X66040000Y-86220974D01*
X66259946Y-86550147D01*
X66741715Y-86872054D01*
X67310000Y-86985093D01*
X67878285Y-86872054D01*
X68360054Y-86550147D01*
X68681961Y-86068378D01*
X68795000Y-85500093D01*
X68795000Y-85441907D01*
X68681961Y-84873622D01*
X68360054Y-84391853D01*
X67878285Y-84069946D01*
X67310000Y-83956907D01*
X66741715Y-84069946D01*
X66259946Y-84391853D01*
X66040000Y-84721026D01*
X65820054Y-84391853D01*
X65338285Y-84069946D01*
X64770000Y-83956907D01*
X64201715Y-84069946D01*
X63719946Y-84391853D01*
X63500000Y-84721026D01*
X63280054Y-84391853D01*
X62798285Y-84069946D01*
X62230000Y-83956907D01*
X61661715Y-84069946D01*
X61179946Y-84391853D01*
X61152150Y-84433452D01*
X61143162Y-84385683D01*
X61004090Y-84169559D01*
X60791890Y-84024569D01*
X60540000Y-83973560D01*
X58840000Y-83973560D01*
X58604683Y-84017838D01*
X58388559Y-84156910D01*
X58243569Y-84369110D01*
X58192560Y-84621000D01*
X58192560Y-86321000D01*
X58236838Y-86556317D01*
X58375910Y-86772441D01*
X58588110Y-86917431D01*
X58840000Y-86968440D01*
X60540000Y-86968440D01*
X60775317Y-86924162D01*
X60991441Y-86785090D01*
X61136431Y-86572890D01*
X61150086Y-86505459D01*
X61179946Y-86550147D01*
X61661715Y-86872054D01*
X62186858Y-86976512D01*
X61664527Y-87498843D01*
X61426849Y-87546120D01*
X60961302Y-87857189D01*
X60706000Y-88239275D01*
X60450698Y-87857189D01*
X59985151Y-87546120D01*
X59436000Y-87436887D01*
X58886849Y-87546120D01*
X58421302Y-87857189D01*
X58110233Y-88322736D01*
X58001000Y-88871887D01*
X56045000Y-88871887D01*
X55935767Y-88322736D01*
X55624698Y-87857189D01*
X55159151Y-87546120D01*
X54610000Y-87436887D01*
X54060849Y-87546120D01*
X53595302Y-87857189D01*
X53340000Y-88239275D01*
X53084698Y-87857189D01*
X52619151Y-87546120D01*
X52070000Y-87436887D01*
X51520849Y-87546120D01*
X51055302Y-87857189D01*
X50800000Y-88239275D01*
X50544698Y-87857189D01*
X50079151Y-87546120D01*
X49530000Y-87436887D01*
X48980849Y-87546120D01*
X48515302Y-87857189D01*
X48260000Y-88239275D01*
X48004698Y-87857189D01*
X47539151Y-87546120D01*
X46990000Y-87436887D01*
X46440849Y-87546120D01*
X45975302Y-87857189D01*
X45720000Y-88239275D01*
X45464698Y-87857189D01*
X44999151Y-87546120D01*
X44450000Y-87436887D01*
X43900849Y-87546120D01*
X43435302Y-87857189D01*
X43180000Y-88239275D01*
X42924698Y-87857189D01*
X42459151Y-87546120D01*
X41910000Y-87436887D01*
X41360849Y-87546120D01*
X40895302Y-87857189D01*
X40640000Y-88239275D01*
X40573251Y-88139379D01*
X41799951Y-86912679D01*
X42164000Y-86985093D01*
X42732285Y-86872054D01*
X43214054Y-86550147D01*
X43434000Y-86220974D01*
X43653946Y-86550147D01*
X44135715Y-86872054D01*
X44704000Y-86985093D01*
X45272285Y-86872054D01*
X45754054Y-86550147D01*
X46075961Y-86068378D01*
X46189000Y-85500093D01*
X46189000Y-85441907D01*
X46075961Y-84873622D01*
X45754054Y-84391853D01*
X45272285Y-84069946D01*
X44704000Y-83956907D01*
X44135715Y-84069946D01*
X43653946Y-84391853D01*
X43434000Y-84721026D01*
X43214054Y-84391853D01*
X42732285Y-84069946D01*
X42164000Y-83956907D01*
X41595715Y-84069946D01*
X41113946Y-84391853D01*
X40894000Y-84721026D01*
X40674054Y-84391853D01*
X40192285Y-84069946D01*
X39624000Y-83956907D01*
X39055715Y-84069946D01*
X38573946Y-84391853D01*
X38546150Y-84433452D01*
X38537162Y-84385683D01*
X38398090Y-84169559D01*
X38185890Y-84024569D01*
X37934000Y-83973560D01*
X36234000Y-83973560D01*
X35998683Y-84017838D01*
X35782559Y-84156910D01*
X35637569Y-84369110D01*
X35586560Y-84621000D01*
X35586560Y-86321000D01*
X35630838Y-86556317D01*
X35769910Y-86772441D01*
X35982110Y-86917431D01*
X36234000Y-86968440D01*
X37934000Y-86968440D01*
X38169317Y-86924162D01*
X38385441Y-86785090D01*
X38530431Y-86572890D01*
X38544086Y-86505459D01*
X38573946Y-86550147D01*
X39055715Y-86872054D01*
X39580858Y-86976512D01*
X39058527Y-87498843D01*
X38820849Y-87546120D01*
X38355302Y-87857189D01*
X38100000Y-88239275D01*
X37844698Y-87857189D01*
X37379151Y-87546120D01*
X36830000Y-87436887D01*
X36280849Y-87546120D01*
X35815302Y-87857189D01*
X35504233Y-88322736D01*
X35395000Y-88871887D01*
X34417000Y-88871887D01*
X34417000Y-74676000D01*
X35382560Y-74676000D01*
X35382560Y-75984000D01*
X35426838Y-76219317D01*
X35565910Y-76435441D01*
X35778110Y-76580431D01*
X36030000Y-76631440D01*
X37630000Y-76631440D01*
X37865317Y-76587162D01*
X38081441Y-76448090D01*
X38226431Y-76235890D01*
X38257815Y-76080911D01*
X38355302Y-76226811D01*
X38820849Y-76537880D01*
X39263451Y-76625919D01*
X39085185Y-76804185D01*
X38920004Y-77051395D01*
X38891505Y-77194667D01*
X38573946Y-77406853D01*
X38546150Y-77448452D01*
X38537162Y-77400683D01*
X38398090Y-77184559D01*
X38185890Y-77039569D01*
X37934000Y-76988560D01*
X36234000Y-76988560D01*
X35998683Y-77032838D01*
X35782559Y-77171910D01*
X35637569Y-77384110D01*
X35586560Y-77636000D01*
X35586560Y-79336000D01*
X35630838Y-79571317D01*
X35769910Y-79787441D01*
X35982110Y-79932431D01*
X36234000Y-79983440D01*
X37934000Y-79983440D01*
X38169317Y-79939162D01*
X38385441Y-79800090D01*
X38530431Y-79587890D01*
X38544086Y-79520459D01*
X38573946Y-79565147D01*
X39055715Y-79887054D01*
X39624000Y-80000093D01*
X40192285Y-79887054D01*
X40674054Y-79565147D01*
X40894000Y-79235974D01*
X41113946Y-79565147D01*
X41595715Y-79887054D01*
X42164000Y-80000093D01*
X42732285Y-79887054D01*
X43214054Y-79565147D01*
X43434000Y-79235974D01*
X43653946Y-79565147D01*
X44135715Y-79887054D01*
X44704000Y-80000093D01*
X45272285Y-79887054D01*
X45754054Y-79565147D01*
X46075961Y-79083378D01*
X46189000Y-78515093D01*
X46189000Y-78456907D01*
X46075961Y-77888622D01*
X45790392Y-77461238D01*
X46668473Y-76583157D01*
X46990000Y-76647113D01*
X47539151Y-76537880D01*
X48004698Y-76226811D01*
X48315767Y-75761264D01*
X48425000Y-75212113D01*
X48425000Y-75155887D01*
X48315767Y-74606736D01*
X48022613Y-74168000D01*
X58032301Y-74168000D01*
X57988560Y-74384000D01*
X57988560Y-75984000D01*
X58032838Y-76219317D01*
X58171910Y-76435441D01*
X58384110Y-76580431D01*
X58636000Y-76631440D01*
X60236000Y-76631440D01*
X60471317Y-76587162D01*
X60687441Y-76448090D01*
X60832431Y-76235890D01*
X60863815Y-76080911D01*
X60961302Y-76226811D01*
X61426849Y-76537880D01*
X61869451Y-76625919D01*
X61691185Y-76804185D01*
X61526004Y-77051395D01*
X61497505Y-77194667D01*
X61179946Y-77406853D01*
X61152150Y-77448452D01*
X61143162Y-77400683D01*
X61004090Y-77184559D01*
X60791890Y-77039569D01*
X60540000Y-76988560D01*
X58840000Y-76988560D01*
X58604683Y-77032838D01*
X58388559Y-77171910D01*
X58243569Y-77384110D01*
X58192560Y-77636000D01*
X58192560Y-79336000D01*
X58236838Y-79571317D01*
X58375910Y-79787441D01*
X58588110Y-79932431D01*
X58840000Y-79983440D01*
X60540000Y-79983440D01*
X60775317Y-79939162D01*
X60991441Y-79800090D01*
X61136431Y-79587890D01*
X61150086Y-79520459D01*
X61179946Y-79565147D01*
X61661715Y-79887054D01*
X62230000Y-80000093D01*
X62798285Y-79887054D01*
X63280054Y-79565147D01*
X63500000Y-79235974D01*
X63719946Y-79565147D01*
X64201715Y-79887054D01*
X64770000Y-80000093D01*
X65338285Y-79887054D01*
X65820054Y-79565147D01*
X66040000Y-79235974D01*
X66259946Y-79565147D01*
X66741715Y-79887054D01*
X67310000Y-80000093D01*
X67878285Y-79887054D01*
X68360054Y-79565147D01*
X68681961Y-79083378D01*
X68795000Y-78515093D01*
X68795000Y-78456907D01*
X68681961Y-77888622D01*
X68396392Y-77461238D01*
X69274473Y-76583157D01*
X69596000Y-76647113D01*
X70145151Y-76537880D01*
X70610698Y-76226811D01*
X70921767Y-75761264D01*
X71031000Y-75212113D01*
X71031000Y-75155887D01*
X70921767Y-74606736D01*
X70610698Y-74141189D01*
X70145151Y-73830120D01*
X69596000Y-73720887D01*
X69046849Y-73830120D01*
X68581302Y-74141189D01*
X68326000Y-74523275D01*
X68070698Y-74141189D01*
X67605151Y-73830120D01*
X67056000Y-73720887D01*
X66506849Y-73830120D01*
X66041302Y-74141189D01*
X65786000Y-74523275D01*
X65530698Y-74141189D01*
X65278000Y-73972341D01*
X65278000Y-73406000D01*
X65219996Y-73114395D01*
X65054815Y-72867185D01*
X64807605Y-72702004D01*
X64516000Y-72644000D01*
X33604196Y-72644000D01*
X33604196Y-67535887D01*
X35395000Y-67535887D01*
X35395000Y-67592113D01*
X35504233Y-68141264D01*
X35815302Y-68606811D01*
X36280849Y-68917880D01*
X36830000Y-69027113D01*
X37379151Y-68917880D01*
X37844698Y-68606811D01*
X38100000Y-68224725D01*
X38355302Y-68606811D01*
X38820849Y-68917880D01*
X39370000Y-69027113D01*
X39919151Y-68917880D01*
X40384698Y-68606811D01*
X40640000Y-68224725D01*
X40895302Y-68606811D01*
X41360849Y-68917880D01*
X41910000Y-69027113D01*
X42459151Y-68917880D01*
X42924698Y-68606811D01*
X43180000Y-68224725D01*
X43435302Y-68606811D01*
X43900849Y-68917880D01*
X44450000Y-69027113D01*
X44999151Y-68917880D01*
X45464698Y-68606811D01*
X45720000Y-68224725D01*
X45975302Y-68606811D01*
X46440849Y-68917880D01*
X46990000Y-69027113D01*
X47539151Y-68917880D01*
X48004698Y-68606811D01*
X48260000Y-68224725D01*
X48515302Y-68606811D01*
X48980849Y-68917880D01*
X49530000Y-69027113D01*
X50079151Y-68917880D01*
X50544698Y-68606811D01*
X50800000Y-68224725D01*
X51055302Y-68606811D01*
X51520849Y-68917880D01*
X52070000Y-69027113D01*
X52619151Y-68917880D01*
X53084698Y-68606811D01*
X53340000Y-68224725D01*
X53595302Y-68606811D01*
X54060849Y-68917880D01*
X54610000Y-69027113D01*
X55159151Y-68917880D01*
X55624698Y-68606811D01*
X55935767Y-68141264D01*
X56045000Y-67592113D01*
X56045000Y-67535887D01*
X58001000Y-67535887D01*
X58001000Y-67592113D01*
X58110233Y-68141264D01*
X58421302Y-68606811D01*
X58886849Y-68917880D01*
X59436000Y-69027113D01*
X59985151Y-68917880D01*
X60450698Y-68606811D01*
X60706000Y-68224725D01*
X60961302Y-68606811D01*
X61426849Y-68917880D01*
X61976000Y-69027113D01*
X62525151Y-68917880D01*
X62990698Y-68606811D01*
X63246000Y-68224725D01*
X63501302Y-68606811D01*
X63966849Y-68917880D01*
X64516000Y-69027113D01*
X65065151Y-68917880D01*
X65530698Y-68606811D01*
X65786000Y-68224725D01*
X66041302Y-68606811D01*
X66506849Y-68917880D01*
X67056000Y-69027113D01*
X67605151Y-68917880D01*
X68070698Y-68606811D01*
X68326000Y-68224725D01*
X68581302Y-68606811D01*
X69046849Y-68917880D01*
X69596000Y-69027113D01*
X70145151Y-68917880D01*
X70610698Y-68606811D01*
X70866000Y-68224725D01*
X71121302Y-68606811D01*
X71586849Y-68917880D01*
X72136000Y-69027113D01*
X72685151Y-68917880D01*
X73150698Y-68606811D01*
X73406000Y-68224725D01*
X73661302Y-68606811D01*
X74126849Y-68917880D01*
X74676000Y-69027113D01*
X75225151Y-68917880D01*
X75690698Y-68606811D01*
X75946000Y-68224725D01*
X76201302Y-68606811D01*
X76666849Y-68917880D01*
X77216000Y-69027113D01*
X77765151Y-68917880D01*
X78230698Y-68606811D01*
X78541767Y-68141264D01*
X78651000Y-67592113D01*
X78651000Y-67535887D01*
X78541767Y-66986736D01*
X78230698Y-66521189D01*
X77765151Y-66210120D01*
X77216000Y-66100887D01*
X76666849Y-66210120D01*
X76201302Y-66521189D01*
X75946000Y-66903275D01*
X75690698Y-66521189D01*
X75225151Y-66210120D01*
X74676000Y-66100887D01*
X74126849Y-66210120D01*
X73661302Y-66521189D01*
X73406000Y-66903275D01*
X73150698Y-66521189D01*
X72685151Y-66210120D01*
X72136000Y-66100887D01*
X71586849Y-66210120D01*
X71121302Y-66521189D01*
X70866000Y-66903275D01*
X70610698Y-66521189D01*
X70145151Y-66210120D01*
X69596000Y-66100887D01*
X69046849Y-66210120D01*
X68581302Y-66521189D01*
X68326000Y-66903275D01*
X68070698Y-66521189D01*
X67605151Y-66210120D01*
X67056000Y-66100887D01*
X66506849Y-66210120D01*
X66041302Y-66521189D01*
X65786000Y-66903275D01*
X65530698Y-66521189D01*
X65065151Y-66210120D01*
X64516000Y-66100887D01*
X63966849Y-66210120D01*
X63501302Y-66521189D01*
X63246000Y-66903275D01*
X63179251Y-66803379D01*
X64405951Y-65576679D01*
X64770000Y-65649093D01*
X65338285Y-65536054D01*
X65820054Y-65214147D01*
X66040000Y-64884974D01*
X66259946Y-65214147D01*
X66741715Y-65536054D01*
X67310000Y-65649093D01*
X67878285Y-65536054D01*
X68360054Y-65214147D01*
X68681961Y-64732378D01*
X68795000Y-64164093D01*
X68795000Y-64105907D01*
X68681961Y-63537622D01*
X68360054Y-63055853D01*
X67878285Y-62733946D01*
X67310000Y-62620907D01*
X66741715Y-62733946D01*
X66259946Y-63055853D01*
X66040000Y-63385026D01*
X65820054Y-63055853D01*
X65338285Y-62733946D01*
X64770000Y-62620907D01*
X64201715Y-62733946D01*
X63719946Y-63055853D01*
X63500000Y-63385026D01*
X63280054Y-63055853D01*
X62798285Y-62733946D01*
X62230000Y-62620907D01*
X61661715Y-62733946D01*
X61179946Y-63055853D01*
X61152150Y-63097452D01*
X61143162Y-63049683D01*
X61004090Y-62833559D01*
X60791890Y-62688569D01*
X60540000Y-62637560D01*
X58840000Y-62637560D01*
X58604683Y-62681838D01*
X58388559Y-62820910D01*
X58243569Y-63033110D01*
X58192560Y-63285000D01*
X58192560Y-64985000D01*
X58236838Y-65220317D01*
X58375910Y-65436441D01*
X58588110Y-65581431D01*
X58840000Y-65632440D01*
X60540000Y-65632440D01*
X60775317Y-65588162D01*
X60991441Y-65449090D01*
X61136431Y-65236890D01*
X61150086Y-65169459D01*
X61179946Y-65214147D01*
X61661715Y-65536054D01*
X62186858Y-65640512D01*
X61664527Y-66162843D01*
X61426849Y-66210120D01*
X60961302Y-66521189D01*
X60706000Y-66903275D01*
X60450698Y-66521189D01*
X59985151Y-66210120D01*
X59436000Y-66100887D01*
X58886849Y-66210120D01*
X58421302Y-66521189D01*
X58110233Y-66986736D01*
X58001000Y-67535887D01*
X56045000Y-67535887D01*
X55935767Y-66986736D01*
X55624698Y-66521189D01*
X55159151Y-66210120D01*
X54610000Y-66100887D01*
X54060849Y-66210120D01*
X53595302Y-66521189D01*
X53340000Y-66903275D01*
X53084698Y-66521189D01*
X52619151Y-66210120D01*
X52070000Y-66100887D01*
X51520849Y-66210120D01*
X51055302Y-66521189D01*
X50800000Y-66903275D01*
X50544698Y-66521189D01*
X50079151Y-66210120D01*
X49530000Y-66100887D01*
X48980849Y-66210120D01*
X48515302Y-66521189D01*
X48260000Y-66903275D01*
X48004698Y-66521189D01*
X47539151Y-66210120D01*
X46990000Y-66100887D01*
X46440849Y-66210120D01*
X45975302Y-66521189D01*
X45720000Y-66903275D01*
X45464698Y-66521189D01*
X44999151Y-66210120D01*
X44450000Y-66100887D01*
X43900849Y-66210120D01*
X43435302Y-66521189D01*
X43180000Y-66903275D01*
X42924698Y-66521189D01*
X42459151Y-66210120D01*
X41910000Y-66100887D01*
X41360849Y-66210120D01*
X40895302Y-66521189D01*
X40640000Y-66903275D01*
X40573251Y-66803379D01*
X41799951Y-65576679D01*
X42164000Y-65649093D01*
X42732285Y-65536054D01*
X43214054Y-65214147D01*
X43434000Y-64884974D01*
X43653946Y-65214147D01*
X44135715Y-65536054D01*
X44704000Y-65649093D01*
X45272285Y-65536054D01*
X45754054Y-65214147D01*
X46075961Y-64732378D01*
X46189000Y-64164093D01*
X46189000Y-64105907D01*
X46075961Y-63537622D01*
X45754054Y-63055853D01*
X45272285Y-62733946D01*
X44704000Y-62620907D01*
X44135715Y-62733946D01*
X43653946Y-63055853D01*
X43434000Y-63385026D01*
X43214054Y-63055853D01*
X42732285Y-62733946D01*
X42164000Y-62620907D01*
X41595715Y-62733946D01*
X41113946Y-63055853D01*
X40894000Y-63385026D01*
X40674054Y-63055853D01*
X40192285Y-62733946D01*
X39624000Y-62620907D01*
X39055715Y-62733946D01*
X38573946Y-63055853D01*
X38546150Y-63097452D01*
X38537162Y-63049683D01*
X38398090Y-62833559D01*
X38185890Y-62688569D01*
X37934000Y-62637560D01*
X36234000Y-62637560D01*
X35998683Y-62681838D01*
X35782559Y-62820910D01*
X35637569Y-63033110D01*
X35586560Y-63285000D01*
X35586560Y-64985000D01*
X35630838Y-65220317D01*
X35769910Y-65436441D01*
X35982110Y-65581431D01*
X36234000Y-65632440D01*
X37934000Y-65632440D01*
X38169317Y-65588162D01*
X38385441Y-65449090D01*
X38530431Y-65236890D01*
X38544086Y-65169459D01*
X38573946Y-65214147D01*
X39055715Y-65536054D01*
X39580858Y-65640512D01*
X39058527Y-66162843D01*
X38820849Y-66210120D01*
X38355302Y-66521189D01*
X38100000Y-66903275D01*
X37844698Y-66521189D01*
X37379151Y-66210120D01*
X36830000Y-66100887D01*
X36280849Y-66210120D01*
X35815302Y-66521189D01*
X35504233Y-66986736D01*
X35395000Y-67535887D01*
X33604196Y-67535887D01*
X33604196Y-53340000D01*
X35382560Y-53340000D01*
X35382560Y-54648000D01*
X35426838Y-54883317D01*
X35565910Y-55099441D01*
X35778110Y-55244431D01*
X36030000Y-55295440D01*
X37630000Y-55295440D01*
X37865317Y-55251162D01*
X38081441Y-55112090D01*
X38226431Y-54899890D01*
X38257815Y-54744911D01*
X38355302Y-54890811D01*
X38820849Y-55201880D01*
X39263451Y-55289919D01*
X39085185Y-55468185D01*
X38920004Y-55715395D01*
X38891505Y-55858667D01*
X38573946Y-56070853D01*
X38546150Y-56112452D01*
X38537162Y-56064683D01*
X38398090Y-55848559D01*
X38185890Y-55703569D01*
X37934000Y-55652560D01*
X36234000Y-55652560D01*
X35998683Y-55696838D01*
X35782559Y-55835910D01*
X35637569Y-56048110D01*
X35586560Y-56300000D01*
X35586560Y-58000000D01*
X35630838Y-58235317D01*
X35769910Y-58451441D01*
X35982110Y-58596431D01*
X36234000Y-58647440D01*
X37934000Y-58647440D01*
X38169317Y-58603162D01*
X38385441Y-58464090D01*
X38530431Y-58251890D01*
X38544086Y-58184459D01*
X38573946Y-58229147D01*
X39055715Y-58551054D01*
X39624000Y-58664093D01*
X40192285Y-58551054D01*
X40674054Y-58229147D01*
X40894000Y-57899974D01*
X41113946Y-58229147D01*
X41595715Y-58551054D01*
X42164000Y-58664093D01*
X42732285Y-58551054D01*
X43214054Y-58229147D01*
X43434000Y-57899974D01*
X43653946Y-58229147D01*
X44135715Y-58551054D01*
X44704000Y-58664093D01*
X45272285Y-58551054D01*
X45754054Y-58229147D01*
X46075961Y-57747378D01*
X46189000Y-57179093D01*
X46189000Y-57120907D01*
X46075961Y-56552622D01*
X45790392Y-56125238D01*
X46668473Y-55247157D01*
X46990000Y-55311113D01*
X47539151Y-55201880D01*
X48004698Y-54890811D01*
X48315767Y-54425264D01*
X48425000Y-53876113D01*
X48425000Y-53819887D01*
X48315767Y-53270736D01*
X48022613Y-52832000D01*
X58032301Y-52832000D01*
X57988560Y-53048000D01*
X57988560Y-54648000D01*
X58032838Y-54883317D01*
X58171910Y-55099441D01*
X58384110Y-55244431D01*
X58636000Y-55295440D01*
X60236000Y-55295440D01*
X60471317Y-55251162D01*
X60687441Y-55112090D01*
X60832431Y-54899890D01*
X60863815Y-54744911D01*
X60961302Y-54890811D01*
X61426849Y-55201880D01*
X61869451Y-55289919D01*
X61691185Y-55468185D01*
X61526004Y-55715395D01*
X61497505Y-55858667D01*
X61179946Y-56070853D01*
X61152150Y-56112452D01*
X61143162Y-56064683D01*
X61004090Y-55848559D01*
X60791890Y-55703569D01*
X60540000Y-55652560D01*
X58840000Y-55652560D01*
X58604683Y-55696838D01*
X58388559Y-55835910D01*
X58243569Y-56048110D01*
X58192560Y-56300000D01*
X58192560Y-58000000D01*
X58236838Y-58235317D01*
X58375910Y-58451441D01*
X58588110Y-58596431D01*
X58840000Y-58647440D01*
X60540000Y-58647440D01*
X60775317Y-58603162D01*
X60991441Y-58464090D01*
X61136431Y-58251890D01*
X61150086Y-58184459D01*
X61179946Y-58229147D01*
X61661715Y-58551054D01*
X62230000Y-58664093D01*
X62798285Y-58551054D01*
X63280054Y-58229147D01*
X63500000Y-57899974D01*
X63719946Y-58229147D01*
X64201715Y-58551054D01*
X64770000Y-58664093D01*
X65338285Y-58551054D01*
X65820054Y-58229147D01*
X66040000Y-57899974D01*
X66259946Y-58229147D01*
X66741715Y-58551054D01*
X67310000Y-58664093D01*
X67878285Y-58551054D01*
X68360054Y-58229147D01*
X68681961Y-57747378D01*
X68795000Y-57179093D01*
X68795000Y-57120907D01*
X68681961Y-56552622D01*
X68396392Y-56125238D01*
X69274473Y-55247157D01*
X69596000Y-55311113D01*
X70145151Y-55201880D01*
X70610698Y-54890811D01*
X70921767Y-54425264D01*
X71031000Y-53876113D01*
X71031000Y-53819887D01*
X70921767Y-53270736D01*
X70610698Y-52805189D01*
X70145151Y-52494120D01*
X69596000Y-52384887D01*
X69046849Y-52494120D01*
X68581302Y-52805189D01*
X68326000Y-53187275D01*
X68070698Y-52805189D01*
X67605151Y-52494120D01*
X67056000Y-52384887D01*
X66506849Y-52494120D01*
X66041302Y-52805189D01*
X65786000Y-53187275D01*
X65530698Y-52805189D01*
X65278000Y-52636341D01*
X65278000Y-52070000D01*
X65219996Y-51778395D01*
X65054815Y-51531185D01*
X64807605Y-51366004D01*
X64516000Y-51308000D01*
X32512000Y-51308000D01*
X32220396Y-51366003D01*
X31973185Y-51531184D01*
X31896979Y-51607391D01*
X31731798Y-51854601D01*
X31673794Y-52146206D01*
X31673794Y-103124000D01*
X29719618Y-103124000D01*
X29527147Y-102835946D01*
X29045378Y-102514039D01*
X28477093Y-102401000D01*
X28418907Y-102401000D01*
X27850622Y-102514039D01*
X27368853Y-102835946D01*
X27046946Y-103317715D01*
X26933907Y-103886000D01*
X24967000Y-103886000D01*
X24967000Y-98806000D01*
X26933907Y-98806000D01*
X27046946Y-99374285D01*
X27368853Y-99856054D01*
X27850622Y-100177961D01*
X28418907Y-100291000D01*
X28477093Y-100291000D01*
X29045378Y-100177961D01*
X29527147Y-99856054D01*
X29849054Y-99374285D01*
X29962093Y-98806000D01*
X29849054Y-98237715D01*
X29527147Y-97755946D01*
X29045378Y-97434039D01*
X28477093Y-97321000D01*
X28418907Y-97321000D01*
X27850622Y-97434039D01*
X27368853Y-97755946D01*
X27046946Y-98237715D01*
X26933907Y-98806000D01*
X24967000Y-98806000D01*
X24967000Y-74930000D01*
X28330907Y-74930000D01*
X28443946Y-75498285D01*
X28765853Y-75980054D01*
X29095026Y-76200000D01*
X28765853Y-76419946D01*
X28443946Y-76901715D01*
X28330907Y-77470000D01*
X28443946Y-78038285D01*
X28765853Y-78520054D01*
X29095026Y-78740000D01*
X28765853Y-78959946D01*
X28443946Y-79441715D01*
X28330907Y-80010000D01*
X28443946Y-80578285D01*
X28765853Y-81060054D01*
X29095026Y-81280000D01*
X28765853Y-81499946D01*
X28443946Y-81981715D01*
X28330907Y-82550000D01*
X28443946Y-83118285D01*
X28765853Y-83600054D01*
X29095026Y-83820000D01*
X28765853Y-84039946D01*
X28443946Y-84521715D01*
X28330907Y-85090000D01*
X28443946Y-85658285D01*
X28765853Y-86140054D01*
X29095026Y-86360000D01*
X28765853Y-86579946D01*
X28443946Y-87061715D01*
X28330907Y-87630000D01*
X28443946Y-88198285D01*
X28765853Y-88680054D01*
X29095026Y-88900000D01*
X28765853Y-89119946D01*
X28443946Y-89601715D01*
X28330907Y-90170000D01*
X28443946Y-90738285D01*
X28765853Y-91220054D01*
X29095026Y-91440000D01*
X28765853Y-91659946D01*
X28443946Y-92141715D01*
X28330907Y-92710000D01*
X28443946Y-93278285D01*
X28765853Y-93760054D01*
X29247622Y-94081961D01*
X29815907Y-94195000D01*
X29874093Y-94195000D01*
X30442378Y-94081961D01*
X30924147Y-93760054D01*
X31246054Y-93278285D01*
X31359093Y-92710000D01*
X31246054Y-92141715D01*
X30924147Y-91659946D01*
X30594974Y-91440000D01*
X30924147Y-91220054D01*
X31246054Y-90738285D01*
X31359093Y-90170000D01*
X31246054Y-89601715D01*
X30924147Y-89119946D01*
X30594974Y-88900000D01*
X30924147Y-88680054D01*
X31246054Y-88198285D01*
X31359093Y-87630000D01*
X31246054Y-87061715D01*
X30924147Y-86579946D01*
X30594974Y-86360000D01*
X30924147Y-86140054D01*
X31246054Y-85658285D01*
X31359093Y-85090000D01*
X31246054Y-84521715D01*
X30924147Y-84039946D01*
X30594974Y-83820000D01*
X30924147Y-83600054D01*
X31246054Y-83118285D01*
X31359093Y-82550000D01*
X31246054Y-81981715D01*
X30924147Y-81499946D01*
X30594974Y-81280000D01*
X30924147Y-81060054D01*
X31246054Y-80578285D01*
X31359093Y-80010000D01*
X31246054Y-79441715D01*
X30924147Y-78959946D01*
X30594974Y-78740000D01*
X30924147Y-78520054D01*
X31246054Y-78038285D01*
X31359093Y-77470000D01*
X31246054Y-76901715D01*
X30924147Y-76419946D01*
X30594974Y-76200000D01*
X30924147Y-75980054D01*
X31246054Y-75498285D01*
X31359093Y-74930000D01*
X31246054Y-74361715D01*
X30924147Y-73879946D01*
X30442378Y-73558039D01*
X29874093Y-73445000D01*
X29815907Y-73445000D01*
X29247622Y-73558039D01*
X28765853Y-73879946D01*
X28443946Y-74361715D01*
X28330907Y-74930000D01*
X24967000Y-74930000D01*
X24967000Y-46199887D01*
X35395000Y-46199887D01*
X35395000Y-46256113D01*
X35504233Y-46805264D01*
X35815302Y-47270811D01*
X36280849Y-47581880D01*
X36830000Y-47691113D01*
X37379151Y-47581880D01*
X37844698Y-47270811D01*
X38100000Y-46888725D01*
X38355302Y-47270811D01*
X38820849Y-47581880D01*
X39370000Y-47691113D01*
X39919151Y-47581880D01*
X40384698Y-47270811D01*
X40640000Y-46888725D01*
X40895302Y-47270811D01*
X41360849Y-47581880D01*
X41910000Y-47691113D01*
X42459151Y-47581880D01*
X42924698Y-47270811D01*
X43180000Y-46888725D01*
X43435302Y-47270811D01*
X43900849Y-47581880D01*
X44450000Y-47691113D01*
X44999151Y-47581880D01*
X45464698Y-47270811D01*
X45720000Y-46888725D01*
X45975302Y-47270811D01*
X46440849Y-47581880D01*
X46990000Y-47691113D01*
X47539151Y-47581880D01*
X48004698Y-47270811D01*
X48260000Y-46888725D01*
X48515302Y-47270811D01*
X48980849Y-47581880D01*
X49530000Y-47691113D01*
X50079151Y-47581880D01*
X50544698Y-47270811D01*
X50800000Y-46888725D01*
X51055302Y-47270811D01*
X51520849Y-47581880D01*
X52070000Y-47691113D01*
X52619151Y-47581880D01*
X53084698Y-47270811D01*
X53340000Y-46888725D01*
X53595302Y-47270811D01*
X54060849Y-47581880D01*
X54610000Y-47691113D01*
X55159151Y-47581880D01*
X55624698Y-47270811D01*
X55935767Y-46805264D01*
X56045000Y-46256113D01*
X56045000Y-46199887D01*
X58001000Y-46199887D01*
X58001000Y-46256113D01*
X58110233Y-46805264D01*
X58421302Y-47270811D01*
X58886849Y-47581880D01*
X59436000Y-47691113D01*
X59985151Y-47581880D01*
X60450698Y-47270811D01*
X60706000Y-46888725D01*
X60961302Y-47270811D01*
X61426849Y-47581880D01*
X61976000Y-47691113D01*
X62525151Y-47581880D01*
X62990698Y-47270811D01*
X63246000Y-46888725D01*
X63501302Y-47270811D01*
X63966849Y-47581880D01*
X64516000Y-47691113D01*
X65065151Y-47581880D01*
X65530698Y-47270811D01*
X65786000Y-46888725D01*
X66041302Y-47270811D01*
X66506849Y-47581880D01*
X67056000Y-47691113D01*
X67605151Y-47581880D01*
X68070698Y-47270811D01*
X68326000Y-46888725D01*
X68581302Y-47270811D01*
X69046849Y-47581880D01*
X69596000Y-47691113D01*
X70145151Y-47581880D01*
X70610698Y-47270811D01*
X70866000Y-46888725D01*
X71121302Y-47270811D01*
X71586849Y-47581880D01*
X72136000Y-47691113D01*
X72685151Y-47581880D01*
X73150698Y-47270811D01*
X73406000Y-46888725D01*
X73661302Y-47270811D01*
X74126849Y-47581880D01*
X74676000Y-47691113D01*
X75225151Y-47581880D01*
X75690698Y-47270811D01*
X75946000Y-46888725D01*
X76201302Y-47270811D01*
X76666849Y-47581880D01*
X77216000Y-47691113D01*
X77765151Y-47581880D01*
X78230698Y-47270811D01*
X78541767Y-46805264D01*
X78651000Y-46256113D01*
X78651000Y-46199887D01*
X78541767Y-45650736D01*
X78230698Y-45185189D01*
X77765151Y-44874120D01*
X77216000Y-44764887D01*
X76666849Y-44874120D01*
X76201302Y-45185189D01*
X75946000Y-45567275D01*
X75690698Y-45185189D01*
X75225151Y-44874120D01*
X74676000Y-44764887D01*
X74126849Y-44874120D01*
X73661302Y-45185189D01*
X73406000Y-45567275D01*
X73150698Y-45185189D01*
X72685151Y-44874120D01*
X72136000Y-44764887D01*
X71586849Y-44874120D01*
X71121302Y-45185189D01*
X70866000Y-45567275D01*
X70610698Y-45185189D01*
X70145151Y-44874120D01*
X69596000Y-44764887D01*
X69046849Y-44874120D01*
X68581302Y-45185189D01*
X68326000Y-45567275D01*
X68070698Y-45185189D01*
X67605151Y-44874120D01*
X67056000Y-44764887D01*
X66506849Y-44874120D01*
X66041302Y-45185189D01*
X65786000Y-45567275D01*
X65530698Y-45185189D01*
X65065151Y-44874120D01*
X64516000Y-44764887D01*
X63966849Y-44874120D01*
X63501302Y-45185189D01*
X63246000Y-45567275D01*
X63179251Y-45467379D01*
X64405951Y-44240679D01*
X64770000Y-44313093D01*
X65338285Y-44200054D01*
X65820054Y-43878147D01*
X66040000Y-43548974D01*
X66259946Y-43878147D01*
X66741715Y-44200054D01*
X67310000Y-44313093D01*
X67878285Y-44200054D01*
X68360054Y-43878147D01*
X68681961Y-43396378D01*
X68795000Y-42828093D01*
X68795000Y-42769907D01*
X68681961Y-42201622D01*
X68360054Y-41719853D01*
X67878285Y-41397946D01*
X67310000Y-41284907D01*
X66741715Y-41397946D01*
X66259946Y-41719853D01*
X66040000Y-42049026D01*
X65820054Y-41719853D01*
X65338285Y-41397946D01*
X64770000Y-41284907D01*
X64201715Y-41397946D01*
X63719946Y-41719853D01*
X63500000Y-42049026D01*
X63280054Y-41719853D01*
X62798285Y-41397946D01*
X62230000Y-41284907D01*
X61661715Y-41397946D01*
X61179946Y-41719853D01*
X61152150Y-41761452D01*
X61143162Y-41713683D01*
X61004090Y-41497559D01*
X60791890Y-41352569D01*
X60540000Y-41301560D01*
X58840000Y-41301560D01*
X58604683Y-41345838D01*
X58388559Y-41484910D01*
X58243569Y-41697110D01*
X58192560Y-41949000D01*
X58192560Y-43649000D01*
X58236838Y-43884317D01*
X58375910Y-44100441D01*
X58588110Y-44245431D01*
X58840000Y-44296440D01*
X60540000Y-44296440D01*
X60775317Y-44252162D01*
X60991441Y-44113090D01*
X61136431Y-43900890D01*
X61150086Y-43833459D01*
X61179946Y-43878147D01*
X61661715Y-44200054D01*
X62186858Y-44304512D01*
X61664527Y-44826843D01*
X61426849Y-44874120D01*
X60961302Y-45185189D01*
X60706000Y-45567275D01*
X60450698Y-45185189D01*
X59985151Y-44874120D01*
X59436000Y-44764887D01*
X58886849Y-44874120D01*
X58421302Y-45185189D01*
X58110233Y-45650736D01*
X58001000Y-46199887D01*
X56045000Y-46199887D01*
X55935767Y-45650736D01*
X55624698Y-45185189D01*
X55159151Y-44874120D01*
X54610000Y-44764887D01*
X54060849Y-44874120D01*
X53595302Y-45185189D01*
X53340000Y-45567275D01*
X53084698Y-45185189D01*
X52619151Y-44874120D01*
X52070000Y-44764887D01*
X51520849Y-44874120D01*
X51055302Y-45185189D01*
X50800000Y-45567275D01*
X50544698Y-45185189D01*
X50079151Y-44874120D01*
X49530000Y-44764887D01*
X48980849Y-44874120D01*
X48515302Y-45185189D01*
X48260000Y-45567275D01*
X48004698Y-45185189D01*
X47539151Y-44874120D01*
X46990000Y-44764887D01*
X46440849Y-44874120D01*
X45975302Y-45185189D01*
X45720000Y-45567275D01*
X45464698Y-45185189D01*
X44999151Y-44874120D01*
X44450000Y-44764887D01*
X43900849Y-44874120D01*
X43435302Y-45185189D01*
X43180000Y-45567275D01*
X42924698Y-45185189D01*
X42459151Y-44874120D01*
X41910000Y-44764887D01*
X41360849Y-44874120D01*
X40895302Y-45185189D01*
X40640000Y-45567275D01*
X40573251Y-45467379D01*
X41799951Y-44240679D01*
X42164000Y-44313093D01*
X42732285Y-44200054D01*
X43214054Y-43878147D01*
X43434000Y-43548974D01*
X43653946Y-43878147D01*
X44135715Y-44200054D01*
X44704000Y-44313093D01*
X45272285Y-44200054D01*
X45754054Y-43878147D01*
X46075961Y-43396378D01*
X46189000Y-42828093D01*
X46189000Y-42769907D01*
X46075961Y-42201622D01*
X45754054Y-41719853D01*
X45272285Y-41397946D01*
X44704000Y-41284907D01*
X44135715Y-41397946D01*
X43653946Y-41719853D01*
X43434000Y-42049026D01*
X43214054Y-41719853D01*
X42732285Y-41397946D01*
X42164000Y-41284907D01*
X41595715Y-41397946D01*
X41113946Y-41719853D01*
X40894000Y-42049026D01*
X40674054Y-41719853D01*
X40192285Y-41397946D01*
X39624000Y-41284907D01*
X39055715Y-41397946D01*
X38573946Y-41719853D01*
X38546150Y-41761452D01*
X38537162Y-41713683D01*
X38398090Y-41497559D01*
X38185890Y-41352569D01*
X37934000Y-41301560D01*
X36234000Y-41301560D01*
X35998683Y-41345838D01*
X35782559Y-41484910D01*
X35637569Y-41697110D01*
X35586560Y-41949000D01*
X35586560Y-43649000D01*
X35630838Y-43884317D01*
X35769910Y-44100441D01*
X35982110Y-44245431D01*
X36234000Y-44296440D01*
X37934000Y-44296440D01*
X38169317Y-44252162D01*
X38385441Y-44113090D01*
X38530431Y-43900890D01*
X38544086Y-43833459D01*
X38573946Y-43878147D01*
X39055715Y-44200054D01*
X39580858Y-44304512D01*
X39058527Y-44826843D01*
X38820849Y-44874120D01*
X38355302Y-45185189D01*
X38100000Y-45567275D01*
X37844698Y-45185189D01*
X37379151Y-44874120D01*
X36830000Y-44764887D01*
X36280849Y-44874120D01*
X35815302Y-45185189D01*
X35504233Y-45650736D01*
X35395000Y-46199887D01*
X24967000Y-46199887D01*
X24967000Y-36510619D01*
X26085613Y-36510619D01*
X26425155Y-37332372D01*
X27053321Y-37961636D01*
X27874481Y-38302611D01*
X28763619Y-38303387D01*
X29585372Y-37963845D01*
X30214636Y-37335679D01*
X30555611Y-36514519D01*
X30555614Y-36510619D01*
X78790613Y-36510619D01*
X79130155Y-37332372D01*
X79758321Y-37961636D01*
X80579481Y-38302611D01*
X81468619Y-38303387D01*
X82290372Y-37963845D01*
X82919636Y-37335679D01*
X83260611Y-36514519D01*
X83261387Y-35625381D01*
X82921845Y-34803628D01*
X82293679Y-34174364D01*
X81472519Y-33833389D01*
X80583381Y-33832613D01*
X79761628Y-34172155D01*
X79132364Y-34800321D01*
X78791389Y-35621481D01*
X78790613Y-36510619D01*
X30555614Y-36510619D01*
X30556387Y-35625381D01*
X30216845Y-34803628D01*
X29588679Y-34174364D01*
X28767519Y-33833389D01*
X27878381Y-33832613D01*
X27056628Y-34172155D01*
X26427364Y-34800321D01*
X26086389Y-35621481D01*
X26085613Y-36510619D01*
X24967000Y-36510619D01*
X24967000Y-32714000D01*
X84380000Y-32714000D01*
X84380000Y-137847000D01*
X84380000Y-137847000D01*
G37*
X84380000Y-137847000D02*
X24967000Y-137847000D01*
X24967000Y-134935619D01*
X26085613Y-134935619D01*
X26425155Y-135757372D01*
X27053321Y-136386636D01*
X27874481Y-136727611D01*
X28763619Y-136728387D01*
X29585372Y-136388845D01*
X30214636Y-135760679D01*
X30555611Y-134939519D01*
X30555614Y-134935619D01*
X78790613Y-134935619D01*
X79130155Y-135757372D01*
X79758321Y-136386636D01*
X80579481Y-136727611D01*
X81468619Y-136728387D01*
X82290372Y-136388845D01*
X82919636Y-135760679D01*
X83260611Y-134939519D01*
X83261387Y-134050381D01*
X82921845Y-133228628D01*
X82293679Y-132599364D01*
X81472519Y-132258389D01*
X80583381Y-132257613D01*
X79761628Y-132597155D01*
X79132364Y-133225321D01*
X78791389Y-134046481D01*
X78790613Y-134935619D01*
X30555614Y-134935619D01*
X30556387Y-134050381D01*
X30216845Y-133228628D01*
X29588679Y-132599364D01*
X28767519Y-132258389D01*
X27878381Y-132257613D01*
X27056628Y-132597155D01*
X26427364Y-133225321D01*
X26086389Y-134046481D01*
X26085613Y-134935619D01*
X24967000Y-134935619D01*
X24967000Y-103886000D01*
X26933907Y-103886000D01*
X27046946Y-104454285D01*
X27368853Y-104936054D01*
X27698026Y-105156000D01*
X27368853Y-105375946D01*
X27046946Y-105857715D01*
X26933907Y-106426000D01*
X27046946Y-106994285D01*
X27368853Y-107476054D01*
X27698026Y-107696000D01*
X27368853Y-107915946D01*
X27046946Y-108397715D01*
X26933907Y-108966000D01*
X27046946Y-109534285D01*
X27368853Y-110016054D01*
X27698026Y-110236000D01*
X27368853Y-110455946D01*
X27046946Y-110937715D01*
X26933907Y-111506000D01*
X27046946Y-112074285D01*
X27368853Y-112556054D01*
X27698026Y-112776000D01*
X27368853Y-112995946D01*
X27046946Y-113477715D01*
X26933907Y-114046000D01*
X27046946Y-114614285D01*
X27368853Y-115096054D01*
X27698026Y-115316000D01*
X27368853Y-115535946D01*
X27046946Y-116017715D01*
X26933907Y-116586000D01*
X27046946Y-117154285D01*
X27368853Y-117636054D01*
X27698026Y-117856000D01*
X27368853Y-118075946D01*
X27046946Y-118557715D01*
X26933907Y-119126000D01*
X27046946Y-119694285D01*
X27368853Y-120176054D01*
X27698026Y-120396000D01*
X27368853Y-120615946D01*
X27046946Y-121097715D01*
X26933907Y-121666000D01*
X27046946Y-122234285D01*
X27368853Y-122716054D01*
X27698026Y-122936000D01*
X27368853Y-123155946D01*
X27046946Y-123637715D01*
X26933907Y-124206000D01*
X27046946Y-124774285D01*
X27368853Y-125256054D01*
X27698026Y-125476000D01*
X27368853Y-125695946D01*
X27046946Y-126177715D01*
X26933907Y-126746000D01*
X27046946Y-127314285D01*
X27368853Y-127796054D01*
X27410452Y-127823850D01*
X27362683Y-127832838D01*
X27146559Y-127971910D01*
X27001569Y-128184110D01*
X26950560Y-128436000D01*
X26950560Y-130136000D01*
X26994838Y-130371317D01*
X27133910Y-130587441D01*
X27346110Y-130732431D01*
X27598000Y-130783440D01*
X29298000Y-130783440D01*
X29533317Y-130739162D01*
X29749441Y-130600090D01*
X29894431Y-130387890D01*
X29945440Y-130136000D01*
X29945440Y-130048000D01*
X55258917Y-130048000D01*
X55325341Y-130114540D01*
X55684630Y-130263730D01*
X56073663Y-130264069D01*
X56433212Y-130115507D01*
X56500837Y-130048000D01*
X77864917Y-130048000D01*
X77931341Y-130114540D01*
X78290630Y-130263730D01*
X78679663Y-130264069D01*
X79039212Y-130115507D01*
X79314540Y-129840659D01*
X79463730Y-129481370D01*
X79464069Y-129092337D01*
X79315507Y-128732788D01*
X79040659Y-128457460D01*
X78681370Y-128308270D01*
X78292337Y-128307931D01*
X77932788Y-128456493D01*
X77865163Y-128524000D01*
X56501083Y-128524000D01*
X56434659Y-128457460D01*
X56075370Y-128308270D01*
X55686337Y-128307931D01*
X55326788Y-128456493D01*
X55259163Y-128524000D01*
X29945440Y-128524000D01*
X29945440Y-128436000D01*
X29901162Y-128200683D01*
X29762090Y-127984559D01*
X29549890Y-127839569D01*
X29482459Y-127825914D01*
X29527147Y-127796054D01*
X29719618Y-127508000D01*
X52718917Y-127508000D01*
X52785341Y-127574540D01*
X53144630Y-127723730D01*
X53533663Y-127724069D01*
X53893212Y-127575507D01*
X53960837Y-127508000D01*
X75324917Y-127508000D01*
X75391341Y-127574540D01*
X75750630Y-127723730D01*
X76139663Y-127724069D01*
X76499212Y-127575507D01*
X76774540Y-127300659D01*
X76923730Y-126941370D01*
X76924069Y-126552337D01*
X76775507Y-126192788D01*
X76500659Y-125917460D01*
X76141370Y-125768270D01*
X75752337Y-125767931D01*
X75392788Y-125916493D01*
X75325163Y-125984000D01*
X53961083Y-125984000D01*
X53894659Y-125917460D01*
X53535370Y-125768270D01*
X53146337Y-125767931D01*
X52786788Y-125916493D01*
X52719163Y-125984000D01*
X29719618Y-125984000D01*
X29527147Y-125695946D01*
X29197974Y-125476000D01*
X29527147Y-125256054D01*
X29719618Y-124968000D01*
X50178917Y-124968000D01*
X50245341Y-125034540D01*
X50604630Y-125183730D01*
X50993663Y-125184069D01*
X51353212Y-125035507D01*
X51420837Y-124968000D01*
X72784917Y-124968000D01*
X72851341Y-125034540D01*
X73210630Y-125183730D01*
X73599663Y-125184069D01*
X73959212Y-125035507D01*
X74234540Y-124760659D01*
X74383730Y-124401370D01*
X74384069Y-124012337D01*
X74235507Y-123652788D01*
X73960659Y-123377460D01*
X73601370Y-123228270D01*
X73212337Y-123227931D01*
X72852788Y-123376493D01*
X72785163Y-123444000D01*
X51421083Y-123444000D01*
X51354659Y-123377460D01*
X50995370Y-123228270D01*
X50606337Y-123227931D01*
X50246788Y-123376493D01*
X50179163Y-123444000D01*
X29719618Y-123444000D01*
X29527147Y-123155946D01*
X29197974Y-122936000D01*
X29527147Y-122716054D01*
X29719618Y-122428000D01*
X35306000Y-122428000D01*
X35597605Y-122369996D01*
X35677851Y-122316377D01*
X35769910Y-122459441D01*
X35982110Y-122604431D01*
X36234000Y-122655440D01*
X37934000Y-122655440D01*
X38169317Y-122611162D01*
X38385441Y-122472090D01*
X38530431Y-122259890D01*
X38544086Y-122192459D01*
X38573946Y-122237147D01*
X39055715Y-122559054D01*
X39624000Y-122672093D01*
X40192285Y-122559054D01*
X40674054Y-122237147D01*
X40894000Y-121907974D01*
X41113946Y-122237147D01*
X41595715Y-122559054D01*
X42164000Y-122672093D01*
X42732285Y-122559054D01*
X43214054Y-122237147D01*
X43434000Y-121907974D01*
X43653946Y-122237147D01*
X44135715Y-122559054D01*
X44704000Y-122672093D01*
X45272285Y-122559054D01*
X45754054Y-122237147D01*
X46075961Y-121755378D01*
X46189000Y-121187093D01*
X46189000Y-121128907D01*
X46075961Y-120560622D01*
X45790392Y-120133238D01*
X46668473Y-119255157D01*
X46990000Y-119319113D01*
X47539151Y-119209880D01*
X48004698Y-118898811D01*
X48315767Y-118433264D01*
X48425000Y-117884113D01*
X48425000Y-117827887D01*
X48315767Y-117278736D01*
X48022613Y-116840000D01*
X58032301Y-116840000D01*
X57988560Y-117056000D01*
X57988560Y-118656000D01*
X58032838Y-118891317D01*
X58171910Y-119107441D01*
X58384110Y-119252431D01*
X58636000Y-119303440D01*
X60236000Y-119303440D01*
X60471317Y-119259162D01*
X60687441Y-119120090D01*
X60832431Y-118907890D01*
X60863815Y-118752911D01*
X60961302Y-118898811D01*
X61426849Y-119209880D01*
X61869451Y-119297919D01*
X61691185Y-119476185D01*
X61526004Y-119723395D01*
X61497505Y-119866667D01*
X61179946Y-120078853D01*
X61152150Y-120120452D01*
X61143162Y-120072683D01*
X61004090Y-119856559D01*
X60791890Y-119711569D01*
X60540000Y-119660560D01*
X58840000Y-119660560D01*
X58604683Y-119704838D01*
X58388559Y-119843910D01*
X58243569Y-120056110D01*
X58192560Y-120308000D01*
X58192560Y-122008000D01*
X58236838Y-122243317D01*
X58375910Y-122459441D01*
X58588110Y-122604431D01*
X58840000Y-122655440D01*
X60540000Y-122655440D01*
X60775317Y-122611162D01*
X60991441Y-122472090D01*
X61136431Y-122259890D01*
X61150086Y-122192459D01*
X61179946Y-122237147D01*
X61661715Y-122559054D01*
X62230000Y-122672093D01*
X62798285Y-122559054D01*
X63280054Y-122237147D01*
X63500000Y-121907974D01*
X63719946Y-122237147D01*
X64201715Y-122559054D01*
X64770000Y-122672093D01*
X65338285Y-122559054D01*
X65820054Y-122237147D01*
X66040000Y-121907974D01*
X66259946Y-122237147D01*
X66741715Y-122559054D01*
X67310000Y-122672093D01*
X67878285Y-122559054D01*
X68360054Y-122237147D01*
X68681961Y-121755378D01*
X68795000Y-121187093D01*
X68795000Y-121128907D01*
X68681961Y-120560622D01*
X68396392Y-120133238D01*
X69274473Y-119255157D01*
X69596000Y-119319113D01*
X70145151Y-119209880D01*
X70610698Y-118898811D01*
X70921767Y-118433264D01*
X71031000Y-117884113D01*
X71031000Y-117827887D01*
X70921767Y-117278736D01*
X70610698Y-116813189D01*
X70145151Y-116502120D01*
X69596000Y-116392887D01*
X69046849Y-116502120D01*
X68581302Y-116813189D01*
X68326000Y-117195275D01*
X68070698Y-116813189D01*
X67605151Y-116502120D01*
X67056000Y-116392887D01*
X66506849Y-116502120D01*
X66041302Y-116813189D01*
X65786000Y-117195275D01*
X65530698Y-116813189D01*
X65278000Y-116644341D01*
X65278000Y-116078000D01*
X65219996Y-115786395D01*
X65054815Y-115539185D01*
X64807605Y-115374004D01*
X64516000Y-115316000D01*
X35255196Y-115316000D01*
X35255196Y-110207887D01*
X35395000Y-110207887D01*
X35395000Y-110264113D01*
X35504233Y-110813264D01*
X35815302Y-111278811D01*
X36280849Y-111589880D01*
X36830000Y-111699113D01*
X37379151Y-111589880D01*
X37844698Y-111278811D01*
X38100000Y-110896725D01*
X38355302Y-111278811D01*
X38820849Y-111589880D01*
X39370000Y-111699113D01*
X39919151Y-111589880D01*
X40384698Y-111278811D01*
X40640000Y-110896725D01*
X40895302Y-111278811D01*
X41360849Y-111589880D01*
X41910000Y-111699113D01*
X42459151Y-111589880D01*
X42924698Y-111278811D01*
X43180000Y-110896725D01*
X43435302Y-111278811D01*
X43900849Y-111589880D01*
X44450000Y-111699113D01*
X44999151Y-111589880D01*
X45464698Y-111278811D01*
X45720000Y-110896725D01*
X45975302Y-111278811D01*
X46440849Y-111589880D01*
X46990000Y-111699113D01*
X47539151Y-111589880D01*
X48004698Y-111278811D01*
X48260000Y-110896725D01*
X48515302Y-111278811D01*
X48980849Y-111589880D01*
X49530000Y-111699113D01*
X50079151Y-111589880D01*
X50544698Y-111278811D01*
X50800000Y-110896725D01*
X51055302Y-111278811D01*
X51520849Y-111589880D01*
X52070000Y-111699113D01*
X52619151Y-111589880D01*
X53084698Y-111278811D01*
X53340000Y-110896725D01*
X53595302Y-111278811D01*
X54060849Y-111589880D01*
X54610000Y-111699113D01*
X55159151Y-111589880D01*
X55624698Y-111278811D01*
X55935767Y-110813264D01*
X56045000Y-110264113D01*
X56045000Y-110207887D01*
X58001000Y-110207887D01*
X58001000Y-110264113D01*
X58110233Y-110813264D01*
X58421302Y-111278811D01*
X58886849Y-111589880D01*
X59436000Y-111699113D01*
X59985151Y-111589880D01*
X60450698Y-111278811D01*
X60706000Y-110896725D01*
X60961302Y-111278811D01*
X61426849Y-111589880D01*
X61976000Y-111699113D01*
X62525151Y-111589880D01*
X62990698Y-111278811D01*
X63246000Y-110896725D01*
X63501302Y-111278811D01*
X63966849Y-111589880D01*
X64516000Y-111699113D01*
X65065151Y-111589880D01*
X65530698Y-111278811D01*
X65786000Y-110896725D01*
X66041302Y-111278811D01*
X66506849Y-111589880D01*
X67056000Y-111699113D01*
X67605151Y-111589880D01*
X68070698Y-111278811D01*
X68326000Y-110896725D01*
X68581302Y-111278811D01*
X69046849Y-111589880D01*
X69596000Y-111699113D01*
X70145151Y-111589880D01*
X70610698Y-111278811D01*
X70866000Y-110896725D01*
X71121302Y-111278811D01*
X71586849Y-111589880D01*
X72136000Y-111699113D01*
X72685151Y-111589880D01*
X73150698Y-111278811D01*
X73406000Y-110896725D01*
X73661302Y-111278811D01*
X74126849Y-111589880D01*
X74676000Y-111699113D01*
X75225151Y-111589880D01*
X75690698Y-111278811D01*
X75946000Y-110896725D01*
X76201302Y-111278811D01*
X76666849Y-111589880D01*
X77216000Y-111699113D01*
X77765151Y-111589880D01*
X78230698Y-111278811D01*
X78541767Y-110813264D01*
X78651000Y-110264113D01*
X78651000Y-110207887D01*
X78541767Y-109658736D01*
X78230698Y-109193189D01*
X77765151Y-108882120D01*
X77216000Y-108772887D01*
X76666849Y-108882120D01*
X76201302Y-109193189D01*
X75946000Y-109575275D01*
X75690698Y-109193189D01*
X75225151Y-108882120D01*
X74676000Y-108772887D01*
X74126849Y-108882120D01*
X73661302Y-109193189D01*
X73406000Y-109575275D01*
X73150698Y-109193189D01*
X72685151Y-108882120D01*
X72136000Y-108772887D01*
X71586849Y-108882120D01*
X71121302Y-109193189D01*
X70866000Y-109575275D01*
X70610698Y-109193189D01*
X70145151Y-108882120D01*
X69596000Y-108772887D01*
X69046849Y-108882120D01*
X68581302Y-109193189D01*
X68326000Y-109575275D01*
X68070698Y-109193189D01*
X67605151Y-108882120D01*
X67056000Y-108772887D01*
X66506849Y-108882120D01*
X66041302Y-109193189D01*
X65786000Y-109575275D01*
X65530698Y-109193189D01*
X65065151Y-108882120D01*
X64516000Y-108772887D01*
X63966849Y-108882120D01*
X63501302Y-109193189D01*
X63246000Y-109575275D01*
X63179251Y-109475379D01*
X64405951Y-108248679D01*
X64770000Y-108321093D01*
X65338285Y-108208054D01*
X65820054Y-107886147D01*
X66040000Y-107556974D01*
X66259946Y-107886147D01*
X66741715Y-108208054D01*
X67310000Y-108321093D01*
X67878285Y-108208054D01*
X68360054Y-107886147D01*
X68681961Y-107404378D01*
X68795000Y-106836093D01*
X68795000Y-106777907D01*
X68681961Y-106209622D01*
X68360054Y-105727853D01*
X67878285Y-105405946D01*
X67310000Y-105292907D01*
X66741715Y-105405946D01*
X66259946Y-105727853D01*
X66040000Y-106057026D01*
X65820054Y-105727853D01*
X65338285Y-105405946D01*
X64770000Y-105292907D01*
X64201715Y-105405946D01*
X63719946Y-105727853D01*
X63500000Y-106057026D01*
X63280054Y-105727853D01*
X62798285Y-105405946D01*
X62230000Y-105292907D01*
X61661715Y-105405946D01*
X61179946Y-105727853D01*
X61152150Y-105769452D01*
X61143162Y-105721683D01*
X61004090Y-105505559D01*
X60791890Y-105360569D01*
X60540000Y-105309560D01*
X58840000Y-105309560D01*
X58604683Y-105353838D01*
X58388559Y-105492910D01*
X58243569Y-105705110D01*
X58192560Y-105957000D01*
X58192560Y-107657000D01*
X58236838Y-107892317D01*
X58375910Y-108108441D01*
X58588110Y-108253431D01*
X58840000Y-108304440D01*
X60540000Y-108304440D01*
X60775317Y-108260162D01*
X60991441Y-108121090D01*
X61136431Y-107908890D01*
X61150086Y-107841459D01*
X61179946Y-107886147D01*
X61661715Y-108208054D01*
X62186858Y-108312512D01*
X61664527Y-108834843D01*
X61426849Y-108882120D01*
X60961302Y-109193189D01*
X60706000Y-109575275D01*
X60450698Y-109193189D01*
X59985151Y-108882120D01*
X59436000Y-108772887D01*
X58886849Y-108882120D01*
X58421302Y-109193189D01*
X58110233Y-109658736D01*
X58001000Y-110207887D01*
X56045000Y-110207887D01*
X55935767Y-109658736D01*
X55624698Y-109193189D01*
X55159151Y-108882120D01*
X54610000Y-108772887D01*
X54060849Y-108882120D01*
X53595302Y-109193189D01*
X53340000Y-109575275D01*
X53084698Y-109193189D01*
X52619151Y-108882120D01*
X52070000Y-108772887D01*
X51520849Y-108882120D01*
X51055302Y-109193189D01*
X50800000Y-109575275D01*
X50544698Y-109193189D01*
X50079151Y-108882120D01*
X49530000Y-108772887D01*
X48980849Y-108882120D01*
X48515302Y-109193189D01*
X48260000Y-109575275D01*
X48004698Y-109193189D01*
X47539151Y-108882120D01*
X46990000Y-108772887D01*
X46440849Y-108882120D01*
X45975302Y-109193189D01*
X45720000Y-109575275D01*
X45464698Y-109193189D01*
X44999151Y-108882120D01*
X44450000Y-108772887D01*
X43900849Y-108882120D01*
X43435302Y-109193189D01*
X43180000Y-109575275D01*
X42924698Y-109193189D01*
X42459151Y-108882120D01*
X41910000Y-108772887D01*
X41360849Y-108882120D01*
X40895302Y-109193189D01*
X40640000Y-109575275D01*
X40573251Y-109475379D01*
X41799951Y-108248679D01*
X42164000Y-108321093D01*
X42732285Y-108208054D01*
X43214054Y-107886147D01*
X43434000Y-107556974D01*
X43653946Y-107886147D01*
X44135715Y-108208054D01*
X44704000Y-108321093D01*
X45272285Y-108208054D01*
X45754054Y-107886147D01*
X46075961Y-107404378D01*
X46189000Y-106836093D01*
X46189000Y-106777907D01*
X46075961Y-106209622D01*
X45754054Y-105727853D01*
X45272285Y-105405946D01*
X44704000Y-105292907D01*
X44135715Y-105405946D01*
X43653946Y-105727853D01*
X43434000Y-106057026D01*
X43214054Y-105727853D01*
X42732285Y-105405946D01*
X42164000Y-105292907D01*
X41595715Y-105405946D01*
X41113946Y-105727853D01*
X40894000Y-106057026D01*
X40674054Y-105727853D01*
X40192285Y-105405946D01*
X39624000Y-105292907D01*
X39055715Y-105405946D01*
X38573946Y-105727853D01*
X38546150Y-105769452D01*
X38537162Y-105721683D01*
X38398090Y-105505559D01*
X38185890Y-105360569D01*
X37934000Y-105309560D01*
X36234000Y-105309560D01*
X35998683Y-105353838D01*
X35782559Y-105492910D01*
X35637569Y-105705110D01*
X35586560Y-105957000D01*
X35586560Y-107657000D01*
X35630838Y-107892317D01*
X35769910Y-108108441D01*
X35982110Y-108253431D01*
X36234000Y-108304440D01*
X37934000Y-108304440D01*
X38169317Y-108260162D01*
X38385441Y-108121090D01*
X38530431Y-107908890D01*
X38544086Y-107841459D01*
X38573946Y-107886147D01*
X39055715Y-108208054D01*
X39580858Y-108312512D01*
X39058527Y-108834843D01*
X38820849Y-108882120D01*
X38355302Y-109193189D01*
X38100000Y-109575275D01*
X37844698Y-109193189D01*
X37379151Y-108882120D01*
X36830000Y-108772887D01*
X36280849Y-108882120D01*
X35815302Y-109193189D01*
X35504233Y-109658736D01*
X35395000Y-110207887D01*
X35255196Y-110207887D01*
X35255196Y-95885000D01*
X35382560Y-95885000D01*
X35382560Y-97320000D01*
X35426838Y-97555317D01*
X35565910Y-97771441D01*
X35778110Y-97916431D01*
X36030000Y-97967440D01*
X37630000Y-97967440D01*
X37865317Y-97923162D01*
X38081441Y-97784090D01*
X38226431Y-97571890D01*
X38257815Y-97416911D01*
X38355302Y-97562811D01*
X38820849Y-97873880D01*
X39263451Y-97961919D01*
X39085185Y-98140185D01*
X38920004Y-98387395D01*
X38891505Y-98530667D01*
X38573946Y-98742853D01*
X38546150Y-98784452D01*
X38537162Y-98736683D01*
X38398090Y-98520559D01*
X38185890Y-98375569D01*
X37934000Y-98324560D01*
X36234000Y-98324560D01*
X35998683Y-98368838D01*
X35782559Y-98507910D01*
X35637569Y-98720110D01*
X35586560Y-98972000D01*
X35586560Y-100672000D01*
X35630838Y-100907317D01*
X35769910Y-101123441D01*
X35982110Y-101268431D01*
X36234000Y-101319440D01*
X37934000Y-101319440D01*
X38169317Y-101275162D01*
X38385441Y-101136090D01*
X38530431Y-100923890D01*
X38544086Y-100856459D01*
X38573946Y-100901147D01*
X39055715Y-101223054D01*
X39624000Y-101336093D01*
X40192285Y-101223054D01*
X40674054Y-100901147D01*
X40894000Y-100571974D01*
X41113946Y-100901147D01*
X41595715Y-101223054D01*
X42164000Y-101336093D01*
X42732285Y-101223054D01*
X43214054Y-100901147D01*
X43434000Y-100571974D01*
X43653946Y-100901147D01*
X44135715Y-101223054D01*
X44704000Y-101336093D01*
X45272285Y-101223054D01*
X45754054Y-100901147D01*
X46075961Y-100419378D01*
X46189000Y-99851093D01*
X46189000Y-99792907D01*
X46075961Y-99224622D01*
X45790392Y-98797238D01*
X46668473Y-97919157D01*
X46990000Y-97983113D01*
X47539151Y-97873880D01*
X48004698Y-97562811D01*
X48315767Y-97097264D01*
X48425000Y-96548113D01*
X48425000Y-96491887D01*
X48315767Y-95942736D01*
X48004698Y-95477189D01*
X47854755Y-95377000D01*
X58101822Y-95377000D01*
X58039569Y-95468110D01*
X57988560Y-95720000D01*
X57988560Y-97320000D01*
X58032838Y-97555317D01*
X58171910Y-97771441D01*
X58384110Y-97916431D01*
X58636000Y-97967440D01*
X60236000Y-97967440D01*
X60471317Y-97923162D01*
X60687441Y-97784090D01*
X60832431Y-97571890D01*
X60863815Y-97416911D01*
X60961302Y-97562811D01*
X61426849Y-97873880D01*
X61869451Y-97961919D01*
X61691185Y-98140185D01*
X61526004Y-98387395D01*
X61497505Y-98530667D01*
X61179946Y-98742853D01*
X61152150Y-98784452D01*
X61143162Y-98736683D01*
X61004090Y-98520559D01*
X60791890Y-98375569D01*
X60540000Y-98324560D01*
X58840000Y-98324560D01*
X58604683Y-98368838D01*
X58388559Y-98507910D01*
X58243569Y-98720110D01*
X58192560Y-98972000D01*
X58192560Y-100672000D01*
X58236838Y-100907317D01*
X58375910Y-101123441D01*
X58588110Y-101268431D01*
X58840000Y-101319440D01*
X60540000Y-101319440D01*
X60775317Y-101275162D01*
X60991441Y-101136090D01*
X61136431Y-100923890D01*
X61150086Y-100856459D01*
X61179946Y-100901147D01*
X61661715Y-101223054D01*
X62230000Y-101336093D01*
X62798285Y-101223054D01*
X63280054Y-100901147D01*
X63500000Y-100571974D01*
X63719946Y-100901147D01*
X64201715Y-101223054D01*
X64770000Y-101336093D01*
X65338285Y-101223054D01*
X65820054Y-100901147D01*
X66040000Y-100571974D01*
X66259946Y-100901147D01*
X66741715Y-101223054D01*
X67310000Y-101336093D01*
X67878285Y-101223054D01*
X68360054Y-100901147D01*
X68681961Y-100419378D01*
X68795000Y-99851093D01*
X68795000Y-99792907D01*
X68681961Y-99224622D01*
X68396392Y-98797238D01*
X69274473Y-97919157D01*
X69596000Y-97983113D01*
X70145151Y-97873880D01*
X70610698Y-97562811D01*
X70921767Y-97097264D01*
X71031000Y-96548113D01*
X71031000Y-96491887D01*
X70921767Y-95942736D01*
X70610698Y-95477189D01*
X70145151Y-95166120D01*
X69596000Y-95056887D01*
X69046849Y-95166120D01*
X68581302Y-95477189D01*
X68326000Y-95859275D01*
X68070698Y-95477189D01*
X67605151Y-95166120D01*
X67056000Y-95056887D01*
X66506849Y-95166120D01*
X66041302Y-95477189D01*
X65786000Y-95859275D01*
X65530698Y-95477189D01*
X65278000Y-95308341D01*
X65278000Y-94615000D01*
X65219996Y-94323395D01*
X65054815Y-94076185D01*
X64807605Y-93911004D01*
X64516000Y-93853000D01*
X34417000Y-93853000D01*
X34417000Y-88871887D01*
X35395000Y-88871887D01*
X35395000Y-88928113D01*
X35504233Y-89477264D01*
X35815302Y-89942811D01*
X36280849Y-90253880D01*
X36830000Y-90363113D01*
X37379151Y-90253880D01*
X37844698Y-89942811D01*
X38100000Y-89560725D01*
X38355302Y-89942811D01*
X38820849Y-90253880D01*
X39370000Y-90363113D01*
X39919151Y-90253880D01*
X40384698Y-89942811D01*
X40640000Y-89560725D01*
X40895302Y-89942811D01*
X41360849Y-90253880D01*
X41910000Y-90363113D01*
X42459151Y-90253880D01*
X42924698Y-89942811D01*
X43180000Y-89560725D01*
X43435302Y-89942811D01*
X43900849Y-90253880D01*
X44450000Y-90363113D01*
X44999151Y-90253880D01*
X45464698Y-89942811D01*
X45720000Y-89560725D01*
X45975302Y-89942811D01*
X46440849Y-90253880D01*
X46990000Y-90363113D01*
X47539151Y-90253880D01*
X48004698Y-89942811D01*
X48260000Y-89560725D01*
X48515302Y-89942811D01*
X48980849Y-90253880D01*
X49530000Y-90363113D01*
X50079151Y-90253880D01*
X50544698Y-89942811D01*
X50800000Y-89560725D01*
X51055302Y-89942811D01*
X51520849Y-90253880D01*
X52070000Y-90363113D01*
X52619151Y-90253880D01*
X53084698Y-89942811D01*
X53340000Y-89560725D01*
X53595302Y-89942811D01*
X54060849Y-90253880D01*
X54610000Y-90363113D01*
X55159151Y-90253880D01*
X55624698Y-89942811D01*
X55935767Y-89477264D01*
X56045000Y-88928113D01*
X56045000Y-88871887D01*
X58001000Y-88871887D01*
X58001000Y-88928113D01*
X58110233Y-89477264D01*
X58421302Y-89942811D01*
X58886849Y-90253880D01*
X59436000Y-90363113D01*
X59985151Y-90253880D01*
X60450698Y-89942811D01*
X60706000Y-89560725D01*
X60961302Y-89942811D01*
X61426849Y-90253880D01*
X61976000Y-90363113D01*
X62525151Y-90253880D01*
X62990698Y-89942811D01*
X63246000Y-89560725D01*
X63501302Y-89942811D01*
X63966849Y-90253880D01*
X64516000Y-90363113D01*
X65065151Y-90253880D01*
X65530698Y-89942811D01*
X65786000Y-89560725D01*
X66041302Y-89942811D01*
X66506849Y-90253880D01*
X67056000Y-90363113D01*
X67605151Y-90253880D01*
X68070698Y-89942811D01*
X68326000Y-89560725D01*
X68581302Y-89942811D01*
X69046849Y-90253880D01*
X69596000Y-90363113D01*
X70145151Y-90253880D01*
X70610698Y-89942811D01*
X70866000Y-89560725D01*
X71121302Y-89942811D01*
X71586849Y-90253880D01*
X72136000Y-90363113D01*
X72685151Y-90253880D01*
X73150698Y-89942811D01*
X73406000Y-89560725D01*
X73661302Y-89942811D01*
X74126849Y-90253880D01*
X74676000Y-90363113D01*
X75225151Y-90253880D01*
X75690698Y-89942811D01*
X75946000Y-89560725D01*
X76201302Y-89942811D01*
X76666849Y-90253880D01*
X77216000Y-90363113D01*
X77765151Y-90253880D01*
X78230698Y-89942811D01*
X78541767Y-89477264D01*
X78651000Y-88928113D01*
X78651000Y-88871887D01*
X78541767Y-88322736D01*
X78230698Y-87857189D01*
X77765151Y-87546120D01*
X77216000Y-87436887D01*
X76666849Y-87546120D01*
X76201302Y-87857189D01*
X75946000Y-88239275D01*
X75690698Y-87857189D01*
X75225151Y-87546120D01*
X74676000Y-87436887D01*
X74126849Y-87546120D01*
X73661302Y-87857189D01*
X73406000Y-88239275D01*
X73150698Y-87857189D01*
X72685151Y-87546120D01*
X72136000Y-87436887D01*
X71586849Y-87546120D01*
X71121302Y-87857189D01*
X70866000Y-88239275D01*
X70610698Y-87857189D01*
X70145151Y-87546120D01*
X69596000Y-87436887D01*
X69046849Y-87546120D01*
X68581302Y-87857189D01*
X68326000Y-88239275D01*
X68070698Y-87857189D01*
X67605151Y-87546120D01*
X67056000Y-87436887D01*
X66506849Y-87546120D01*
X66041302Y-87857189D01*
X65786000Y-88239275D01*
X65530698Y-87857189D01*
X65065151Y-87546120D01*
X64516000Y-87436887D01*
X63966849Y-87546120D01*
X63501302Y-87857189D01*
X63246000Y-88239275D01*
X63179251Y-88139379D01*
X64405951Y-86912679D01*
X64770000Y-86985093D01*
X65338285Y-86872054D01*
X65820054Y-86550147D01*
X66040000Y-86220974D01*
X66259946Y-86550147D01*
X66741715Y-86872054D01*
X67310000Y-86985093D01*
X67878285Y-86872054D01*
X68360054Y-86550147D01*
X68681961Y-86068378D01*
X68795000Y-85500093D01*
X68795000Y-85441907D01*
X68681961Y-84873622D01*
X68360054Y-84391853D01*
X67878285Y-84069946D01*
X67310000Y-83956907D01*
X66741715Y-84069946D01*
X66259946Y-84391853D01*
X66040000Y-84721026D01*
X65820054Y-84391853D01*
X65338285Y-84069946D01*
X64770000Y-83956907D01*
X64201715Y-84069946D01*
X63719946Y-84391853D01*
X63500000Y-84721026D01*
X63280054Y-84391853D01*
X62798285Y-84069946D01*
X62230000Y-83956907D01*
X61661715Y-84069946D01*
X61179946Y-84391853D01*
X61152150Y-84433452D01*
X61143162Y-84385683D01*
X61004090Y-84169559D01*
X60791890Y-84024569D01*
X60540000Y-83973560D01*
X58840000Y-83973560D01*
X58604683Y-84017838D01*
X58388559Y-84156910D01*
X58243569Y-84369110D01*
X58192560Y-84621000D01*
X58192560Y-86321000D01*
X58236838Y-86556317D01*
X58375910Y-86772441D01*
X58588110Y-86917431D01*
X58840000Y-86968440D01*
X60540000Y-86968440D01*
X60775317Y-86924162D01*
X60991441Y-86785090D01*
X61136431Y-86572890D01*
X61150086Y-86505459D01*
X61179946Y-86550147D01*
X61661715Y-86872054D01*
X62186858Y-86976512D01*
X61664527Y-87498843D01*
X61426849Y-87546120D01*
X60961302Y-87857189D01*
X60706000Y-88239275D01*
X60450698Y-87857189D01*
X59985151Y-87546120D01*
X59436000Y-87436887D01*
X58886849Y-87546120D01*
X58421302Y-87857189D01*
X58110233Y-88322736D01*
X58001000Y-88871887D01*
X56045000Y-88871887D01*
X55935767Y-88322736D01*
X55624698Y-87857189D01*
X55159151Y-87546120D01*
X54610000Y-87436887D01*
X54060849Y-87546120D01*
X53595302Y-87857189D01*
X53340000Y-88239275D01*
X53084698Y-87857189D01*
X52619151Y-87546120D01*
X52070000Y-87436887D01*
X51520849Y-87546120D01*
X51055302Y-87857189D01*
X50800000Y-88239275D01*
X50544698Y-87857189D01*
X50079151Y-87546120D01*
X49530000Y-87436887D01*
X48980849Y-87546120D01*
X48515302Y-87857189D01*
X48260000Y-88239275D01*
X48004698Y-87857189D01*
X47539151Y-87546120D01*
X46990000Y-87436887D01*
X46440849Y-87546120D01*
X45975302Y-87857189D01*
X45720000Y-88239275D01*
X45464698Y-87857189D01*
X44999151Y-87546120D01*
X44450000Y-87436887D01*
X43900849Y-87546120D01*
X43435302Y-87857189D01*
X43180000Y-88239275D01*
X42924698Y-87857189D01*
X42459151Y-87546120D01*
X41910000Y-87436887D01*
X41360849Y-87546120D01*
X40895302Y-87857189D01*
X40640000Y-88239275D01*
X40573251Y-88139379D01*
X41799951Y-86912679D01*
X42164000Y-86985093D01*
X42732285Y-86872054D01*
X43214054Y-86550147D01*
X43434000Y-86220974D01*
X43653946Y-86550147D01*
X44135715Y-86872054D01*
X44704000Y-86985093D01*
X45272285Y-86872054D01*
X45754054Y-86550147D01*
X46075961Y-86068378D01*
X46189000Y-85500093D01*
X46189000Y-85441907D01*
X46075961Y-84873622D01*
X45754054Y-84391853D01*
X45272285Y-84069946D01*
X44704000Y-83956907D01*
X44135715Y-84069946D01*
X43653946Y-84391853D01*
X43434000Y-84721026D01*
X43214054Y-84391853D01*
X42732285Y-84069946D01*
X42164000Y-83956907D01*
X41595715Y-84069946D01*
X41113946Y-84391853D01*
X40894000Y-84721026D01*
X40674054Y-84391853D01*
X40192285Y-84069946D01*
X39624000Y-83956907D01*
X39055715Y-84069946D01*
X38573946Y-84391853D01*
X38546150Y-84433452D01*
X38537162Y-84385683D01*
X38398090Y-84169559D01*
X38185890Y-84024569D01*
X37934000Y-83973560D01*
X36234000Y-83973560D01*
X35998683Y-84017838D01*
X35782559Y-84156910D01*
X35637569Y-84369110D01*
X35586560Y-84621000D01*
X35586560Y-86321000D01*
X35630838Y-86556317D01*
X35769910Y-86772441D01*
X35982110Y-86917431D01*
X36234000Y-86968440D01*
X37934000Y-86968440D01*
X38169317Y-86924162D01*
X38385441Y-86785090D01*
X38530431Y-86572890D01*
X38544086Y-86505459D01*
X38573946Y-86550147D01*
X39055715Y-86872054D01*
X39580858Y-86976512D01*
X39058527Y-87498843D01*
X38820849Y-87546120D01*
X38355302Y-87857189D01*
X38100000Y-88239275D01*
X37844698Y-87857189D01*
X37379151Y-87546120D01*
X36830000Y-87436887D01*
X36280849Y-87546120D01*
X35815302Y-87857189D01*
X35504233Y-88322736D01*
X35395000Y-88871887D01*
X34417000Y-88871887D01*
X34417000Y-74676000D01*
X35382560Y-74676000D01*
X35382560Y-75984000D01*
X35426838Y-76219317D01*
X35565910Y-76435441D01*
X35778110Y-76580431D01*
X36030000Y-76631440D01*
X37630000Y-76631440D01*
X37865317Y-76587162D01*
X38081441Y-76448090D01*
X38226431Y-76235890D01*
X38257815Y-76080911D01*
X38355302Y-76226811D01*
X38820849Y-76537880D01*
X39263451Y-76625919D01*
X39085185Y-76804185D01*
X38920004Y-77051395D01*
X38891505Y-77194667D01*
X38573946Y-77406853D01*
X38546150Y-77448452D01*
X38537162Y-77400683D01*
X38398090Y-77184559D01*
X38185890Y-77039569D01*
X37934000Y-76988560D01*
X36234000Y-76988560D01*
X35998683Y-77032838D01*
X35782559Y-77171910D01*
X35637569Y-77384110D01*
X35586560Y-77636000D01*
X35586560Y-79336000D01*
X35630838Y-79571317D01*
X35769910Y-79787441D01*
X35982110Y-79932431D01*
X36234000Y-79983440D01*
X37934000Y-79983440D01*
X38169317Y-79939162D01*
X38385441Y-79800090D01*
X38530431Y-79587890D01*
X38544086Y-79520459D01*
X38573946Y-79565147D01*
X39055715Y-79887054D01*
X39624000Y-80000093D01*
X40192285Y-79887054D01*
X40674054Y-79565147D01*
X40894000Y-79235974D01*
X41113946Y-79565147D01*
X41595715Y-79887054D01*
X42164000Y-80000093D01*
X42732285Y-79887054D01*
X43214054Y-79565147D01*
X43434000Y-79235974D01*
X43653946Y-79565147D01*
X44135715Y-79887054D01*
X44704000Y-80000093D01*
X45272285Y-79887054D01*
X45754054Y-79565147D01*
X46075961Y-79083378D01*
X46189000Y-78515093D01*
X46189000Y-78456907D01*
X46075961Y-77888622D01*
X45790392Y-77461238D01*
X46668473Y-76583157D01*
X46990000Y-76647113D01*
X47539151Y-76537880D01*
X48004698Y-76226811D01*
X48315767Y-75761264D01*
X48425000Y-75212113D01*
X48425000Y-75155887D01*
X48315767Y-74606736D01*
X48022613Y-74168000D01*
X58032301Y-74168000D01*
X57988560Y-74384000D01*
X57988560Y-75984000D01*
X58032838Y-76219317D01*
X58171910Y-76435441D01*
X58384110Y-76580431D01*
X58636000Y-76631440D01*
X60236000Y-76631440D01*
X60471317Y-76587162D01*
X60687441Y-76448090D01*
X60832431Y-76235890D01*
X60863815Y-76080911D01*
X60961302Y-76226811D01*
X61426849Y-76537880D01*
X61869451Y-76625919D01*
X61691185Y-76804185D01*
X61526004Y-77051395D01*
X61497505Y-77194667D01*
X61179946Y-77406853D01*
X61152150Y-77448452D01*
X61143162Y-77400683D01*
X61004090Y-77184559D01*
X60791890Y-77039569D01*
X60540000Y-76988560D01*
X58840000Y-76988560D01*
X58604683Y-77032838D01*
X58388559Y-77171910D01*
X58243569Y-77384110D01*
X58192560Y-77636000D01*
X58192560Y-79336000D01*
X58236838Y-79571317D01*
X58375910Y-79787441D01*
X58588110Y-79932431D01*
X58840000Y-79983440D01*
X60540000Y-79983440D01*
X60775317Y-79939162D01*
X60991441Y-79800090D01*
X61136431Y-79587890D01*
X61150086Y-79520459D01*
X61179946Y-79565147D01*
X61661715Y-79887054D01*
X62230000Y-80000093D01*
X62798285Y-79887054D01*
X63280054Y-79565147D01*
X63500000Y-79235974D01*
X63719946Y-79565147D01*
X64201715Y-79887054D01*
X64770000Y-80000093D01*
X65338285Y-79887054D01*
X65820054Y-79565147D01*
X66040000Y-79235974D01*
X66259946Y-79565147D01*
X66741715Y-79887054D01*
X67310000Y-80000093D01*
X67878285Y-79887054D01*
X68360054Y-79565147D01*
X68681961Y-79083378D01*
X68795000Y-78515093D01*
X68795000Y-78456907D01*
X68681961Y-77888622D01*
X68396392Y-77461238D01*
X69274473Y-76583157D01*
X69596000Y-76647113D01*
X70145151Y-76537880D01*
X70610698Y-76226811D01*
X70921767Y-75761264D01*
X71031000Y-75212113D01*
X71031000Y-75155887D01*
X70921767Y-74606736D01*
X70610698Y-74141189D01*
X70145151Y-73830120D01*
X69596000Y-73720887D01*
X69046849Y-73830120D01*
X68581302Y-74141189D01*
X68326000Y-74523275D01*
X68070698Y-74141189D01*
X67605151Y-73830120D01*
X67056000Y-73720887D01*
X66506849Y-73830120D01*
X66041302Y-74141189D01*
X65786000Y-74523275D01*
X65530698Y-74141189D01*
X65278000Y-73972341D01*
X65278000Y-73406000D01*
X65219996Y-73114395D01*
X65054815Y-72867185D01*
X64807605Y-72702004D01*
X64516000Y-72644000D01*
X33604196Y-72644000D01*
X33604196Y-67535887D01*
X35395000Y-67535887D01*
X35395000Y-67592113D01*
X35504233Y-68141264D01*
X35815302Y-68606811D01*
X36280849Y-68917880D01*
X36830000Y-69027113D01*
X37379151Y-68917880D01*
X37844698Y-68606811D01*
X38100000Y-68224725D01*
X38355302Y-68606811D01*
X38820849Y-68917880D01*
X39370000Y-69027113D01*
X39919151Y-68917880D01*
X40384698Y-68606811D01*
X40640000Y-68224725D01*
X40895302Y-68606811D01*
X41360849Y-68917880D01*
X41910000Y-69027113D01*
X42459151Y-68917880D01*
X42924698Y-68606811D01*
X43180000Y-68224725D01*
X43435302Y-68606811D01*
X43900849Y-68917880D01*
X44450000Y-69027113D01*
X44999151Y-68917880D01*
X45464698Y-68606811D01*
X45720000Y-68224725D01*
X45975302Y-68606811D01*
X46440849Y-68917880D01*
X46990000Y-69027113D01*
X47539151Y-68917880D01*
X48004698Y-68606811D01*
X48260000Y-68224725D01*
X48515302Y-68606811D01*
X48980849Y-68917880D01*
X49530000Y-69027113D01*
X50079151Y-68917880D01*
X50544698Y-68606811D01*
X50800000Y-68224725D01*
X51055302Y-68606811D01*
X51520849Y-68917880D01*
X52070000Y-69027113D01*
X52619151Y-68917880D01*
X53084698Y-68606811D01*
X53340000Y-68224725D01*
X53595302Y-68606811D01*
X54060849Y-68917880D01*
X54610000Y-69027113D01*
X55159151Y-68917880D01*
X55624698Y-68606811D01*
X55935767Y-68141264D01*
X56045000Y-67592113D01*
X56045000Y-67535887D01*
X58001000Y-67535887D01*
X58001000Y-67592113D01*
X58110233Y-68141264D01*
X58421302Y-68606811D01*
X58886849Y-68917880D01*
X59436000Y-69027113D01*
X59985151Y-68917880D01*
X60450698Y-68606811D01*
X60706000Y-68224725D01*
X60961302Y-68606811D01*
X61426849Y-68917880D01*
X61976000Y-69027113D01*
X62525151Y-68917880D01*
X62990698Y-68606811D01*
X63246000Y-68224725D01*
X63501302Y-68606811D01*
X63966849Y-68917880D01*
X64516000Y-69027113D01*
X65065151Y-68917880D01*
X65530698Y-68606811D01*
X65786000Y-68224725D01*
X66041302Y-68606811D01*
X66506849Y-68917880D01*
X67056000Y-69027113D01*
X67605151Y-68917880D01*
X68070698Y-68606811D01*
X68326000Y-68224725D01*
X68581302Y-68606811D01*
X69046849Y-68917880D01*
X69596000Y-69027113D01*
X70145151Y-68917880D01*
X70610698Y-68606811D01*
X70866000Y-68224725D01*
X71121302Y-68606811D01*
X71586849Y-68917880D01*
X72136000Y-69027113D01*
X72685151Y-68917880D01*
X73150698Y-68606811D01*
X73406000Y-68224725D01*
X73661302Y-68606811D01*
X74126849Y-68917880D01*
X74676000Y-69027113D01*
X75225151Y-68917880D01*
X75690698Y-68606811D01*
X75946000Y-68224725D01*
X76201302Y-68606811D01*
X76666849Y-68917880D01*
X77216000Y-69027113D01*
X77765151Y-68917880D01*
X78230698Y-68606811D01*
X78541767Y-68141264D01*
X78651000Y-67592113D01*
X78651000Y-67535887D01*
X78541767Y-66986736D01*
X78230698Y-66521189D01*
X77765151Y-66210120D01*
X77216000Y-66100887D01*
X76666849Y-66210120D01*
X76201302Y-66521189D01*
X75946000Y-66903275D01*
X75690698Y-66521189D01*
X75225151Y-66210120D01*
X74676000Y-66100887D01*
X74126849Y-66210120D01*
X73661302Y-66521189D01*
X73406000Y-66903275D01*
X73150698Y-66521189D01*
X72685151Y-66210120D01*
X72136000Y-66100887D01*
X71586849Y-66210120D01*
X71121302Y-66521189D01*
X70866000Y-66903275D01*
X70610698Y-66521189D01*
X70145151Y-66210120D01*
X69596000Y-66100887D01*
X69046849Y-66210120D01*
X68581302Y-66521189D01*
X68326000Y-66903275D01*
X68070698Y-66521189D01*
X67605151Y-66210120D01*
X67056000Y-66100887D01*
X66506849Y-66210120D01*
X66041302Y-66521189D01*
X65786000Y-66903275D01*
X65530698Y-66521189D01*
X65065151Y-66210120D01*
X64516000Y-66100887D01*
X63966849Y-66210120D01*
X63501302Y-66521189D01*
X63246000Y-66903275D01*
X63179251Y-66803379D01*
X64405951Y-65576679D01*
X64770000Y-65649093D01*
X65338285Y-65536054D01*
X65820054Y-65214147D01*
X66040000Y-64884974D01*
X66259946Y-65214147D01*
X66741715Y-65536054D01*
X67310000Y-65649093D01*
X67878285Y-65536054D01*
X68360054Y-65214147D01*
X68681961Y-64732378D01*
X68795000Y-64164093D01*
X68795000Y-64105907D01*
X68681961Y-63537622D01*
X68360054Y-63055853D01*
X67878285Y-62733946D01*
X67310000Y-62620907D01*
X66741715Y-62733946D01*
X66259946Y-63055853D01*
X66040000Y-63385026D01*
X65820054Y-63055853D01*
X65338285Y-62733946D01*
X64770000Y-62620907D01*
X64201715Y-62733946D01*
X63719946Y-63055853D01*
X63500000Y-63385026D01*
X63280054Y-63055853D01*
X62798285Y-62733946D01*
X62230000Y-62620907D01*
X61661715Y-62733946D01*
X61179946Y-63055853D01*
X61152150Y-63097452D01*
X61143162Y-63049683D01*
X61004090Y-62833559D01*
X60791890Y-62688569D01*
X60540000Y-62637560D01*
X58840000Y-62637560D01*
X58604683Y-62681838D01*
X58388559Y-62820910D01*
X58243569Y-63033110D01*
X58192560Y-63285000D01*
X58192560Y-64985000D01*
X58236838Y-65220317D01*
X58375910Y-65436441D01*
X58588110Y-65581431D01*
X58840000Y-65632440D01*
X60540000Y-65632440D01*
X60775317Y-65588162D01*
X60991441Y-65449090D01*
X61136431Y-65236890D01*
X61150086Y-65169459D01*
X61179946Y-65214147D01*
X61661715Y-65536054D01*
X62186858Y-65640512D01*
X61664527Y-66162843D01*
X61426849Y-66210120D01*
X60961302Y-66521189D01*
X60706000Y-66903275D01*
X60450698Y-66521189D01*
X59985151Y-66210120D01*
X59436000Y-66100887D01*
X58886849Y-66210120D01*
X58421302Y-66521189D01*
X58110233Y-66986736D01*
X58001000Y-67535887D01*
X56045000Y-67535887D01*
X55935767Y-66986736D01*
X55624698Y-66521189D01*
X55159151Y-66210120D01*
X54610000Y-66100887D01*
X54060849Y-66210120D01*
X53595302Y-66521189D01*
X53340000Y-66903275D01*
X53084698Y-66521189D01*
X52619151Y-66210120D01*
X52070000Y-66100887D01*
X51520849Y-66210120D01*
X51055302Y-66521189D01*
X50800000Y-66903275D01*
X50544698Y-66521189D01*
X50079151Y-66210120D01*
X49530000Y-66100887D01*
X48980849Y-66210120D01*
X48515302Y-66521189D01*
X48260000Y-66903275D01*
X48004698Y-66521189D01*
X47539151Y-66210120D01*
X46990000Y-66100887D01*
X46440849Y-66210120D01*
X45975302Y-66521189D01*
X45720000Y-66903275D01*
X45464698Y-66521189D01*
X44999151Y-66210120D01*
X44450000Y-66100887D01*
X43900849Y-66210120D01*
X43435302Y-66521189D01*
X43180000Y-66903275D01*
X42924698Y-66521189D01*
X42459151Y-66210120D01*
X41910000Y-66100887D01*
X41360849Y-66210120D01*
X40895302Y-66521189D01*
X40640000Y-66903275D01*
X40573251Y-66803379D01*
X41799951Y-65576679D01*
X42164000Y-65649093D01*
X42732285Y-65536054D01*
X43214054Y-65214147D01*
X43434000Y-64884974D01*
X43653946Y-65214147D01*
X44135715Y-65536054D01*
X44704000Y-65649093D01*
X45272285Y-65536054D01*
X45754054Y-65214147D01*
X46075961Y-64732378D01*
X46189000Y-64164093D01*
X46189000Y-64105907D01*
X46075961Y-63537622D01*
X45754054Y-63055853D01*
X45272285Y-62733946D01*
X44704000Y-62620907D01*
X44135715Y-62733946D01*
X43653946Y-63055853D01*
X43434000Y-63385026D01*
X43214054Y-63055853D01*
X42732285Y-62733946D01*
X42164000Y-62620907D01*
X41595715Y-62733946D01*
X41113946Y-63055853D01*
X40894000Y-63385026D01*
X40674054Y-63055853D01*
X40192285Y-62733946D01*
X39624000Y-62620907D01*
X39055715Y-62733946D01*
X38573946Y-63055853D01*
X38546150Y-63097452D01*
X38537162Y-63049683D01*
X38398090Y-62833559D01*
X38185890Y-62688569D01*
X37934000Y-62637560D01*
X36234000Y-62637560D01*
X35998683Y-62681838D01*
X35782559Y-62820910D01*
X35637569Y-63033110D01*
X35586560Y-63285000D01*
X35586560Y-64985000D01*
X35630838Y-65220317D01*
X35769910Y-65436441D01*
X35982110Y-65581431D01*
X36234000Y-65632440D01*
X37934000Y-65632440D01*
X38169317Y-65588162D01*
X38385441Y-65449090D01*
X38530431Y-65236890D01*
X38544086Y-65169459D01*
X38573946Y-65214147D01*
X39055715Y-65536054D01*
X39580858Y-65640512D01*
X39058527Y-66162843D01*
X38820849Y-66210120D01*
X38355302Y-66521189D01*
X38100000Y-66903275D01*
X37844698Y-66521189D01*
X37379151Y-66210120D01*
X36830000Y-66100887D01*
X36280849Y-66210120D01*
X35815302Y-66521189D01*
X35504233Y-66986736D01*
X35395000Y-67535887D01*
X33604196Y-67535887D01*
X33604196Y-53340000D01*
X35382560Y-53340000D01*
X35382560Y-54648000D01*
X35426838Y-54883317D01*
X35565910Y-55099441D01*
X35778110Y-55244431D01*
X36030000Y-55295440D01*
X37630000Y-55295440D01*
X37865317Y-55251162D01*
X38081441Y-55112090D01*
X38226431Y-54899890D01*
X38257815Y-54744911D01*
X38355302Y-54890811D01*
X38820849Y-55201880D01*
X39263451Y-55289919D01*
X39085185Y-55468185D01*
X38920004Y-55715395D01*
X38891505Y-55858667D01*
X38573946Y-56070853D01*
X38546150Y-56112452D01*
X38537162Y-56064683D01*
X38398090Y-55848559D01*
X38185890Y-55703569D01*
X37934000Y-55652560D01*
X36234000Y-55652560D01*
X35998683Y-55696838D01*
X35782559Y-55835910D01*
X35637569Y-56048110D01*
X35586560Y-56300000D01*
X35586560Y-58000000D01*
X35630838Y-58235317D01*
X35769910Y-58451441D01*
X35982110Y-58596431D01*
X36234000Y-58647440D01*
X37934000Y-58647440D01*
X38169317Y-58603162D01*
X38385441Y-58464090D01*
X38530431Y-58251890D01*
X38544086Y-58184459D01*
X38573946Y-58229147D01*
X39055715Y-58551054D01*
X39624000Y-58664093D01*
X40192285Y-58551054D01*
X40674054Y-58229147D01*
X40894000Y-57899974D01*
X41113946Y-58229147D01*
X41595715Y-58551054D01*
X42164000Y-58664093D01*
X42732285Y-58551054D01*
X43214054Y-58229147D01*
X43434000Y-57899974D01*
X43653946Y-58229147D01*
X44135715Y-58551054D01*
X44704000Y-58664093D01*
X45272285Y-58551054D01*
X45754054Y-58229147D01*
X46075961Y-57747378D01*
X46189000Y-57179093D01*
X46189000Y-57120907D01*
X46075961Y-56552622D01*
X45790392Y-56125238D01*
X46668473Y-55247157D01*
X46990000Y-55311113D01*
X47539151Y-55201880D01*
X48004698Y-54890811D01*
X48315767Y-54425264D01*
X48425000Y-53876113D01*
X48425000Y-53819887D01*
X48315767Y-53270736D01*
X48022613Y-52832000D01*
X58032301Y-52832000D01*
X57988560Y-53048000D01*
X57988560Y-54648000D01*
X58032838Y-54883317D01*
X58171910Y-55099441D01*
X58384110Y-55244431D01*
X58636000Y-55295440D01*
X60236000Y-55295440D01*
X60471317Y-55251162D01*
X60687441Y-55112090D01*
X60832431Y-54899890D01*
X60863815Y-54744911D01*
X60961302Y-54890811D01*
X61426849Y-55201880D01*
X61869451Y-55289919D01*
X61691185Y-55468185D01*
X61526004Y-55715395D01*
X61497505Y-55858667D01*
X61179946Y-56070853D01*
X61152150Y-56112452D01*
X61143162Y-56064683D01*
X61004090Y-55848559D01*
X60791890Y-55703569D01*
X60540000Y-55652560D01*
X58840000Y-55652560D01*
X58604683Y-55696838D01*
X58388559Y-55835910D01*
X58243569Y-56048110D01*
X58192560Y-56300000D01*
X58192560Y-58000000D01*
X58236838Y-58235317D01*
X58375910Y-58451441D01*
X58588110Y-58596431D01*
X58840000Y-58647440D01*
X60540000Y-58647440D01*
X60775317Y-58603162D01*
X60991441Y-58464090D01*
X61136431Y-58251890D01*
X61150086Y-58184459D01*
X61179946Y-58229147D01*
X61661715Y-58551054D01*
X62230000Y-58664093D01*
X62798285Y-58551054D01*
X63280054Y-58229147D01*
X63500000Y-57899974D01*
X63719946Y-58229147D01*
X64201715Y-58551054D01*
X64770000Y-58664093D01*
X65338285Y-58551054D01*
X65820054Y-58229147D01*
X66040000Y-57899974D01*
X66259946Y-58229147D01*
X66741715Y-58551054D01*
X67310000Y-58664093D01*
X67878285Y-58551054D01*
X68360054Y-58229147D01*
X68681961Y-57747378D01*
X68795000Y-57179093D01*
X68795000Y-57120907D01*
X68681961Y-56552622D01*
X68396392Y-56125238D01*
X69274473Y-55247157D01*
X69596000Y-55311113D01*
X70145151Y-55201880D01*
X70610698Y-54890811D01*
X70921767Y-54425264D01*
X71031000Y-53876113D01*
X71031000Y-53819887D01*
X70921767Y-53270736D01*
X70610698Y-52805189D01*
X70145151Y-52494120D01*
X69596000Y-52384887D01*
X69046849Y-52494120D01*
X68581302Y-52805189D01*
X68326000Y-53187275D01*
X68070698Y-52805189D01*
X67605151Y-52494120D01*
X67056000Y-52384887D01*
X66506849Y-52494120D01*
X66041302Y-52805189D01*
X65786000Y-53187275D01*
X65530698Y-52805189D01*
X65278000Y-52636341D01*
X65278000Y-52070000D01*
X65219996Y-51778395D01*
X65054815Y-51531185D01*
X64807605Y-51366004D01*
X64516000Y-51308000D01*
X32512000Y-51308000D01*
X32220396Y-51366003D01*
X31973185Y-51531184D01*
X31896979Y-51607391D01*
X31731798Y-51854601D01*
X31673794Y-52146206D01*
X31673794Y-103124000D01*
X29719618Y-103124000D01*
X29527147Y-102835946D01*
X29045378Y-102514039D01*
X28477093Y-102401000D01*
X28418907Y-102401000D01*
X27850622Y-102514039D01*
X27368853Y-102835946D01*
X27046946Y-103317715D01*
X26933907Y-103886000D01*
X24967000Y-103886000D01*
X24967000Y-98806000D01*
X26933907Y-98806000D01*
X27046946Y-99374285D01*
X27368853Y-99856054D01*
X27850622Y-100177961D01*
X28418907Y-100291000D01*
X28477093Y-100291000D01*
X29045378Y-100177961D01*
X29527147Y-99856054D01*
X29849054Y-99374285D01*
X29962093Y-98806000D01*
X29849054Y-98237715D01*
X29527147Y-97755946D01*
X29045378Y-97434039D01*
X28477093Y-97321000D01*
X28418907Y-97321000D01*
X27850622Y-97434039D01*
X27368853Y-97755946D01*
X27046946Y-98237715D01*
X26933907Y-98806000D01*
X24967000Y-98806000D01*
X24967000Y-74930000D01*
X28330907Y-74930000D01*
X28443946Y-75498285D01*
X28765853Y-75980054D01*
X29095026Y-76200000D01*
X28765853Y-76419946D01*
X28443946Y-76901715D01*
X28330907Y-77470000D01*
X28443946Y-78038285D01*
X28765853Y-78520054D01*
X29095026Y-78740000D01*
X28765853Y-78959946D01*
X28443946Y-79441715D01*
X28330907Y-80010000D01*
X28443946Y-80578285D01*
X28765853Y-81060054D01*
X29095026Y-81280000D01*
X28765853Y-81499946D01*
X28443946Y-81981715D01*
X28330907Y-82550000D01*
X28443946Y-83118285D01*
X28765853Y-83600054D01*
X29095026Y-83820000D01*
X28765853Y-84039946D01*
X28443946Y-84521715D01*
X28330907Y-85090000D01*
X28443946Y-85658285D01*
X28765853Y-86140054D01*
X29095026Y-86360000D01*
X28765853Y-86579946D01*
X28443946Y-87061715D01*
X28330907Y-87630000D01*
X28443946Y-88198285D01*
X28765853Y-88680054D01*
X29095026Y-88900000D01*
X28765853Y-89119946D01*
X28443946Y-89601715D01*
X28330907Y-90170000D01*
X28443946Y-90738285D01*
X28765853Y-91220054D01*
X29095026Y-91440000D01*
X28765853Y-91659946D01*
X28443946Y-92141715D01*
X28330907Y-92710000D01*
X28443946Y-93278285D01*
X28765853Y-93760054D01*
X29247622Y-94081961D01*
X29815907Y-94195000D01*
X29874093Y-94195000D01*
X30442378Y-94081961D01*
X30924147Y-93760054D01*
X31246054Y-93278285D01*
X31359093Y-92710000D01*
X31246054Y-92141715D01*
X30924147Y-91659946D01*
X30594974Y-91440000D01*
X30924147Y-91220054D01*
X31246054Y-90738285D01*
X31359093Y-90170000D01*
X31246054Y-89601715D01*
X30924147Y-89119946D01*
X30594974Y-88900000D01*
X30924147Y-88680054D01*
X31246054Y-88198285D01*
X31359093Y-87630000D01*
X31246054Y-87061715D01*
X30924147Y-86579946D01*
X30594974Y-86360000D01*
X30924147Y-86140054D01*
X31246054Y-85658285D01*
X31359093Y-85090000D01*
X31246054Y-84521715D01*
X30924147Y-84039946D01*
X30594974Y-83820000D01*
X30924147Y-83600054D01*
X31246054Y-83118285D01*
X31359093Y-82550000D01*
X31246054Y-81981715D01*
X30924147Y-81499946D01*
X30594974Y-81280000D01*
X30924147Y-81060054D01*
X31246054Y-80578285D01*
X31359093Y-80010000D01*
X31246054Y-79441715D01*
X30924147Y-78959946D01*
X30594974Y-78740000D01*
X30924147Y-78520054D01*
X31246054Y-78038285D01*
X31359093Y-77470000D01*
X31246054Y-76901715D01*
X30924147Y-76419946D01*
X30594974Y-76200000D01*
X30924147Y-75980054D01*
X31246054Y-75498285D01*
X31359093Y-74930000D01*
X31246054Y-74361715D01*
X30924147Y-73879946D01*
X30442378Y-73558039D01*
X29874093Y-73445000D01*
X29815907Y-73445000D01*
X29247622Y-73558039D01*
X28765853Y-73879946D01*
X28443946Y-74361715D01*
X28330907Y-74930000D01*
X24967000Y-74930000D01*
X24967000Y-46199887D01*
X35395000Y-46199887D01*
X35395000Y-46256113D01*
X35504233Y-46805264D01*
X35815302Y-47270811D01*
X36280849Y-47581880D01*
X36830000Y-47691113D01*
X37379151Y-47581880D01*
X37844698Y-47270811D01*
X38100000Y-46888725D01*
X38355302Y-47270811D01*
X38820849Y-47581880D01*
X39370000Y-47691113D01*
X39919151Y-47581880D01*
X40384698Y-47270811D01*
X40640000Y-46888725D01*
X40895302Y-47270811D01*
X41360849Y-47581880D01*
X41910000Y-47691113D01*
X42459151Y-47581880D01*
X42924698Y-47270811D01*
X43180000Y-46888725D01*
X43435302Y-47270811D01*
X43900849Y-47581880D01*
X44450000Y-47691113D01*
X44999151Y-47581880D01*
X45464698Y-47270811D01*
X45720000Y-46888725D01*
X45975302Y-47270811D01*
X46440849Y-47581880D01*
X46990000Y-47691113D01*
X47539151Y-47581880D01*
X48004698Y-47270811D01*
X48260000Y-46888725D01*
X48515302Y-47270811D01*
X48980849Y-47581880D01*
X49530000Y-47691113D01*
X50079151Y-47581880D01*
X50544698Y-47270811D01*
X50800000Y-46888725D01*
X51055302Y-47270811D01*
X51520849Y-47581880D01*
X52070000Y-47691113D01*
X52619151Y-47581880D01*
X53084698Y-47270811D01*
X53340000Y-46888725D01*
X53595302Y-47270811D01*
X54060849Y-47581880D01*
X54610000Y-47691113D01*
X55159151Y-47581880D01*
X55624698Y-47270811D01*
X55935767Y-46805264D01*
X56045000Y-46256113D01*
X56045000Y-46199887D01*
X58001000Y-46199887D01*
X58001000Y-46256113D01*
X58110233Y-46805264D01*
X58421302Y-47270811D01*
X58886849Y-47581880D01*
X59436000Y-47691113D01*
X59985151Y-47581880D01*
X60450698Y-47270811D01*
X60706000Y-46888725D01*
X60961302Y-47270811D01*
X61426849Y-47581880D01*
X61976000Y-47691113D01*
X62525151Y-47581880D01*
X62990698Y-47270811D01*
X63246000Y-46888725D01*
X63501302Y-47270811D01*
X63966849Y-47581880D01*
X64516000Y-47691113D01*
X65065151Y-47581880D01*
X65530698Y-47270811D01*
X65786000Y-46888725D01*
X66041302Y-47270811D01*
X66506849Y-47581880D01*
X67056000Y-47691113D01*
X67605151Y-47581880D01*
X68070698Y-47270811D01*
X68326000Y-46888725D01*
X68581302Y-47270811D01*
X69046849Y-47581880D01*
X69596000Y-47691113D01*
X70145151Y-47581880D01*
X70610698Y-47270811D01*
X70866000Y-46888725D01*
X71121302Y-47270811D01*
X71586849Y-47581880D01*
X72136000Y-47691113D01*
X72685151Y-47581880D01*
X73150698Y-47270811D01*
X73406000Y-46888725D01*
X73661302Y-47270811D01*
X74126849Y-47581880D01*
X74676000Y-47691113D01*
X75225151Y-47581880D01*
X75690698Y-47270811D01*
X75946000Y-46888725D01*
X76201302Y-47270811D01*
X76666849Y-47581880D01*
X77216000Y-47691113D01*
X77765151Y-47581880D01*
X78230698Y-47270811D01*
X78541767Y-46805264D01*
X78651000Y-46256113D01*
X78651000Y-46199887D01*
X78541767Y-45650736D01*
X78230698Y-45185189D01*
X77765151Y-44874120D01*
X77216000Y-44764887D01*
X76666849Y-44874120D01*
X76201302Y-45185189D01*
X75946000Y-45567275D01*
X75690698Y-45185189D01*
X75225151Y-44874120D01*
X74676000Y-44764887D01*
X74126849Y-44874120D01*
X73661302Y-45185189D01*
X73406000Y-45567275D01*
X73150698Y-45185189D01*
X72685151Y-44874120D01*
X72136000Y-44764887D01*
X71586849Y-44874120D01*
X71121302Y-45185189D01*
X70866000Y-45567275D01*
X70610698Y-45185189D01*
X70145151Y-44874120D01*
X69596000Y-44764887D01*
X69046849Y-44874120D01*
X68581302Y-45185189D01*
X68326000Y-45567275D01*
X68070698Y-45185189D01*
X67605151Y-44874120D01*
X67056000Y-44764887D01*
X66506849Y-44874120D01*
X66041302Y-45185189D01*
X65786000Y-45567275D01*
X65530698Y-45185189D01*
X65065151Y-44874120D01*
X64516000Y-44764887D01*
X63966849Y-44874120D01*
X63501302Y-45185189D01*
X63246000Y-45567275D01*
X63179251Y-45467379D01*
X64405951Y-44240679D01*
X64770000Y-44313093D01*
X65338285Y-44200054D01*
X65820054Y-43878147D01*
X66040000Y-43548974D01*
X66259946Y-43878147D01*
X66741715Y-44200054D01*
X67310000Y-44313093D01*
X67878285Y-44200054D01*
X68360054Y-43878147D01*
X68681961Y-43396378D01*
X68795000Y-42828093D01*
X68795000Y-42769907D01*
X68681961Y-42201622D01*
X68360054Y-41719853D01*
X67878285Y-41397946D01*
X67310000Y-41284907D01*
X66741715Y-41397946D01*
X66259946Y-41719853D01*
X66040000Y-42049026D01*
X65820054Y-41719853D01*
X65338285Y-41397946D01*
X64770000Y-41284907D01*
X64201715Y-41397946D01*
X63719946Y-41719853D01*
X63500000Y-42049026D01*
X63280054Y-41719853D01*
X62798285Y-41397946D01*
X62230000Y-41284907D01*
X61661715Y-41397946D01*
X61179946Y-41719853D01*
X61152150Y-41761452D01*
X61143162Y-41713683D01*
X61004090Y-41497559D01*
X60791890Y-41352569D01*
X60540000Y-41301560D01*
X58840000Y-41301560D01*
X58604683Y-41345838D01*
X58388559Y-41484910D01*
X58243569Y-41697110D01*
X58192560Y-41949000D01*
X58192560Y-43649000D01*
X58236838Y-43884317D01*
X58375910Y-44100441D01*
X58588110Y-44245431D01*
X58840000Y-44296440D01*
X60540000Y-44296440D01*
X60775317Y-44252162D01*
X60991441Y-44113090D01*
X61136431Y-43900890D01*
X61150086Y-43833459D01*
X61179946Y-43878147D01*
X61661715Y-44200054D01*
X62186858Y-44304512D01*
X61664527Y-44826843D01*
X61426849Y-44874120D01*
X60961302Y-45185189D01*
X60706000Y-45567275D01*
X60450698Y-45185189D01*
X59985151Y-44874120D01*
X59436000Y-44764887D01*
X58886849Y-44874120D01*
X58421302Y-45185189D01*
X58110233Y-45650736D01*
X58001000Y-46199887D01*
X56045000Y-46199887D01*
X55935767Y-45650736D01*
X55624698Y-45185189D01*
X55159151Y-44874120D01*
X54610000Y-44764887D01*
X54060849Y-44874120D01*
X53595302Y-45185189D01*
X53340000Y-45567275D01*
X53084698Y-45185189D01*
X52619151Y-44874120D01*
X52070000Y-44764887D01*
X51520849Y-44874120D01*
X51055302Y-45185189D01*
X50800000Y-45567275D01*
X50544698Y-45185189D01*
X50079151Y-44874120D01*
X49530000Y-44764887D01*
X48980849Y-44874120D01*
X48515302Y-45185189D01*
X48260000Y-45567275D01*
X48004698Y-45185189D01*
X47539151Y-44874120D01*
X46990000Y-44764887D01*
X46440849Y-44874120D01*
X45975302Y-45185189D01*
X45720000Y-45567275D01*
X45464698Y-45185189D01*
X44999151Y-44874120D01*
X44450000Y-44764887D01*
X43900849Y-44874120D01*
X43435302Y-45185189D01*
X43180000Y-45567275D01*
X42924698Y-45185189D01*
X42459151Y-44874120D01*
X41910000Y-44764887D01*
X41360849Y-44874120D01*
X40895302Y-45185189D01*
X40640000Y-45567275D01*
X40573251Y-45467379D01*
X41799951Y-44240679D01*
X42164000Y-44313093D01*
X42732285Y-44200054D01*
X43214054Y-43878147D01*
X43434000Y-43548974D01*
X43653946Y-43878147D01*
X44135715Y-44200054D01*
X44704000Y-44313093D01*
X45272285Y-44200054D01*
X45754054Y-43878147D01*
X46075961Y-43396378D01*
X46189000Y-42828093D01*
X46189000Y-42769907D01*
X46075961Y-42201622D01*
X45754054Y-41719853D01*
X45272285Y-41397946D01*
X44704000Y-41284907D01*
X44135715Y-41397946D01*
X43653946Y-41719853D01*
X43434000Y-42049026D01*
X43214054Y-41719853D01*
X42732285Y-41397946D01*
X42164000Y-41284907D01*
X41595715Y-41397946D01*
X41113946Y-41719853D01*
X40894000Y-42049026D01*
X40674054Y-41719853D01*
X40192285Y-41397946D01*
X39624000Y-41284907D01*
X39055715Y-41397946D01*
X38573946Y-41719853D01*
X38546150Y-41761452D01*
X38537162Y-41713683D01*
X38398090Y-41497559D01*
X38185890Y-41352569D01*
X37934000Y-41301560D01*
X36234000Y-41301560D01*
X35998683Y-41345838D01*
X35782559Y-41484910D01*
X35637569Y-41697110D01*
X35586560Y-41949000D01*
X35586560Y-43649000D01*
X35630838Y-43884317D01*
X35769910Y-44100441D01*
X35982110Y-44245431D01*
X36234000Y-44296440D01*
X37934000Y-44296440D01*
X38169317Y-44252162D01*
X38385441Y-44113090D01*
X38530431Y-43900890D01*
X38544086Y-43833459D01*
X38573946Y-43878147D01*
X39055715Y-44200054D01*
X39580858Y-44304512D01*
X39058527Y-44826843D01*
X38820849Y-44874120D01*
X38355302Y-45185189D01*
X38100000Y-45567275D01*
X37844698Y-45185189D01*
X37379151Y-44874120D01*
X36830000Y-44764887D01*
X36280849Y-44874120D01*
X35815302Y-45185189D01*
X35504233Y-45650736D01*
X35395000Y-46199887D01*
X24967000Y-46199887D01*
X24967000Y-36510619D01*
X26085613Y-36510619D01*
X26425155Y-37332372D01*
X27053321Y-37961636D01*
X27874481Y-38302611D01*
X28763619Y-38303387D01*
X29585372Y-37963845D01*
X30214636Y-37335679D01*
X30555611Y-36514519D01*
X30555614Y-36510619D01*
X78790613Y-36510619D01*
X79130155Y-37332372D01*
X79758321Y-37961636D01*
X80579481Y-38302611D01*
X81468619Y-38303387D01*
X82290372Y-37963845D01*
X82919636Y-37335679D01*
X83260611Y-36514519D01*
X83261387Y-35625381D01*
X82921845Y-34803628D01*
X82293679Y-34174364D01*
X81472519Y-33833389D01*
X80583381Y-33832613D01*
X79761628Y-34172155D01*
X79132364Y-34800321D01*
X78791389Y-35621481D01*
X78790613Y-36510619D01*
X30555614Y-36510619D01*
X30556387Y-35625381D01*
X30216845Y-34803628D01*
X29588679Y-34174364D01*
X28767519Y-33833389D01*
X27878381Y-33832613D01*
X27056628Y-34172155D01*
X26427364Y-34800321D01*
X26086389Y-35621481D01*
X26085613Y-36510619D01*
X24967000Y-36510619D01*
X24967000Y-32714000D01*
X84380000Y-32714000D01*
X84380000Y-137847000D01*
M02*
