G04 #@! TF.FileFunction,Copper,L2,Bot,Signal*
%FSLAX46Y46*%
G04 Gerber Fmt 4.6, Leading zero omitted, Abs format (unit mm)*
G04 Created by KiCad (PCBNEW 4.0.7) date 05/15/18 20:44:28*
%MOMM*%
%LPD*%
G01*
G04 APERTURE LIST*
%ADD10C,0.100000*%
%ADD11R,1.700000X1.700000*%
%ADD12O,1.700000X1.700000*%
%ADD13R,1.600000X1.600000*%
%ADD14O,1.600000X1.600000*%
%ADD15C,0.685800*%
%ADD16C,0.254000*%
%ADD17C,0.203200*%
%ADD18C,1.270000*%
G04 APERTURE END LIST*
D10*
D11*
X37084000Y-78486000D03*
D12*
X39624000Y-78486000D03*
X42164000Y-78486000D03*
X44704000Y-78486000D03*
D11*
X37084000Y-64135000D03*
D12*
X39624000Y-64135000D03*
X42164000Y-64135000D03*
X44704000Y-64135000D03*
D13*
X36830000Y-75184000D03*
D14*
X54610000Y-67564000D03*
X39370000Y-75184000D03*
X52070000Y-67564000D03*
X41910000Y-75184000D03*
X49530000Y-67564000D03*
X44450000Y-75184000D03*
X46990000Y-67564000D03*
X46990000Y-75184000D03*
X44450000Y-67564000D03*
X49530000Y-75184000D03*
X41910000Y-67564000D03*
X52070000Y-75184000D03*
X39370000Y-67564000D03*
X54610000Y-75184000D03*
X36830000Y-67564000D03*
D13*
X59436000Y-75184000D03*
D14*
X77216000Y-67564000D03*
X61976000Y-75184000D03*
X74676000Y-67564000D03*
X64516000Y-75184000D03*
X72136000Y-67564000D03*
X67056000Y-75184000D03*
X69596000Y-67564000D03*
X69596000Y-75184000D03*
X67056000Y-67564000D03*
X72136000Y-75184000D03*
X64516000Y-67564000D03*
X74676000Y-75184000D03*
X61976000Y-67564000D03*
X77216000Y-75184000D03*
X59436000Y-67564000D03*
D11*
X59690000Y-64135000D03*
D12*
X62230000Y-64135000D03*
X64770000Y-64135000D03*
X67310000Y-64135000D03*
D11*
X59690000Y-78486000D03*
D12*
X62230000Y-78486000D03*
X64770000Y-78486000D03*
X67310000Y-78486000D03*
D11*
X59690000Y-57150000D03*
D12*
X62230000Y-57150000D03*
X64770000Y-57150000D03*
X67310000Y-57150000D03*
D11*
X59690000Y-42799000D03*
D12*
X62230000Y-42799000D03*
X64770000Y-42799000D03*
X67310000Y-42799000D03*
D13*
X59436000Y-53848000D03*
D14*
X77216000Y-46228000D03*
X61976000Y-53848000D03*
X74676000Y-46228000D03*
X64516000Y-53848000D03*
X72136000Y-46228000D03*
X67056000Y-53848000D03*
X69596000Y-46228000D03*
X69596000Y-53848000D03*
X67056000Y-46228000D03*
X72136000Y-53848000D03*
X64516000Y-46228000D03*
X74676000Y-53848000D03*
X61976000Y-46228000D03*
X77216000Y-53848000D03*
X59436000Y-46228000D03*
D13*
X36830000Y-53848000D03*
D14*
X54610000Y-46228000D03*
X39370000Y-53848000D03*
X52070000Y-46228000D03*
X41910000Y-53848000D03*
X49530000Y-46228000D03*
X44450000Y-53848000D03*
X46990000Y-46228000D03*
X46990000Y-53848000D03*
X44450000Y-46228000D03*
X49530000Y-53848000D03*
X41910000Y-46228000D03*
X52070000Y-53848000D03*
X39370000Y-46228000D03*
X54610000Y-53848000D03*
X36830000Y-46228000D03*
D11*
X37084000Y-42799000D03*
D12*
X39624000Y-42799000D03*
X42164000Y-42799000D03*
X44704000Y-42799000D03*
D11*
X37084000Y-57150000D03*
D12*
X39624000Y-57150000D03*
X42164000Y-57150000D03*
X44704000Y-57150000D03*
D11*
X37084000Y-99822000D03*
D12*
X39624000Y-99822000D03*
X42164000Y-99822000D03*
X44704000Y-99822000D03*
D11*
X37084000Y-85471000D03*
D12*
X39624000Y-85471000D03*
X42164000Y-85471000D03*
X44704000Y-85471000D03*
D13*
X36830000Y-96520000D03*
D14*
X54610000Y-88900000D03*
X39370000Y-96520000D03*
X52070000Y-88900000D03*
X41910000Y-96520000D03*
X49530000Y-88900000D03*
X44450000Y-96520000D03*
X46990000Y-88900000D03*
X46990000Y-96520000D03*
X44450000Y-88900000D03*
X49530000Y-96520000D03*
X41910000Y-88900000D03*
X52070000Y-96520000D03*
X39370000Y-88900000D03*
X54610000Y-96520000D03*
X36830000Y-88900000D03*
D13*
X59436000Y-96520000D03*
D14*
X77216000Y-88900000D03*
X61976000Y-96520000D03*
X74676000Y-88900000D03*
X64516000Y-96520000D03*
X72136000Y-88900000D03*
X67056000Y-96520000D03*
X69596000Y-88900000D03*
X69596000Y-96520000D03*
X67056000Y-88900000D03*
X72136000Y-96520000D03*
X64516000Y-88900000D03*
X74676000Y-96520000D03*
X61976000Y-88900000D03*
X77216000Y-96520000D03*
X59436000Y-88900000D03*
D11*
X59690000Y-85471000D03*
D12*
X62230000Y-85471000D03*
X64770000Y-85471000D03*
X67310000Y-85471000D03*
D11*
X59690000Y-99822000D03*
D12*
X62230000Y-99822000D03*
X64770000Y-99822000D03*
X67310000Y-99822000D03*
D11*
X59690000Y-121158000D03*
D12*
X62230000Y-121158000D03*
X64770000Y-121158000D03*
X67310000Y-121158000D03*
D11*
X59690000Y-106807000D03*
D12*
X62230000Y-106807000D03*
X64770000Y-106807000D03*
X67310000Y-106807000D03*
D13*
X59436000Y-117856000D03*
D14*
X77216000Y-110236000D03*
X61976000Y-117856000D03*
X74676000Y-110236000D03*
X64516000Y-117856000D03*
X72136000Y-110236000D03*
X67056000Y-117856000D03*
X69596000Y-110236000D03*
X69596000Y-117856000D03*
X67056000Y-110236000D03*
X72136000Y-117856000D03*
X64516000Y-110236000D03*
X74676000Y-117856000D03*
X61976000Y-110236000D03*
X77216000Y-117856000D03*
X59436000Y-110236000D03*
D11*
X28448000Y-129286000D03*
D12*
X28448000Y-126746000D03*
X28448000Y-124206000D03*
X28448000Y-121666000D03*
X28448000Y-119126000D03*
X28448000Y-116586000D03*
X28448000Y-114046000D03*
X28448000Y-111506000D03*
X28448000Y-108966000D03*
X28448000Y-106426000D03*
X28448000Y-103886000D03*
X28448000Y-101346000D03*
X28448000Y-98806000D03*
D13*
X36830000Y-117856000D03*
D14*
X54610000Y-110236000D03*
X39370000Y-117856000D03*
X52070000Y-110236000D03*
X41910000Y-117856000D03*
X49530000Y-110236000D03*
X44450000Y-117856000D03*
X46990000Y-110236000D03*
X46990000Y-117856000D03*
X44450000Y-110236000D03*
X49530000Y-117856000D03*
X41910000Y-110236000D03*
X52070000Y-117856000D03*
X39370000Y-110236000D03*
X54610000Y-117856000D03*
X36830000Y-110236000D03*
D11*
X37084000Y-106807000D03*
D12*
X39624000Y-106807000D03*
X42164000Y-106807000D03*
X44704000Y-106807000D03*
D11*
X37084000Y-121158000D03*
D12*
X39624000Y-121158000D03*
X42164000Y-121158000D03*
X44704000Y-121158000D03*
D11*
X27305000Y-74930000D03*
D12*
X29845000Y-74930000D03*
X27305000Y-77470000D03*
X29845000Y-77470000D03*
X27305000Y-80010000D03*
X29845000Y-80010000D03*
X27305000Y-82550000D03*
X29845000Y-82550000D03*
X27305000Y-85090000D03*
X29845000Y-85090000D03*
X27305000Y-87630000D03*
X29845000Y-87630000D03*
X27305000Y-90170000D03*
X29845000Y-90170000D03*
X27305000Y-92710000D03*
X29845000Y-92710000D03*
D15*
X50800000Y-124206000D03*
X73406000Y-124206000D03*
X53340000Y-126746000D03*
X75946000Y-126746000D03*
X55880000Y-129286000D03*
X78486000Y-129286000D03*
D16*
X50800000Y-67564000D02*
X49530000Y-67564000D01*
X50800000Y-88900000D02*
X49530000Y-88900000D01*
X50800000Y-110236000D02*
X49530000Y-110236000D01*
X73406000Y-110236000D02*
X72136000Y-110236000D01*
X73406000Y-88900000D02*
X72136000Y-88900000D01*
X73406000Y-67564000D02*
X72136000Y-67564000D01*
X50800000Y-124206000D02*
X50800000Y-46228000D01*
X50800000Y-46228000D02*
X49530000Y-46228000D01*
X72136000Y-46228000D02*
X73406000Y-46228000D01*
X73406000Y-46228000D02*
X73406000Y-124206000D01*
D17*
X50800000Y-61976000D02*
X50800000Y-67564000D01*
X50800000Y-59436000D02*
X50800000Y-46228000D01*
X50800000Y-60706000D02*
X50800000Y-59436000D01*
X50800000Y-60706000D02*
X50800000Y-61976000D01*
X50800000Y-80772000D02*
X50800000Y-67564000D01*
X50800000Y-82042000D02*
X50800000Y-80772000D01*
X73406000Y-82042000D02*
X73406000Y-80772000D01*
X73406000Y-80772000D02*
X73406000Y-67564000D01*
X73406000Y-60706000D02*
X73406000Y-61976000D01*
X73406000Y-61976000D02*
X73406000Y-67564000D01*
X73406000Y-59436000D02*
X73406000Y-46228000D01*
X73406000Y-60706000D02*
X73406000Y-59436000D01*
X50800000Y-46228000D02*
X49530000Y-46228000D01*
X50800000Y-83312000D02*
X50800000Y-88900000D01*
X50800000Y-82042000D02*
X50800000Y-83312000D01*
X50800000Y-102108000D02*
X50800000Y-88900000D01*
X50800000Y-103378000D02*
X50800000Y-102108000D01*
X73406000Y-103378000D02*
X73406000Y-102108000D01*
X73406000Y-102108000D02*
X73406000Y-88900000D01*
X73406000Y-82042000D02*
X73406000Y-83312000D01*
X73406000Y-83312000D02*
X73406000Y-88900000D01*
X73406000Y-104648000D02*
X73406000Y-110236000D01*
X73406000Y-103378000D02*
X73406000Y-104648000D01*
X73406000Y-123444000D02*
X73406000Y-110236000D01*
X73406000Y-124206000D02*
X73406000Y-123444000D01*
X50800000Y-124206000D02*
X50800000Y-123444000D01*
X50800000Y-123444000D02*
X50800000Y-110236000D01*
X50800000Y-103378000D02*
X50800000Y-104648000D01*
X50800000Y-104648000D02*
X50800000Y-110236000D01*
D16*
X53340000Y-67564000D02*
X52070000Y-67564000D01*
X53340000Y-88900000D02*
X52070000Y-88900000D01*
X53340000Y-110236000D02*
X52070000Y-110236000D01*
X75946000Y-110236000D02*
X74676000Y-110236000D01*
X75946000Y-88900000D02*
X74676000Y-88900000D01*
X75946000Y-67564000D02*
X74676000Y-67564000D01*
X52070000Y-46228000D02*
X53340000Y-46228000D01*
X53340000Y-46228000D02*
X53340000Y-67564000D01*
X53340000Y-67564000D02*
X53340000Y-126746000D01*
X75946000Y-126746000D02*
X75946000Y-46228000D01*
X75946000Y-46228000D02*
X74676000Y-46228000D01*
D17*
X53340000Y-126746000D02*
X53340000Y-124714000D01*
X53340000Y-124714000D02*
X53340000Y-123444000D01*
X53340000Y-123444000D02*
X53340000Y-110236000D01*
X75946000Y-124714000D02*
X75946000Y-126746000D01*
X75946000Y-110236000D02*
X75946000Y-123444000D01*
X75946000Y-124714000D02*
X75946000Y-123444000D01*
X53340000Y-60706000D02*
X53340000Y-61976000D01*
X53340000Y-59436000D02*
X53340000Y-46228000D01*
X53340000Y-60706000D02*
X53340000Y-59436000D01*
X53340000Y-61976000D02*
X53340000Y-67564000D01*
X53340000Y-80772000D02*
X53340000Y-67564000D01*
X53340000Y-82042000D02*
X53340000Y-80772000D01*
X75946000Y-82042000D02*
X75946000Y-80772000D01*
X75946000Y-80772000D02*
X75946000Y-67564000D01*
X75946000Y-60706000D02*
X75946000Y-61976000D01*
X75946000Y-60706000D02*
X75946000Y-59436000D01*
X75946000Y-59436000D02*
X75946000Y-46228000D01*
X75946000Y-61976000D02*
X75946000Y-67564000D01*
X75946000Y-46228000D02*
X74676000Y-46228000D01*
X53340000Y-82042000D02*
X53340000Y-83312000D01*
X53340000Y-83312000D02*
X53340000Y-88900000D01*
X53340000Y-102108000D02*
X53340000Y-88900000D01*
X53340000Y-103378000D02*
X53340000Y-104648000D01*
X53340000Y-104648000D02*
X53340000Y-110236000D01*
X53340000Y-103378000D02*
X53340000Y-102108000D01*
X75946000Y-103378000D02*
X75946000Y-102108000D01*
X75946000Y-102108000D02*
X75946000Y-88900000D01*
X75946000Y-82042000D02*
X75946000Y-83312000D01*
X75946000Y-83312000D02*
X75946000Y-88900000D01*
X75946000Y-104648000D02*
X75946000Y-110236000D01*
X75946000Y-103378000D02*
X75946000Y-104648000D01*
D16*
X55880000Y-67564000D02*
X54610000Y-67564000D01*
X55880000Y-88900000D02*
X54610000Y-88900000D01*
X55880000Y-110236000D02*
X54610000Y-110236000D01*
X78486000Y-110236000D02*
X77216000Y-110236000D01*
X78486000Y-88900000D02*
X77216000Y-88900000D01*
X78486000Y-67564000D02*
X77216000Y-67564000D01*
X55880000Y-129286000D02*
X55880000Y-46228000D01*
X55880000Y-46228000D02*
X54610000Y-46228000D01*
X77216000Y-46228000D02*
X78486000Y-46228000D01*
X78486000Y-46228000D02*
X78486000Y-129286000D01*
D17*
X55880000Y-129286000D02*
X55880000Y-124714000D01*
X55880000Y-123444000D02*
X55880000Y-110236000D01*
X55880000Y-124714000D02*
X55880000Y-123444000D01*
X78486000Y-124714000D02*
X78486000Y-129286000D01*
X78486000Y-124714000D02*
X78486000Y-123444000D01*
X78486000Y-110236000D02*
X78486000Y-123444000D01*
X55880000Y-60706000D02*
X55880000Y-61976000D01*
X55880000Y-60706000D02*
X55880000Y-59436000D01*
X55880000Y-59436000D02*
X55880000Y-46228000D01*
X55880000Y-61976000D02*
X55880000Y-67564000D01*
X55880000Y-82042000D02*
X55880000Y-80772000D01*
X55880000Y-80772000D02*
X55880000Y-67564000D01*
X78486000Y-82042000D02*
X78486000Y-80772000D01*
X78486000Y-67564000D02*
X78486000Y-80772000D01*
X78486000Y-60706000D02*
X78486000Y-61976000D01*
X78486000Y-61976000D02*
X78486000Y-67564000D01*
X78486000Y-46228000D02*
X78486000Y-59436000D01*
X78486000Y-60706000D02*
X78486000Y-59436000D01*
X55880000Y-46228000D02*
X54610000Y-46228000D01*
X55880000Y-82042000D02*
X55880000Y-83312000D01*
X55880000Y-83312000D02*
X55880000Y-88900000D01*
X55880000Y-103378000D02*
X55880000Y-102108000D01*
X55880000Y-103378000D02*
X55880000Y-104648000D01*
X55880000Y-104648000D02*
X55880000Y-110236000D01*
X55880000Y-102108000D02*
X55880000Y-88900000D01*
X78486000Y-103378000D02*
X78486000Y-102108000D01*
X78486000Y-88900000D02*
X78486000Y-102108000D01*
X78486000Y-82042000D02*
X78486000Y-83312000D01*
X78486000Y-83312000D02*
X78486000Y-88900000D01*
X78486000Y-104648000D02*
X78486000Y-110236000D01*
X78486000Y-103378000D02*
X78486000Y-104648000D01*
D16*
X44450000Y-110236000D02*
X42926000Y-111760000D01*
X42926000Y-111760000D02*
X38989000Y-111760000D01*
X38989000Y-111760000D02*
X38100000Y-110871000D01*
X38100000Y-110871000D02*
X38100000Y-107823000D01*
X38100000Y-107823000D02*
X37084000Y-106807000D01*
D17*
X38100000Y-107823000D02*
X37084000Y-106807000D01*
X38100000Y-110871000D02*
X38100000Y-107823000D01*
X38989000Y-111760000D02*
X38100000Y-110871000D01*
X42926000Y-111760000D02*
X38989000Y-111760000D01*
D16*
X41910000Y-110236000D02*
X41910000Y-109093000D01*
X41910000Y-109093000D02*
X39624000Y-106807000D01*
D17*
X41910000Y-109093000D02*
X39624000Y-106807000D01*
D16*
X46990000Y-110236000D02*
X46990000Y-108966000D01*
X46990000Y-108966000D02*
X44831000Y-106807000D01*
X44831000Y-106807000D02*
X44704000Y-106807000D01*
D17*
X44704000Y-106807000D02*
X44831000Y-106807000D01*
X44831000Y-106807000D02*
X46990000Y-108966000D01*
D16*
X36830000Y-117856000D02*
X36830000Y-120904000D01*
X36830000Y-120904000D02*
X37084000Y-121158000D01*
D17*
X36830000Y-120904000D02*
X37084000Y-121158000D01*
D16*
X42164000Y-121158000D02*
X42164000Y-120650000D01*
X42164000Y-120650000D02*
X39370000Y-117856000D01*
D17*
X42164000Y-120650000D02*
X39370000Y-117856000D01*
D16*
X44450000Y-117856000D02*
X44450000Y-120904000D01*
X44450000Y-120904000D02*
X44704000Y-121158000D01*
D17*
X44450000Y-120904000D02*
X44704000Y-121158000D01*
D16*
X67056000Y-110236000D02*
X65532000Y-111760000D01*
X65532000Y-111760000D02*
X61595000Y-111760000D01*
X61595000Y-111760000D02*
X60706000Y-110871000D01*
X60706000Y-110871000D02*
X60706000Y-107823000D01*
X60706000Y-107823000D02*
X59690000Y-106807000D01*
D17*
X65532000Y-111760000D02*
X61595000Y-111760000D01*
X61595000Y-111760000D02*
X60706000Y-110871000D01*
X60706000Y-110871000D02*
X60706000Y-107823000D01*
X60706000Y-107823000D02*
X59690000Y-106807000D01*
D16*
X64516000Y-110236000D02*
X64516000Y-109093000D01*
X64516000Y-109093000D02*
X62230000Y-106807000D01*
D17*
X64516000Y-109093000D02*
X62230000Y-106807000D01*
D16*
X67310000Y-106807000D02*
X67437000Y-106807000D01*
X67437000Y-106807000D02*
X69596000Y-108966000D01*
X69596000Y-108966000D02*
X69596000Y-110236000D01*
D17*
X69596000Y-108966000D02*
X69596000Y-110236000D01*
X67437000Y-106807000D02*
X69596000Y-108966000D01*
D16*
X59436000Y-117856000D02*
X59436000Y-120904000D01*
X59436000Y-120904000D02*
X59690000Y-121158000D01*
D17*
X59436000Y-120904000D02*
X59690000Y-121158000D01*
D16*
X64770000Y-121158000D02*
X64770000Y-120650000D01*
X64770000Y-120650000D02*
X61976000Y-117856000D01*
D17*
X64770000Y-120650000D02*
X61976000Y-117856000D01*
D16*
X67056000Y-117856000D02*
X67056000Y-120904000D01*
X67056000Y-120904000D02*
X67310000Y-121158000D01*
D17*
X67056000Y-120904000D02*
X67310000Y-121158000D01*
D16*
X44450000Y-88900000D02*
X42926000Y-90424000D01*
X42926000Y-90424000D02*
X38989000Y-90424000D01*
X38989000Y-90424000D02*
X38100000Y-89535000D01*
X38100000Y-89535000D02*
X38100000Y-86487000D01*
X38100000Y-86487000D02*
X37084000Y-85471000D01*
D17*
X42926000Y-90424000D02*
X38989000Y-90424000D01*
X38989000Y-90424000D02*
X38100000Y-89535000D01*
X38100000Y-89535000D02*
X38100000Y-86487000D01*
X38100000Y-86487000D02*
X37084000Y-85471000D01*
D16*
X41910000Y-88900000D02*
X41910000Y-87757000D01*
X41910000Y-87757000D02*
X39624000Y-85471000D01*
D17*
X41910000Y-87757000D02*
X39624000Y-85471000D01*
D16*
X46990000Y-88900000D02*
X46990000Y-87630000D01*
X46990000Y-87630000D02*
X44831000Y-85471000D01*
X44831000Y-85471000D02*
X44704000Y-85471000D01*
D17*
X44831000Y-85471000D02*
X46990000Y-87630000D01*
X44704000Y-85471000D02*
X44831000Y-85471000D01*
D16*
X36830000Y-96520000D02*
X36830000Y-99568000D01*
X36830000Y-99568000D02*
X37084000Y-99822000D01*
D17*
X36830000Y-99568000D02*
X37084000Y-99822000D01*
D16*
X42164000Y-99822000D02*
X42164000Y-99314000D01*
X42164000Y-99314000D02*
X39370000Y-96520000D01*
D17*
X42164000Y-99314000D02*
X39370000Y-96520000D01*
D16*
X44450000Y-96520000D02*
X44450000Y-99568000D01*
X44450000Y-99568000D02*
X44704000Y-99822000D01*
D17*
X44450000Y-99568000D02*
X44704000Y-99822000D01*
D16*
X67056000Y-88900000D02*
X65532000Y-90424000D01*
X65532000Y-90424000D02*
X61595000Y-90424000D01*
X61595000Y-90424000D02*
X60706000Y-89535000D01*
X60706000Y-89535000D02*
X60706000Y-86487000D01*
X60706000Y-86487000D02*
X59690000Y-85471000D01*
D17*
X60706000Y-86487000D02*
X59690000Y-85471000D01*
X60706000Y-89535000D02*
X60706000Y-86487000D01*
X61595000Y-90424000D02*
X60706000Y-89535000D01*
X65532000Y-90424000D02*
X61595000Y-90424000D01*
D16*
X64516000Y-88900000D02*
X64516000Y-87757000D01*
X64516000Y-87757000D02*
X62230000Y-85471000D01*
D17*
X64516000Y-87757000D02*
X62230000Y-85471000D01*
D16*
X69596000Y-88900000D02*
X69596000Y-87630000D01*
X69596000Y-87630000D02*
X67437000Y-85471000D01*
X67437000Y-85471000D02*
X67310000Y-85471000D01*
D17*
X67310000Y-85471000D02*
X67437000Y-85471000D01*
X67437000Y-85471000D02*
X69596000Y-87630000D01*
D16*
X59436000Y-96520000D02*
X59436000Y-99568000D01*
X59436000Y-99568000D02*
X59690000Y-99822000D01*
D17*
X59436000Y-99568000D02*
X59690000Y-99822000D01*
D16*
X64770000Y-99822000D02*
X64770000Y-99314000D01*
X64770000Y-99314000D02*
X61976000Y-96520000D01*
D17*
X64770000Y-99314000D02*
X61976000Y-96520000D01*
D16*
X67056000Y-96520000D02*
X67056000Y-99568000D01*
X67056000Y-99568000D02*
X67310000Y-99822000D01*
D17*
X67056000Y-99568000D02*
X67310000Y-99822000D01*
D16*
X44450000Y-67564000D02*
X42926000Y-69088000D01*
X42926000Y-69088000D02*
X38989000Y-69088000D01*
X38989000Y-69088000D02*
X38100000Y-68199000D01*
X38100000Y-68199000D02*
X38100000Y-65151000D01*
X38100000Y-65151000D02*
X37084000Y-64135000D01*
D17*
X42926000Y-69088000D02*
X38989000Y-69088000D01*
X38989000Y-69088000D02*
X38100000Y-68199000D01*
X38100000Y-68199000D02*
X38100000Y-65151000D01*
X38100000Y-65151000D02*
X37084000Y-64135000D01*
D16*
X41910000Y-67564000D02*
X41910000Y-66421000D01*
X41910000Y-66421000D02*
X39624000Y-64135000D01*
D17*
X41910000Y-66421000D02*
X39624000Y-64135000D01*
D16*
X46990000Y-67564000D02*
X46990000Y-66294000D01*
X46990000Y-66294000D02*
X44831000Y-64135000D01*
X44831000Y-64135000D02*
X44704000Y-64135000D01*
D17*
X44831000Y-64135000D02*
X46990000Y-66294000D01*
X44704000Y-64135000D02*
X44831000Y-64135000D01*
D16*
X36830000Y-75184000D02*
X36830000Y-78232000D01*
X36830000Y-78232000D02*
X37084000Y-78486000D01*
D17*
X36830000Y-78232000D02*
X37084000Y-78486000D01*
D16*
X42164000Y-78486000D02*
X42164000Y-77978000D01*
X42164000Y-77978000D02*
X39370000Y-75184000D01*
D17*
X42164000Y-77978000D02*
X39370000Y-75184000D01*
D16*
X44450000Y-75184000D02*
X44450000Y-78232000D01*
X44450000Y-78232000D02*
X44704000Y-78486000D01*
D17*
X44450000Y-78232000D02*
X44704000Y-78486000D01*
D16*
X67056000Y-67564000D02*
X65532000Y-69088000D01*
X65532000Y-69088000D02*
X61595000Y-69088000D01*
X61595000Y-69088000D02*
X60706000Y-68199000D01*
X60706000Y-68199000D02*
X60706000Y-65151000D01*
X60706000Y-65151000D02*
X59690000Y-64135000D01*
D17*
X60706000Y-65151000D02*
X59690000Y-64135000D01*
X60706000Y-68199000D02*
X60706000Y-65151000D01*
X61595000Y-69088000D02*
X60706000Y-68199000D01*
X65532000Y-69088000D02*
X61595000Y-69088000D01*
D16*
X64516000Y-67564000D02*
X64516000Y-66421000D01*
X64516000Y-66421000D02*
X62230000Y-64135000D01*
D17*
X64516000Y-66421000D02*
X62230000Y-64135000D01*
X67310000Y-64135000D02*
X67437000Y-64135000D01*
X67437000Y-64135000D02*
X69596000Y-66294000D01*
X69596000Y-66294000D02*
X69596000Y-67564000D01*
D16*
X59436000Y-75184000D02*
X59436000Y-78232000D01*
X59436000Y-78232000D02*
X59690000Y-78486000D01*
D17*
X59436000Y-78232000D02*
X59690000Y-78486000D01*
D16*
X64770000Y-78486000D02*
X64770000Y-77978000D01*
X64770000Y-77978000D02*
X61976000Y-75184000D01*
D17*
X64770000Y-77978000D02*
X61976000Y-75184000D01*
D16*
X67056000Y-75184000D02*
X67056000Y-78232000D01*
X67056000Y-78232000D02*
X67310000Y-78486000D01*
D17*
X67056000Y-78232000D02*
X67310000Y-78486000D01*
D16*
X44450000Y-46228000D02*
X42926000Y-47752000D01*
X42926000Y-47752000D02*
X38989000Y-47752000D01*
X38989000Y-47752000D02*
X38100000Y-46863000D01*
X38100000Y-46863000D02*
X38100000Y-43815000D01*
X38100000Y-43815000D02*
X37084000Y-42799000D01*
D17*
X38100000Y-43815000D02*
X37084000Y-42799000D01*
X38100000Y-46863000D02*
X38100000Y-43815000D01*
X38989000Y-47752000D02*
X38100000Y-46863000D01*
X42926000Y-47752000D02*
X38989000Y-47752000D01*
D16*
X41910000Y-46228000D02*
X41910000Y-45085000D01*
X41910000Y-45085000D02*
X39624000Y-42799000D01*
D17*
X41910000Y-45085000D02*
X39624000Y-42799000D01*
D16*
X46990000Y-46228000D02*
X46990000Y-44958000D01*
X46990000Y-44958000D02*
X44831000Y-42799000D01*
X44831000Y-42799000D02*
X44704000Y-42799000D01*
D17*
X44704000Y-42799000D02*
X44831000Y-42799000D01*
X44831000Y-42799000D02*
X46990000Y-44958000D01*
D16*
X36830000Y-53848000D02*
X36830000Y-56896000D01*
X36830000Y-56896000D02*
X37084000Y-57150000D01*
D17*
X36830000Y-56896000D02*
X37084000Y-57150000D01*
D16*
X42164000Y-57150000D02*
X42164000Y-56642000D01*
X42164000Y-56642000D02*
X39370000Y-53848000D01*
D17*
X42164000Y-56642000D02*
X39370000Y-53848000D01*
D16*
X44450000Y-53848000D02*
X44450000Y-56896000D01*
X44450000Y-56896000D02*
X44704000Y-57150000D01*
D17*
X44450000Y-56896000D02*
X44704000Y-57150000D01*
D16*
X67056000Y-46228000D02*
X65532000Y-47752000D01*
X65532000Y-47752000D02*
X61595000Y-47752000D01*
X61595000Y-47752000D02*
X60706000Y-46863000D01*
X60706000Y-46863000D02*
X60706000Y-43815000D01*
X60706000Y-43815000D02*
X59690000Y-42799000D01*
D17*
X65532000Y-47752000D02*
X61595000Y-47752000D01*
X61595000Y-47752000D02*
X60706000Y-46863000D01*
X60706000Y-46863000D02*
X60706000Y-43815000D01*
X60706000Y-43815000D02*
X59690000Y-42799000D01*
D16*
X64516000Y-46228000D02*
X64516000Y-45085000D01*
X64516000Y-45085000D02*
X62230000Y-42799000D01*
D17*
X64516000Y-45085000D02*
X62230000Y-42799000D01*
X69596000Y-44958000D02*
X69596000Y-46228000D01*
X67437000Y-42799000D02*
X69596000Y-44958000D01*
X67310000Y-42799000D02*
X67437000Y-42799000D01*
D16*
X59436000Y-53848000D02*
X59436000Y-56896000D01*
X59436000Y-56896000D02*
X59690000Y-57150000D01*
D17*
X59436000Y-56896000D02*
X59690000Y-57150000D01*
D16*
X64770000Y-57150000D02*
X64770000Y-56642000D01*
X64770000Y-56642000D02*
X61976000Y-53848000D01*
D17*
X64770000Y-56642000D02*
X61976000Y-53848000D01*
D16*
X67056000Y-53848000D02*
X67056000Y-56896000D01*
X67056000Y-56896000D02*
X67310000Y-57150000D01*
D17*
X67056000Y-56896000D02*
X67310000Y-57150000D01*
D18*
X29845000Y-41021000D02*
X29845000Y-40640000D01*
X30226000Y-40259000D02*
X57150000Y-40259000D01*
X57150000Y-46228000D02*
X57150000Y-40259000D01*
X29845000Y-44196000D02*
X29845000Y-46228000D01*
X29845000Y-41021000D02*
X29845000Y-44196000D01*
X29845000Y-40640000D02*
X30226000Y-40259000D01*
X28448000Y-98806000D02*
X28448000Y-98679000D01*
X28448000Y-98679000D02*
X32131000Y-94996000D01*
X29845000Y-92710000D02*
X29845000Y-90170000D01*
X32131000Y-101092000D02*
X32131000Y-94996000D01*
X32131000Y-94996000D02*
X29845000Y-92710000D01*
X59436000Y-67564000D02*
X58293000Y-67564000D01*
X58293000Y-67564000D02*
X57150000Y-67564000D01*
X57150000Y-67564000D02*
X57658000Y-67564000D01*
X57658000Y-67564000D02*
X57150000Y-67564000D01*
X59436000Y-46228000D02*
X57150000Y-46228000D01*
X57150000Y-46228000D02*
X57404000Y-46228000D01*
X57404000Y-46228000D02*
X57150000Y-46228000D01*
X59436000Y-88900000D02*
X57150000Y-88900000D01*
X57150000Y-88900000D02*
X57404000Y-88900000D01*
X57404000Y-88900000D02*
X57150000Y-88900000D01*
X57150000Y-46228000D02*
X57150000Y-65913000D01*
X57150000Y-65913000D02*
X57150000Y-67564000D01*
X57150000Y-67564000D02*
X57150000Y-88900000D01*
X57150000Y-88900000D02*
X57150000Y-110236000D01*
X57150000Y-110236000D02*
X59436000Y-110236000D01*
X36830000Y-46228000D02*
X29845000Y-46228000D01*
X29845000Y-46228000D02*
X29845000Y-67818000D01*
X32131000Y-110236000D02*
X36830000Y-110236000D01*
X32131000Y-101092000D02*
X32131000Y-110236000D01*
X36830000Y-88900000D02*
X29845000Y-88900000D01*
X29845000Y-88900000D02*
X30480000Y-88900000D01*
X30480000Y-88900000D02*
X29845000Y-88900000D01*
X29845000Y-90170000D02*
X29845000Y-88900000D01*
X29845000Y-88900000D02*
X29845000Y-87630000D01*
X29845000Y-87630000D02*
X29845000Y-85090000D01*
X29845000Y-85090000D02*
X29845000Y-82550000D01*
X29845000Y-82550000D02*
X29845000Y-80010000D01*
X29845000Y-80010000D02*
X29845000Y-77470000D01*
X29845000Y-77470000D02*
X29845000Y-74930000D01*
X29845000Y-74930000D02*
X29845000Y-67818000D01*
X29845000Y-67818000D02*
X29845000Y-67564000D01*
X29845000Y-67564000D02*
X36830000Y-67564000D01*
D16*
G36*
X84380000Y-137847000D02*
X24967000Y-137847000D01*
X24967000Y-134935619D01*
X26085613Y-134935619D01*
X26425155Y-135757372D01*
X27053321Y-136386636D01*
X27874481Y-136727611D01*
X28763619Y-136728387D01*
X29585372Y-136388845D01*
X30214636Y-135760679D01*
X30555611Y-134939519D01*
X30555614Y-134935619D01*
X78790613Y-134935619D01*
X79130155Y-135757372D01*
X79758321Y-136386636D01*
X80579481Y-136727611D01*
X81468619Y-136728387D01*
X82290372Y-136388845D01*
X82919636Y-135760679D01*
X83260611Y-134939519D01*
X83261387Y-134050381D01*
X82921845Y-133228628D01*
X82293679Y-132599364D01*
X81472519Y-132258389D01*
X80583381Y-132257613D01*
X79761628Y-132597155D01*
X79132364Y-133225321D01*
X78791389Y-134046481D01*
X78790613Y-134935619D01*
X30555614Y-134935619D01*
X30556387Y-134050381D01*
X30216845Y-133228628D01*
X29588679Y-132599364D01*
X28767519Y-132258389D01*
X27878381Y-132257613D01*
X27056628Y-132597155D01*
X26427364Y-133225321D01*
X26086389Y-134046481D01*
X26085613Y-134935619D01*
X24967000Y-134935619D01*
X24967000Y-103886000D01*
X26933907Y-103886000D01*
X27046946Y-104454285D01*
X27368853Y-104936054D01*
X27698026Y-105156000D01*
X27368853Y-105375946D01*
X27046946Y-105857715D01*
X26933907Y-106426000D01*
X27046946Y-106994285D01*
X27368853Y-107476054D01*
X27698026Y-107696000D01*
X27368853Y-107915946D01*
X27046946Y-108397715D01*
X26933907Y-108966000D01*
X27046946Y-109534285D01*
X27368853Y-110016054D01*
X27698026Y-110236000D01*
X27368853Y-110455946D01*
X27046946Y-110937715D01*
X26933907Y-111506000D01*
X27046946Y-112074285D01*
X27368853Y-112556054D01*
X27698026Y-112776000D01*
X27368853Y-112995946D01*
X27046946Y-113477715D01*
X26933907Y-114046000D01*
X27046946Y-114614285D01*
X27368853Y-115096054D01*
X27698026Y-115316000D01*
X27368853Y-115535946D01*
X27046946Y-116017715D01*
X26933907Y-116586000D01*
X27046946Y-117154285D01*
X27368853Y-117636054D01*
X27698026Y-117856000D01*
X27368853Y-118075946D01*
X27046946Y-118557715D01*
X26933907Y-119126000D01*
X27046946Y-119694285D01*
X27368853Y-120176054D01*
X27698026Y-120396000D01*
X27368853Y-120615946D01*
X27046946Y-121097715D01*
X26933907Y-121666000D01*
X27046946Y-122234285D01*
X27368853Y-122716054D01*
X27698026Y-122936000D01*
X27368853Y-123155946D01*
X27046946Y-123637715D01*
X26933907Y-124206000D01*
X27046946Y-124774285D01*
X27368853Y-125256054D01*
X27698026Y-125476000D01*
X27368853Y-125695946D01*
X27046946Y-126177715D01*
X26933907Y-126746000D01*
X27046946Y-127314285D01*
X27368853Y-127796054D01*
X27410452Y-127823850D01*
X27362683Y-127832838D01*
X27146559Y-127971910D01*
X27001569Y-128184110D01*
X26950560Y-128436000D01*
X26950560Y-130136000D01*
X26994838Y-130371317D01*
X27133910Y-130587441D01*
X27346110Y-130732431D01*
X27598000Y-130783440D01*
X29298000Y-130783440D01*
X29533317Y-130739162D01*
X29749441Y-130600090D01*
X29894431Y-130387890D01*
X29945440Y-130136000D01*
X29945440Y-128436000D01*
X29901162Y-128200683D01*
X29762090Y-127984559D01*
X29549890Y-127839569D01*
X29482459Y-127825914D01*
X29527147Y-127796054D01*
X29849054Y-127314285D01*
X29962093Y-126746000D01*
X29849054Y-126177715D01*
X29527147Y-125695946D01*
X29197974Y-125476000D01*
X29527147Y-125256054D01*
X29849054Y-124774285D01*
X29962093Y-124206000D01*
X29849054Y-123637715D01*
X29527147Y-123155946D01*
X29197974Y-122936000D01*
X29527147Y-122716054D01*
X29849054Y-122234285D01*
X29962093Y-121666000D01*
X29849054Y-121097715D01*
X29527147Y-120615946D01*
X29197974Y-120396000D01*
X29527147Y-120176054D01*
X29849054Y-119694285D01*
X29962093Y-119126000D01*
X29849054Y-118557715D01*
X29527147Y-118075946D01*
X29197974Y-117856000D01*
X29527147Y-117636054D01*
X29849054Y-117154285D01*
X29868604Y-117056000D01*
X35382560Y-117056000D01*
X35382560Y-118656000D01*
X35426838Y-118891317D01*
X35565910Y-119107441D01*
X35778110Y-119252431D01*
X36030000Y-119303440D01*
X36068000Y-119303440D01*
X36068000Y-119691795D01*
X35998683Y-119704838D01*
X35782559Y-119843910D01*
X35637569Y-120056110D01*
X35586560Y-120308000D01*
X35586560Y-122008000D01*
X35630838Y-122243317D01*
X35769910Y-122459441D01*
X35982110Y-122604431D01*
X36234000Y-122655440D01*
X37934000Y-122655440D01*
X38169317Y-122611162D01*
X38385441Y-122472090D01*
X38530431Y-122259890D01*
X38544086Y-122192459D01*
X38573946Y-122237147D01*
X39055715Y-122559054D01*
X39624000Y-122672093D01*
X40192285Y-122559054D01*
X40674054Y-122237147D01*
X40894000Y-121907974D01*
X41113946Y-122237147D01*
X41595715Y-122559054D01*
X42164000Y-122672093D01*
X42732285Y-122559054D01*
X43214054Y-122237147D01*
X43434000Y-121907974D01*
X43653946Y-122237147D01*
X44135715Y-122559054D01*
X44704000Y-122672093D01*
X45272285Y-122559054D01*
X45754054Y-122237147D01*
X46075961Y-121755378D01*
X46189000Y-121187093D01*
X46189000Y-121128907D01*
X46075961Y-120560622D01*
X45754054Y-120078853D01*
X45272285Y-119756946D01*
X45212000Y-119744955D01*
X45212000Y-119067659D01*
X45464698Y-118898811D01*
X45720000Y-118516725D01*
X45975302Y-118898811D01*
X46440849Y-119209880D01*
X46990000Y-119319113D01*
X47539151Y-119209880D01*
X48004698Y-118898811D01*
X48315767Y-118433264D01*
X48425000Y-117884113D01*
X48425000Y-117827887D01*
X48315767Y-117278736D01*
X48004698Y-116813189D01*
X47539151Y-116502120D01*
X46990000Y-116392887D01*
X46440849Y-116502120D01*
X45975302Y-116813189D01*
X45720000Y-117195275D01*
X45464698Y-116813189D01*
X44999151Y-116502120D01*
X44450000Y-116392887D01*
X43900849Y-116502120D01*
X43435302Y-116813189D01*
X43180000Y-117195275D01*
X42924698Y-116813189D01*
X42459151Y-116502120D01*
X41910000Y-116392887D01*
X41360849Y-116502120D01*
X40895302Y-116813189D01*
X40640000Y-117195275D01*
X40384698Y-116813189D01*
X39919151Y-116502120D01*
X39370000Y-116392887D01*
X38820849Y-116502120D01*
X38355302Y-116813189D01*
X38258899Y-116957465D01*
X38233162Y-116820683D01*
X38094090Y-116604559D01*
X37881890Y-116459569D01*
X37630000Y-116408560D01*
X36030000Y-116408560D01*
X35794683Y-116452838D01*
X35578559Y-116591910D01*
X35433569Y-116804110D01*
X35382560Y-117056000D01*
X29868604Y-117056000D01*
X29962093Y-116586000D01*
X29849054Y-116017715D01*
X29527147Y-115535946D01*
X29197974Y-115316000D01*
X29527147Y-115096054D01*
X29849054Y-114614285D01*
X29962093Y-114046000D01*
X29849054Y-113477715D01*
X29527147Y-112995946D01*
X29197974Y-112776000D01*
X29527147Y-112556054D01*
X29849054Y-112074285D01*
X29962093Y-111506000D01*
X29849054Y-110937715D01*
X29527147Y-110455946D01*
X29197974Y-110236000D01*
X29527147Y-110016054D01*
X29849054Y-109534285D01*
X29962093Y-108966000D01*
X29849054Y-108397715D01*
X29527147Y-107915946D01*
X29197974Y-107696000D01*
X29527147Y-107476054D01*
X29849054Y-106994285D01*
X29962093Y-106426000D01*
X29849054Y-105857715D01*
X29527147Y-105375946D01*
X29197974Y-105156000D01*
X29527147Y-104936054D01*
X29849054Y-104454285D01*
X29962093Y-103886000D01*
X29849054Y-103317715D01*
X29527147Y-102835946D01*
X29045378Y-102514039D01*
X28477093Y-102401000D01*
X28418907Y-102401000D01*
X27850622Y-102514039D01*
X27368853Y-102835946D01*
X27046946Y-103317715D01*
X26933907Y-103886000D01*
X24967000Y-103886000D01*
X24967000Y-98806000D01*
X26933907Y-98806000D01*
X27046946Y-99374285D01*
X27368853Y-99856054D01*
X27850622Y-100177961D01*
X28418907Y-100291000D01*
X28477093Y-100291000D01*
X29045378Y-100177961D01*
X29527147Y-99856054D01*
X29849054Y-99374285D01*
X29923616Y-98999436D01*
X30861000Y-98062052D01*
X30861000Y-110236000D01*
X30957673Y-110722008D01*
X31232974Y-111134026D01*
X31644992Y-111409327D01*
X32131000Y-111506000D01*
X36155314Y-111506000D01*
X36280849Y-111589880D01*
X36830000Y-111699113D01*
X37379151Y-111589880D01*
X37596213Y-111444843D01*
X38450185Y-112298815D01*
X38697395Y-112463996D01*
X38989000Y-112522000D01*
X42926000Y-112522000D01*
X43217605Y-112463996D01*
X43464815Y-112298815D01*
X44128473Y-111635157D01*
X44450000Y-111699113D01*
X44999151Y-111589880D01*
X45464698Y-111278811D01*
X45720000Y-110896725D01*
X45975302Y-111278811D01*
X46440849Y-111589880D01*
X46990000Y-111699113D01*
X47539151Y-111589880D01*
X48004698Y-111278811D01*
X48260000Y-110896725D01*
X48515302Y-111278811D01*
X48980849Y-111589880D01*
X49530000Y-111699113D01*
X50038000Y-111598065D01*
X50038000Y-123584917D01*
X49971460Y-123651341D01*
X49822270Y-124010630D01*
X49821931Y-124399663D01*
X49970493Y-124759212D01*
X50245341Y-125034540D01*
X50604630Y-125183730D01*
X50993663Y-125184069D01*
X51353212Y-125035507D01*
X51628540Y-124760659D01*
X51777730Y-124401370D01*
X51778069Y-124012337D01*
X51629507Y-123652788D01*
X51562000Y-123585163D01*
X51562000Y-111598065D01*
X52070000Y-111699113D01*
X52578000Y-111598065D01*
X52578000Y-126124917D01*
X52511460Y-126191341D01*
X52362270Y-126550630D01*
X52361931Y-126939663D01*
X52510493Y-127299212D01*
X52785341Y-127574540D01*
X53144630Y-127723730D01*
X53533663Y-127724069D01*
X53893212Y-127575507D01*
X54168540Y-127300659D01*
X54317730Y-126941370D01*
X54318069Y-126552337D01*
X54169507Y-126192788D01*
X54102000Y-126125163D01*
X54102000Y-111598065D01*
X54610000Y-111699113D01*
X55118000Y-111598065D01*
X55118000Y-128664917D01*
X55051460Y-128731341D01*
X54902270Y-129090630D01*
X54901931Y-129479663D01*
X55050493Y-129839212D01*
X55325341Y-130114540D01*
X55684630Y-130263730D01*
X56073663Y-130264069D01*
X56433212Y-130115507D01*
X56708540Y-129840659D01*
X56857730Y-129481370D01*
X56858069Y-129092337D01*
X56709507Y-128732788D01*
X56642000Y-128665163D01*
X56642000Y-117056000D01*
X57988560Y-117056000D01*
X57988560Y-118656000D01*
X58032838Y-118891317D01*
X58171910Y-119107441D01*
X58384110Y-119252431D01*
X58636000Y-119303440D01*
X58674000Y-119303440D01*
X58674000Y-119691795D01*
X58604683Y-119704838D01*
X58388559Y-119843910D01*
X58243569Y-120056110D01*
X58192560Y-120308000D01*
X58192560Y-122008000D01*
X58236838Y-122243317D01*
X58375910Y-122459441D01*
X58588110Y-122604431D01*
X58840000Y-122655440D01*
X60540000Y-122655440D01*
X60775317Y-122611162D01*
X60991441Y-122472090D01*
X61136431Y-122259890D01*
X61150086Y-122192459D01*
X61179946Y-122237147D01*
X61661715Y-122559054D01*
X62230000Y-122672093D01*
X62798285Y-122559054D01*
X63280054Y-122237147D01*
X63500000Y-121907974D01*
X63719946Y-122237147D01*
X64201715Y-122559054D01*
X64770000Y-122672093D01*
X65338285Y-122559054D01*
X65820054Y-122237147D01*
X66040000Y-121907974D01*
X66259946Y-122237147D01*
X66741715Y-122559054D01*
X67310000Y-122672093D01*
X67878285Y-122559054D01*
X68360054Y-122237147D01*
X68681961Y-121755378D01*
X68795000Y-121187093D01*
X68795000Y-121128907D01*
X68681961Y-120560622D01*
X68360054Y-120078853D01*
X67878285Y-119756946D01*
X67818000Y-119744955D01*
X67818000Y-119067659D01*
X68070698Y-118898811D01*
X68326000Y-118516725D01*
X68581302Y-118898811D01*
X69046849Y-119209880D01*
X69596000Y-119319113D01*
X70145151Y-119209880D01*
X70610698Y-118898811D01*
X70921767Y-118433264D01*
X71031000Y-117884113D01*
X71031000Y-117827887D01*
X70921767Y-117278736D01*
X70610698Y-116813189D01*
X70145151Y-116502120D01*
X69596000Y-116392887D01*
X69046849Y-116502120D01*
X68581302Y-116813189D01*
X68326000Y-117195275D01*
X68070698Y-116813189D01*
X67605151Y-116502120D01*
X67056000Y-116392887D01*
X66506849Y-116502120D01*
X66041302Y-116813189D01*
X65786000Y-117195275D01*
X65530698Y-116813189D01*
X65065151Y-116502120D01*
X64516000Y-116392887D01*
X63966849Y-116502120D01*
X63501302Y-116813189D01*
X63246000Y-117195275D01*
X62990698Y-116813189D01*
X62525151Y-116502120D01*
X61976000Y-116392887D01*
X61426849Y-116502120D01*
X60961302Y-116813189D01*
X60864899Y-116957465D01*
X60839162Y-116820683D01*
X60700090Y-116604559D01*
X60487890Y-116459569D01*
X60236000Y-116408560D01*
X58636000Y-116408560D01*
X58400683Y-116452838D01*
X58184559Y-116591910D01*
X58039569Y-116804110D01*
X57988560Y-117056000D01*
X56642000Y-117056000D01*
X56642000Y-111394632D01*
X56663992Y-111409327D01*
X57150000Y-111506000D01*
X58761314Y-111506000D01*
X58886849Y-111589880D01*
X59436000Y-111699113D01*
X59985151Y-111589880D01*
X60202213Y-111444843D01*
X61056185Y-112298815D01*
X61303395Y-112463996D01*
X61595000Y-112522000D01*
X65532000Y-112522000D01*
X65823605Y-112463996D01*
X66070815Y-112298815D01*
X66734473Y-111635157D01*
X67056000Y-111699113D01*
X67605151Y-111589880D01*
X68070698Y-111278811D01*
X68326000Y-110896725D01*
X68581302Y-111278811D01*
X69046849Y-111589880D01*
X69596000Y-111699113D01*
X70145151Y-111589880D01*
X70610698Y-111278811D01*
X70866000Y-110896725D01*
X71121302Y-111278811D01*
X71586849Y-111589880D01*
X72136000Y-111699113D01*
X72644000Y-111598065D01*
X72644000Y-123584917D01*
X72577460Y-123651341D01*
X72428270Y-124010630D01*
X72427931Y-124399663D01*
X72576493Y-124759212D01*
X72851341Y-125034540D01*
X73210630Y-125183730D01*
X73599663Y-125184069D01*
X73959212Y-125035507D01*
X74234540Y-124760659D01*
X74383730Y-124401370D01*
X74384069Y-124012337D01*
X74235507Y-123652788D01*
X74168000Y-123585163D01*
X74168000Y-111598065D01*
X74676000Y-111699113D01*
X75184000Y-111598065D01*
X75184000Y-126124917D01*
X75117460Y-126191341D01*
X74968270Y-126550630D01*
X74967931Y-126939663D01*
X75116493Y-127299212D01*
X75391341Y-127574540D01*
X75750630Y-127723730D01*
X76139663Y-127724069D01*
X76499212Y-127575507D01*
X76774540Y-127300659D01*
X76923730Y-126941370D01*
X76924069Y-126552337D01*
X76775507Y-126192788D01*
X76708000Y-126125163D01*
X76708000Y-111598065D01*
X77216000Y-111699113D01*
X77724000Y-111598065D01*
X77724000Y-128664917D01*
X77657460Y-128731341D01*
X77508270Y-129090630D01*
X77507931Y-129479663D01*
X77656493Y-129839212D01*
X77931341Y-130114540D01*
X78290630Y-130263730D01*
X78679663Y-130264069D01*
X79039212Y-130115507D01*
X79314540Y-129840659D01*
X79463730Y-129481370D01*
X79464069Y-129092337D01*
X79315507Y-128732788D01*
X79248000Y-128665163D01*
X79248000Y-46228000D01*
X79189996Y-45936395D01*
X79024815Y-45689185D01*
X78777605Y-45524004D01*
X78486000Y-45466000D01*
X78418330Y-45466000D01*
X78230698Y-45185189D01*
X77765151Y-44874120D01*
X77216000Y-44764887D01*
X76666849Y-44874120D01*
X76201302Y-45185189D01*
X76005731Y-45477881D01*
X75946000Y-45466000D01*
X75878330Y-45466000D01*
X75690698Y-45185189D01*
X75225151Y-44874120D01*
X74676000Y-44764887D01*
X74126849Y-44874120D01*
X73661302Y-45185189D01*
X73465731Y-45477881D01*
X73406000Y-45466000D01*
X73338330Y-45466000D01*
X73150698Y-45185189D01*
X72685151Y-44874120D01*
X72136000Y-44764887D01*
X71586849Y-44874120D01*
X71121302Y-45185189D01*
X70866000Y-45567275D01*
X70610698Y-45185189D01*
X70332600Y-44999370D01*
X70332600Y-44958000D01*
X70276530Y-44676115D01*
X70116855Y-44437145D01*
X68747351Y-43067641D01*
X68795000Y-42828093D01*
X68795000Y-42769907D01*
X68681961Y-42201622D01*
X68360054Y-41719853D01*
X67878285Y-41397946D01*
X67310000Y-41284907D01*
X66741715Y-41397946D01*
X66259946Y-41719853D01*
X66040000Y-42049026D01*
X65820054Y-41719853D01*
X65338285Y-41397946D01*
X64770000Y-41284907D01*
X64201715Y-41397946D01*
X63719946Y-41719853D01*
X63500000Y-42049026D01*
X63280054Y-41719853D01*
X62798285Y-41397946D01*
X62230000Y-41284907D01*
X61661715Y-41397946D01*
X61179946Y-41719853D01*
X61152150Y-41761452D01*
X61143162Y-41713683D01*
X61004090Y-41497559D01*
X60791890Y-41352569D01*
X60540000Y-41301560D01*
X58840000Y-41301560D01*
X58604683Y-41345838D01*
X58420000Y-41464678D01*
X58420000Y-40259000D01*
X58323327Y-39772992D01*
X58048026Y-39360974D01*
X57636008Y-39085673D01*
X57150000Y-38989000D01*
X30226000Y-38989000D01*
X29739992Y-39085673D01*
X29327974Y-39360974D01*
X29327972Y-39360977D01*
X28946974Y-39741974D01*
X28671673Y-40153992D01*
X28574999Y-40640000D01*
X28575000Y-40640005D01*
X28575000Y-74165578D01*
X28443946Y-74361715D01*
X28330907Y-74930000D01*
X28443946Y-75498285D01*
X28575000Y-75694422D01*
X28575000Y-76705578D01*
X28443946Y-76901715D01*
X28330907Y-77470000D01*
X28443946Y-78038285D01*
X28575000Y-78234422D01*
X28575000Y-79245578D01*
X28443946Y-79441715D01*
X28330907Y-80010000D01*
X28443946Y-80578285D01*
X28575000Y-80774422D01*
X28575000Y-81785578D01*
X28443946Y-81981715D01*
X28330907Y-82550000D01*
X28443946Y-83118285D01*
X28575000Y-83314422D01*
X28575000Y-84325578D01*
X28443946Y-84521715D01*
X28330907Y-85090000D01*
X28443946Y-85658285D01*
X28575000Y-85854422D01*
X28575000Y-86865578D01*
X28443946Y-87061715D01*
X28330907Y-87630000D01*
X28443946Y-88198285D01*
X28575000Y-88394422D01*
X28575000Y-89405578D01*
X28443946Y-89601715D01*
X28330907Y-90170000D01*
X28443946Y-90738285D01*
X28575000Y-90934422D01*
X28575000Y-91945578D01*
X28443946Y-92141715D01*
X28330907Y-92710000D01*
X28443946Y-93278285D01*
X28765853Y-93760054D01*
X29247622Y-94081961D01*
X29463937Y-94124989D01*
X30334949Y-94996000D01*
X27908402Y-97422546D01*
X27850622Y-97434039D01*
X27368853Y-97755946D01*
X27046946Y-98237715D01*
X26933907Y-98806000D01*
X24967000Y-98806000D01*
X24967000Y-36510619D01*
X26085613Y-36510619D01*
X26425155Y-37332372D01*
X27053321Y-37961636D01*
X27874481Y-38302611D01*
X28763619Y-38303387D01*
X29585372Y-37963845D01*
X30214636Y-37335679D01*
X30555611Y-36514519D01*
X30555614Y-36510619D01*
X78790613Y-36510619D01*
X79130155Y-37332372D01*
X79758321Y-37961636D01*
X80579481Y-38302611D01*
X81468619Y-38303387D01*
X82290372Y-37963845D01*
X82919636Y-37335679D01*
X83260611Y-36514519D01*
X83261387Y-35625381D01*
X82921845Y-34803628D01*
X82293679Y-34174364D01*
X81472519Y-33833389D01*
X80583381Y-33832613D01*
X79761628Y-34172155D01*
X79132364Y-34800321D01*
X78791389Y-35621481D01*
X78790613Y-36510619D01*
X30555614Y-36510619D01*
X30556387Y-35625381D01*
X30216845Y-34803628D01*
X29588679Y-34174364D01*
X28767519Y-33833389D01*
X27878381Y-33832613D01*
X27056628Y-34172155D01*
X26427364Y-34800321D01*
X26086389Y-35621481D01*
X26085613Y-36510619D01*
X24967000Y-36510619D01*
X24967000Y-32714000D01*
X84380000Y-32714000D01*
X84380000Y-137847000D01*
X84380000Y-137847000D01*
G37*
X84380000Y-137847000D02*
X24967000Y-137847000D01*
X24967000Y-134935619D01*
X26085613Y-134935619D01*
X26425155Y-135757372D01*
X27053321Y-136386636D01*
X27874481Y-136727611D01*
X28763619Y-136728387D01*
X29585372Y-136388845D01*
X30214636Y-135760679D01*
X30555611Y-134939519D01*
X30555614Y-134935619D01*
X78790613Y-134935619D01*
X79130155Y-135757372D01*
X79758321Y-136386636D01*
X80579481Y-136727611D01*
X81468619Y-136728387D01*
X82290372Y-136388845D01*
X82919636Y-135760679D01*
X83260611Y-134939519D01*
X83261387Y-134050381D01*
X82921845Y-133228628D01*
X82293679Y-132599364D01*
X81472519Y-132258389D01*
X80583381Y-132257613D01*
X79761628Y-132597155D01*
X79132364Y-133225321D01*
X78791389Y-134046481D01*
X78790613Y-134935619D01*
X30555614Y-134935619D01*
X30556387Y-134050381D01*
X30216845Y-133228628D01*
X29588679Y-132599364D01*
X28767519Y-132258389D01*
X27878381Y-132257613D01*
X27056628Y-132597155D01*
X26427364Y-133225321D01*
X26086389Y-134046481D01*
X26085613Y-134935619D01*
X24967000Y-134935619D01*
X24967000Y-103886000D01*
X26933907Y-103886000D01*
X27046946Y-104454285D01*
X27368853Y-104936054D01*
X27698026Y-105156000D01*
X27368853Y-105375946D01*
X27046946Y-105857715D01*
X26933907Y-106426000D01*
X27046946Y-106994285D01*
X27368853Y-107476054D01*
X27698026Y-107696000D01*
X27368853Y-107915946D01*
X27046946Y-108397715D01*
X26933907Y-108966000D01*
X27046946Y-109534285D01*
X27368853Y-110016054D01*
X27698026Y-110236000D01*
X27368853Y-110455946D01*
X27046946Y-110937715D01*
X26933907Y-111506000D01*
X27046946Y-112074285D01*
X27368853Y-112556054D01*
X27698026Y-112776000D01*
X27368853Y-112995946D01*
X27046946Y-113477715D01*
X26933907Y-114046000D01*
X27046946Y-114614285D01*
X27368853Y-115096054D01*
X27698026Y-115316000D01*
X27368853Y-115535946D01*
X27046946Y-116017715D01*
X26933907Y-116586000D01*
X27046946Y-117154285D01*
X27368853Y-117636054D01*
X27698026Y-117856000D01*
X27368853Y-118075946D01*
X27046946Y-118557715D01*
X26933907Y-119126000D01*
X27046946Y-119694285D01*
X27368853Y-120176054D01*
X27698026Y-120396000D01*
X27368853Y-120615946D01*
X27046946Y-121097715D01*
X26933907Y-121666000D01*
X27046946Y-122234285D01*
X27368853Y-122716054D01*
X27698026Y-122936000D01*
X27368853Y-123155946D01*
X27046946Y-123637715D01*
X26933907Y-124206000D01*
X27046946Y-124774285D01*
X27368853Y-125256054D01*
X27698026Y-125476000D01*
X27368853Y-125695946D01*
X27046946Y-126177715D01*
X26933907Y-126746000D01*
X27046946Y-127314285D01*
X27368853Y-127796054D01*
X27410452Y-127823850D01*
X27362683Y-127832838D01*
X27146559Y-127971910D01*
X27001569Y-128184110D01*
X26950560Y-128436000D01*
X26950560Y-130136000D01*
X26994838Y-130371317D01*
X27133910Y-130587441D01*
X27346110Y-130732431D01*
X27598000Y-130783440D01*
X29298000Y-130783440D01*
X29533317Y-130739162D01*
X29749441Y-130600090D01*
X29894431Y-130387890D01*
X29945440Y-130136000D01*
X29945440Y-128436000D01*
X29901162Y-128200683D01*
X29762090Y-127984559D01*
X29549890Y-127839569D01*
X29482459Y-127825914D01*
X29527147Y-127796054D01*
X29849054Y-127314285D01*
X29962093Y-126746000D01*
X29849054Y-126177715D01*
X29527147Y-125695946D01*
X29197974Y-125476000D01*
X29527147Y-125256054D01*
X29849054Y-124774285D01*
X29962093Y-124206000D01*
X29849054Y-123637715D01*
X29527147Y-123155946D01*
X29197974Y-122936000D01*
X29527147Y-122716054D01*
X29849054Y-122234285D01*
X29962093Y-121666000D01*
X29849054Y-121097715D01*
X29527147Y-120615946D01*
X29197974Y-120396000D01*
X29527147Y-120176054D01*
X29849054Y-119694285D01*
X29962093Y-119126000D01*
X29849054Y-118557715D01*
X29527147Y-118075946D01*
X29197974Y-117856000D01*
X29527147Y-117636054D01*
X29849054Y-117154285D01*
X29868604Y-117056000D01*
X35382560Y-117056000D01*
X35382560Y-118656000D01*
X35426838Y-118891317D01*
X35565910Y-119107441D01*
X35778110Y-119252431D01*
X36030000Y-119303440D01*
X36068000Y-119303440D01*
X36068000Y-119691795D01*
X35998683Y-119704838D01*
X35782559Y-119843910D01*
X35637569Y-120056110D01*
X35586560Y-120308000D01*
X35586560Y-122008000D01*
X35630838Y-122243317D01*
X35769910Y-122459441D01*
X35982110Y-122604431D01*
X36234000Y-122655440D01*
X37934000Y-122655440D01*
X38169317Y-122611162D01*
X38385441Y-122472090D01*
X38530431Y-122259890D01*
X38544086Y-122192459D01*
X38573946Y-122237147D01*
X39055715Y-122559054D01*
X39624000Y-122672093D01*
X40192285Y-122559054D01*
X40674054Y-122237147D01*
X40894000Y-121907974D01*
X41113946Y-122237147D01*
X41595715Y-122559054D01*
X42164000Y-122672093D01*
X42732285Y-122559054D01*
X43214054Y-122237147D01*
X43434000Y-121907974D01*
X43653946Y-122237147D01*
X44135715Y-122559054D01*
X44704000Y-122672093D01*
X45272285Y-122559054D01*
X45754054Y-122237147D01*
X46075961Y-121755378D01*
X46189000Y-121187093D01*
X46189000Y-121128907D01*
X46075961Y-120560622D01*
X45754054Y-120078853D01*
X45272285Y-119756946D01*
X45212000Y-119744955D01*
X45212000Y-119067659D01*
X45464698Y-118898811D01*
X45720000Y-118516725D01*
X45975302Y-118898811D01*
X46440849Y-119209880D01*
X46990000Y-119319113D01*
X47539151Y-119209880D01*
X48004698Y-118898811D01*
X48315767Y-118433264D01*
X48425000Y-117884113D01*
X48425000Y-117827887D01*
X48315767Y-117278736D01*
X48004698Y-116813189D01*
X47539151Y-116502120D01*
X46990000Y-116392887D01*
X46440849Y-116502120D01*
X45975302Y-116813189D01*
X45720000Y-117195275D01*
X45464698Y-116813189D01*
X44999151Y-116502120D01*
X44450000Y-116392887D01*
X43900849Y-116502120D01*
X43435302Y-116813189D01*
X43180000Y-117195275D01*
X42924698Y-116813189D01*
X42459151Y-116502120D01*
X41910000Y-116392887D01*
X41360849Y-116502120D01*
X40895302Y-116813189D01*
X40640000Y-117195275D01*
X40384698Y-116813189D01*
X39919151Y-116502120D01*
X39370000Y-116392887D01*
X38820849Y-116502120D01*
X38355302Y-116813189D01*
X38258899Y-116957465D01*
X38233162Y-116820683D01*
X38094090Y-116604559D01*
X37881890Y-116459569D01*
X37630000Y-116408560D01*
X36030000Y-116408560D01*
X35794683Y-116452838D01*
X35578559Y-116591910D01*
X35433569Y-116804110D01*
X35382560Y-117056000D01*
X29868604Y-117056000D01*
X29962093Y-116586000D01*
X29849054Y-116017715D01*
X29527147Y-115535946D01*
X29197974Y-115316000D01*
X29527147Y-115096054D01*
X29849054Y-114614285D01*
X29962093Y-114046000D01*
X29849054Y-113477715D01*
X29527147Y-112995946D01*
X29197974Y-112776000D01*
X29527147Y-112556054D01*
X29849054Y-112074285D01*
X29962093Y-111506000D01*
X29849054Y-110937715D01*
X29527147Y-110455946D01*
X29197974Y-110236000D01*
X29527147Y-110016054D01*
X29849054Y-109534285D01*
X29962093Y-108966000D01*
X29849054Y-108397715D01*
X29527147Y-107915946D01*
X29197974Y-107696000D01*
X29527147Y-107476054D01*
X29849054Y-106994285D01*
X29962093Y-106426000D01*
X29849054Y-105857715D01*
X29527147Y-105375946D01*
X29197974Y-105156000D01*
X29527147Y-104936054D01*
X29849054Y-104454285D01*
X29962093Y-103886000D01*
X29849054Y-103317715D01*
X29527147Y-102835946D01*
X29045378Y-102514039D01*
X28477093Y-102401000D01*
X28418907Y-102401000D01*
X27850622Y-102514039D01*
X27368853Y-102835946D01*
X27046946Y-103317715D01*
X26933907Y-103886000D01*
X24967000Y-103886000D01*
X24967000Y-98806000D01*
X26933907Y-98806000D01*
X27046946Y-99374285D01*
X27368853Y-99856054D01*
X27850622Y-100177961D01*
X28418907Y-100291000D01*
X28477093Y-100291000D01*
X29045378Y-100177961D01*
X29527147Y-99856054D01*
X29849054Y-99374285D01*
X29923616Y-98999436D01*
X30861000Y-98062052D01*
X30861000Y-110236000D01*
X30957673Y-110722008D01*
X31232974Y-111134026D01*
X31644992Y-111409327D01*
X32131000Y-111506000D01*
X36155314Y-111506000D01*
X36280849Y-111589880D01*
X36830000Y-111699113D01*
X37379151Y-111589880D01*
X37596213Y-111444843D01*
X38450185Y-112298815D01*
X38697395Y-112463996D01*
X38989000Y-112522000D01*
X42926000Y-112522000D01*
X43217605Y-112463996D01*
X43464815Y-112298815D01*
X44128473Y-111635157D01*
X44450000Y-111699113D01*
X44999151Y-111589880D01*
X45464698Y-111278811D01*
X45720000Y-110896725D01*
X45975302Y-111278811D01*
X46440849Y-111589880D01*
X46990000Y-111699113D01*
X47539151Y-111589880D01*
X48004698Y-111278811D01*
X48260000Y-110896725D01*
X48515302Y-111278811D01*
X48980849Y-111589880D01*
X49530000Y-111699113D01*
X50038000Y-111598065D01*
X50038000Y-123584917D01*
X49971460Y-123651341D01*
X49822270Y-124010630D01*
X49821931Y-124399663D01*
X49970493Y-124759212D01*
X50245341Y-125034540D01*
X50604630Y-125183730D01*
X50993663Y-125184069D01*
X51353212Y-125035507D01*
X51628540Y-124760659D01*
X51777730Y-124401370D01*
X51778069Y-124012337D01*
X51629507Y-123652788D01*
X51562000Y-123585163D01*
X51562000Y-111598065D01*
X52070000Y-111699113D01*
X52578000Y-111598065D01*
X52578000Y-126124917D01*
X52511460Y-126191341D01*
X52362270Y-126550630D01*
X52361931Y-126939663D01*
X52510493Y-127299212D01*
X52785341Y-127574540D01*
X53144630Y-127723730D01*
X53533663Y-127724069D01*
X53893212Y-127575507D01*
X54168540Y-127300659D01*
X54317730Y-126941370D01*
X54318069Y-126552337D01*
X54169507Y-126192788D01*
X54102000Y-126125163D01*
X54102000Y-111598065D01*
X54610000Y-111699113D01*
X55118000Y-111598065D01*
X55118000Y-128664917D01*
X55051460Y-128731341D01*
X54902270Y-129090630D01*
X54901931Y-129479663D01*
X55050493Y-129839212D01*
X55325341Y-130114540D01*
X55684630Y-130263730D01*
X56073663Y-130264069D01*
X56433212Y-130115507D01*
X56708540Y-129840659D01*
X56857730Y-129481370D01*
X56858069Y-129092337D01*
X56709507Y-128732788D01*
X56642000Y-128665163D01*
X56642000Y-117056000D01*
X57988560Y-117056000D01*
X57988560Y-118656000D01*
X58032838Y-118891317D01*
X58171910Y-119107441D01*
X58384110Y-119252431D01*
X58636000Y-119303440D01*
X58674000Y-119303440D01*
X58674000Y-119691795D01*
X58604683Y-119704838D01*
X58388559Y-119843910D01*
X58243569Y-120056110D01*
X58192560Y-120308000D01*
X58192560Y-122008000D01*
X58236838Y-122243317D01*
X58375910Y-122459441D01*
X58588110Y-122604431D01*
X58840000Y-122655440D01*
X60540000Y-122655440D01*
X60775317Y-122611162D01*
X60991441Y-122472090D01*
X61136431Y-122259890D01*
X61150086Y-122192459D01*
X61179946Y-122237147D01*
X61661715Y-122559054D01*
X62230000Y-122672093D01*
X62798285Y-122559054D01*
X63280054Y-122237147D01*
X63500000Y-121907974D01*
X63719946Y-122237147D01*
X64201715Y-122559054D01*
X64770000Y-122672093D01*
X65338285Y-122559054D01*
X65820054Y-122237147D01*
X66040000Y-121907974D01*
X66259946Y-122237147D01*
X66741715Y-122559054D01*
X67310000Y-122672093D01*
X67878285Y-122559054D01*
X68360054Y-122237147D01*
X68681961Y-121755378D01*
X68795000Y-121187093D01*
X68795000Y-121128907D01*
X68681961Y-120560622D01*
X68360054Y-120078853D01*
X67878285Y-119756946D01*
X67818000Y-119744955D01*
X67818000Y-119067659D01*
X68070698Y-118898811D01*
X68326000Y-118516725D01*
X68581302Y-118898811D01*
X69046849Y-119209880D01*
X69596000Y-119319113D01*
X70145151Y-119209880D01*
X70610698Y-118898811D01*
X70921767Y-118433264D01*
X71031000Y-117884113D01*
X71031000Y-117827887D01*
X70921767Y-117278736D01*
X70610698Y-116813189D01*
X70145151Y-116502120D01*
X69596000Y-116392887D01*
X69046849Y-116502120D01*
X68581302Y-116813189D01*
X68326000Y-117195275D01*
X68070698Y-116813189D01*
X67605151Y-116502120D01*
X67056000Y-116392887D01*
X66506849Y-116502120D01*
X66041302Y-116813189D01*
X65786000Y-117195275D01*
X65530698Y-116813189D01*
X65065151Y-116502120D01*
X64516000Y-116392887D01*
X63966849Y-116502120D01*
X63501302Y-116813189D01*
X63246000Y-117195275D01*
X62990698Y-116813189D01*
X62525151Y-116502120D01*
X61976000Y-116392887D01*
X61426849Y-116502120D01*
X60961302Y-116813189D01*
X60864899Y-116957465D01*
X60839162Y-116820683D01*
X60700090Y-116604559D01*
X60487890Y-116459569D01*
X60236000Y-116408560D01*
X58636000Y-116408560D01*
X58400683Y-116452838D01*
X58184559Y-116591910D01*
X58039569Y-116804110D01*
X57988560Y-117056000D01*
X56642000Y-117056000D01*
X56642000Y-111394632D01*
X56663992Y-111409327D01*
X57150000Y-111506000D01*
X58761314Y-111506000D01*
X58886849Y-111589880D01*
X59436000Y-111699113D01*
X59985151Y-111589880D01*
X60202213Y-111444843D01*
X61056185Y-112298815D01*
X61303395Y-112463996D01*
X61595000Y-112522000D01*
X65532000Y-112522000D01*
X65823605Y-112463996D01*
X66070815Y-112298815D01*
X66734473Y-111635157D01*
X67056000Y-111699113D01*
X67605151Y-111589880D01*
X68070698Y-111278811D01*
X68326000Y-110896725D01*
X68581302Y-111278811D01*
X69046849Y-111589880D01*
X69596000Y-111699113D01*
X70145151Y-111589880D01*
X70610698Y-111278811D01*
X70866000Y-110896725D01*
X71121302Y-111278811D01*
X71586849Y-111589880D01*
X72136000Y-111699113D01*
X72644000Y-111598065D01*
X72644000Y-123584917D01*
X72577460Y-123651341D01*
X72428270Y-124010630D01*
X72427931Y-124399663D01*
X72576493Y-124759212D01*
X72851341Y-125034540D01*
X73210630Y-125183730D01*
X73599663Y-125184069D01*
X73959212Y-125035507D01*
X74234540Y-124760659D01*
X74383730Y-124401370D01*
X74384069Y-124012337D01*
X74235507Y-123652788D01*
X74168000Y-123585163D01*
X74168000Y-111598065D01*
X74676000Y-111699113D01*
X75184000Y-111598065D01*
X75184000Y-126124917D01*
X75117460Y-126191341D01*
X74968270Y-126550630D01*
X74967931Y-126939663D01*
X75116493Y-127299212D01*
X75391341Y-127574540D01*
X75750630Y-127723730D01*
X76139663Y-127724069D01*
X76499212Y-127575507D01*
X76774540Y-127300659D01*
X76923730Y-126941370D01*
X76924069Y-126552337D01*
X76775507Y-126192788D01*
X76708000Y-126125163D01*
X76708000Y-111598065D01*
X77216000Y-111699113D01*
X77724000Y-111598065D01*
X77724000Y-128664917D01*
X77657460Y-128731341D01*
X77508270Y-129090630D01*
X77507931Y-129479663D01*
X77656493Y-129839212D01*
X77931341Y-130114540D01*
X78290630Y-130263730D01*
X78679663Y-130264069D01*
X79039212Y-130115507D01*
X79314540Y-129840659D01*
X79463730Y-129481370D01*
X79464069Y-129092337D01*
X79315507Y-128732788D01*
X79248000Y-128665163D01*
X79248000Y-46228000D01*
X79189996Y-45936395D01*
X79024815Y-45689185D01*
X78777605Y-45524004D01*
X78486000Y-45466000D01*
X78418330Y-45466000D01*
X78230698Y-45185189D01*
X77765151Y-44874120D01*
X77216000Y-44764887D01*
X76666849Y-44874120D01*
X76201302Y-45185189D01*
X76005731Y-45477881D01*
X75946000Y-45466000D01*
X75878330Y-45466000D01*
X75690698Y-45185189D01*
X75225151Y-44874120D01*
X74676000Y-44764887D01*
X74126849Y-44874120D01*
X73661302Y-45185189D01*
X73465731Y-45477881D01*
X73406000Y-45466000D01*
X73338330Y-45466000D01*
X73150698Y-45185189D01*
X72685151Y-44874120D01*
X72136000Y-44764887D01*
X71586849Y-44874120D01*
X71121302Y-45185189D01*
X70866000Y-45567275D01*
X70610698Y-45185189D01*
X70332600Y-44999370D01*
X70332600Y-44958000D01*
X70276530Y-44676115D01*
X70116855Y-44437145D01*
X68747351Y-43067641D01*
X68795000Y-42828093D01*
X68795000Y-42769907D01*
X68681961Y-42201622D01*
X68360054Y-41719853D01*
X67878285Y-41397946D01*
X67310000Y-41284907D01*
X66741715Y-41397946D01*
X66259946Y-41719853D01*
X66040000Y-42049026D01*
X65820054Y-41719853D01*
X65338285Y-41397946D01*
X64770000Y-41284907D01*
X64201715Y-41397946D01*
X63719946Y-41719853D01*
X63500000Y-42049026D01*
X63280054Y-41719853D01*
X62798285Y-41397946D01*
X62230000Y-41284907D01*
X61661715Y-41397946D01*
X61179946Y-41719853D01*
X61152150Y-41761452D01*
X61143162Y-41713683D01*
X61004090Y-41497559D01*
X60791890Y-41352569D01*
X60540000Y-41301560D01*
X58840000Y-41301560D01*
X58604683Y-41345838D01*
X58420000Y-41464678D01*
X58420000Y-40259000D01*
X58323327Y-39772992D01*
X58048026Y-39360974D01*
X57636008Y-39085673D01*
X57150000Y-38989000D01*
X30226000Y-38989000D01*
X29739992Y-39085673D01*
X29327974Y-39360974D01*
X29327972Y-39360977D01*
X28946974Y-39741974D01*
X28671673Y-40153992D01*
X28574999Y-40640000D01*
X28575000Y-40640005D01*
X28575000Y-74165578D01*
X28443946Y-74361715D01*
X28330907Y-74930000D01*
X28443946Y-75498285D01*
X28575000Y-75694422D01*
X28575000Y-76705578D01*
X28443946Y-76901715D01*
X28330907Y-77470000D01*
X28443946Y-78038285D01*
X28575000Y-78234422D01*
X28575000Y-79245578D01*
X28443946Y-79441715D01*
X28330907Y-80010000D01*
X28443946Y-80578285D01*
X28575000Y-80774422D01*
X28575000Y-81785578D01*
X28443946Y-81981715D01*
X28330907Y-82550000D01*
X28443946Y-83118285D01*
X28575000Y-83314422D01*
X28575000Y-84325578D01*
X28443946Y-84521715D01*
X28330907Y-85090000D01*
X28443946Y-85658285D01*
X28575000Y-85854422D01*
X28575000Y-86865578D01*
X28443946Y-87061715D01*
X28330907Y-87630000D01*
X28443946Y-88198285D01*
X28575000Y-88394422D01*
X28575000Y-89405578D01*
X28443946Y-89601715D01*
X28330907Y-90170000D01*
X28443946Y-90738285D01*
X28575000Y-90934422D01*
X28575000Y-91945578D01*
X28443946Y-92141715D01*
X28330907Y-92710000D01*
X28443946Y-93278285D01*
X28765853Y-93760054D01*
X29247622Y-94081961D01*
X29463937Y-94124989D01*
X30334949Y-94996000D01*
X27908402Y-97422546D01*
X27850622Y-97434039D01*
X27368853Y-97755946D01*
X27046946Y-98237715D01*
X26933907Y-98806000D01*
X24967000Y-98806000D01*
X24967000Y-36510619D01*
X26085613Y-36510619D01*
X26425155Y-37332372D01*
X27053321Y-37961636D01*
X27874481Y-38302611D01*
X28763619Y-38303387D01*
X29585372Y-37963845D01*
X30214636Y-37335679D01*
X30555611Y-36514519D01*
X30555614Y-36510619D01*
X78790613Y-36510619D01*
X79130155Y-37332372D01*
X79758321Y-37961636D01*
X80579481Y-38302611D01*
X81468619Y-38303387D01*
X82290372Y-37963845D01*
X82919636Y-37335679D01*
X83260611Y-36514519D01*
X83261387Y-35625381D01*
X82921845Y-34803628D01*
X82293679Y-34174364D01*
X81472519Y-33833389D01*
X80583381Y-33832613D01*
X79761628Y-34172155D01*
X79132364Y-34800321D01*
X78791389Y-35621481D01*
X78790613Y-36510619D01*
X30555614Y-36510619D01*
X30556387Y-35625381D01*
X30216845Y-34803628D01*
X29588679Y-34174364D01*
X28767519Y-33833389D01*
X27878381Y-33832613D01*
X27056628Y-34172155D01*
X26427364Y-34800321D01*
X26086389Y-35621481D01*
X26085613Y-36510619D01*
X24967000Y-36510619D01*
X24967000Y-32714000D01*
X84380000Y-32714000D01*
X84380000Y-137847000D01*
G36*
X71121302Y-89942811D02*
X71586849Y-90253880D01*
X72136000Y-90363113D01*
X72644000Y-90262065D01*
X72644000Y-108873935D01*
X72136000Y-108772887D01*
X71586849Y-108882120D01*
X71121302Y-109193189D01*
X70866000Y-109575275D01*
X70610698Y-109193189D01*
X70358000Y-109024341D01*
X70358000Y-108966000D01*
X70299996Y-108674395D01*
X70134815Y-108427185D01*
X68753310Y-107045680D01*
X68795000Y-106836093D01*
X68795000Y-106777907D01*
X68681961Y-106209622D01*
X68360054Y-105727853D01*
X67878285Y-105405946D01*
X67310000Y-105292907D01*
X66741715Y-105405946D01*
X66259946Y-105727853D01*
X66040000Y-106057026D01*
X65820054Y-105727853D01*
X65338285Y-105405946D01*
X64770000Y-105292907D01*
X64201715Y-105405946D01*
X63719946Y-105727853D01*
X63500000Y-106057026D01*
X63280054Y-105727853D01*
X62798285Y-105405946D01*
X62230000Y-105292907D01*
X61661715Y-105405946D01*
X61179946Y-105727853D01*
X61152150Y-105769452D01*
X61143162Y-105721683D01*
X61004090Y-105505559D01*
X60791890Y-105360569D01*
X60540000Y-105309560D01*
X58840000Y-105309560D01*
X58604683Y-105353838D01*
X58420000Y-105472678D01*
X58420000Y-101153566D01*
X58588110Y-101268431D01*
X58840000Y-101319440D01*
X60540000Y-101319440D01*
X60775317Y-101275162D01*
X60991441Y-101136090D01*
X61136431Y-100923890D01*
X61150086Y-100856459D01*
X61179946Y-100901147D01*
X61661715Y-101223054D01*
X62230000Y-101336093D01*
X62798285Y-101223054D01*
X63280054Y-100901147D01*
X63500000Y-100571974D01*
X63719946Y-100901147D01*
X64201715Y-101223054D01*
X64770000Y-101336093D01*
X65338285Y-101223054D01*
X65820054Y-100901147D01*
X66040000Y-100571974D01*
X66259946Y-100901147D01*
X66741715Y-101223054D01*
X67310000Y-101336093D01*
X67878285Y-101223054D01*
X68360054Y-100901147D01*
X68681961Y-100419378D01*
X68795000Y-99851093D01*
X68795000Y-99792907D01*
X68681961Y-99224622D01*
X68360054Y-98742853D01*
X67878285Y-98420946D01*
X67818000Y-98408955D01*
X67818000Y-97731659D01*
X68070698Y-97562811D01*
X68326000Y-97180725D01*
X68581302Y-97562811D01*
X69046849Y-97873880D01*
X69596000Y-97983113D01*
X70145151Y-97873880D01*
X70610698Y-97562811D01*
X70921767Y-97097264D01*
X71031000Y-96548113D01*
X71031000Y-96491887D01*
X70921767Y-95942736D01*
X70610698Y-95477189D01*
X70145151Y-95166120D01*
X69596000Y-95056887D01*
X69046849Y-95166120D01*
X68581302Y-95477189D01*
X68326000Y-95859275D01*
X68070698Y-95477189D01*
X67605151Y-95166120D01*
X67056000Y-95056887D01*
X66506849Y-95166120D01*
X66041302Y-95477189D01*
X65786000Y-95859275D01*
X65530698Y-95477189D01*
X65065151Y-95166120D01*
X64516000Y-95056887D01*
X63966849Y-95166120D01*
X63501302Y-95477189D01*
X63246000Y-95859275D01*
X62990698Y-95477189D01*
X62525151Y-95166120D01*
X61976000Y-95056887D01*
X61426849Y-95166120D01*
X60961302Y-95477189D01*
X60864899Y-95621465D01*
X60839162Y-95484683D01*
X60700090Y-95268559D01*
X60487890Y-95123569D01*
X60236000Y-95072560D01*
X58636000Y-95072560D01*
X58420000Y-95113203D01*
X58420000Y-90170000D01*
X58761314Y-90170000D01*
X58886849Y-90253880D01*
X59436000Y-90363113D01*
X59985151Y-90253880D01*
X60202213Y-90108843D01*
X61056185Y-90962815D01*
X61303395Y-91127996D01*
X61595000Y-91186000D01*
X65532000Y-91186000D01*
X65823605Y-91127996D01*
X66070815Y-90962815D01*
X66734473Y-90299157D01*
X67056000Y-90363113D01*
X67605151Y-90253880D01*
X68070698Y-89942811D01*
X68326000Y-89560725D01*
X68581302Y-89942811D01*
X69046849Y-90253880D01*
X69596000Y-90363113D01*
X70145151Y-90253880D01*
X70610698Y-89942811D01*
X70866000Y-89560725D01*
X71121302Y-89942811D01*
X71121302Y-89942811D01*
G37*
X71121302Y-89942811D02*
X71586849Y-90253880D01*
X72136000Y-90363113D01*
X72644000Y-90262065D01*
X72644000Y-108873935D01*
X72136000Y-108772887D01*
X71586849Y-108882120D01*
X71121302Y-109193189D01*
X70866000Y-109575275D01*
X70610698Y-109193189D01*
X70358000Y-109024341D01*
X70358000Y-108966000D01*
X70299996Y-108674395D01*
X70134815Y-108427185D01*
X68753310Y-107045680D01*
X68795000Y-106836093D01*
X68795000Y-106777907D01*
X68681961Y-106209622D01*
X68360054Y-105727853D01*
X67878285Y-105405946D01*
X67310000Y-105292907D01*
X66741715Y-105405946D01*
X66259946Y-105727853D01*
X66040000Y-106057026D01*
X65820054Y-105727853D01*
X65338285Y-105405946D01*
X64770000Y-105292907D01*
X64201715Y-105405946D01*
X63719946Y-105727853D01*
X63500000Y-106057026D01*
X63280054Y-105727853D01*
X62798285Y-105405946D01*
X62230000Y-105292907D01*
X61661715Y-105405946D01*
X61179946Y-105727853D01*
X61152150Y-105769452D01*
X61143162Y-105721683D01*
X61004090Y-105505559D01*
X60791890Y-105360569D01*
X60540000Y-105309560D01*
X58840000Y-105309560D01*
X58604683Y-105353838D01*
X58420000Y-105472678D01*
X58420000Y-101153566D01*
X58588110Y-101268431D01*
X58840000Y-101319440D01*
X60540000Y-101319440D01*
X60775317Y-101275162D01*
X60991441Y-101136090D01*
X61136431Y-100923890D01*
X61150086Y-100856459D01*
X61179946Y-100901147D01*
X61661715Y-101223054D01*
X62230000Y-101336093D01*
X62798285Y-101223054D01*
X63280054Y-100901147D01*
X63500000Y-100571974D01*
X63719946Y-100901147D01*
X64201715Y-101223054D01*
X64770000Y-101336093D01*
X65338285Y-101223054D01*
X65820054Y-100901147D01*
X66040000Y-100571974D01*
X66259946Y-100901147D01*
X66741715Y-101223054D01*
X67310000Y-101336093D01*
X67878285Y-101223054D01*
X68360054Y-100901147D01*
X68681961Y-100419378D01*
X68795000Y-99851093D01*
X68795000Y-99792907D01*
X68681961Y-99224622D01*
X68360054Y-98742853D01*
X67878285Y-98420946D01*
X67818000Y-98408955D01*
X67818000Y-97731659D01*
X68070698Y-97562811D01*
X68326000Y-97180725D01*
X68581302Y-97562811D01*
X69046849Y-97873880D01*
X69596000Y-97983113D01*
X70145151Y-97873880D01*
X70610698Y-97562811D01*
X70921767Y-97097264D01*
X71031000Y-96548113D01*
X71031000Y-96491887D01*
X70921767Y-95942736D01*
X70610698Y-95477189D01*
X70145151Y-95166120D01*
X69596000Y-95056887D01*
X69046849Y-95166120D01*
X68581302Y-95477189D01*
X68326000Y-95859275D01*
X68070698Y-95477189D01*
X67605151Y-95166120D01*
X67056000Y-95056887D01*
X66506849Y-95166120D01*
X66041302Y-95477189D01*
X65786000Y-95859275D01*
X65530698Y-95477189D01*
X65065151Y-95166120D01*
X64516000Y-95056887D01*
X63966849Y-95166120D01*
X63501302Y-95477189D01*
X63246000Y-95859275D01*
X62990698Y-95477189D01*
X62525151Y-95166120D01*
X61976000Y-95056887D01*
X61426849Y-95166120D01*
X60961302Y-95477189D01*
X60864899Y-95621465D01*
X60839162Y-95484683D01*
X60700090Y-95268559D01*
X60487890Y-95123569D01*
X60236000Y-95072560D01*
X58636000Y-95072560D01*
X58420000Y-95113203D01*
X58420000Y-90170000D01*
X58761314Y-90170000D01*
X58886849Y-90253880D01*
X59436000Y-90363113D01*
X59985151Y-90253880D01*
X60202213Y-90108843D01*
X61056185Y-90962815D01*
X61303395Y-91127996D01*
X61595000Y-91186000D01*
X65532000Y-91186000D01*
X65823605Y-91127996D01*
X66070815Y-90962815D01*
X66734473Y-90299157D01*
X67056000Y-90363113D01*
X67605151Y-90253880D01*
X68070698Y-89942811D01*
X68326000Y-89560725D01*
X68581302Y-89942811D01*
X69046849Y-90253880D01*
X69596000Y-90363113D01*
X70145151Y-90253880D01*
X70610698Y-89942811D01*
X70866000Y-89560725D01*
X71121302Y-89942811D01*
G36*
X48515302Y-89942811D02*
X48980849Y-90253880D01*
X49530000Y-90363113D01*
X50038000Y-90262065D01*
X50038000Y-108873935D01*
X49530000Y-108772887D01*
X48980849Y-108882120D01*
X48515302Y-109193189D01*
X48260000Y-109575275D01*
X48004698Y-109193189D01*
X47752000Y-109024341D01*
X47752000Y-108966000D01*
X47693996Y-108674395D01*
X47528815Y-108427185D01*
X46147310Y-107045680D01*
X46189000Y-106836093D01*
X46189000Y-106777907D01*
X46075961Y-106209622D01*
X45754054Y-105727853D01*
X45272285Y-105405946D01*
X44704000Y-105292907D01*
X44135715Y-105405946D01*
X43653946Y-105727853D01*
X43434000Y-106057026D01*
X43214054Y-105727853D01*
X42732285Y-105405946D01*
X42164000Y-105292907D01*
X41595715Y-105405946D01*
X41113946Y-105727853D01*
X40894000Y-106057026D01*
X40674054Y-105727853D01*
X40192285Y-105405946D01*
X39624000Y-105292907D01*
X39055715Y-105405946D01*
X38573946Y-105727853D01*
X38546150Y-105769452D01*
X38537162Y-105721683D01*
X38398090Y-105505559D01*
X38185890Y-105360569D01*
X37934000Y-105309560D01*
X36234000Y-105309560D01*
X35998683Y-105353838D01*
X35782559Y-105492910D01*
X35637569Y-105705110D01*
X35586560Y-105957000D01*
X35586560Y-107657000D01*
X35630838Y-107892317D01*
X35769910Y-108108441D01*
X35982110Y-108253431D01*
X36234000Y-108304440D01*
X37338000Y-108304440D01*
X37338000Y-108873935D01*
X36830000Y-108772887D01*
X36280849Y-108882120D01*
X36155314Y-108966000D01*
X33401000Y-108966000D01*
X33401000Y-95720000D01*
X35382560Y-95720000D01*
X35382560Y-97320000D01*
X35426838Y-97555317D01*
X35565910Y-97771441D01*
X35778110Y-97916431D01*
X36030000Y-97967440D01*
X36068000Y-97967440D01*
X36068000Y-98355795D01*
X35998683Y-98368838D01*
X35782559Y-98507910D01*
X35637569Y-98720110D01*
X35586560Y-98972000D01*
X35586560Y-100672000D01*
X35630838Y-100907317D01*
X35769910Y-101123441D01*
X35982110Y-101268431D01*
X36234000Y-101319440D01*
X37934000Y-101319440D01*
X38169317Y-101275162D01*
X38385441Y-101136090D01*
X38530431Y-100923890D01*
X38544086Y-100856459D01*
X38573946Y-100901147D01*
X39055715Y-101223054D01*
X39624000Y-101336093D01*
X40192285Y-101223054D01*
X40674054Y-100901147D01*
X40894000Y-100571974D01*
X41113946Y-100901147D01*
X41595715Y-101223054D01*
X42164000Y-101336093D01*
X42732285Y-101223054D01*
X43214054Y-100901147D01*
X43434000Y-100571974D01*
X43653946Y-100901147D01*
X44135715Y-101223054D01*
X44704000Y-101336093D01*
X45272285Y-101223054D01*
X45754054Y-100901147D01*
X46075961Y-100419378D01*
X46189000Y-99851093D01*
X46189000Y-99792907D01*
X46075961Y-99224622D01*
X45754054Y-98742853D01*
X45272285Y-98420946D01*
X45212000Y-98408955D01*
X45212000Y-97731659D01*
X45464698Y-97562811D01*
X45720000Y-97180725D01*
X45975302Y-97562811D01*
X46440849Y-97873880D01*
X46990000Y-97983113D01*
X47539151Y-97873880D01*
X48004698Y-97562811D01*
X48315767Y-97097264D01*
X48425000Y-96548113D01*
X48425000Y-96491887D01*
X48315767Y-95942736D01*
X48004698Y-95477189D01*
X47539151Y-95166120D01*
X46990000Y-95056887D01*
X46440849Y-95166120D01*
X45975302Y-95477189D01*
X45720000Y-95859275D01*
X45464698Y-95477189D01*
X44999151Y-95166120D01*
X44450000Y-95056887D01*
X43900849Y-95166120D01*
X43435302Y-95477189D01*
X43180000Y-95859275D01*
X42924698Y-95477189D01*
X42459151Y-95166120D01*
X41910000Y-95056887D01*
X41360849Y-95166120D01*
X40895302Y-95477189D01*
X40640000Y-95859275D01*
X40384698Y-95477189D01*
X39919151Y-95166120D01*
X39370000Y-95056887D01*
X38820849Y-95166120D01*
X38355302Y-95477189D01*
X38258899Y-95621465D01*
X38233162Y-95484683D01*
X38094090Y-95268559D01*
X37881890Y-95123569D01*
X37630000Y-95072560D01*
X36030000Y-95072560D01*
X35794683Y-95116838D01*
X35578559Y-95255910D01*
X35433569Y-95468110D01*
X35382560Y-95720000D01*
X33401000Y-95720000D01*
X33401000Y-94996005D01*
X33401001Y-94996000D01*
X33304327Y-94509992D01*
X33029026Y-94097974D01*
X33029023Y-94097972D01*
X31289082Y-92358030D01*
X31246054Y-92141715D01*
X31115000Y-91945578D01*
X31115000Y-90934422D01*
X31246054Y-90738285D01*
X31359093Y-90170000D01*
X36155314Y-90170000D01*
X36280849Y-90253880D01*
X36830000Y-90363113D01*
X37379151Y-90253880D01*
X37596213Y-90108843D01*
X38450185Y-90962815D01*
X38697395Y-91127996D01*
X38989000Y-91186000D01*
X42926000Y-91186000D01*
X43217605Y-91127996D01*
X43464815Y-90962815D01*
X44128473Y-90299157D01*
X44450000Y-90363113D01*
X44999151Y-90253880D01*
X45464698Y-89942811D01*
X45720000Y-89560725D01*
X45975302Y-89942811D01*
X46440849Y-90253880D01*
X46990000Y-90363113D01*
X47539151Y-90253880D01*
X48004698Y-89942811D01*
X48260000Y-89560725D01*
X48515302Y-89942811D01*
X48515302Y-89942811D01*
G37*
X48515302Y-89942811D02*
X48980849Y-90253880D01*
X49530000Y-90363113D01*
X50038000Y-90262065D01*
X50038000Y-108873935D01*
X49530000Y-108772887D01*
X48980849Y-108882120D01*
X48515302Y-109193189D01*
X48260000Y-109575275D01*
X48004698Y-109193189D01*
X47752000Y-109024341D01*
X47752000Y-108966000D01*
X47693996Y-108674395D01*
X47528815Y-108427185D01*
X46147310Y-107045680D01*
X46189000Y-106836093D01*
X46189000Y-106777907D01*
X46075961Y-106209622D01*
X45754054Y-105727853D01*
X45272285Y-105405946D01*
X44704000Y-105292907D01*
X44135715Y-105405946D01*
X43653946Y-105727853D01*
X43434000Y-106057026D01*
X43214054Y-105727853D01*
X42732285Y-105405946D01*
X42164000Y-105292907D01*
X41595715Y-105405946D01*
X41113946Y-105727853D01*
X40894000Y-106057026D01*
X40674054Y-105727853D01*
X40192285Y-105405946D01*
X39624000Y-105292907D01*
X39055715Y-105405946D01*
X38573946Y-105727853D01*
X38546150Y-105769452D01*
X38537162Y-105721683D01*
X38398090Y-105505559D01*
X38185890Y-105360569D01*
X37934000Y-105309560D01*
X36234000Y-105309560D01*
X35998683Y-105353838D01*
X35782559Y-105492910D01*
X35637569Y-105705110D01*
X35586560Y-105957000D01*
X35586560Y-107657000D01*
X35630838Y-107892317D01*
X35769910Y-108108441D01*
X35982110Y-108253431D01*
X36234000Y-108304440D01*
X37338000Y-108304440D01*
X37338000Y-108873935D01*
X36830000Y-108772887D01*
X36280849Y-108882120D01*
X36155314Y-108966000D01*
X33401000Y-108966000D01*
X33401000Y-95720000D01*
X35382560Y-95720000D01*
X35382560Y-97320000D01*
X35426838Y-97555317D01*
X35565910Y-97771441D01*
X35778110Y-97916431D01*
X36030000Y-97967440D01*
X36068000Y-97967440D01*
X36068000Y-98355795D01*
X35998683Y-98368838D01*
X35782559Y-98507910D01*
X35637569Y-98720110D01*
X35586560Y-98972000D01*
X35586560Y-100672000D01*
X35630838Y-100907317D01*
X35769910Y-101123441D01*
X35982110Y-101268431D01*
X36234000Y-101319440D01*
X37934000Y-101319440D01*
X38169317Y-101275162D01*
X38385441Y-101136090D01*
X38530431Y-100923890D01*
X38544086Y-100856459D01*
X38573946Y-100901147D01*
X39055715Y-101223054D01*
X39624000Y-101336093D01*
X40192285Y-101223054D01*
X40674054Y-100901147D01*
X40894000Y-100571974D01*
X41113946Y-100901147D01*
X41595715Y-101223054D01*
X42164000Y-101336093D01*
X42732285Y-101223054D01*
X43214054Y-100901147D01*
X43434000Y-100571974D01*
X43653946Y-100901147D01*
X44135715Y-101223054D01*
X44704000Y-101336093D01*
X45272285Y-101223054D01*
X45754054Y-100901147D01*
X46075961Y-100419378D01*
X46189000Y-99851093D01*
X46189000Y-99792907D01*
X46075961Y-99224622D01*
X45754054Y-98742853D01*
X45272285Y-98420946D01*
X45212000Y-98408955D01*
X45212000Y-97731659D01*
X45464698Y-97562811D01*
X45720000Y-97180725D01*
X45975302Y-97562811D01*
X46440849Y-97873880D01*
X46990000Y-97983113D01*
X47539151Y-97873880D01*
X48004698Y-97562811D01*
X48315767Y-97097264D01*
X48425000Y-96548113D01*
X48425000Y-96491887D01*
X48315767Y-95942736D01*
X48004698Y-95477189D01*
X47539151Y-95166120D01*
X46990000Y-95056887D01*
X46440849Y-95166120D01*
X45975302Y-95477189D01*
X45720000Y-95859275D01*
X45464698Y-95477189D01*
X44999151Y-95166120D01*
X44450000Y-95056887D01*
X43900849Y-95166120D01*
X43435302Y-95477189D01*
X43180000Y-95859275D01*
X42924698Y-95477189D01*
X42459151Y-95166120D01*
X41910000Y-95056887D01*
X41360849Y-95166120D01*
X40895302Y-95477189D01*
X40640000Y-95859275D01*
X40384698Y-95477189D01*
X39919151Y-95166120D01*
X39370000Y-95056887D01*
X38820849Y-95166120D01*
X38355302Y-95477189D01*
X38258899Y-95621465D01*
X38233162Y-95484683D01*
X38094090Y-95268559D01*
X37881890Y-95123569D01*
X37630000Y-95072560D01*
X36030000Y-95072560D01*
X35794683Y-95116838D01*
X35578559Y-95255910D01*
X35433569Y-95468110D01*
X35382560Y-95720000D01*
X33401000Y-95720000D01*
X33401000Y-94996005D01*
X33401001Y-94996000D01*
X33304327Y-94509992D01*
X33029026Y-94097974D01*
X33029023Y-94097972D01*
X31289082Y-92358030D01*
X31246054Y-92141715D01*
X31115000Y-91945578D01*
X31115000Y-90934422D01*
X31246054Y-90738285D01*
X31359093Y-90170000D01*
X36155314Y-90170000D01*
X36280849Y-90253880D01*
X36830000Y-90363113D01*
X37379151Y-90253880D01*
X37596213Y-90108843D01*
X38450185Y-90962815D01*
X38697395Y-91127996D01*
X38989000Y-91186000D01*
X42926000Y-91186000D01*
X43217605Y-91127996D01*
X43464815Y-90962815D01*
X44128473Y-90299157D01*
X44450000Y-90363113D01*
X44999151Y-90253880D01*
X45464698Y-89942811D01*
X45720000Y-89560725D01*
X45975302Y-89942811D01*
X46440849Y-90253880D01*
X46990000Y-90363113D01*
X47539151Y-90253880D01*
X48004698Y-89942811D01*
X48260000Y-89560725D01*
X48515302Y-89942811D01*
G36*
X55118000Y-108873935D02*
X54610000Y-108772887D01*
X54102000Y-108873935D01*
X54102000Y-90262065D01*
X54610000Y-90363113D01*
X55118000Y-90262065D01*
X55118000Y-108873935D01*
X55118000Y-108873935D01*
G37*
X55118000Y-108873935D02*
X54610000Y-108772887D01*
X54102000Y-108873935D01*
X54102000Y-90262065D01*
X54610000Y-90363113D01*
X55118000Y-90262065D01*
X55118000Y-108873935D01*
G36*
X77724000Y-108873935D02*
X77216000Y-108772887D01*
X76708000Y-108873935D01*
X76708000Y-90262065D01*
X77216000Y-90363113D01*
X77724000Y-90262065D01*
X77724000Y-108873935D01*
X77724000Y-108873935D01*
G37*
X77724000Y-108873935D02*
X77216000Y-108772887D01*
X76708000Y-108873935D01*
X76708000Y-90262065D01*
X77216000Y-90363113D01*
X77724000Y-90262065D01*
X77724000Y-108873935D01*
G36*
X75184000Y-108873935D02*
X74676000Y-108772887D01*
X74168000Y-108873935D01*
X74168000Y-90262065D01*
X74676000Y-90363113D01*
X75184000Y-90262065D01*
X75184000Y-108873935D01*
X75184000Y-108873935D01*
G37*
X75184000Y-108873935D02*
X74676000Y-108772887D01*
X74168000Y-108873935D01*
X74168000Y-90262065D01*
X74676000Y-90363113D01*
X75184000Y-90262065D01*
X75184000Y-108873935D01*
G36*
X52578000Y-108873935D02*
X52070000Y-108772887D01*
X51562000Y-108873935D01*
X51562000Y-90262065D01*
X52070000Y-90363113D01*
X52578000Y-90262065D01*
X52578000Y-108873935D01*
X52578000Y-108873935D01*
G37*
X52578000Y-108873935D02*
X52070000Y-108772887D01*
X51562000Y-108873935D01*
X51562000Y-90262065D01*
X52070000Y-90363113D01*
X52578000Y-90262065D01*
X52578000Y-108873935D01*
G36*
X71121302Y-68606811D02*
X71586849Y-68917880D01*
X72136000Y-69027113D01*
X72644000Y-68926065D01*
X72644000Y-87537935D01*
X72136000Y-87436887D01*
X71586849Y-87546120D01*
X71121302Y-87857189D01*
X70866000Y-88239275D01*
X70610698Y-87857189D01*
X70358000Y-87688341D01*
X70358000Y-87630000D01*
X70299996Y-87338395D01*
X70134815Y-87091185D01*
X68753310Y-85709680D01*
X68795000Y-85500093D01*
X68795000Y-85441907D01*
X68681961Y-84873622D01*
X68360054Y-84391853D01*
X67878285Y-84069946D01*
X67310000Y-83956907D01*
X66741715Y-84069946D01*
X66259946Y-84391853D01*
X66040000Y-84721026D01*
X65820054Y-84391853D01*
X65338285Y-84069946D01*
X64770000Y-83956907D01*
X64201715Y-84069946D01*
X63719946Y-84391853D01*
X63500000Y-84721026D01*
X63280054Y-84391853D01*
X62798285Y-84069946D01*
X62230000Y-83956907D01*
X61661715Y-84069946D01*
X61179946Y-84391853D01*
X61152150Y-84433452D01*
X61143162Y-84385683D01*
X61004090Y-84169559D01*
X60791890Y-84024569D01*
X60540000Y-83973560D01*
X58840000Y-83973560D01*
X58604683Y-84017838D01*
X58420000Y-84136678D01*
X58420000Y-79817566D01*
X58588110Y-79932431D01*
X58840000Y-79983440D01*
X60540000Y-79983440D01*
X60775317Y-79939162D01*
X60991441Y-79800090D01*
X61136431Y-79587890D01*
X61150086Y-79520459D01*
X61179946Y-79565147D01*
X61661715Y-79887054D01*
X62230000Y-80000093D01*
X62798285Y-79887054D01*
X63280054Y-79565147D01*
X63500000Y-79235974D01*
X63719946Y-79565147D01*
X64201715Y-79887054D01*
X64770000Y-80000093D01*
X65338285Y-79887054D01*
X65820054Y-79565147D01*
X66040000Y-79235974D01*
X66259946Y-79565147D01*
X66741715Y-79887054D01*
X67310000Y-80000093D01*
X67878285Y-79887054D01*
X68360054Y-79565147D01*
X68681961Y-79083378D01*
X68795000Y-78515093D01*
X68795000Y-78456907D01*
X68681961Y-77888622D01*
X68360054Y-77406853D01*
X67878285Y-77084946D01*
X67818000Y-77072955D01*
X67818000Y-76395659D01*
X68070698Y-76226811D01*
X68326000Y-75844725D01*
X68581302Y-76226811D01*
X69046849Y-76537880D01*
X69596000Y-76647113D01*
X70145151Y-76537880D01*
X70610698Y-76226811D01*
X70921767Y-75761264D01*
X71031000Y-75212113D01*
X71031000Y-75155887D01*
X70921767Y-74606736D01*
X70610698Y-74141189D01*
X70145151Y-73830120D01*
X69596000Y-73720887D01*
X69046849Y-73830120D01*
X68581302Y-74141189D01*
X68326000Y-74523275D01*
X68070698Y-74141189D01*
X67605151Y-73830120D01*
X67056000Y-73720887D01*
X66506849Y-73830120D01*
X66041302Y-74141189D01*
X65786000Y-74523275D01*
X65530698Y-74141189D01*
X65065151Y-73830120D01*
X64516000Y-73720887D01*
X63966849Y-73830120D01*
X63501302Y-74141189D01*
X63246000Y-74523275D01*
X62990698Y-74141189D01*
X62525151Y-73830120D01*
X61976000Y-73720887D01*
X61426849Y-73830120D01*
X60961302Y-74141189D01*
X60864899Y-74285465D01*
X60839162Y-74148683D01*
X60700090Y-73932559D01*
X60487890Y-73787569D01*
X60236000Y-73736560D01*
X58636000Y-73736560D01*
X58420000Y-73777203D01*
X58420000Y-68834000D01*
X58761314Y-68834000D01*
X58886849Y-68917880D01*
X59436000Y-69027113D01*
X59985151Y-68917880D01*
X60202213Y-68772843D01*
X61056185Y-69626815D01*
X61303395Y-69791996D01*
X61595000Y-69850000D01*
X65532000Y-69850000D01*
X65823605Y-69791996D01*
X66070815Y-69626815D01*
X66734473Y-68963157D01*
X67056000Y-69027113D01*
X67605151Y-68917880D01*
X68070698Y-68606811D01*
X68326000Y-68224725D01*
X68581302Y-68606811D01*
X69046849Y-68917880D01*
X69596000Y-69027113D01*
X70145151Y-68917880D01*
X70610698Y-68606811D01*
X70866000Y-68224725D01*
X71121302Y-68606811D01*
X71121302Y-68606811D01*
G37*
X71121302Y-68606811D02*
X71586849Y-68917880D01*
X72136000Y-69027113D01*
X72644000Y-68926065D01*
X72644000Y-87537935D01*
X72136000Y-87436887D01*
X71586849Y-87546120D01*
X71121302Y-87857189D01*
X70866000Y-88239275D01*
X70610698Y-87857189D01*
X70358000Y-87688341D01*
X70358000Y-87630000D01*
X70299996Y-87338395D01*
X70134815Y-87091185D01*
X68753310Y-85709680D01*
X68795000Y-85500093D01*
X68795000Y-85441907D01*
X68681961Y-84873622D01*
X68360054Y-84391853D01*
X67878285Y-84069946D01*
X67310000Y-83956907D01*
X66741715Y-84069946D01*
X66259946Y-84391853D01*
X66040000Y-84721026D01*
X65820054Y-84391853D01*
X65338285Y-84069946D01*
X64770000Y-83956907D01*
X64201715Y-84069946D01*
X63719946Y-84391853D01*
X63500000Y-84721026D01*
X63280054Y-84391853D01*
X62798285Y-84069946D01*
X62230000Y-83956907D01*
X61661715Y-84069946D01*
X61179946Y-84391853D01*
X61152150Y-84433452D01*
X61143162Y-84385683D01*
X61004090Y-84169559D01*
X60791890Y-84024569D01*
X60540000Y-83973560D01*
X58840000Y-83973560D01*
X58604683Y-84017838D01*
X58420000Y-84136678D01*
X58420000Y-79817566D01*
X58588110Y-79932431D01*
X58840000Y-79983440D01*
X60540000Y-79983440D01*
X60775317Y-79939162D01*
X60991441Y-79800090D01*
X61136431Y-79587890D01*
X61150086Y-79520459D01*
X61179946Y-79565147D01*
X61661715Y-79887054D01*
X62230000Y-80000093D01*
X62798285Y-79887054D01*
X63280054Y-79565147D01*
X63500000Y-79235974D01*
X63719946Y-79565147D01*
X64201715Y-79887054D01*
X64770000Y-80000093D01*
X65338285Y-79887054D01*
X65820054Y-79565147D01*
X66040000Y-79235974D01*
X66259946Y-79565147D01*
X66741715Y-79887054D01*
X67310000Y-80000093D01*
X67878285Y-79887054D01*
X68360054Y-79565147D01*
X68681961Y-79083378D01*
X68795000Y-78515093D01*
X68795000Y-78456907D01*
X68681961Y-77888622D01*
X68360054Y-77406853D01*
X67878285Y-77084946D01*
X67818000Y-77072955D01*
X67818000Y-76395659D01*
X68070698Y-76226811D01*
X68326000Y-75844725D01*
X68581302Y-76226811D01*
X69046849Y-76537880D01*
X69596000Y-76647113D01*
X70145151Y-76537880D01*
X70610698Y-76226811D01*
X70921767Y-75761264D01*
X71031000Y-75212113D01*
X71031000Y-75155887D01*
X70921767Y-74606736D01*
X70610698Y-74141189D01*
X70145151Y-73830120D01*
X69596000Y-73720887D01*
X69046849Y-73830120D01*
X68581302Y-74141189D01*
X68326000Y-74523275D01*
X68070698Y-74141189D01*
X67605151Y-73830120D01*
X67056000Y-73720887D01*
X66506849Y-73830120D01*
X66041302Y-74141189D01*
X65786000Y-74523275D01*
X65530698Y-74141189D01*
X65065151Y-73830120D01*
X64516000Y-73720887D01*
X63966849Y-73830120D01*
X63501302Y-74141189D01*
X63246000Y-74523275D01*
X62990698Y-74141189D01*
X62525151Y-73830120D01*
X61976000Y-73720887D01*
X61426849Y-73830120D01*
X60961302Y-74141189D01*
X60864899Y-74285465D01*
X60839162Y-74148683D01*
X60700090Y-73932559D01*
X60487890Y-73787569D01*
X60236000Y-73736560D01*
X58636000Y-73736560D01*
X58420000Y-73777203D01*
X58420000Y-68834000D01*
X58761314Y-68834000D01*
X58886849Y-68917880D01*
X59436000Y-69027113D01*
X59985151Y-68917880D01*
X60202213Y-68772843D01*
X61056185Y-69626815D01*
X61303395Y-69791996D01*
X61595000Y-69850000D01*
X65532000Y-69850000D01*
X65823605Y-69791996D01*
X66070815Y-69626815D01*
X66734473Y-68963157D01*
X67056000Y-69027113D01*
X67605151Y-68917880D01*
X68070698Y-68606811D01*
X68326000Y-68224725D01*
X68581302Y-68606811D01*
X69046849Y-68917880D01*
X69596000Y-69027113D01*
X70145151Y-68917880D01*
X70610698Y-68606811D01*
X70866000Y-68224725D01*
X71121302Y-68606811D01*
G36*
X48515302Y-68606811D02*
X48980849Y-68917880D01*
X49530000Y-69027113D01*
X50038000Y-68926065D01*
X50038000Y-87537935D01*
X49530000Y-87436887D01*
X48980849Y-87546120D01*
X48515302Y-87857189D01*
X48260000Y-88239275D01*
X48004698Y-87857189D01*
X47752000Y-87688341D01*
X47752000Y-87630000D01*
X47693996Y-87338395D01*
X47528815Y-87091185D01*
X46147310Y-85709680D01*
X46189000Y-85500093D01*
X46189000Y-85441907D01*
X46075961Y-84873622D01*
X45754054Y-84391853D01*
X45272285Y-84069946D01*
X44704000Y-83956907D01*
X44135715Y-84069946D01*
X43653946Y-84391853D01*
X43434000Y-84721026D01*
X43214054Y-84391853D01*
X42732285Y-84069946D01*
X42164000Y-83956907D01*
X41595715Y-84069946D01*
X41113946Y-84391853D01*
X40894000Y-84721026D01*
X40674054Y-84391853D01*
X40192285Y-84069946D01*
X39624000Y-83956907D01*
X39055715Y-84069946D01*
X38573946Y-84391853D01*
X38546150Y-84433452D01*
X38537162Y-84385683D01*
X38398090Y-84169559D01*
X38185890Y-84024569D01*
X37934000Y-83973560D01*
X36234000Y-83973560D01*
X35998683Y-84017838D01*
X35782559Y-84156910D01*
X35637569Y-84369110D01*
X35586560Y-84621000D01*
X35586560Y-86321000D01*
X35630838Y-86556317D01*
X35769910Y-86772441D01*
X35982110Y-86917431D01*
X36234000Y-86968440D01*
X37338000Y-86968440D01*
X37338000Y-87537935D01*
X36830000Y-87436887D01*
X36280849Y-87546120D01*
X36155314Y-87630000D01*
X31359093Y-87630000D01*
X31246054Y-87061715D01*
X31115000Y-86865578D01*
X31115000Y-85854422D01*
X31246054Y-85658285D01*
X31359093Y-85090000D01*
X31246054Y-84521715D01*
X31115000Y-84325578D01*
X31115000Y-83314422D01*
X31246054Y-83118285D01*
X31359093Y-82550000D01*
X31246054Y-81981715D01*
X31115000Y-81785578D01*
X31115000Y-80774422D01*
X31246054Y-80578285D01*
X31359093Y-80010000D01*
X31246054Y-79441715D01*
X31115000Y-79245578D01*
X31115000Y-78234422D01*
X31246054Y-78038285D01*
X31359093Y-77470000D01*
X31246054Y-76901715D01*
X31115000Y-76705578D01*
X31115000Y-75694422D01*
X31246054Y-75498285D01*
X31359093Y-74930000D01*
X31250487Y-74384000D01*
X35382560Y-74384000D01*
X35382560Y-75984000D01*
X35426838Y-76219317D01*
X35565910Y-76435441D01*
X35778110Y-76580431D01*
X36030000Y-76631440D01*
X36068000Y-76631440D01*
X36068000Y-77019795D01*
X35998683Y-77032838D01*
X35782559Y-77171910D01*
X35637569Y-77384110D01*
X35586560Y-77636000D01*
X35586560Y-79336000D01*
X35630838Y-79571317D01*
X35769910Y-79787441D01*
X35982110Y-79932431D01*
X36234000Y-79983440D01*
X37934000Y-79983440D01*
X38169317Y-79939162D01*
X38385441Y-79800090D01*
X38530431Y-79587890D01*
X38544086Y-79520459D01*
X38573946Y-79565147D01*
X39055715Y-79887054D01*
X39624000Y-80000093D01*
X40192285Y-79887054D01*
X40674054Y-79565147D01*
X40894000Y-79235974D01*
X41113946Y-79565147D01*
X41595715Y-79887054D01*
X42164000Y-80000093D01*
X42732285Y-79887054D01*
X43214054Y-79565147D01*
X43434000Y-79235974D01*
X43653946Y-79565147D01*
X44135715Y-79887054D01*
X44704000Y-80000093D01*
X45272285Y-79887054D01*
X45754054Y-79565147D01*
X46075961Y-79083378D01*
X46189000Y-78515093D01*
X46189000Y-78456907D01*
X46075961Y-77888622D01*
X45754054Y-77406853D01*
X45272285Y-77084946D01*
X45212000Y-77072955D01*
X45212000Y-76395659D01*
X45464698Y-76226811D01*
X45720000Y-75844725D01*
X45975302Y-76226811D01*
X46440849Y-76537880D01*
X46990000Y-76647113D01*
X47539151Y-76537880D01*
X48004698Y-76226811D01*
X48315767Y-75761264D01*
X48425000Y-75212113D01*
X48425000Y-75155887D01*
X48315767Y-74606736D01*
X48004698Y-74141189D01*
X47539151Y-73830120D01*
X46990000Y-73720887D01*
X46440849Y-73830120D01*
X45975302Y-74141189D01*
X45720000Y-74523275D01*
X45464698Y-74141189D01*
X44999151Y-73830120D01*
X44450000Y-73720887D01*
X43900849Y-73830120D01*
X43435302Y-74141189D01*
X43180000Y-74523275D01*
X42924698Y-74141189D01*
X42459151Y-73830120D01*
X41910000Y-73720887D01*
X41360849Y-73830120D01*
X40895302Y-74141189D01*
X40640000Y-74523275D01*
X40384698Y-74141189D01*
X39919151Y-73830120D01*
X39370000Y-73720887D01*
X38820849Y-73830120D01*
X38355302Y-74141189D01*
X38258899Y-74285465D01*
X38233162Y-74148683D01*
X38094090Y-73932559D01*
X37881890Y-73787569D01*
X37630000Y-73736560D01*
X36030000Y-73736560D01*
X35794683Y-73780838D01*
X35578559Y-73919910D01*
X35433569Y-74132110D01*
X35382560Y-74384000D01*
X31250487Y-74384000D01*
X31246054Y-74361715D01*
X31115000Y-74165578D01*
X31115000Y-68834000D01*
X36155314Y-68834000D01*
X36280849Y-68917880D01*
X36830000Y-69027113D01*
X37379151Y-68917880D01*
X37596213Y-68772843D01*
X38450185Y-69626815D01*
X38697395Y-69791996D01*
X38989000Y-69850000D01*
X42926000Y-69850000D01*
X43217605Y-69791996D01*
X43464815Y-69626815D01*
X44128473Y-68963157D01*
X44450000Y-69027113D01*
X44999151Y-68917880D01*
X45464698Y-68606811D01*
X45720000Y-68224725D01*
X45975302Y-68606811D01*
X46440849Y-68917880D01*
X46990000Y-69027113D01*
X47539151Y-68917880D01*
X48004698Y-68606811D01*
X48260000Y-68224725D01*
X48515302Y-68606811D01*
X48515302Y-68606811D01*
G37*
X48515302Y-68606811D02*
X48980849Y-68917880D01*
X49530000Y-69027113D01*
X50038000Y-68926065D01*
X50038000Y-87537935D01*
X49530000Y-87436887D01*
X48980849Y-87546120D01*
X48515302Y-87857189D01*
X48260000Y-88239275D01*
X48004698Y-87857189D01*
X47752000Y-87688341D01*
X47752000Y-87630000D01*
X47693996Y-87338395D01*
X47528815Y-87091185D01*
X46147310Y-85709680D01*
X46189000Y-85500093D01*
X46189000Y-85441907D01*
X46075961Y-84873622D01*
X45754054Y-84391853D01*
X45272285Y-84069946D01*
X44704000Y-83956907D01*
X44135715Y-84069946D01*
X43653946Y-84391853D01*
X43434000Y-84721026D01*
X43214054Y-84391853D01*
X42732285Y-84069946D01*
X42164000Y-83956907D01*
X41595715Y-84069946D01*
X41113946Y-84391853D01*
X40894000Y-84721026D01*
X40674054Y-84391853D01*
X40192285Y-84069946D01*
X39624000Y-83956907D01*
X39055715Y-84069946D01*
X38573946Y-84391853D01*
X38546150Y-84433452D01*
X38537162Y-84385683D01*
X38398090Y-84169559D01*
X38185890Y-84024569D01*
X37934000Y-83973560D01*
X36234000Y-83973560D01*
X35998683Y-84017838D01*
X35782559Y-84156910D01*
X35637569Y-84369110D01*
X35586560Y-84621000D01*
X35586560Y-86321000D01*
X35630838Y-86556317D01*
X35769910Y-86772441D01*
X35982110Y-86917431D01*
X36234000Y-86968440D01*
X37338000Y-86968440D01*
X37338000Y-87537935D01*
X36830000Y-87436887D01*
X36280849Y-87546120D01*
X36155314Y-87630000D01*
X31359093Y-87630000D01*
X31246054Y-87061715D01*
X31115000Y-86865578D01*
X31115000Y-85854422D01*
X31246054Y-85658285D01*
X31359093Y-85090000D01*
X31246054Y-84521715D01*
X31115000Y-84325578D01*
X31115000Y-83314422D01*
X31246054Y-83118285D01*
X31359093Y-82550000D01*
X31246054Y-81981715D01*
X31115000Y-81785578D01*
X31115000Y-80774422D01*
X31246054Y-80578285D01*
X31359093Y-80010000D01*
X31246054Y-79441715D01*
X31115000Y-79245578D01*
X31115000Y-78234422D01*
X31246054Y-78038285D01*
X31359093Y-77470000D01*
X31246054Y-76901715D01*
X31115000Y-76705578D01*
X31115000Y-75694422D01*
X31246054Y-75498285D01*
X31359093Y-74930000D01*
X31250487Y-74384000D01*
X35382560Y-74384000D01*
X35382560Y-75984000D01*
X35426838Y-76219317D01*
X35565910Y-76435441D01*
X35778110Y-76580431D01*
X36030000Y-76631440D01*
X36068000Y-76631440D01*
X36068000Y-77019795D01*
X35998683Y-77032838D01*
X35782559Y-77171910D01*
X35637569Y-77384110D01*
X35586560Y-77636000D01*
X35586560Y-79336000D01*
X35630838Y-79571317D01*
X35769910Y-79787441D01*
X35982110Y-79932431D01*
X36234000Y-79983440D01*
X37934000Y-79983440D01*
X38169317Y-79939162D01*
X38385441Y-79800090D01*
X38530431Y-79587890D01*
X38544086Y-79520459D01*
X38573946Y-79565147D01*
X39055715Y-79887054D01*
X39624000Y-80000093D01*
X40192285Y-79887054D01*
X40674054Y-79565147D01*
X40894000Y-79235974D01*
X41113946Y-79565147D01*
X41595715Y-79887054D01*
X42164000Y-80000093D01*
X42732285Y-79887054D01*
X43214054Y-79565147D01*
X43434000Y-79235974D01*
X43653946Y-79565147D01*
X44135715Y-79887054D01*
X44704000Y-80000093D01*
X45272285Y-79887054D01*
X45754054Y-79565147D01*
X46075961Y-79083378D01*
X46189000Y-78515093D01*
X46189000Y-78456907D01*
X46075961Y-77888622D01*
X45754054Y-77406853D01*
X45272285Y-77084946D01*
X45212000Y-77072955D01*
X45212000Y-76395659D01*
X45464698Y-76226811D01*
X45720000Y-75844725D01*
X45975302Y-76226811D01*
X46440849Y-76537880D01*
X46990000Y-76647113D01*
X47539151Y-76537880D01*
X48004698Y-76226811D01*
X48315767Y-75761264D01*
X48425000Y-75212113D01*
X48425000Y-75155887D01*
X48315767Y-74606736D01*
X48004698Y-74141189D01*
X47539151Y-73830120D01*
X46990000Y-73720887D01*
X46440849Y-73830120D01*
X45975302Y-74141189D01*
X45720000Y-74523275D01*
X45464698Y-74141189D01*
X44999151Y-73830120D01*
X44450000Y-73720887D01*
X43900849Y-73830120D01*
X43435302Y-74141189D01*
X43180000Y-74523275D01*
X42924698Y-74141189D01*
X42459151Y-73830120D01*
X41910000Y-73720887D01*
X41360849Y-73830120D01*
X40895302Y-74141189D01*
X40640000Y-74523275D01*
X40384698Y-74141189D01*
X39919151Y-73830120D01*
X39370000Y-73720887D01*
X38820849Y-73830120D01*
X38355302Y-74141189D01*
X38258899Y-74285465D01*
X38233162Y-74148683D01*
X38094090Y-73932559D01*
X37881890Y-73787569D01*
X37630000Y-73736560D01*
X36030000Y-73736560D01*
X35794683Y-73780838D01*
X35578559Y-73919910D01*
X35433569Y-74132110D01*
X35382560Y-74384000D01*
X31250487Y-74384000D01*
X31246054Y-74361715D01*
X31115000Y-74165578D01*
X31115000Y-68834000D01*
X36155314Y-68834000D01*
X36280849Y-68917880D01*
X36830000Y-69027113D01*
X37379151Y-68917880D01*
X37596213Y-68772843D01*
X38450185Y-69626815D01*
X38697395Y-69791996D01*
X38989000Y-69850000D01*
X42926000Y-69850000D01*
X43217605Y-69791996D01*
X43464815Y-69626815D01*
X44128473Y-68963157D01*
X44450000Y-69027113D01*
X44999151Y-68917880D01*
X45464698Y-68606811D01*
X45720000Y-68224725D01*
X45975302Y-68606811D01*
X46440849Y-68917880D01*
X46990000Y-69027113D01*
X47539151Y-68917880D01*
X48004698Y-68606811D01*
X48260000Y-68224725D01*
X48515302Y-68606811D01*
G36*
X55118000Y-87537935D02*
X54610000Y-87436887D01*
X54102000Y-87537935D01*
X54102000Y-68926065D01*
X54610000Y-69027113D01*
X55118000Y-68926065D01*
X55118000Y-87537935D01*
X55118000Y-87537935D01*
G37*
X55118000Y-87537935D02*
X54610000Y-87436887D01*
X54102000Y-87537935D01*
X54102000Y-68926065D01*
X54610000Y-69027113D01*
X55118000Y-68926065D01*
X55118000Y-87537935D01*
G36*
X52578000Y-87537935D02*
X52070000Y-87436887D01*
X51562000Y-87537935D01*
X51562000Y-68926065D01*
X52070000Y-69027113D01*
X52578000Y-68926065D01*
X52578000Y-87537935D01*
X52578000Y-87537935D01*
G37*
X52578000Y-87537935D02*
X52070000Y-87436887D01*
X51562000Y-87537935D01*
X51562000Y-68926065D01*
X52070000Y-69027113D01*
X52578000Y-68926065D01*
X52578000Y-87537935D01*
G36*
X75184000Y-87537935D02*
X74676000Y-87436887D01*
X74168000Y-87537935D01*
X74168000Y-68926065D01*
X74676000Y-69027113D01*
X75184000Y-68926065D01*
X75184000Y-87537935D01*
X75184000Y-87537935D01*
G37*
X75184000Y-87537935D02*
X74676000Y-87436887D01*
X74168000Y-87537935D01*
X74168000Y-68926065D01*
X74676000Y-69027113D01*
X75184000Y-68926065D01*
X75184000Y-87537935D01*
G36*
X77724000Y-87537935D02*
X77216000Y-87436887D01*
X76708000Y-87537935D01*
X76708000Y-68926065D01*
X77216000Y-69027113D01*
X77724000Y-68926065D01*
X77724000Y-87537935D01*
X77724000Y-87537935D01*
G37*
X77724000Y-87537935D02*
X77216000Y-87436887D01*
X76708000Y-87537935D01*
X76708000Y-68926065D01*
X77216000Y-69027113D01*
X77724000Y-68926065D01*
X77724000Y-87537935D01*
G36*
X71121302Y-47270811D02*
X71586849Y-47581880D01*
X72136000Y-47691113D01*
X72644000Y-47590065D01*
X72644000Y-66201935D01*
X72136000Y-66100887D01*
X71586849Y-66210120D01*
X71121302Y-66521189D01*
X70866000Y-66903275D01*
X70610698Y-66521189D01*
X70332600Y-66335370D01*
X70332600Y-66294000D01*
X70276530Y-66012115D01*
X70116855Y-65773145D01*
X68747351Y-64403641D01*
X68795000Y-64164093D01*
X68795000Y-64105907D01*
X68681961Y-63537622D01*
X68360054Y-63055853D01*
X67878285Y-62733946D01*
X67310000Y-62620907D01*
X66741715Y-62733946D01*
X66259946Y-63055853D01*
X66040000Y-63385026D01*
X65820054Y-63055853D01*
X65338285Y-62733946D01*
X64770000Y-62620907D01*
X64201715Y-62733946D01*
X63719946Y-63055853D01*
X63500000Y-63385026D01*
X63280054Y-63055853D01*
X62798285Y-62733946D01*
X62230000Y-62620907D01*
X61661715Y-62733946D01*
X61179946Y-63055853D01*
X61152150Y-63097452D01*
X61143162Y-63049683D01*
X61004090Y-62833559D01*
X60791890Y-62688569D01*
X60540000Y-62637560D01*
X58840000Y-62637560D01*
X58604683Y-62681838D01*
X58420000Y-62800678D01*
X58420000Y-58481566D01*
X58588110Y-58596431D01*
X58840000Y-58647440D01*
X60540000Y-58647440D01*
X60775317Y-58603162D01*
X60991441Y-58464090D01*
X61136431Y-58251890D01*
X61150086Y-58184459D01*
X61179946Y-58229147D01*
X61661715Y-58551054D01*
X62230000Y-58664093D01*
X62798285Y-58551054D01*
X63280054Y-58229147D01*
X63500000Y-57899974D01*
X63719946Y-58229147D01*
X64201715Y-58551054D01*
X64770000Y-58664093D01*
X65338285Y-58551054D01*
X65820054Y-58229147D01*
X66040000Y-57899974D01*
X66259946Y-58229147D01*
X66741715Y-58551054D01*
X67310000Y-58664093D01*
X67878285Y-58551054D01*
X68360054Y-58229147D01*
X68681961Y-57747378D01*
X68795000Y-57179093D01*
X68795000Y-57120907D01*
X68681961Y-56552622D01*
X68360054Y-56070853D01*
X67878285Y-55748946D01*
X67818000Y-55736955D01*
X67818000Y-55059659D01*
X68070698Y-54890811D01*
X68326000Y-54508725D01*
X68581302Y-54890811D01*
X69046849Y-55201880D01*
X69596000Y-55311113D01*
X70145151Y-55201880D01*
X70610698Y-54890811D01*
X70921767Y-54425264D01*
X71031000Y-53876113D01*
X71031000Y-53819887D01*
X70921767Y-53270736D01*
X70610698Y-52805189D01*
X70145151Y-52494120D01*
X69596000Y-52384887D01*
X69046849Y-52494120D01*
X68581302Y-52805189D01*
X68326000Y-53187275D01*
X68070698Y-52805189D01*
X67605151Y-52494120D01*
X67056000Y-52384887D01*
X66506849Y-52494120D01*
X66041302Y-52805189D01*
X65786000Y-53187275D01*
X65530698Y-52805189D01*
X65065151Y-52494120D01*
X64516000Y-52384887D01*
X63966849Y-52494120D01*
X63501302Y-52805189D01*
X63246000Y-53187275D01*
X62990698Y-52805189D01*
X62525151Y-52494120D01*
X61976000Y-52384887D01*
X61426849Y-52494120D01*
X60961302Y-52805189D01*
X60864899Y-52949465D01*
X60839162Y-52812683D01*
X60700090Y-52596559D01*
X60487890Y-52451569D01*
X60236000Y-52400560D01*
X58636000Y-52400560D01*
X58420000Y-52441203D01*
X58420000Y-47498000D01*
X58761314Y-47498000D01*
X58886849Y-47581880D01*
X59436000Y-47691113D01*
X59985151Y-47581880D01*
X60202213Y-47436843D01*
X61056185Y-48290815D01*
X61303395Y-48455996D01*
X61595000Y-48514000D01*
X65532000Y-48514000D01*
X65823605Y-48455996D01*
X66070815Y-48290815D01*
X66734473Y-47627157D01*
X67056000Y-47691113D01*
X67605151Y-47581880D01*
X68070698Y-47270811D01*
X68326000Y-46888725D01*
X68581302Y-47270811D01*
X69046849Y-47581880D01*
X69596000Y-47691113D01*
X70145151Y-47581880D01*
X70610698Y-47270811D01*
X70866000Y-46888725D01*
X71121302Y-47270811D01*
X71121302Y-47270811D01*
G37*
X71121302Y-47270811D02*
X71586849Y-47581880D01*
X72136000Y-47691113D01*
X72644000Y-47590065D01*
X72644000Y-66201935D01*
X72136000Y-66100887D01*
X71586849Y-66210120D01*
X71121302Y-66521189D01*
X70866000Y-66903275D01*
X70610698Y-66521189D01*
X70332600Y-66335370D01*
X70332600Y-66294000D01*
X70276530Y-66012115D01*
X70116855Y-65773145D01*
X68747351Y-64403641D01*
X68795000Y-64164093D01*
X68795000Y-64105907D01*
X68681961Y-63537622D01*
X68360054Y-63055853D01*
X67878285Y-62733946D01*
X67310000Y-62620907D01*
X66741715Y-62733946D01*
X66259946Y-63055853D01*
X66040000Y-63385026D01*
X65820054Y-63055853D01*
X65338285Y-62733946D01*
X64770000Y-62620907D01*
X64201715Y-62733946D01*
X63719946Y-63055853D01*
X63500000Y-63385026D01*
X63280054Y-63055853D01*
X62798285Y-62733946D01*
X62230000Y-62620907D01*
X61661715Y-62733946D01*
X61179946Y-63055853D01*
X61152150Y-63097452D01*
X61143162Y-63049683D01*
X61004090Y-62833559D01*
X60791890Y-62688569D01*
X60540000Y-62637560D01*
X58840000Y-62637560D01*
X58604683Y-62681838D01*
X58420000Y-62800678D01*
X58420000Y-58481566D01*
X58588110Y-58596431D01*
X58840000Y-58647440D01*
X60540000Y-58647440D01*
X60775317Y-58603162D01*
X60991441Y-58464090D01*
X61136431Y-58251890D01*
X61150086Y-58184459D01*
X61179946Y-58229147D01*
X61661715Y-58551054D01*
X62230000Y-58664093D01*
X62798285Y-58551054D01*
X63280054Y-58229147D01*
X63500000Y-57899974D01*
X63719946Y-58229147D01*
X64201715Y-58551054D01*
X64770000Y-58664093D01*
X65338285Y-58551054D01*
X65820054Y-58229147D01*
X66040000Y-57899974D01*
X66259946Y-58229147D01*
X66741715Y-58551054D01*
X67310000Y-58664093D01*
X67878285Y-58551054D01*
X68360054Y-58229147D01*
X68681961Y-57747378D01*
X68795000Y-57179093D01*
X68795000Y-57120907D01*
X68681961Y-56552622D01*
X68360054Y-56070853D01*
X67878285Y-55748946D01*
X67818000Y-55736955D01*
X67818000Y-55059659D01*
X68070698Y-54890811D01*
X68326000Y-54508725D01*
X68581302Y-54890811D01*
X69046849Y-55201880D01*
X69596000Y-55311113D01*
X70145151Y-55201880D01*
X70610698Y-54890811D01*
X70921767Y-54425264D01*
X71031000Y-53876113D01*
X71031000Y-53819887D01*
X70921767Y-53270736D01*
X70610698Y-52805189D01*
X70145151Y-52494120D01*
X69596000Y-52384887D01*
X69046849Y-52494120D01*
X68581302Y-52805189D01*
X68326000Y-53187275D01*
X68070698Y-52805189D01*
X67605151Y-52494120D01*
X67056000Y-52384887D01*
X66506849Y-52494120D01*
X66041302Y-52805189D01*
X65786000Y-53187275D01*
X65530698Y-52805189D01*
X65065151Y-52494120D01*
X64516000Y-52384887D01*
X63966849Y-52494120D01*
X63501302Y-52805189D01*
X63246000Y-53187275D01*
X62990698Y-52805189D01*
X62525151Y-52494120D01*
X61976000Y-52384887D01*
X61426849Y-52494120D01*
X60961302Y-52805189D01*
X60864899Y-52949465D01*
X60839162Y-52812683D01*
X60700090Y-52596559D01*
X60487890Y-52451569D01*
X60236000Y-52400560D01*
X58636000Y-52400560D01*
X58420000Y-52441203D01*
X58420000Y-47498000D01*
X58761314Y-47498000D01*
X58886849Y-47581880D01*
X59436000Y-47691113D01*
X59985151Y-47581880D01*
X60202213Y-47436843D01*
X61056185Y-48290815D01*
X61303395Y-48455996D01*
X61595000Y-48514000D01*
X65532000Y-48514000D01*
X65823605Y-48455996D01*
X66070815Y-48290815D01*
X66734473Y-47627157D01*
X67056000Y-47691113D01*
X67605151Y-47581880D01*
X68070698Y-47270811D01*
X68326000Y-46888725D01*
X68581302Y-47270811D01*
X69046849Y-47581880D01*
X69596000Y-47691113D01*
X70145151Y-47581880D01*
X70610698Y-47270811D01*
X70866000Y-46888725D01*
X71121302Y-47270811D01*
G36*
X48515302Y-47270811D02*
X48980849Y-47581880D01*
X49530000Y-47691113D01*
X50038000Y-47590065D01*
X50038000Y-66201935D01*
X49530000Y-66100887D01*
X48980849Y-66210120D01*
X48515302Y-66521189D01*
X48260000Y-66903275D01*
X48004698Y-66521189D01*
X47752000Y-66352341D01*
X47752000Y-66294000D01*
X47693996Y-66002395D01*
X47528815Y-65755185D01*
X46147310Y-64373680D01*
X46189000Y-64164093D01*
X46189000Y-64105907D01*
X46075961Y-63537622D01*
X45754054Y-63055853D01*
X45272285Y-62733946D01*
X44704000Y-62620907D01*
X44135715Y-62733946D01*
X43653946Y-63055853D01*
X43434000Y-63385026D01*
X43214054Y-63055853D01*
X42732285Y-62733946D01*
X42164000Y-62620907D01*
X41595715Y-62733946D01*
X41113946Y-63055853D01*
X40894000Y-63385026D01*
X40674054Y-63055853D01*
X40192285Y-62733946D01*
X39624000Y-62620907D01*
X39055715Y-62733946D01*
X38573946Y-63055853D01*
X38546150Y-63097452D01*
X38537162Y-63049683D01*
X38398090Y-62833559D01*
X38185890Y-62688569D01*
X37934000Y-62637560D01*
X36234000Y-62637560D01*
X35998683Y-62681838D01*
X35782559Y-62820910D01*
X35637569Y-63033110D01*
X35586560Y-63285000D01*
X35586560Y-64985000D01*
X35630838Y-65220317D01*
X35769910Y-65436441D01*
X35982110Y-65581431D01*
X36234000Y-65632440D01*
X37338000Y-65632440D01*
X37338000Y-66201935D01*
X36830000Y-66100887D01*
X36280849Y-66210120D01*
X36155314Y-66294000D01*
X31115000Y-66294000D01*
X31115000Y-53048000D01*
X35382560Y-53048000D01*
X35382560Y-54648000D01*
X35426838Y-54883317D01*
X35565910Y-55099441D01*
X35778110Y-55244431D01*
X36030000Y-55295440D01*
X36068000Y-55295440D01*
X36068000Y-55683795D01*
X35998683Y-55696838D01*
X35782559Y-55835910D01*
X35637569Y-56048110D01*
X35586560Y-56300000D01*
X35586560Y-58000000D01*
X35630838Y-58235317D01*
X35769910Y-58451441D01*
X35982110Y-58596431D01*
X36234000Y-58647440D01*
X37934000Y-58647440D01*
X38169317Y-58603162D01*
X38385441Y-58464090D01*
X38530431Y-58251890D01*
X38544086Y-58184459D01*
X38573946Y-58229147D01*
X39055715Y-58551054D01*
X39624000Y-58664093D01*
X40192285Y-58551054D01*
X40674054Y-58229147D01*
X40894000Y-57899974D01*
X41113946Y-58229147D01*
X41595715Y-58551054D01*
X42164000Y-58664093D01*
X42732285Y-58551054D01*
X43214054Y-58229147D01*
X43434000Y-57899974D01*
X43653946Y-58229147D01*
X44135715Y-58551054D01*
X44704000Y-58664093D01*
X45272285Y-58551054D01*
X45754054Y-58229147D01*
X46075961Y-57747378D01*
X46189000Y-57179093D01*
X46189000Y-57120907D01*
X46075961Y-56552622D01*
X45754054Y-56070853D01*
X45272285Y-55748946D01*
X45212000Y-55736955D01*
X45212000Y-55059659D01*
X45464698Y-54890811D01*
X45720000Y-54508725D01*
X45975302Y-54890811D01*
X46440849Y-55201880D01*
X46990000Y-55311113D01*
X47539151Y-55201880D01*
X48004698Y-54890811D01*
X48315767Y-54425264D01*
X48425000Y-53876113D01*
X48425000Y-53819887D01*
X48315767Y-53270736D01*
X48004698Y-52805189D01*
X47539151Y-52494120D01*
X46990000Y-52384887D01*
X46440849Y-52494120D01*
X45975302Y-52805189D01*
X45720000Y-53187275D01*
X45464698Y-52805189D01*
X44999151Y-52494120D01*
X44450000Y-52384887D01*
X43900849Y-52494120D01*
X43435302Y-52805189D01*
X43180000Y-53187275D01*
X42924698Y-52805189D01*
X42459151Y-52494120D01*
X41910000Y-52384887D01*
X41360849Y-52494120D01*
X40895302Y-52805189D01*
X40640000Y-53187275D01*
X40384698Y-52805189D01*
X39919151Y-52494120D01*
X39370000Y-52384887D01*
X38820849Y-52494120D01*
X38355302Y-52805189D01*
X38258899Y-52949465D01*
X38233162Y-52812683D01*
X38094090Y-52596559D01*
X37881890Y-52451569D01*
X37630000Y-52400560D01*
X36030000Y-52400560D01*
X35794683Y-52444838D01*
X35578559Y-52583910D01*
X35433569Y-52796110D01*
X35382560Y-53048000D01*
X31115000Y-53048000D01*
X31115000Y-47498000D01*
X36155314Y-47498000D01*
X36280849Y-47581880D01*
X36830000Y-47691113D01*
X37379151Y-47581880D01*
X37596213Y-47436843D01*
X38450185Y-48290815D01*
X38697395Y-48455996D01*
X38989000Y-48514000D01*
X42926000Y-48514000D01*
X43217605Y-48455996D01*
X43464815Y-48290815D01*
X44128473Y-47627157D01*
X44450000Y-47691113D01*
X44999151Y-47581880D01*
X45464698Y-47270811D01*
X45720000Y-46888725D01*
X45975302Y-47270811D01*
X46440849Y-47581880D01*
X46990000Y-47691113D01*
X47539151Y-47581880D01*
X48004698Y-47270811D01*
X48260000Y-46888725D01*
X48515302Y-47270811D01*
X48515302Y-47270811D01*
G37*
X48515302Y-47270811D02*
X48980849Y-47581880D01*
X49530000Y-47691113D01*
X50038000Y-47590065D01*
X50038000Y-66201935D01*
X49530000Y-66100887D01*
X48980849Y-66210120D01*
X48515302Y-66521189D01*
X48260000Y-66903275D01*
X48004698Y-66521189D01*
X47752000Y-66352341D01*
X47752000Y-66294000D01*
X47693996Y-66002395D01*
X47528815Y-65755185D01*
X46147310Y-64373680D01*
X46189000Y-64164093D01*
X46189000Y-64105907D01*
X46075961Y-63537622D01*
X45754054Y-63055853D01*
X45272285Y-62733946D01*
X44704000Y-62620907D01*
X44135715Y-62733946D01*
X43653946Y-63055853D01*
X43434000Y-63385026D01*
X43214054Y-63055853D01*
X42732285Y-62733946D01*
X42164000Y-62620907D01*
X41595715Y-62733946D01*
X41113946Y-63055853D01*
X40894000Y-63385026D01*
X40674054Y-63055853D01*
X40192285Y-62733946D01*
X39624000Y-62620907D01*
X39055715Y-62733946D01*
X38573946Y-63055853D01*
X38546150Y-63097452D01*
X38537162Y-63049683D01*
X38398090Y-62833559D01*
X38185890Y-62688569D01*
X37934000Y-62637560D01*
X36234000Y-62637560D01*
X35998683Y-62681838D01*
X35782559Y-62820910D01*
X35637569Y-63033110D01*
X35586560Y-63285000D01*
X35586560Y-64985000D01*
X35630838Y-65220317D01*
X35769910Y-65436441D01*
X35982110Y-65581431D01*
X36234000Y-65632440D01*
X37338000Y-65632440D01*
X37338000Y-66201935D01*
X36830000Y-66100887D01*
X36280849Y-66210120D01*
X36155314Y-66294000D01*
X31115000Y-66294000D01*
X31115000Y-53048000D01*
X35382560Y-53048000D01*
X35382560Y-54648000D01*
X35426838Y-54883317D01*
X35565910Y-55099441D01*
X35778110Y-55244431D01*
X36030000Y-55295440D01*
X36068000Y-55295440D01*
X36068000Y-55683795D01*
X35998683Y-55696838D01*
X35782559Y-55835910D01*
X35637569Y-56048110D01*
X35586560Y-56300000D01*
X35586560Y-58000000D01*
X35630838Y-58235317D01*
X35769910Y-58451441D01*
X35982110Y-58596431D01*
X36234000Y-58647440D01*
X37934000Y-58647440D01*
X38169317Y-58603162D01*
X38385441Y-58464090D01*
X38530431Y-58251890D01*
X38544086Y-58184459D01*
X38573946Y-58229147D01*
X39055715Y-58551054D01*
X39624000Y-58664093D01*
X40192285Y-58551054D01*
X40674054Y-58229147D01*
X40894000Y-57899974D01*
X41113946Y-58229147D01*
X41595715Y-58551054D01*
X42164000Y-58664093D01*
X42732285Y-58551054D01*
X43214054Y-58229147D01*
X43434000Y-57899974D01*
X43653946Y-58229147D01*
X44135715Y-58551054D01*
X44704000Y-58664093D01*
X45272285Y-58551054D01*
X45754054Y-58229147D01*
X46075961Y-57747378D01*
X46189000Y-57179093D01*
X46189000Y-57120907D01*
X46075961Y-56552622D01*
X45754054Y-56070853D01*
X45272285Y-55748946D01*
X45212000Y-55736955D01*
X45212000Y-55059659D01*
X45464698Y-54890811D01*
X45720000Y-54508725D01*
X45975302Y-54890811D01*
X46440849Y-55201880D01*
X46990000Y-55311113D01*
X47539151Y-55201880D01*
X48004698Y-54890811D01*
X48315767Y-54425264D01*
X48425000Y-53876113D01*
X48425000Y-53819887D01*
X48315767Y-53270736D01*
X48004698Y-52805189D01*
X47539151Y-52494120D01*
X46990000Y-52384887D01*
X46440849Y-52494120D01*
X45975302Y-52805189D01*
X45720000Y-53187275D01*
X45464698Y-52805189D01*
X44999151Y-52494120D01*
X44450000Y-52384887D01*
X43900849Y-52494120D01*
X43435302Y-52805189D01*
X43180000Y-53187275D01*
X42924698Y-52805189D01*
X42459151Y-52494120D01*
X41910000Y-52384887D01*
X41360849Y-52494120D01*
X40895302Y-52805189D01*
X40640000Y-53187275D01*
X40384698Y-52805189D01*
X39919151Y-52494120D01*
X39370000Y-52384887D01*
X38820849Y-52494120D01*
X38355302Y-52805189D01*
X38258899Y-52949465D01*
X38233162Y-52812683D01*
X38094090Y-52596559D01*
X37881890Y-52451569D01*
X37630000Y-52400560D01*
X36030000Y-52400560D01*
X35794683Y-52444838D01*
X35578559Y-52583910D01*
X35433569Y-52796110D01*
X35382560Y-53048000D01*
X31115000Y-53048000D01*
X31115000Y-47498000D01*
X36155314Y-47498000D01*
X36280849Y-47581880D01*
X36830000Y-47691113D01*
X37379151Y-47581880D01*
X37596213Y-47436843D01*
X38450185Y-48290815D01*
X38697395Y-48455996D01*
X38989000Y-48514000D01*
X42926000Y-48514000D01*
X43217605Y-48455996D01*
X43464815Y-48290815D01*
X44128473Y-47627157D01*
X44450000Y-47691113D01*
X44999151Y-47581880D01*
X45464698Y-47270811D01*
X45720000Y-46888725D01*
X45975302Y-47270811D01*
X46440849Y-47581880D01*
X46990000Y-47691113D01*
X47539151Y-47581880D01*
X48004698Y-47270811D01*
X48260000Y-46888725D01*
X48515302Y-47270811D01*
G36*
X77724000Y-66201935D02*
X77216000Y-66100887D01*
X76708000Y-66201935D01*
X76708000Y-47590065D01*
X77216000Y-47691113D01*
X77724000Y-47590065D01*
X77724000Y-66201935D01*
X77724000Y-66201935D01*
G37*
X77724000Y-66201935D02*
X77216000Y-66100887D01*
X76708000Y-66201935D01*
X76708000Y-47590065D01*
X77216000Y-47691113D01*
X77724000Y-47590065D01*
X77724000Y-66201935D01*
G36*
X75184000Y-66201935D02*
X74676000Y-66100887D01*
X74168000Y-66201935D01*
X74168000Y-47590065D01*
X74676000Y-47691113D01*
X75184000Y-47590065D01*
X75184000Y-66201935D01*
X75184000Y-66201935D01*
G37*
X75184000Y-66201935D02*
X74676000Y-66100887D01*
X74168000Y-66201935D01*
X74168000Y-47590065D01*
X74676000Y-47691113D01*
X75184000Y-47590065D01*
X75184000Y-66201935D01*
G36*
X55118000Y-66201935D02*
X54610000Y-66100887D01*
X54102000Y-66201935D01*
X54102000Y-47590065D01*
X54610000Y-47691113D01*
X55118000Y-47590065D01*
X55118000Y-66201935D01*
X55118000Y-66201935D01*
G37*
X55118000Y-66201935D02*
X54610000Y-66100887D01*
X54102000Y-66201935D01*
X54102000Y-47590065D01*
X54610000Y-47691113D01*
X55118000Y-47590065D01*
X55118000Y-66201935D01*
G36*
X52578000Y-66201935D02*
X52070000Y-66100887D01*
X51562000Y-66201935D01*
X51562000Y-47590065D01*
X52070000Y-47691113D01*
X52578000Y-47590065D01*
X52578000Y-66201935D01*
X52578000Y-66201935D01*
G37*
X52578000Y-66201935D02*
X52070000Y-66100887D01*
X51562000Y-66201935D01*
X51562000Y-47590065D01*
X52070000Y-47691113D01*
X52578000Y-47590065D01*
X52578000Y-66201935D01*
M02*
