M48
;DRILL file {KiCad 4.0.7} date 05/24/18 14:20:51
;FORMAT={-:-/ absolute / inch / decimal}
FMAT,2
INCH,TZ
T1C0.013
T2C0.031
T3C0.039
%
G90
G05
M72
T1
X2.Y-4.89
X2.1Y-4.99
X2.2Y-5.09
X2.24Y-2.32
T2
X1.45Y-2.185
X1.45Y-2.485
X1.45Y-2.9
X1.45Y-3.2
X1.45Y-3.62
X1.45Y-3.92
X1.45Y-4.34
X1.45Y-4.64
X1.55Y-2.185
X1.55Y-2.485
X1.55Y-2.9
X1.55Y-3.2
X1.55Y-3.62
X1.55Y-3.92
X1.55Y-4.34
X1.55Y-4.64
X1.65Y-2.185
X1.65Y-2.485
X1.65Y-2.9
X1.65Y-3.2
X1.65Y-3.62
X1.65Y-3.92
X1.65Y-4.34
X1.65Y-4.64
X1.75Y-2.185
X1.75Y-2.485
X1.75Y-2.9
X1.75Y-3.2
X1.75Y-3.62
X1.75Y-3.92
X1.75Y-4.34
X1.75Y-4.64
X1.85Y-2.185
X1.85Y-2.485
X1.85Y-2.9
X1.85Y-3.2
X1.85Y-3.62
X1.85Y-3.92
X1.85Y-4.34
X1.85Y-4.64
X1.95Y-2.185
X1.95Y-2.485
X1.95Y-2.9
X1.95Y-3.2
X1.95Y-3.62
X1.95Y-3.92
X1.95Y-4.34
X1.95Y-4.64
X2.05Y-2.185
X2.05Y-2.485
X2.05Y-2.9
X2.05Y-3.2
X2.05Y-3.62
X2.05Y-3.92
X2.05Y-4.34
X2.05Y-4.64
X2.15Y-2.185
X2.15Y-2.485
X2.15Y-2.9
X2.15Y-3.2
X2.15Y-3.62
X2.15Y-3.92
X2.15Y-4.34
X2.15Y-4.64
X2.34Y-2.18
X2.34Y-2.48
X2.34Y-2.895
X2.34Y-3.195
X2.34Y-3.615
X2.34Y-3.915
X2.34Y-4.335
X2.34Y-4.635
X2.44Y-2.18
X2.44Y-2.48
X2.44Y-2.895
X2.44Y-3.195
X2.44Y-3.615
X2.44Y-3.915
X2.44Y-4.335
X2.44Y-4.635
X2.54Y-2.18
X2.54Y-2.48
X2.54Y-2.895
X2.54Y-3.195
X2.54Y-3.615
X2.54Y-3.915
X2.54Y-4.335
X2.54Y-4.635
X2.64Y-2.18
X2.64Y-2.48
X2.64Y-2.895
X2.64Y-3.195
X2.64Y-3.615
X2.64Y-3.915
X2.64Y-4.335
X2.64Y-4.635
X2.74Y-2.18
X2.74Y-2.48
X2.74Y-2.895
X2.74Y-3.195
X2.74Y-3.615
X2.74Y-3.915
X2.74Y-4.335
X2.74Y-4.635
X2.84Y-2.18
X2.84Y-2.48
X2.84Y-2.895
X2.84Y-3.195
X2.84Y-3.615
X2.84Y-3.915
X2.84Y-4.335
X2.84Y-4.635
X2.94Y-2.18
X2.94Y-2.48
X2.94Y-2.895
X2.94Y-3.195
X2.94Y-3.615
X2.94Y-3.915
X2.94Y-4.335
X2.94Y-4.635
X3.04Y-2.18
X3.04Y-2.48
X3.04Y-2.895
X3.04Y-3.195
X3.04Y-3.615
X3.04Y-3.915
X3.04Y-4.335
X3.04Y-4.635
T3
X1.075Y-2.95
X1.075Y-3.05
X1.075Y-3.15
X1.075Y-3.25
X1.075Y-3.35
X1.075Y-3.45
X1.075Y-3.55
X1.075Y-3.65
X1.12Y-3.89
X1.12Y-3.99
X1.12Y-4.09
X1.12Y-4.19
X1.12Y-4.29
X1.12Y-4.39
X1.12Y-4.49
X1.12Y-4.59
X1.12Y-4.69
X1.12Y-4.79
X1.12Y-4.89
X1.12Y-4.99
X1.12Y-5.09
X1.175Y-2.95
X1.175Y-3.05
X1.175Y-3.15
X1.175Y-3.25
X1.175Y-3.35
X1.175Y-3.45
X1.175Y-3.55
X1.175Y-3.65
X1.46Y-2.05
X1.46Y-2.615
X1.46Y-2.765
X1.46Y-3.33
X1.46Y-3.485
X1.46Y-4.05
X1.46Y-4.205
X1.46Y-4.77
X1.56Y-2.05
X1.56Y-2.615
X1.56Y-2.765
X1.56Y-3.33
X1.56Y-3.485
X1.56Y-4.05
X1.56Y-4.205
X1.56Y-4.77
X1.66Y-2.05
X1.66Y-2.615
X1.66Y-2.765
X1.66Y-3.33
X1.66Y-3.485
X1.66Y-4.05
X1.66Y-4.205
X1.66Y-4.77
X1.76Y-2.05
X1.76Y-2.615
X1.76Y-2.765
X1.76Y-3.33
X1.76Y-3.485
X1.76Y-4.05
X1.76Y-4.205
X1.76Y-4.77
X2.35Y-2.045
X2.35Y-2.61
X2.35Y-2.76
X2.35Y-3.325
X2.35Y-3.48
X2.35Y-4.045
X2.35Y-4.2
X2.35Y-4.765
X2.45Y-2.045
X2.45Y-2.61
X2.45Y-2.76
X2.45Y-3.325
X2.45Y-3.48
X2.45Y-4.045
X2.45Y-4.2
X2.45Y-4.765
X2.55Y-2.045
X2.55Y-2.61
X2.55Y-2.76
X2.55Y-3.325
X2.55Y-3.48
X2.55Y-4.045
X2.55Y-4.2
X2.55Y-4.765
X2.65Y-2.045
X2.65Y-2.61
X2.65Y-2.76
X2.65Y-3.325
X2.65Y-3.48
X2.65Y-4.045
X2.65Y-4.2
X2.65Y-4.765
T0
M30
