G04 #@! TF.FileFunction,Legend,Top*
%FSLAX46Y46*%
G04 Gerber Fmt 4.6, Leading zero omitted, Abs format (unit mm)*
G04 Created by KiCad (PCBNEW 4.0.7) date 05/15/18 20:44:28*
%MOMM*%
%LPD*%
G01*
G04 APERTURE LIST*
%ADD10C,0.100000*%
%ADD11C,0.150000*%
%ADD12C,0.300000*%
%ADD13C,0.120000*%
G04 APERTURE END LIST*
D10*
D11*
X29035476Y-95321429D02*
X29797381Y-95321429D01*
X29416429Y-95702381D02*
X29416429Y-94940476D01*
X30130714Y-94702381D02*
X30464047Y-95702381D01*
X30797381Y-94702381D01*
X26543096Y-72017000D02*
X26447858Y-71969381D01*
X26305001Y-71969381D01*
X26162143Y-72017000D01*
X26066905Y-72112238D01*
X26019286Y-72207476D01*
X25971667Y-72397952D01*
X25971667Y-72540810D01*
X26019286Y-72731286D01*
X26066905Y-72826524D01*
X26162143Y-72921762D01*
X26305001Y-72969381D01*
X26400239Y-72969381D01*
X26543096Y-72921762D01*
X26590715Y-72874143D01*
X26590715Y-72540810D01*
X26400239Y-72540810D01*
X27019286Y-72969381D02*
X27019286Y-71969381D01*
X27590715Y-72969381D01*
X27590715Y-71969381D01*
X28066905Y-72969381D02*
X28066905Y-71969381D01*
X28305000Y-71969381D01*
X28447858Y-72017000D01*
X28543096Y-72112238D01*
X28590715Y-72207476D01*
X28638334Y-72397952D01*
X28638334Y-72540810D01*
X28590715Y-72731286D01*
X28543096Y-72826524D01*
X28447858Y-72921762D01*
X28305000Y-72969381D01*
X28066905Y-72969381D01*
X26543096Y-94750000D02*
X26447858Y-94702381D01*
X26305001Y-94702381D01*
X26162143Y-94750000D01*
X26066905Y-94845238D01*
X26019286Y-94940476D01*
X25971667Y-95130952D01*
X25971667Y-95273810D01*
X26019286Y-95464286D01*
X26066905Y-95559524D01*
X26162143Y-95654762D01*
X26305001Y-95702381D01*
X26400239Y-95702381D01*
X26543096Y-95654762D01*
X26590715Y-95607143D01*
X26590715Y-95273810D01*
X26400239Y-95273810D01*
X27019286Y-95702381D02*
X27019286Y-94702381D01*
X27590715Y-95702381D01*
X27590715Y-94702381D01*
X28066905Y-95702381D02*
X28066905Y-94702381D01*
X28305000Y-94702381D01*
X28447858Y-94750000D01*
X28543096Y-94845238D01*
X28590715Y-94940476D01*
X28638334Y-95130952D01*
X28638334Y-95273810D01*
X28590715Y-95464286D01*
X28543096Y-95559524D01*
X28447858Y-95654762D01*
X28305000Y-95702381D01*
X28066905Y-95702381D01*
X29035476Y-72588429D02*
X29797381Y-72588429D01*
X29416429Y-72969381D02*
X29416429Y-72207476D01*
X30130714Y-71969381D02*
X30464047Y-72969381D01*
X30797381Y-71969381D01*
D12*
X81958571Y-129393430D02*
X80458571Y-129393430D01*
X81958571Y-128750573D02*
X81172857Y-128750573D01*
X81030000Y-128822002D01*
X80958571Y-128964859D01*
X80958571Y-129179144D01*
X81030000Y-129322002D01*
X81101429Y-129393430D01*
X80958571Y-128250573D02*
X80958571Y-127679144D01*
X80458571Y-128036287D02*
X81744286Y-128036287D01*
X81887143Y-127964859D01*
X81958571Y-127822001D01*
X81958571Y-127679144D01*
X80958571Y-127393430D02*
X80958571Y-126822001D01*
X80458571Y-127179144D02*
X81744286Y-127179144D01*
X81887143Y-127107716D01*
X81958571Y-126964858D01*
X81958571Y-126822001D01*
X80958571Y-126322001D02*
X82458571Y-126322001D01*
X81030000Y-126322001D02*
X80958571Y-126179144D01*
X80958571Y-125893430D01*
X81030000Y-125750573D01*
X81101429Y-125679144D01*
X81244286Y-125607715D01*
X81672857Y-125607715D01*
X81815714Y-125679144D01*
X81887143Y-125750573D01*
X81958571Y-125893430D01*
X81958571Y-126179144D01*
X81887143Y-126322001D01*
X81887143Y-125036287D02*
X81958571Y-124893430D01*
X81958571Y-124607715D01*
X81887143Y-124464858D01*
X81744286Y-124393430D01*
X81672857Y-124393430D01*
X81530000Y-124464858D01*
X81458571Y-124607715D01*
X81458571Y-124822001D01*
X81387143Y-124964858D01*
X81244286Y-125036287D01*
X81172857Y-125036287D01*
X81030000Y-124964858D01*
X80958571Y-124822001D01*
X80958571Y-124607715D01*
X81030000Y-124464858D01*
X81815714Y-123750572D02*
X81887143Y-123679144D01*
X81958571Y-123750572D01*
X81887143Y-123822001D01*
X81815714Y-123750572D01*
X81958571Y-123750572D01*
X81030000Y-123750572D02*
X81101429Y-123679144D01*
X81172857Y-123750572D01*
X81101429Y-123822001D01*
X81030000Y-123750572D01*
X81172857Y-123750572D01*
X80387143Y-121964858D02*
X82315714Y-123250572D01*
X80387143Y-120393429D02*
X82315714Y-121679143D01*
X80958571Y-119250571D02*
X82172857Y-119250571D01*
X82315714Y-119322000D01*
X82387143Y-119393428D01*
X82458571Y-119536285D01*
X82458571Y-119750571D01*
X82387143Y-119893428D01*
X81887143Y-119250571D02*
X81958571Y-119393428D01*
X81958571Y-119679142D01*
X81887143Y-119822000D01*
X81815714Y-119893428D01*
X81672857Y-119964857D01*
X81244286Y-119964857D01*
X81101429Y-119893428D01*
X81030000Y-119822000D01*
X80958571Y-119679142D01*
X80958571Y-119393428D01*
X81030000Y-119250571D01*
X81958571Y-118536285D02*
X80958571Y-118536285D01*
X80458571Y-118536285D02*
X80530000Y-118607714D01*
X80601429Y-118536285D01*
X80530000Y-118464857D01*
X80458571Y-118536285D01*
X80601429Y-118536285D01*
X80958571Y-118036285D02*
X80958571Y-117464856D01*
X80458571Y-117821999D02*
X81744286Y-117821999D01*
X81887143Y-117750571D01*
X81958571Y-117607713D01*
X81958571Y-117464856D01*
X81958571Y-116964856D02*
X80458571Y-116964856D01*
X81958571Y-116321999D02*
X81172857Y-116321999D01*
X81030000Y-116393428D01*
X80958571Y-116536285D01*
X80958571Y-116750570D01*
X81030000Y-116893428D01*
X81101429Y-116964856D01*
X80958571Y-114964856D02*
X81958571Y-114964856D01*
X80958571Y-115607713D02*
X81744286Y-115607713D01*
X81887143Y-115536285D01*
X81958571Y-115393427D01*
X81958571Y-115179142D01*
X81887143Y-115036285D01*
X81815714Y-114964856D01*
X81958571Y-114250570D02*
X80458571Y-114250570D01*
X81030000Y-114250570D02*
X80958571Y-114107713D01*
X80958571Y-113821999D01*
X81030000Y-113679142D01*
X81101429Y-113607713D01*
X81244286Y-113536284D01*
X81672857Y-113536284D01*
X81815714Y-113607713D01*
X81887143Y-113679142D01*
X81958571Y-113821999D01*
X81958571Y-114107713D01*
X81887143Y-114250570D01*
X81815714Y-112893427D02*
X81887143Y-112821999D01*
X81958571Y-112893427D01*
X81887143Y-112964856D01*
X81815714Y-112893427D01*
X81958571Y-112893427D01*
X81887143Y-111536284D02*
X81958571Y-111679141D01*
X81958571Y-111964855D01*
X81887143Y-112107713D01*
X81815714Y-112179141D01*
X81672857Y-112250570D01*
X81244286Y-112250570D01*
X81101429Y-112179141D01*
X81030000Y-112107713D01*
X80958571Y-111964855D01*
X80958571Y-111679141D01*
X81030000Y-111536284D01*
X81958571Y-110679141D02*
X81887143Y-110821999D01*
X81815714Y-110893427D01*
X81672857Y-110964856D01*
X81244286Y-110964856D01*
X81101429Y-110893427D01*
X81030000Y-110821999D01*
X80958571Y-110679141D01*
X80958571Y-110464856D01*
X81030000Y-110321999D01*
X81101429Y-110250570D01*
X81244286Y-110179141D01*
X81672857Y-110179141D01*
X81815714Y-110250570D01*
X81887143Y-110321999D01*
X81958571Y-110464856D01*
X81958571Y-110679141D01*
X81958571Y-109536284D02*
X80958571Y-109536284D01*
X81101429Y-109536284D02*
X81030000Y-109464856D01*
X80958571Y-109321998D01*
X80958571Y-109107713D01*
X81030000Y-108964856D01*
X81172857Y-108893427D01*
X81958571Y-108893427D01*
X81172857Y-108893427D02*
X81030000Y-108821998D01*
X80958571Y-108679141D01*
X80958571Y-108464856D01*
X81030000Y-108321998D01*
X81172857Y-108250570D01*
X81958571Y-108250570D01*
X80387143Y-106464856D02*
X82315714Y-107750570D01*
X81887143Y-105393427D02*
X81958571Y-105536284D01*
X81958571Y-105821998D01*
X81887143Y-105964855D01*
X81744286Y-106036284D01*
X81172857Y-106036284D01*
X81030000Y-105964855D01*
X80958571Y-105821998D01*
X80958571Y-105536284D01*
X81030000Y-105393427D01*
X81172857Y-105321998D01*
X81315714Y-105321998D01*
X81458571Y-106036284D01*
X81958571Y-104464855D02*
X81887143Y-104607713D01*
X81744286Y-104679141D01*
X80458571Y-104679141D01*
X81958571Y-103679141D02*
X81887143Y-103821999D01*
X81744286Y-103893427D01*
X80458571Y-103893427D01*
X81958571Y-103107713D02*
X80958571Y-103107713D01*
X80458571Y-103107713D02*
X80530000Y-103179142D01*
X80601429Y-103107713D01*
X80530000Y-103036285D01*
X80458571Y-103107713D01*
X80601429Y-103107713D01*
X81887143Y-102464856D02*
X81958571Y-102321999D01*
X81958571Y-102036284D01*
X81887143Y-101893427D01*
X81744286Y-101821999D01*
X81672857Y-101821999D01*
X81530000Y-101893427D01*
X81458571Y-102036284D01*
X81458571Y-102250570D01*
X81387143Y-102393427D01*
X81244286Y-102464856D01*
X81172857Y-102464856D01*
X81030000Y-102393427D01*
X80958571Y-102250570D01*
X80958571Y-102036284D01*
X81030000Y-101893427D01*
X80958571Y-100536284D02*
X82172857Y-100536284D01*
X82315714Y-100607713D01*
X82387143Y-100679141D01*
X82458571Y-100821998D01*
X82458571Y-101036284D01*
X82387143Y-101179141D01*
X81887143Y-100536284D02*
X81958571Y-100679141D01*
X81958571Y-100964855D01*
X81887143Y-101107713D01*
X81815714Y-101179141D01*
X81672857Y-101250570D01*
X81244286Y-101250570D01*
X81101429Y-101179141D01*
X81030000Y-101107713D01*
X80958571Y-100964855D01*
X80958571Y-100679141D01*
X81030000Y-100536284D01*
X81958571Y-99607712D02*
X81887143Y-99750570D01*
X81744286Y-99821998D01*
X80458571Y-99821998D01*
X80387143Y-97964856D02*
X82315714Y-99250570D01*
X81958571Y-96821998D02*
X81172857Y-96821998D01*
X81030000Y-96893427D01*
X80958571Y-97036284D01*
X80958571Y-97321998D01*
X81030000Y-97464855D01*
X81887143Y-96821998D02*
X81958571Y-96964855D01*
X81958571Y-97321998D01*
X81887143Y-97464855D01*
X81744286Y-97536284D01*
X81601429Y-97536284D01*
X81458571Y-97464855D01*
X81387143Y-97321998D01*
X81387143Y-96964855D01*
X81315714Y-96821998D01*
X80958571Y-96107712D02*
X81958571Y-96107712D01*
X81101429Y-96107712D02*
X81030000Y-96036284D01*
X80958571Y-95893426D01*
X80958571Y-95679141D01*
X81030000Y-95536284D01*
X81172857Y-95464855D01*
X81958571Y-95464855D01*
X81958571Y-94107712D02*
X81172857Y-94107712D01*
X81030000Y-94179141D01*
X80958571Y-94321998D01*
X80958571Y-94607712D01*
X81030000Y-94750569D01*
X81887143Y-94107712D02*
X81958571Y-94250569D01*
X81958571Y-94607712D01*
X81887143Y-94750569D01*
X81744286Y-94821998D01*
X81601429Y-94821998D01*
X81458571Y-94750569D01*
X81387143Y-94607712D01*
X81387143Y-94250569D01*
X81315714Y-94107712D01*
X81958571Y-93179140D02*
X81887143Y-93321998D01*
X81744286Y-93393426D01*
X80458571Y-93393426D01*
X81958571Y-92393426D02*
X81887143Y-92536284D01*
X81815714Y-92607712D01*
X81672857Y-92679141D01*
X81244286Y-92679141D01*
X81101429Y-92607712D01*
X81030000Y-92536284D01*
X80958571Y-92393426D01*
X80958571Y-92179141D01*
X81030000Y-92036284D01*
X81101429Y-91964855D01*
X81244286Y-91893426D01*
X81672857Y-91893426D01*
X81815714Y-91964855D01*
X81887143Y-92036284D01*
X81958571Y-92179141D01*
X81958571Y-92393426D01*
X80958571Y-90607712D02*
X82172857Y-90607712D01*
X82315714Y-90679141D01*
X82387143Y-90750569D01*
X82458571Y-90893426D01*
X82458571Y-91107712D01*
X82387143Y-91250569D01*
X81887143Y-90607712D02*
X81958571Y-90750569D01*
X81958571Y-91036283D01*
X81887143Y-91179141D01*
X81815714Y-91250569D01*
X81672857Y-91321998D01*
X81244286Y-91321998D01*
X81101429Y-91250569D01*
X81030000Y-91179141D01*
X80958571Y-91036283D01*
X80958571Y-90750569D01*
X81030000Y-90607712D01*
X81387143Y-89893426D02*
X81387143Y-88750569D01*
X81958571Y-88036283D02*
X80958571Y-88036283D01*
X81101429Y-88036283D02*
X81030000Y-87964855D01*
X80958571Y-87821997D01*
X80958571Y-87607712D01*
X81030000Y-87464855D01*
X81172857Y-87393426D01*
X81958571Y-87393426D01*
X81172857Y-87393426D02*
X81030000Y-87321997D01*
X80958571Y-87179140D01*
X80958571Y-86964855D01*
X81030000Y-86821997D01*
X81172857Y-86750569D01*
X81958571Y-86750569D01*
X80958571Y-85393426D02*
X81958571Y-85393426D01*
X80958571Y-86036283D02*
X81744286Y-86036283D01*
X81887143Y-85964855D01*
X81958571Y-85821997D01*
X81958571Y-85607712D01*
X81887143Y-85464855D01*
X81815714Y-85393426D01*
X81958571Y-84464854D02*
X81887143Y-84607712D01*
X81744286Y-84679140D01*
X80458571Y-84679140D01*
X80958571Y-84107712D02*
X80958571Y-83536283D01*
X80458571Y-83893426D02*
X81744286Y-83893426D01*
X81887143Y-83821998D01*
X81958571Y-83679140D01*
X81958571Y-83536283D01*
X81958571Y-83036283D02*
X80958571Y-83036283D01*
X80458571Y-83036283D02*
X80530000Y-83107712D01*
X80601429Y-83036283D01*
X80530000Y-82964855D01*
X80458571Y-83036283D01*
X80601429Y-83036283D01*
X80958571Y-82321997D02*
X82458571Y-82321997D01*
X81030000Y-82321997D02*
X80958571Y-82179140D01*
X80958571Y-81893426D01*
X81030000Y-81750569D01*
X81101429Y-81679140D01*
X81244286Y-81607711D01*
X81672857Y-81607711D01*
X81815714Y-81679140D01*
X81887143Y-81750569D01*
X81958571Y-81893426D01*
X81958571Y-82179140D01*
X81887143Y-82321997D01*
X81958571Y-80750568D02*
X81887143Y-80893426D01*
X81744286Y-80964854D01*
X80458571Y-80964854D01*
X81887143Y-79607712D02*
X81958571Y-79750569D01*
X81958571Y-80036283D01*
X81887143Y-80179140D01*
X81744286Y-80250569D01*
X81172857Y-80250569D01*
X81030000Y-80179140D01*
X80958571Y-80036283D01*
X80958571Y-79750569D01*
X81030000Y-79607712D01*
X81172857Y-79536283D01*
X81315714Y-79536283D01*
X81458571Y-80250569D01*
X81958571Y-79036283D02*
X80958571Y-78250569D01*
X80958571Y-79036283D02*
X81958571Y-78250569D01*
X81887143Y-77107712D02*
X81958571Y-77250569D01*
X81958571Y-77536283D01*
X81887143Y-77679140D01*
X81744286Y-77750569D01*
X81172857Y-77750569D01*
X81030000Y-77679140D01*
X80958571Y-77536283D01*
X80958571Y-77250569D01*
X81030000Y-77107712D01*
X81172857Y-77036283D01*
X81315714Y-77036283D01*
X81458571Y-77750569D01*
X81958571Y-76393426D02*
X80958571Y-76393426D01*
X81244286Y-76393426D02*
X81101429Y-76321998D01*
X81030000Y-76250569D01*
X80958571Y-76107712D01*
X80958571Y-75964855D01*
X81387143Y-75464855D02*
X81387143Y-74321998D01*
X81101429Y-73393426D02*
X81030000Y-73536284D01*
X80958571Y-73607712D01*
X80815714Y-73679141D01*
X80744286Y-73679141D01*
X80601429Y-73607712D01*
X80530000Y-73536284D01*
X80458571Y-73393426D01*
X80458571Y-73107712D01*
X80530000Y-72964855D01*
X80601429Y-72893426D01*
X80744286Y-72821998D01*
X80815714Y-72821998D01*
X80958571Y-72893426D01*
X81030000Y-72964855D01*
X81101429Y-73107712D01*
X81101429Y-73393426D01*
X81172857Y-73536284D01*
X81244286Y-73607712D01*
X81387143Y-73679141D01*
X81672857Y-73679141D01*
X81815714Y-73607712D01*
X81887143Y-73536284D01*
X81958571Y-73393426D01*
X81958571Y-73107712D01*
X81887143Y-72964855D01*
X81815714Y-72893426D01*
X81672857Y-72821998D01*
X81387143Y-72821998D01*
X81244286Y-72893426D01*
X81172857Y-72964855D01*
X81101429Y-73107712D01*
X81958571Y-72321998D02*
X80958571Y-71536284D01*
X80958571Y-72321998D02*
X81958571Y-71536284D01*
X81101429Y-70750569D02*
X81030000Y-70893427D01*
X80958571Y-70964855D01*
X80815714Y-71036284D01*
X80744286Y-71036284D01*
X80601429Y-70964855D01*
X80530000Y-70893427D01*
X80458571Y-70750569D01*
X80458571Y-70464855D01*
X80530000Y-70321998D01*
X80601429Y-70250569D01*
X80744286Y-70179141D01*
X80815714Y-70179141D01*
X80958571Y-70250569D01*
X81030000Y-70321998D01*
X81101429Y-70464855D01*
X81101429Y-70750569D01*
X81172857Y-70893427D01*
X81244286Y-70964855D01*
X81387143Y-71036284D01*
X81672857Y-71036284D01*
X81815714Y-70964855D01*
X81887143Y-70893427D01*
X81958571Y-70750569D01*
X81958571Y-70464855D01*
X81887143Y-70321998D01*
X81815714Y-70250569D01*
X81672857Y-70179141D01*
X81387143Y-70179141D01*
X81244286Y-70250569D01*
X81172857Y-70321998D01*
X81101429Y-70464855D01*
D11*
X34726524Y-61952143D02*
X34678905Y-61999762D01*
X34536048Y-62047381D01*
X34440810Y-62047381D01*
X34297952Y-61999762D01*
X34202714Y-61904524D01*
X34155095Y-61809286D01*
X34107476Y-61618810D01*
X34107476Y-61475952D01*
X34155095Y-61285476D01*
X34202714Y-61190238D01*
X34297952Y-61095000D01*
X34440810Y-61047381D01*
X34536048Y-61047381D01*
X34678905Y-61095000D01*
X34726524Y-61142619D01*
X34726524Y-81637143D02*
X34678905Y-81684762D01*
X34536048Y-81732381D01*
X34440810Y-81732381D01*
X34297952Y-81684762D01*
X34202714Y-81589524D01*
X34155095Y-81494286D01*
X34107476Y-81303810D01*
X34107476Y-81160952D01*
X34155095Y-80970476D01*
X34202714Y-80875238D01*
X34297952Y-80780000D01*
X34440810Y-80732381D01*
X34536048Y-80732381D01*
X34678905Y-80780000D01*
X34726524Y-80827619D01*
X37036381Y-61047381D02*
X37131620Y-61047381D01*
X37226858Y-61095000D01*
X37274477Y-61142619D01*
X37322096Y-61237857D01*
X37369715Y-61428333D01*
X37369715Y-61666429D01*
X37322096Y-61856905D01*
X37274477Y-61952143D01*
X37226858Y-61999762D01*
X37131620Y-62047381D01*
X37036381Y-62047381D01*
X36941143Y-61999762D01*
X36893524Y-61952143D01*
X36845905Y-61856905D01*
X36798286Y-61666429D01*
X36798286Y-61428333D01*
X36845905Y-61237857D01*
X36893524Y-61142619D01*
X36941143Y-61095000D01*
X37036381Y-61047381D01*
X39909715Y-62047381D02*
X39338286Y-62047381D01*
X39624000Y-62047381D02*
X39624000Y-61047381D01*
X39528762Y-61190238D01*
X39433524Y-61285476D01*
X39338286Y-61333095D01*
X41878286Y-61142619D02*
X41925905Y-61095000D01*
X42021143Y-61047381D01*
X42259239Y-61047381D01*
X42354477Y-61095000D01*
X42402096Y-61142619D01*
X42449715Y-61237857D01*
X42449715Y-61333095D01*
X42402096Y-61475952D01*
X41830667Y-62047381D01*
X42449715Y-62047381D01*
X44370667Y-61047381D02*
X44989715Y-61047381D01*
X44656381Y-61428333D01*
X44799239Y-61428333D01*
X44894477Y-61475952D01*
X44942096Y-61523571D01*
X44989715Y-61618810D01*
X44989715Y-61856905D01*
X44942096Y-61952143D01*
X44894477Y-61999762D01*
X44799239Y-62047381D01*
X44513524Y-62047381D01*
X44418286Y-61999762D01*
X44370667Y-61952143D01*
X37274477Y-81065714D02*
X37274477Y-81732381D01*
X37036381Y-80684762D02*
X36798286Y-81399048D01*
X37417334Y-81399048D01*
X39862096Y-80732381D02*
X39385905Y-80732381D01*
X39338286Y-81208571D01*
X39385905Y-81160952D01*
X39481143Y-81113333D01*
X39719239Y-81113333D01*
X39814477Y-81160952D01*
X39862096Y-81208571D01*
X39909715Y-81303810D01*
X39909715Y-81541905D01*
X39862096Y-81637143D01*
X39814477Y-81684762D01*
X39719239Y-81732381D01*
X39481143Y-81732381D01*
X39385905Y-81684762D01*
X39338286Y-81637143D01*
X42354477Y-80732381D02*
X42164000Y-80732381D01*
X42068762Y-80780000D01*
X42021143Y-80827619D01*
X41925905Y-80970476D01*
X41878286Y-81160952D01*
X41878286Y-81541905D01*
X41925905Y-81637143D01*
X41973524Y-81684762D01*
X42068762Y-81732381D01*
X42259239Y-81732381D01*
X42354477Y-81684762D01*
X42402096Y-81637143D01*
X42449715Y-81541905D01*
X42449715Y-81303810D01*
X42402096Y-81208571D01*
X42354477Y-81160952D01*
X42259239Y-81113333D01*
X42068762Y-81113333D01*
X41973524Y-81160952D01*
X41925905Y-81208571D01*
X41878286Y-81303810D01*
X44370667Y-80732381D02*
X45037334Y-80732381D01*
X44608762Y-81732381D01*
X66976667Y-80732381D02*
X67643334Y-80732381D01*
X67214762Y-81732381D01*
X64960477Y-80732381D02*
X64770000Y-80732381D01*
X64674762Y-80780000D01*
X64627143Y-80827619D01*
X64531905Y-80970476D01*
X64484286Y-81160952D01*
X64484286Y-81541905D01*
X64531905Y-81637143D01*
X64579524Y-81684762D01*
X64674762Y-81732381D01*
X64865239Y-81732381D01*
X64960477Y-81684762D01*
X65008096Y-81637143D01*
X65055715Y-81541905D01*
X65055715Y-81303810D01*
X65008096Y-81208571D01*
X64960477Y-81160952D01*
X64865239Y-81113333D01*
X64674762Y-81113333D01*
X64579524Y-81160952D01*
X64531905Y-81208571D01*
X64484286Y-81303810D01*
X62468096Y-80732381D02*
X61991905Y-80732381D01*
X61944286Y-81208571D01*
X61991905Y-81160952D01*
X62087143Y-81113333D01*
X62325239Y-81113333D01*
X62420477Y-81160952D01*
X62468096Y-81208571D01*
X62515715Y-81303810D01*
X62515715Y-81541905D01*
X62468096Y-81637143D01*
X62420477Y-81684762D01*
X62325239Y-81732381D01*
X62087143Y-81732381D01*
X61991905Y-81684762D01*
X61944286Y-81637143D01*
X59880477Y-81065714D02*
X59880477Y-81732381D01*
X59642381Y-80684762D02*
X59404286Y-81399048D01*
X60023334Y-81399048D01*
X66976667Y-61047381D02*
X67595715Y-61047381D01*
X67262381Y-61428333D01*
X67405239Y-61428333D01*
X67500477Y-61475952D01*
X67548096Y-61523571D01*
X67595715Y-61618810D01*
X67595715Y-61856905D01*
X67548096Y-61952143D01*
X67500477Y-61999762D01*
X67405239Y-62047381D01*
X67119524Y-62047381D01*
X67024286Y-61999762D01*
X66976667Y-61952143D01*
X64484286Y-61142619D02*
X64531905Y-61095000D01*
X64627143Y-61047381D01*
X64865239Y-61047381D01*
X64960477Y-61095000D01*
X65008096Y-61142619D01*
X65055715Y-61237857D01*
X65055715Y-61333095D01*
X65008096Y-61475952D01*
X64436667Y-62047381D01*
X65055715Y-62047381D01*
X62515715Y-62047381D02*
X61944286Y-62047381D01*
X62230000Y-62047381D02*
X62230000Y-61047381D01*
X62134762Y-61190238D01*
X62039524Y-61285476D01*
X61944286Y-61333095D01*
X59642381Y-61047381D02*
X59737620Y-61047381D01*
X59832858Y-61095000D01*
X59880477Y-61142619D01*
X59928096Y-61237857D01*
X59975715Y-61428333D01*
X59975715Y-61666429D01*
X59928096Y-61856905D01*
X59880477Y-61952143D01*
X59832858Y-61999762D01*
X59737620Y-62047381D01*
X59642381Y-62047381D01*
X59547143Y-61999762D01*
X59499524Y-61952143D01*
X59451905Y-61856905D01*
X59404286Y-61666429D01*
X59404286Y-61428333D01*
X59451905Y-61237857D01*
X59499524Y-61142619D01*
X59547143Y-61095000D01*
X59642381Y-61047381D01*
X57332524Y-81637143D02*
X57284905Y-81684762D01*
X57142048Y-81732381D01*
X57046810Y-81732381D01*
X56903952Y-81684762D01*
X56808714Y-81589524D01*
X56761095Y-81494286D01*
X56713476Y-81303810D01*
X56713476Y-81160952D01*
X56761095Y-80970476D01*
X56808714Y-80875238D01*
X56903952Y-80780000D01*
X57046810Y-80732381D01*
X57142048Y-80732381D01*
X57284905Y-80780000D01*
X57332524Y-80827619D01*
X57332524Y-61952143D02*
X57284905Y-61999762D01*
X57142048Y-62047381D01*
X57046810Y-62047381D01*
X56903952Y-61999762D01*
X56808714Y-61904524D01*
X56761095Y-61809286D01*
X56713476Y-61618810D01*
X56713476Y-61475952D01*
X56761095Y-61285476D01*
X56808714Y-61190238D01*
X56903952Y-61095000D01*
X57046810Y-61047381D01*
X57142048Y-61047381D01*
X57284905Y-61095000D01*
X57332524Y-61142619D01*
X57332524Y-40616143D02*
X57284905Y-40663762D01*
X57142048Y-40711381D01*
X57046810Y-40711381D01*
X56903952Y-40663762D01*
X56808714Y-40568524D01*
X56761095Y-40473286D01*
X56713476Y-40282810D01*
X56713476Y-40139952D01*
X56761095Y-39949476D01*
X56808714Y-39854238D01*
X56903952Y-39759000D01*
X57046810Y-39711381D01*
X57142048Y-39711381D01*
X57284905Y-39759000D01*
X57332524Y-39806619D01*
X57332524Y-60301143D02*
X57284905Y-60348762D01*
X57142048Y-60396381D01*
X57046810Y-60396381D01*
X56903952Y-60348762D01*
X56808714Y-60253524D01*
X56761095Y-60158286D01*
X56713476Y-59967810D01*
X56713476Y-59824952D01*
X56761095Y-59634476D01*
X56808714Y-59539238D01*
X56903952Y-59444000D01*
X57046810Y-59396381D01*
X57142048Y-59396381D01*
X57284905Y-59444000D01*
X57332524Y-59491619D01*
X59642381Y-39711381D02*
X59737620Y-39711381D01*
X59832858Y-39759000D01*
X59880477Y-39806619D01*
X59928096Y-39901857D01*
X59975715Y-40092333D01*
X59975715Y-40330429D01*
X59928096Y-40520905D01*
X59880477Y-40616143D01*
X59832858Y-40663762D01*
X59737620Y-40711381D01*
X59642381Y-40711381D01*
X59547143Y-40663762D01*
X59499524Y-40616143D01*
X59451905Y-40520905D01*
X59404286Y-40330429D01*
X59404286Y-40092333D01*
X59451905Y-39901857D01*
X59499524Y-39806619D01*
X59547143Y-39759000D01*
X59642381Y-39711381D01*
X62515715Y-40711381D02*
X61944286Y-40711381D01*
X62230000Y-40711381D02*
X62230000Y-39711381D01*
X62134762Y-39854238D01*
X62039524Y-39949476D01*
X61944286Y-39997095D01*
X64484286Y-39806619D02*
X64531905Y-39759000D01*
X64627143Y-39711381D01*
X64865239Y-39711381D01*
X64960477Y-39759000D01*
X65008096Y-39806619D01*
X65055715Y-39901857D01*
X65055715Y-39997095D01*
X65008096Y-40139952D01*
X64436667Y-40711381D01*
X65055715Y-40711381D01*
X66976667Y-39711381D02*
X67595715Y-39711381D01*
X67262381Y-40092333D01*
X67405239Y-40092333D01*
X67500477Y-40139952D01*
X67548096Y-40187571D01*
X67595715Y-40282810D01*
X67595715Y-40520905D01*
X67548096Y-40616143D01*
X67500477Y-40663762D01*
X67405239Y-40711381D01*
X67119524Y-40711381D01*
X67024286Y-40663762D01*
X66976667Y-40616143D01*
X59880477Y-59729714D02*
X59880477Y-60396381D01*
X59642381Y-59348762D02*
X59404286Y-60063048D01*
X60023334Y-60063048D01*
X62468096Y-59396381D02*
X61991905Y-59396381D01*
X61944286Y-59872571D01*
X61991905Y-59824952D01*
X62087143Y-59777333D01*
X62325239Y-59777333D01*
X62420477Y-59824952D01*
X62468096Y-59872571D01*
X62515715Y-59967810D01*
X62515715Y-60205905D01*
X62468096Y-60301143D01*
X62420477Y-60348762D01*
X62325239Y-60396381D01*
X62087143Y-60396381D01*
X61991905Y-60348762D01*
X61944286Y-60301143D01*
X64960477Y-59396381D02*
X64770000Y-59396381D01*
X64674762Y-59444000D01*
X64627143Y-59491619D01*
X64531905Y-59634476D01*
X64484286Y-59824952D01*
X64484286Y-60205905D01*
X64531905Y-60301143D01*
X64579524Y-60348762D01*
X64674762Y-60396381D01*
X64865239Y-60396381D01*
X64960477Y-60348762D01*
X65008096Y-60301143D01*
X65055715Y-60205905D01*
X65055715Y-59967810D01*
X65008096Y-59872571D01*
X64960477Y-59824952D01*
X64865239Y-59777333D01*
X64674762Y-59777333D01*
X64579524Y-59824952D01*
X64531905Y-59872571D01*
X64484286Y-59967810D01*
X66976667Y-59396381D02*
X67643334Y-59396381D01*
X67214762Y-60396381D01*
X44370667Y-59396381D02*
X45037334Y-59396381D01*
X44608762Y-60396381D01*
X42354477Y-59396381D02*
X42164000Y-59396381D01*
X42068762Y-59444000D01*
X42021143Y-59491619D01*
X41925905Y-59634476D01*
X41878286Y-59824952D01*
X41878286Y-60205905D01*
X41925905Y-60301143D01*
X41973524Y-60348762D01*
X42068762Y-60396381D01*
X42259239Y-60396381D01*
X42354477Y-60348762D01*
X42402096Y-60301143D01*
X42449715Y-60205905D01*
X42449715Y-59967810D01*
X42402096Y-59872571D01*
X42354477Y-59824952D01*
X42259239Y-59777333D01*
X42068762Y-59777333D01*
X41973524Y-59824952D01*
X41925905Y-59872571D01*
X41878286Y-59967810D01*
X39862096Y-59396381D02*
X39385905Y-59396381D01*
X39338286Y-59872571D01*
X39385905Y-59824952D01*
X39481143Y-59777333D01*
X39719239Y-59777333D01*
X39814477Y-59824952D01*
X39862096Y-59872571D01*
X39909715Y-59967810D01*
X39909715Y-60205905D01*
X39862096Y-60301143D01*
X39814477Y-60348762D01*
X39719239Y-60396381D01*
X39481143Y-60396381D01*
X39385905Y-60348762D01*
X39338286Y-60301143D01*
X37274477Y-59729714D02*
X37274477Y-60396381D01*
X37036381Y-59348762D02*
X36798286Y-60063048D01*
X37417334Y-60063048D01*
X44370667Y-39711381D02*
X44989715Y-39711381D01*
X44656381Y-40092333D01*
X44799239Y-40092333D01*
X44894477Y-40139952D01*
X44942096Y-40187571D01*
X44989715Y-40282810D01*
X44989715Y-40520905D01*
X44942096Y-40616143D01*
X44894477Y-40663762D01*
X44799239Y-40711381D01*
X44513524Y-40711381D01*
X44418286Y-40663762D01*
X44370667Y-40616143D01*
X41878286Y-39806619D02*
X41925905Y-39759000D01*
X42021143Y-39711381D01*
X42259239Y-39711381D01*
X42354477Y-39759000D01*
X42402096Y-39806619D01*
X42449715Y-39901857D01*
X42449715Y-39997095D01*
X42402096Y-40139952D01*
X41830667Y-40711381D01*
X42449715Y-40711381D01*
X39909715Y-40711381D02*
X39338286Y-40711381D01*
X39624000Y-40711381D02*
X39624000Y-39711381D01*
X39528762Y-39854238D01*
X39433524Y-39949476D01*
X39338286Y-39997095D01*
X37036381Y-39711381D02*
X37131620Y-39711381D01*
X37226858Y-39759000D01*
X37274477Y-39806619D01*
X37322096Y-39901857D01*
X37369715Y-40092333D01*
X37369715Y-40330429D01*
X37322096Y-40520905D01*
X37274477Y-40616143D01*
X37226858Y-40663762D01*
X37131620Y-40711381D01*
X37036381Y-40711381D01*
X36941143Y-40663762D01*
X36893524Y-40616143D01*
X36845905Y-40520905D01*
X36798286Y-40330429D01*
X36798286Y-40092333D01*
X36845905Y-39901857D01*
X36893524Y-39806619D01*
X36941143Y-39759000D01*
X37036381Y-39711381D01*
X34726524Y-60301143D02*
X34678905Y-60348762D01*
X34536048Y-60396381D01*
X34440810Y-60396381D01*
X34297952Y-60348762D01*
X34202714Y-60253524D01*
X34155095Y-60158286D01*
X34107476Y-59967810D01*
X34107476Y-59824952D01*
X34155095Y-59634476D01*
X34202714Y-59539238D01*
X34297952Y-59444000D01*
X34440810Y-59396381D01*
X34536048Y-59396381D01*
X34678905Y-59444000D01*
X34726524Y-59491619D01*
X34726524Y-40616143D02*
X34678905Y-40663762D01*
X34536048Y-40711381D01*
X34440810Y-40711381D01*
X34297952Y-40663762D01*
X34202714Y-40568524D01*
X34155095Y-40473286D01*
X34107476Y-40282810D01*
X34107476Y-40139952D01*
X34155095Y-39949476D01*
X34202714Y-39854238D01*
X34297952Y-39759000D01*
X34440810Y-39711381D01*
X34536048Y-39711381D01*
X34678905Y-39759000D01*
X34726524Y-39806619D01*
X34726524Y-83288143D02*
X34678905Y-83335762D01*
X34536048Y-83383381D01*
X34440810Y-83383381D01*
X34297952Y-83335762D01*
X34202714Y-83240524D01*
X34155095Y-83145286D01*
X34107476Y-82954810D01*
X34107476Y-82811952D01*
X34155095Y-82621476D01*
X34202714Y-82526238D01*
X34297952Y-82431000D01*
X34440810Y-82383381D01*
X34536048Y-82383381D01*
X34678905Y-82431000D01*
X34726524Y-82478619D01*
X34726524Y-102973143D02*
X34678905Y-103020762D01*
X34536048Y-103068381D01*
X34440810Y-103068381D01*
X34297952Y-103020762D01*
X34202714Y-102925524D01*
X34155095Y-102830286D01*
X34107476Y-102639810D01*
X34107476Y-102496952D01*
X34155095Y-102306476D01*
X34202714Y-102211238D01*
X34297952Y-102116000D01*
X34440810Y-102068381D01*
X34536048Y-102068381D01*
X34678905Y-102116000D01*
X34726524Y-102163619D01*
X37036381Y-82383381D02*
X37131620Y-82383381D01*
X37226858Y-82431000D01*
X37274477Y-82478619D01*
X37322096Y-82573857D01*
X37369715Y-82764333D01*
X37369715Y-83002429D01*
X37322096Y-83192905D01*
X37274477Y-83288143D01*
X37226858Y-83335762D01*
X37131620Y-83383381D01*
X37036381Y-83383381D01*
X36941143Y-83335762D01*
X36893524Y-83288143D01*
X36845905Y-83192905D01*
X36798286Y-83002429D01*
X36798286Y-82764333D01*
X36845905Y-82573857D01*
X36893524Y-82478619D01*
X36941143Y-82431000D01*
X37036381Y-82383381D01*
X39909715Y-83383381D02*
X39338286Y-83383381D01*
X39624000Y-83383381D02*
X39624000Y-82383381D01*
X39528762Y-82526238D01*
X39433524Y-82621476D01*
X39338286Y-82669095D01*
X41878286Y-82478619D02*
X41925905Y-82431000D01*
X42021143Y-82383381D01*
X42259239Y-82383381D01*
X42354477Y-82431000D01*
X42402096Y-82478619D01*
X42449715Y-82573857D01*
X42449715Y-82669095D01*
X42402096Y-82811952D01*
X41830667Y-83383381D01*
X42449715Y-83383381D01*
X44370667Y-82383381D02*
X44989715Y-82383381D01*
X44656381Y-82764333D01*
X44799239Y-82764333D01*
X44894477Y-82811952D01*
X44942096Y-82859571D01*
X44989715Y-82954810D01*
X44989715Y-83192905D01*
X44942096Y-83288143D01*
X44894477Y-83335762D01*
X44799239Y-83383381D01*
X44513524Y-83383381D01*
X44418286Y-83335762D01*
X44370667Y-83288143D01*
X37274477Y-102401714D02*
X37274477Y-103068381D01*
X37036381Y-102020762D02*
X36798286Y-102735048D01*
X37417334Y-102735048D01*
X39862096Y-102068381D02*
X39385905Y-102068381D01*
X39338286Y-102544571D01*
X39385905Y-102496952D01*
X39481143Y-102449333D01*
X39719239Y-102449333D01*
X39814477Y-102496952D01*
X39862096Y-102544571D01*
X39909715Y-102639810D01*
X39909715Y-102877905D01*
X39862096Y-102973143D01*
X39814477Y-103020762D01*
X39719239Y-103068381D01*
X39481143Y-103068381D01*
X39385905Y-103020762D01*
X39338286Y-102973143D01*
X42354477Y-102068381D02*
X42164000Y-102068381D01*
X42068762Y-102116000D01*
X42021143Y-102163619D01*
X41925905Y-102306476D01*
X41878286Y-102496952D01*
X41878286Y-102877905D01*
X41925905Y-102973143D01*
X41973524Y-103020762D01*
X42068762Y-103068381D01*
X42259239Y-103068381D01*
X42354477Y-103020762D01*
X42402096Y-102973143D01*
X42449715Y-102877905D01*
X42449715Y-102639810D01*
X42402096Y-102544571D01*
X42354477Y-102496952D01*
X42259239Y-102449333D01*
X42068762Y-102449333D01*
X41973524Y-102496952D01*
X41925905Y-102544571D01*
X41878286Y-102639810D01*
X44370667Y-102068381D02*
X45037334Y-102068381D01*
X44608762Y-103068381D01*
X66976667Y-102068381D02*
X67643334Y-102068381D01*
X67214762Y-103068381D01*
X64960477Y-102068381D02*
X64770000Y-102068381D01*
X64674762Y-102116000D01*
X64627143Y-102163619D01*
X64531905Y-102306476D01*
X64484286Y-102496952D01*
X64484286Y-102877905D01*
X64531905Y-102973143D01*
X64579524Y-103020762D01*
X64674762Y-103068381D01*
X64865239Y-103068381D01*
X64960477Y-103020762D01*
X65008096Y-102973143D01*
X65055715Y-102877905D01*
X65055715Y-102639810D01*
X65008096Y-102544571D01*
X64960477Y-102496952D01*
X64865239Y-102449333D01*
X64674762Y-102449333D01*
X64579524Y-102496952D01*
X64531905Y-102544571D01*
X64484286Y-102639810D01*
X62468096Y-102068381D02*
X61991905Y-102068381D01*
X61944286Y-102544571D01*
X61991905Y-102496952D01*
X62087143Y-102449333D01*
X62325239Y-102449333D01*
X62420477Y-102496952D01*
X62468096Y-102544571D01*
X62515715Y-102639810D01*
X62515715Y-102877905D01*
X62468096Y-102973143D01*
X62420477Y-103020762D01*
X62325239Y-103068381D01*
X62087143Y-103068381D01*
X61991905Y-103020762D01*
X61944286Y-102973143D01*
X59880477Y-102401714D02*
X59880477Y-103068381D01*
X59642381Y-102020762D02*
X59404286Y-102735048D01*
X60023334Y-102735048D01*
X66976667Y-82383381D02*
X67595715Y-82383381D01*
X67262381Y-82764333D01*
X67405239Y-82764333D01*
X67500477Y-82811952D01*
X67548096Y-82859571D01*
X67595715Y-82954810D01*
X67595715Y-83192905D01*
X67548096Y-83288143D01*
X67500477Y-83335762D01*
X67405239Y-83383381D01*
X67119524Y-83383381D01*
X67024286Y-83335762D01*
X66976667Y-83288143D01*
X64484286Y-82478619D02*
X64531905Y-82431000D01*
X64627143Y-82383381D01*
X64865239Y-82383381D01*
X64960477Y-82431000D01*
X65008096Y-82478619D01*
X65055715Y-82573857D01*
X65055715Y-82669095D01*
X65008096Y-82811952D01*
X64436667Y-83383381D01*
X65055715Y-83383381D01*
X62515715Y-83383381D02*
X61944286Y-83383381D01*
X62230000Y-83383381D02*
X62230000Y-82383381D01*
X62134762Y-82526238D01*
X62039524Y-82621476D01*
X61944286Y-82669095D01*
X59642381Y-82383381D02*
X59737620Y-82383381D01*
X59832858Y-82431000D01*
X59880477Y-82478619D01*
X59928096Y-82573857D01*
X59975715Y-82764333D01*
X59975715Y-83002429D01*
X59928096Y-83192905D01*
X59880477Y-83288143D01*
X59832858Y-83335762D01*
X59737620Y-83383381D01*
X59642381Y-83383381D01*
X59547143Y-83335762D01*
X59499524Y-83288143D01*
X59451905Y-83192905D01*
X59404286Y-83002429D01*
X59404286Y-82764333D01*
X59451905Y-82573857D01*
X59499524Y-82478619D01*
X59547143Y-82431000D01*
X59642381Y-82383381D01*
X57332524Y-102973143D02*
X57284905Y-103020762D01*
X57142048Y-103068381D01*
X57046810Y-103068381D01*
X56903952Y-103020762D01*
X56808714Y-102925524D01*
X56761095Y-102830286D01*
X56713476Y-102639810D01*
X56713476Y-102496952D01*
X56761095Y-102306476D01*
X56808714Y-102211238D01*
X56903952Y-102116000D01*
X57046810Y-102068381D01*
X57142048Y-102068381D01*
X57284905Y-102116000D01*
X57332524Y-102163619D01*
X57332524Y-83288143D02*
X57284905Y-83335762D01*
X57142048Y-83383381D01*
X57046810Y-83383381D01*
X56903952Y-83335762D01*
X56808714Y-83240524D01*
X56761095Y-83145286D01*
X56713476Y-82954810D01*
X56713476Y-82811952D01*
X56761095Y-82621476D01*
X56808714Y-82526238D01*
X56903952Y-82431000D01*
X57046810Y-82383381D01*
X57142048Y-82383381D01*
X57284905Y-82431000D01*
X57332524Y-82478619D01*
X57332524Y-104624143D02*
X57284905Y-104671762D01*
X57142048Y-104719381D01*
X57046810Y-104719381D01*
X56903952Y-104671762D01*
X56808714Y-104576524D01*
X56761095Y-104481286D01*
X56713476Y-104290810D01*
X56713476Y-104147952D01*
X56761095Y-103957476D01*
X56808714Y-103862238D01*
X56903952Y-103767000D01*
X57046810Y-103719381D01*
X57142048Y-103719381D01*
X57284905Y-103767000D01*
X57332524Y-103814619D01*
X57332524Y-124309143D02*
X57284905Y-124356762D01*
X57142048Y-124404381D01*
X57046810Y-124404381D01*
X56903952Y-124356762D01*
X56808714Y-124261524D01*
X56761095Y-124166286D01*
X56713476Y-123975810D01*
X56713476Y-123832952D01*
X56761095Y-123642476D01*
X56808714Y-123547238D01*
X56903952Y-123452000D01*
X57046810Y-123404381D01*
X57142048Y-123404381D01*
X57284905Y-123452000D01*
X57332524Y-123499619D01*
X59642381Y-103719381D02*
X59737620Y-103719381D01*
X59832858Y-103767000D01*
X59880477Y-103814619D01*
X59928096Y-103909857D01*
X59975715Y-104100333D01*
X59975715Y-104338429D01*
X59928096Y-104528905D01*
X59880477Y-104624143D01*
X59832858Y-104671762D01*
X59737620Y-104719381D01*
X59642381Y-104719381D01*
X59547143Y-104671762D01*
X59499524Y-104624143D01*
X59451905Y-104528905D01*
X59404286Y-104338429D01*
X59404286Y-104100333D01*
X59451905Y-103909857D01*
X59499524Y-103814619D01*
X59547143Y-103767000D01*
X59642381Y-103719381D01*
X62515715Y-104719381D02*
X61944286Y-104719381D01*
X62230000Y-104719381D02*
X62230000Y-103719381D01*
X62134762Y-103862238D01*
X62039524Y-103957476D01*
X61944286Y-104005095D01*
X64484286Y-103814619D02*
X64531905Y-103767000D01*
X64627143Y-103719381D01*
X64865239Y-103719381D01*
X64960477Y-103767000D01*
X65008096Y-103814619D01*
X65055715Y-103909857D01*
X65055715Y-104005095D01*
X65008096Y-104147952D01*
X64436667Y-104719381D01*
X65055715Y-104719381D01*
X66976667Y-103719381D02*
X67595715Y-103719381D01*
X67262381Y-104100333D01*
X67405239Y-104100333D01*
X67500477Y-104147952D01*
X67548096Y-104195571D01*
X67595715Y-104290810D01*
X67595715Y-104528905D01*
X67548096Y-104624143D01*
X67500477Y-104671762D01*
X67405239Y-104719381D01*
X67119524Y-104719381D01*
X67024286Y-104671762D01*
X66976667Y-104624143D01*
X59880477Y-123737714D02*
X59880477Y-124404381D01*
X59642381Y-123356762D02*
X59404286Y-124071048D01*
X60023334Y-124071048D01*
X62468096Y-123404381D02*
X61991905Y-123404381D01*
X61944286Y-123880571D01*
X61991905Y-123832952D01*
X62087143Y-123785333D01*
X62325239Y-123785333D01*
X62420477Y-123832952D01*
X62468096Y-123880571D01*
X62515715Y-123975810D01*
X62515715Y-124213905D01*
X62468096Y-124309143D01*
X62420477Y-124356762D01*
X62325239Y-124404381D01*
X62087143Y-124404381D01*
X61991905Y-124356762D01*
X61944286Y-124309143D01*
X64960477Y-123404381D02*
X64770000Y-123404381D01*
X64674762Y-123452000D01*
X64627143Y-123499619D01*
X64531905Y-123642476D01*
X64484286Y-123832952D01*
X64484286Y-124213905D01*
X64531905Y-124309143D01*
X64579524Y-124356762D01*
X64674762Y-124404381D01*
X64865239Y-124404381D01*
X64960477Y-124356762D01*
X65008096Y-124309143D01*
X65055715Y-124213905D01*
X65055715Y-123975810D01*
X65008096Y-123880571D01*
X64960477Y-123832952D01*
X64865239Y-123785333D01*
X64674762Y-123785333D01*
X64579524Y-123832952D01*
X64531905Y-123880571D01*
X64484286Y-123975810D01*
X66976667Y-123404381D02*
X67643334Y-123404381D01*
X67214762Y-124404381D01*
X44370667Y-123404381D02*
X45037334Y-123404381D01*
X44608762Y-124404381D01*
X42354477Y-123404381D02*
X42164000Y-123404381D01*
X42068762Y-123452000D01*
X42021143Y-123499619D01*
X41925905Y-123642476D01*
X41878286Y-123832952D01*
X41878286Y-124213905D01*
X41925905Y-124309143D01*
X41973524Y-124356762D01*
X42068762Y-124404381D01*
X42259239Y-124404381D01*
X42354477Y-124356762D01*
X42402096Y-124309143D01*
X42449715Y-124213905D01*
X42449715Y-123975810D01*
X42402096Y-123880571D01*
X42354477Y-123832952D01*
X42259239Y-123785333D01*
X42068762Y-123785333D01*
X41973524Y-123832952D01*
X41925905Y-123880571D01*
X41878286Y-123975810D01*
X39862096Y-123404381D02*
X39385905Y-123404381D01*
X39338286Y-123880571D01*
X39385905Y-123832952D01*
X39481143Y-123785333D01*
X39719239Y-123785333D01*
X39814477Y-123832952D01*
X39862096Y-123880571D01*
X39909715Y-123975810D01*
X39909715Y-124213905D01*
X39862096Y-124309143D01*
X39814477Y-124356762D01*
X39719239Y-124404381D01*
X39481143Y-124404381D01*
X39385905Y-124356762D01*
X39338286Y-124309143D01*
X37274477Y-123737714D02*
X37274477Y-124404381D01*
X37036381Y-123356762D02*
X36798286Y-124071048D01*
X37417334Y-124071048D01*
X44370667Y-103719381D02*
X44989715Y-103719381D01*
X44656381Y-104100333D01*
X44799239Y-104100333D01*
X44894477Y-104147952D01*
X44942096Y-104195571D01*
X44989715Y-104290810D01*
X44989715Y-104528905D01*
X44942096Y-104624143D01*
X44894477Y-104671762D01*
X44799239Y-104719381D01*
X44513524Y-104719381D01*
X44418286Y-104671762D01*
X44370667Y-104624143D01*
X41878286Y-103814619D02*
X41925905Y-103767000D01*
X42021143Y-103719381D01*
X42259239Y-103719381D01*
X42354477Y-103767000D01*
X42402096Y-103814619D01*
X42449715Y-103909857D01*
X42449715Y-104005095D01*
X42402096Y-104147952D01*
X41830667Y-104719381D01*
X42449715Y-104719381D01*
X39909715Y-104719381D02*
X39338286Y-104719381D01*
X39624000Y-104719381D02*
X39624000Y-103719381D01*
X39528762Y-103862238D01*
X39433524Y-103957476D01*
X39338286Y-104005095D01*
X37036381Y-103719381D02*
X37131620Y-103719381D01*
X37226858Y-103767000D01*
X37274477Y-103814619D01*
X37322096Y-103909857D01*
X37369715Y-104100333D01*
X37369715Y-104338429D01*
X37322096Y-104528905D01*
X37274477Y-104624143D01*
X37226858Y-104671762D01*
X37131620Y-104719381D01*
X37036381Y-104719381D01*
X36941143Y-104671762D01*
X36893524Y-104624143D01*
X36845905Y-104528905D01*
X36798286Y-104338429D01*
X36798286Y-104100333D01*
X36845905Y-103909857D01*
X36893524Y-103814619D01*
X36941143Y-103767000D01*
X37036381Y-103719381D01*
X34726524Y-124309143D02*
X34678905Y-124356762D01*
X34536048Y-124404381D01*
X34440810Y-124404381D01*
X34297952Y-124356762D01*
X34202714Y-124261524D01*
X34155095Y-124166286D01*
X34107476Y-123975810D01*
X34107476Y-123832952D01*
X34155095Y-123642476D01*
X34202714Y-123547238D01*
X34297952Y-123452000D01*
X34440810Y-123404381D01*
X34536048Y-123404381D01*
X34678905Y-123452000D01*
X34726524Y-123499619D01*
X34726524Y-104624143D02*
X34678905Y-104671762D01*
X34536048Y-104719381D01*
X34440810Y-104719381D01*
X34297952Y-104671762D01*
X34202714Y-104576524D01*
X34155095Y-104481286D01*
X34107476Y-104290810D01*
X34107476Y-104147952D01*
X34155095Y-103957476D01*
X34202714Y-103862238D01*
X34297952Y-103767000D01*
X34440810Y-103719381D01*
X34536048Y-103719381D01*
X34678905Y-103767000D01*
X34726524Y-103814619D01*
X30781714Y-129452667D02*
X31257905Y-129452667D01*
X30686476Y-129738381D02*
X31019809Y-128738381D01*
X31353143Y-129738381D01*
X31638857Y-128833619D02*
X31686476Y-128786000D01*
X31781714Y-128738381D01*
X32019810Y-128738381D01*
X32115048Y-128786000D01*
X32162667Y-128833619D01*
X32210286Y-128928857D01*
X32210286Y-129024095D01*
X32162667Y-129166952D01*
X31591238Y-129738381D01*
X32210286Y-129738381D01*
X30781714Y-126912667D02*
X31257905Y-126912667D01*
X30686476Y-127198381D02*
X31019809Y-126198381D01*
X31353143Y-127198381D01*
X32210286Y-127198381D02*
X31638857Y-127198381D01*
X31924571Y-127198381D02*
X31924571Y-126198381D01*
X31829333Y-126341238D01*
X31734095Y-126436476D01*
X31638857Y-126484095D01*
X30781714Y-124372667D02*
X31257905Y-124372667D01*
X30686476Y-124658381D02*
X31019809Y-123658381D01*
X31353143Y-124658381D01*
X31876952Y-123658381D02*
X31972191Y-123658381D01*
X32067429Y-123706000D01*
X32115048Y-123753619D01*
X32162667Y-123848857D01*
X32210286Y-124039333D01*
X32210286Y-124277429D01*
X32162667Y-124467905D01*
X32115048Y-124563143D01*
X32067429Y-124610762D01*
X31972191Y-124658381D01*
X31876952Y-124658381D01*
X31781714Y-124610762D01*
X31734095Y-124563143D01*
X31686476Y-124467905D01*
X31638857Y-124277429D01*
X31638857Y-124039333D01*
X31686476Y-123848857D01*
X31734095Y-123753619D01*
X31781714Y-123706000D01*
X31876952Y-123658381D01*
X31329334Y-122118381D02*
X30996000Y-121642190D01*
X30757905Y-122118381D02*
X30757905Y-121118381D01*
X31138858Y-121118381D01*
X31234096Y-121166000D01*
X31281715Y-121213619D01*
X31329334Y-121308857D01*
X31329334Y-121451714D01*
X31281715Y-121546952D01*
X31234096Y-121594571D01*
X31138858Y-121642190D01*
X30757905Y-121642190D01*
X31948381Y-121118381D02*
X32043620Y-121118381D01*
X32138858Y-121166000D01*
X32186477Y-121213619D01*
X32234096Y-121308857D01*
X32281715Y-121499333D01*
X32281715Y-121737429D01*
X32234096Y-121927905D01*
X32186477Y-122023143D01*
X32138858Y-122070762D01*
X32043620Y-122118381D01*
X31948381Y-122118381D01*
X31853143Y-122070762D01*
X31805524Y-122023143D01*
X31757905Y-121927905D01*
X31710286Y-121737429D01*
X31710286Y-121499333D01*
X31757905Y-121308857D01*
X31805524Y-121213619D01*
X31853143Y-121166000D01*
X31948381Y-121118381D01*
X31329334Y-119578381D02*
X30996000Y-119102190D01*
X30757905Y-119578381D02*
X30757905Y-118578381D01*
X31138858Y-118578381D01*
X31234096Y-118626000D01*
X31281715Y-118673619D01*
X31329334Y-118768857D01*
X31329334Y-118911714D01*
X31281715Y-119006952D01*
X31234096Y-119054571D01*
X31138858Y-119102190D01*
X30757905Y-119102190D01*
X32281715Y-119578381D02*
X31710286Y-119578381D01*
X31996000Y-119578381D02*
X31996000Y-118578381D01*
X31900762Y-118721238D01*
X31805524Y-118816476D01*
X31710286Y-118864095D01*
X31329334Y-117038381D02*
X30996000Y-116562190D01*
X30757905Y-117038381D02*
X30757905Y-116038381D01*
X31138858Y-116038381D01*
X31234096Y-116086000D01*
X31281715Y-116133619D01*
X31329334Y-116228857D01*
X31329334Y-116371714D01*
X31281715Y-116466952D01*
X31234096Y-116514571D01*
X31138858Y-116562190D01*
X30757905Y-116562190D01*
X31710286Y-116133619D02*
X31757905Y-116086000D01*
X31853143Y-116038381D01*
X32091239Y-116038381D01*
X32186477Y-116086000D01*
X32234096Y-116133619D01*
X32281715Y-116228857D01*
X32281715Y-116324095D01*
X32234096Y-116466952D01*
X31662667Y-117038381D01*
X32281715Y-117038381D01*
X31329334Y-114498381D02*
X30996000Y-114022190D01*
X30757905Y-114498381D02*
X30757905Y-113498381D01*
X31138858Y-113498381D01*
X31234096Y-113546000D01*
X31281715Y-113593619D01*
X31329334Y-113688857D01*
X31329334Y-113831714D01*
X31281715Y-113926952D01*
X31234096Y-113974571D01*
X31138858Y-114022190D01*
X30757905Y-114022190D01*
X31662667Y-113498381D02*
X32281715Y-113498381D01*
X31948381Y-113879333D01*
X32091239Y-113879333D01*
X32186477Y-113926952D01*
X32234096Y-113974571D01*
X32281715Y-114069810D01*
X32281715Y-114307905D01*
X32234096Y-114403143D01*
X32186477Y-114450762D01*
X32091239Y-114498381D01*
X31805524Y-114498381D01*
X31710286Y-114450762D01*
X31662667Y-114403143D01*
X31329334Y-111958381D02*
X30996000Y-111482190D01*
X30757905Y-111958381D02*
X30757905Y-110958381D01*
X31138858Y-110958381D01*
X31234096Y-111006000D01*
X31281715Y-111053619D01*
X31329334Y-111148857D01*
X31329334Y-111291714D01*
X31281715Y-111386952D01*
X31234096Y-111434571D01*
X31138858Y-111482190D01*
X30757905Y-111482190D01*
X32186477Y-111291714D02*
X32186477Y-111958381D01*
X31948381Y-110910762D02*
X31710286Y-111625048D01*
X32329334Y-111625048D01*
X31329334Y-109418381D02*
X30996000Y-108942190D01*
X30757905Y-109418381D02*
X30757905Y-108418381D01*
X31138858Y-108418381D01*
X31234096Y-108466000D01*
X31281715Y-108513619D01*
X31329334Y-108608857D01*
X31329334Y-108751714D01*
X31281715Y-108846952D01*
X31234096Y-108894571D01*
X31138858Y-108942190D01*
X30757905Y-108942190D01*
X32234096Y-108418381D02*
X31757905Y-108418381D01*
X31710286Y-108894571D01*
X31757905Y-108846952D01*
X31853143Y-108799333D01*
X32091239Y-108799333D01*
X32186477Y-108846952D01*
X32234096Y-108894571D01*
X32281715Y-108989810D01*
X32281715Y-109227905D01*
X32234096Y-109323143D01*
X32186477Y-109370762D01*
X32091239Y-109418381D01*
X31853143Y-109418381D01*
X31757905Y-109370762D01*
X31710286Y-109323143D01*
X31329334Y-106878381D02*
X30996000Y-106402190D01*
X30757905Y-106878381D02*
X30757905Y-105878381D01*
X31138858Y-105878381D01*
X31234096Y-105926000D01*
X31281715Y-105973619D01*
X31329334Y-106068857D01*
X31329334Y-106211714D01*
X31281715Y-106306952D01*
X31234096Y-106354571D01*
X31138858Y-106402190D01*
X30757905Y-106402190D01*
X32186477Y-105878381D02*
X31996000Y-105878381D01*
X31900762Y-105926000D01*
X31853143Y-105973619D01*
X31757905Y-106116476D01*
X31710286Y-106306952D01*
X31710286Y-106687905D01*
X31757905Y-106783143D01*
X31805524Y-106830762D01*
X31900762Y-106878381D01*
X32091239Y-106878381D01*
X32186477Y-106830762D01*
X32234096Y-106783143D01*
X32281715Y-106687905D01*
X32281715Y-106449810D01*
X32234096Y-106354571D01*
X32186477Y-106306952D01*
X32091239Y-106259333D01*
X31900762Y-106259333D01*
X31805524Y-106306952D01*
X31757905Y-106354571D01*
X31710286Y-106449810D01*
X31329334Y-104338381D02*
X30996000Y-103862190D01*
X30757905Y-104338381D02*
X30757905Y-103338381D01*
X31138858Y-103338381D01*
X31234096Y-103386000D01*
X31281715Y-103433619D01*
X31329334Y-103528857D01*
X31329334Y-103671714D01*
X31281715Y-103766952D01*
X31234096Y-103814571D01*
X31138858Y-103862190D01*
X30757905Y-103862190D01*
X31662667Y-103338381D02*
X32329334Y-103338381D01*
X31900762Y-104338381D01*
X31369096Y-100592000D02*
X31273858Y-100544381D01*
X31131001Y-100544381D01*
X30988143Y-100592000D01*
X30892905Y-100687238D01*
X30845286Y-100782476D01*
X30797667Y-100972952D01*
X30797667Y-101115810D01*
X30845286Y-101306286D01*
X30892905Y-101401524D01*
X30988143Y-101496762D01*
X31131001Y-101544381D01*
X31226239Y-101544381D01*
X31369096Y-101496762D01*
X31416715Y-101449143D01*
X31416715Y-101115810D01*
X31226239Y-101115810D01*
X31845286Y-101544381D02*
X31845286Y-100544381D01*
X32416715Y-101544381D01*
X32416715Y-100544381D01*
X32892905Y-101544381D02*
X32892905Y-100544381D01*
X33131000Y-100544381D01*
X33273858Y-100592000D01*
X33369096Y-100687238D01*
X33416715Y-100782476D01*
X33464334Y-100972952D01*
X33464334Y-101115810D01*
X33416715Y-101306286D01*
X33369096Y-101401524D01*
X33273858Y-101496762D01*
X33131000Y-101544381D01*
X32892905Y-101544381D01*
X30686476Y-99004429D02*
X31448381Y-99004429D01*
X31067429Y-99385381D02*
X31067429Y-98623476D01*
X31781714Y-98385381D02*
X32115047Y-99385381D01*
X32448381Y-98385381D01*
D13*
X46034000Y-79816000D02*
X46034000Y-77156000D01*
X38354000Y-79816000D02*
X46034000Y-79816000D01*
X38354000Y-77156000D02*
X46034000Y-77156000D01*
X38354000Y-79816000D02*
X38354000Y-77156000D01*
X37084000Y-79816000D02*
X35754000Y-79816000D01*
X35754000Y-79816000D02*
X35754000Y-78486000D01*
X46034000Y-65465000D02*
X46034000Y-62805000D01*
X38354000Y-65465000D02*
X46034000Y-65465000D01*
X38354000Y-62805000D02*
X46034000Y-62805000D01*
X38354000Y-65465000D02*
X38354000Y-62805000D01*
X37084000Y-65465000D02*
X35754000Y-65465000D01*
X35754000Y-65465000D02*
X35754000Y-64135000D01*
X35500000Y-70374000D02*
G75*
G02X35500000Y-72374000I0J-1000000D01*
G01*
X35500000Y-72374000D02*
X35500000Y-74024000D01*
X35500000Y-74024000D02*
X55940000Y-74024000D01*
X55940000Y-74024000D02*
X55940000Y-68724000D01*
X55940000Y-68724000D02*
X35500000Y-68724000D01*
X35500000Y-68724000D02*
X35500000Y-70374000D01*
X58106000Y-70374000D02*
G75*
G02X58106000Y-72374000I0J-1000000D01*
G01*
X58106000Y-72374000D02*
X58106000Y-74024000D01*
X58106000Y-74024000D02*
X78546000Y-74024000D01*
X78546000Y-74024000D02*
X78546000Y-68724000D01*
X78546000Y-68724000D02*
X58106000Y-68724000D01*
X58106000Y-68724000D02*
X58106000Y-70374000D01*
X68640000Y-65465000D02*
X68640000Y-62805000D01*
X60960000Y-65465000D02*
X68640000Y-65465000D01*
X60960000Y-62805000D02*
X68640000Y-62805000D01*
X60960000Y-65465000D02*
X60960000Y-62805000D01*
X59690000Y-65465000D02*
X58360000Y-65465000D01*
X58360000Y-65465000D02*
X58360000Y-64135000D01*
X68640000Y-79816000D02*
X68640000Y-77156000D01*
X60960000Y-79816000D02*
X68640000Y-79816000D01*
X60960000Y-77156000D02*
X68640000Y-77156000D01*
X60960000Y-79816000D02*
X60960000Y-77156000D01*
X59690000Y-79816000D02*
X58360000Y-79816000D01*
X58360000Y-79816000D02*
X58360000Y-78486000D01*
X68640000Y-58480000D02*
X68640000Y-55820000D01*
X60960000Y-58480000D02*
X68640000Y-58480000D01*
X60960000Y-55820000D02*
X68640000Y-55820000D01*
X60960000Y-58480000D02*
X60960000Y-55820000D01*
X59690000Y-58480000D02*
X58360000Y-58480000D01*
X58360000Y-58480000D02*
X58360000Y-57150000D01*
X68640000Y-44129000D02*
X68640000Y-41469000D01*
X60960000Y-44129000D02*
X68640000Y-44129000D01*
X60960000Y-41469000D02*
X68640000Y-41469000D01*
X60960000Y-44129000D02*
X60960000Y-41469000D01*
X59690000Y-44129000D02*
X58360000Y-44129000D01*
X58360000Y-44129000D02*
X58360000Y-42799000D01*
X58106000Y-49038000D02*
G75*
G02X58106000Y-51038000I0J-1000000D01*
G01*
X58106000Y-51038000D02*
X58106000Y-52688000D01*
X58106000Y-52688000D02*
X78546000Y-52688000D01*
X78546000Y-52688000D02*
X78546000Y-47388000D01*
X78546000Y-47388000D02*
X58106000Y-47388000D01*
X58106000Y-47388000D02*
X58106000Y-49038000D01*
X35500000Y-49038000D02*
G75*
G02X35500000Y-51038000I0J-1000000D01*
G01*
X35500000Y-51038000D02*
X35500000Y-52688000D01*
X35500000Y-52688000D02*
X55940000Y-52688000D01*
X55940000Y-52688000D02*
X55940000Y-47388000D01*
X55940000Y-47388000D02*
X35500000Y-47388000D01*
X35500000Y-47388000D02*
X35500000Y-49038000D01*
X46034000Y-44129000D02*
X46034000Y-41469000D01*
X38354000Y-44129000D02*
X46034000Y-44129000D01*
X38354000Y-41469000D02*
X46034000Y-41469000D01*
X38354000Y-44129000D02*
X38354000Y-41469000D01*
X37084000Y-44129000D02*
X35754000Y-44129000D01*
X35754000Y-44129000D02*
X35754000Y-42799000D01*
X46034000Y-58480000D02*
X46034000Y-55820000D01*
X38354000Y-58480000D02*
X46034000Y-58480000D01*
X38354000Y-55820000D02*
X46034000Y-55820000D01*
X38354000Y-58480000D02*
X38354000Y-55820000D01*
X37084000Y-58480000D02*
X35754000Y-58480000D01*
X35754000Y-58480000D02*
X35754000Y-57150000D01*
X46034000Y-101152000D02*
X46034000Y-98492000D01*
X38354000Y-101152000D02*
X46034000Y-101152000D01*
X38354000Y-98492000D02*
X46034000Y-98492000D01*
X38354000Y-101152000D02*
X38354000Y-98492000D01*
X37084000Y-101152000D02*
X35754000Y-101152000D01*
X35754000Y-101152000D02*
X35754000Y-99822000D01*
X46034000Y-86801000D02*
X46034000Y-84141000D01*
X38354000Y-86801000D02*
X46034000Y-86801000D01*
X38354000Y-84141000D02*
X46034000Y-84141000D01*
X38354000Y-86801000D02*
X38354000Y-84141000D01*
X37084000Y-86801000D02*
X35754000Y-86801000D01*
X35754000Y-86801000D02*
X35754000Y-85471000D01*
X35500000Y-91710000D02*
G75*
G02X35500000Y-93710000I0J-1000000D01*
G01*
X35500000Y-93710000D02*
X35500000Y-95360000D01*
X35500000Y-95360000D02*
X55940000Y-95360000D01*
X55940000Y-95360000D02*
X55940000Y-90060000D01*
X55940000Y-90060000D02*
X35500000Y-90060000D01*
X35500000Y-90060000D02*
X35500000Y-91710000D01*
X58106000Y-91710000D02*
G75*
G02X58106000Y-93710000I0J-1000000D01*
G01*
X58106000Y-93710000D02*
X58106000Y-95360000D01*
X58106000Y-95360000D02*
X78546000Y-95360000D01*
X78546000Y-95360000D02*
X78546000Y-90060000D01*
X78546000Y-90060000D02*
X58106000Y-90060000D01*
X58106000Y-90060000D02*
X58106000Y-91710000D01*
X68640000Y-86801000D02*
X68640000Y-84141000D01*
X60960000Y-86801000D02*
X68640000Y-86801000D01*
X60960000Y-84141000D02*
X68640000Y-84141000D01*
X60960000Y-86801000D02*
X60960000Y-84141000D01*
X59690000Y-86801000D02*
X58360000Y-86801000D01*
X58360000Y-86801000D02*
X58360000Y-85471000D01*
X68640000Y-101152000D02*
X68640000Y-98492000D01*
X60960000Y-101152000D02*
X68640000Y-101152000D01*
X60960000Y-98492000D02*
X68640000Y-98492000D01*
X60960000Y-101152000D02*
X60960000Y-98492000D01*
X59690000Y-101152000D02*
X58360000Y-101152000D01*
X58360000Y-101152000D02*
X58360000Y-99822000D01*
X68640000Y-122488000D02*
X68640000Y-119828000D01*
X60960000Y-122488000D02*
X68640000Y-122488000D01*
X60960000Y-119828000D02*
X68640000Y-119828000D01*
X60960000Y-122488000D02*
X60960000Y-119828000D01*
X59690000Y-122488000D02*
X58360000Y-122488000D01*
X58360000Y-122488000D02*
X58360000Y-121158000D01*
X68640000Y-108137000D02*
X68640000Y-105477000D01*
X60960000Y-108137000D02*
X68640000Y-108137000D01*
X60960000Y-105477000D02*
X68640000Y-105477000D01*
X60960000Y-108137000D02*
X60960000Y-105477000D01*
X59690000Y-108137000D02*
X58360000Y-108137000D01*
X58360000Y-108137000D02*
X58360000Y-106807000D01*
X58106000Y-113046000D02*
G75*
G02X58106000Y-115046000I0J-1000000D01*
G01*
X58106000Y-115046000D02*
X58106000Y-116696000D01*
X58106000Y-116696000D02*
X78546000Y-116696000D01*
X78546000Y-116696000D02*
X78546000Y-111396000D01*
X78546000Y-111396000D02*
X58106000Y-111396000D01*
X58106000Y-111396000D02*
X58106000Y-113046000D01*
X27008000Y-130616000D02*
X27008000Y-97476000D01*
X27008000Y-97476000D02*
X24348000Y-97476000D01*
X24348000Y-97476000D02*
X24348000Y-130616000D01*
X24348000Y-130616000D02*
X27008000Y-130616000D01*
X24348000Y-129666000D02*
X18348000Y-129666000D01*
X18348000Y-129666000D02*
X18348000Y-128906000D01*
X18348000Y-128906000D02*
X24348000Y-128906000D01*
X24348000Y-129606000D02*
X18348000Y-129606000D01*
X24348000Y-129486000D02*
X18348000Y-129486000D01*
X24348000Y-129366000D02*
X18348000Y-129366000D01*
X24348000Y-129246000D02*
X18348000Y-129246000D01*
X24348000Y-129126000D02*
X18348000Y-129126000D01*
X24348000Y-129006000D02*
X18348000Y-129006000D01*
X27338000Y-129666000D02*
X27008000Y-129666000D01*
X27338000Y-128906000D02*
X27008000Y-128906000D01*
X27008000Y-128016000D02*
X24348000Y-128016000D01*
X24348000Y-127126000D02*
X18348000Y-127126000D01*
X18348000Y-127126000D02*
X18348000Y-126366000D01*
X18348000Y-126366000D02*
X24348000Y-126366000D01*
X27405071Y-127126000D02*
X27008000Y-127126000D01*
X27405071Y-126366000D02*
X27008000Y-126366000D01*
X27008000Y-125476000D02*
X24348000Y-125476000D01*
X24348000Y-124586000D02*
X18348000Y-124586000D01*
X18348000Y-124586000D02*
X18348000Y-123826000D01*
X18348000Y-123826000D02*
X24348000Y-123826000D01*
X27405071Y-124586000D02*
X27008000Y-124586000D01*
X27405071Y-123826000D02*
X27008000Y-123826000D01*
X27008000Y-122936000D02*
X24348000Y-122936000D01*
X24348000Y-122046000D02*
X18348000Y-122046000D01*
X18348000Y-122046000D02*
X18348000Y-121286000D01*
X18348000Y-121286000D02*
X24348000Y-121286000D01*
X27405071Y-122046000D02*
X27008000Y-122046000D01*
X27405071Y-121286000D02*
X27008000Y-121286000D01*
X27008000Y-120396000D02*
X24348000Y-120396000D01*
X24348000Y-119506000D02*
X18348000Y-119506000D01*
X18348000Y-119506000D02*
X18348000Y-118746000D01*
X18348000Y-118746000D02*
X24348000Y-118746000D01*
X27405071Y-119506000D02*
X27008000Y-119506000D01*
X27405071Y-118746000D02*
X27008000Y-118746000D01*
X27008000Y-117856000D02*
X24348000Y-117856000D01*
X24348000Y-116966000D02*
X18348000Y-116966000D01*
X18348000Y-116966000D02*
X18348000Y-116206000D01*
X18348000Y-116206000D02*
X24348000Y-116206000D01*
X27405071Y-116966000D02*
X27008000Y-116966000D01*
X27405071Y-116206000D02*
X27008000Y-116206000D01*
X27008000Y-115316000D02*
X24348000Y-115316000D01*
X24348000Y-114426000D02*
X18348000Y-114426000D01*
X18348000Y-114426000D02*
X18348000Y-113666000D01*
X18348000Y-113666000D02*
X24348000Y-113666000D01*
X27405071Y-114426000D02*
X27008000Y-114426000D01*
X27405071Y-113666000D02*
X27008000Y-113666000D01*
X27008000Y-112776000D02*
X24348000Y-112776000D01*
X24348000Y-111886000D02*
X18348000Y-111886000D01*
X18348000Y-111886000D02*
X18348000Y-111126000D01*
X18348000Y-111126000D02*
X24348000Y-111126000D01*
X27405071Y-111886000D02*
X27008000Y-111886000D01*
X27405071Y-111126000D02*
X27008000Y-111126000D01*
X27008000Y-110236000D02*
X24348000Y-110236000D01*
X24348000Y-109346000D02*
X18348000Y-109346000D01*
X18348000Y-109346000D02*
X18348000Y-108586000D01*
X18348000Y-108586000D02*
X24348000Y-108586000D01*
X27405071Y-109346000D02*
X27008000Y-109346000D01*
X27405071Y-108586000D02*
X27008000Y-108586000D01*
X27008000Y-107696000D02*
X24348000Y-107696000D01*
X24348000Y-106806000D02*
X18348000Y-106806000D01*
X18348000Y-106806000D02*
X18348000Y-106046000D01*
X18348000Y-106046000D02*
X24348000Y-106046000D01*
X27405071Y-106806000D02*
X27008000Y-106806000D01*
X27405071Y-106046000D02*
X27008000Y-106046000D01*
X27008000Y-105156000D02*
X24348000Y-105156000D01*
X24348000Y-104266000D02*
X18348000Y-104266000D01*
X18348000Y-104266000D02*
X18348000Y-103506000D01*
X18348000Y-103506000D02*
X24348000Y-103506000D01*
X27405071Y-104266000D02*
X27008000Y-104266000D01*
X27405071Y-103506000D02*
X27008000Y-103506000D01*
X27008000Y-102616000D02*
X24348000Y-102616000D01*
X24348000Y-101726000D02*
X18348000Y-101726000D01*
X18348000Y-101726000D02*
X18348000Y-100966000D01*
X18348000Y-100966000D02*
X24348000Y-100966000D01*
X27405071Y-101726000D02*
X27008000Y-101726000D01*
X27405071Y-100966000D02*
X27008000Y-100966000D01*
X27008000Y-100076000D02*
X24348000Y-100076000D01*
X24348000Y-99186000D02*
X18348000Y-99186000D01*
X18348000Y-99186000D02*
X18348000Y-98426000D01*
X18348000Y-98426000D02*
X24348000Y-98426000D01*
X27405071Y-99186000D02*
X27008000Y-99186000D01*
X27405071Y-98426000D02*
X27008000Y-98426000D01*
X29718000Y-129286000D02*
X29718000Y-130556000D01*
X29718000Y-130556000D02*
X28448000Y-130556000D01*
X35500000Y-113046000D02*
G75*
G02X35500000Y-115046000I0J-1000000D01*
G01*
X35500000Y-115046000D02*
X35500000Y-116696000D01*
X35500000Y-116696000D02*
X55940000Y-116696000D01*
X55940000Y-116696000D02*
X55940000Y-111396000D01*
X55940000Y-111396000D02*
X35500000Y-111396000D01*
X35500000Y-111396000D02*
X35500000Y-113046000D01*
X46034000Y-108137000D02*
X46034000Y-105477000D01*
X38354000Y-108137000D02*
X46034000Y-108137000D01*
X38354000Y-105477000D02*
X46034000Y-105477000D01*
X38354000Y-108137000D02*
X38354000Y-105477000D01*
X37084000Y-108137000D02*
X35754000Y-108137000D01*
X35754000Y-108137000D02*
X35754000Y-106807000D01*
X46034000Y-122488000D02*
X46034000Y-119828000D01*
X38354000Y-122488000D02*
X46034000Y-122488000D01*
X38354000Y-119828000D02*
X46034000Y-119828000D01*
X38354000Y-122488000D02*
X38354000Y-119828000D01*
X37084000Y-122488000D02*
X35754000Y-122488000D01*
X35754000Y-122488000D02*
X35754000Y-121158000D01*
X25975000Y-94040000D02*
X31175000Y-94040000D01*
X25975000Y-76200000D02*
X25975000Y-94040000D01*
X31175000Y-73600000D02*
X31175000Y-94040000D01*
X25975000Y-76200000D02*
X28575000Y-76200000D01*
X28575000Y-76200000D02*
X28575000Y-73600000D01*
X28575000Y-73600000D02*
X31175000Y-73600000D01*
X25975000Y-74930000D02*
X25975000Y-73600000D01*
X25975000Y-73600000D02*
X27305000Y-73600000D01*
D11*
X34996381Y-79628857D02*
X34520190Y-79962191D01*
X34996381Y-80200286D02*
X33996381Y-80200286D01*
X33996381Y-79819333D01*
X34044000Y-79724095D01*
X34091619Y-79676476D01*
X34186857Y-79628857D01*
X34329714Y-79628857D01*
X34424952Y-79676476D01*
X34472571Y-79724095D01*
X34520190Y-79819333D01*
X34520190Y-80200286D01*
X34329714Y-78771714D02*
X34996381Y-78771714D01*
X33948762Y-79009810D02*
X34663048Y-79247905D01*
X34663048Y-78628857D01*
X34472571Y-77914571D02*
X34520190Y-77771714D01*
X34567810Y-77724095D01*
X34663048Y-77676476D01*
X34805905Y-77676476D01*
X34901143Y-77724095D01*
X34948762Y-77771714D01*
X34996381Y-77866952D01*
X34996381Y-78247905D01*
X33996381Y-78247905D01*
X33996381Y-77914571D01*
X34044000Y-77819333D01*
X34091619Y-77771714D01*
X34186857Y-77724095D01*
X34282095Y-77724095D01*
X34377333Y-77771714D01*
X34424952Y-77819333D01*
X34472571Y-77914571D01*
X34472571Y-78247905D01*
X34996381Y-76724095D02*
X34996381Y-77295524D01*
X34996381Y-77009810D02*
X33996381Y-77009810D01*
X34139238Y-77105048D01*
X34234476Y-77200286D01*
X34282095Y-77295524D01*
X34996381Y-65206428D02*
X34520190Y-65539762D01*
X34996381Y-65777857D02*
X33996381Y-65777857D01*
X33996381Y-65396904D01*
X34044000Y-65301666D01*
X34091619Y-65254047D01*
X34186857Y-65206428D01*
X34329714Y-65206428D01*
X34424952Y-65254047D01*
X34472571Y-65301666D01*
X34520190Y-65396904D01*
X34520190Y-65777857D01*
X34329714Y-64349285D02*
X34996381Y-64349285D01*
X33948762Y-64587381D02*
X34663048Y-64825476D01*
X34663048Y-64206428D01*
X34710667Y-63873095D02*
X34710667Y-63396904D01*
X34996381Y-63968333D02*
X33996381Y-63635000D01*
X34996381Y-63301666D01*
X34996381Y-62444523D02*
X34996381Y-63015952D01*
X34996381Y-62730238D02*
X33996381Y-62730238D01*
X34139238Y-62825476D01*
X34234476Y-62920714D01*
X34282095Y-63015952D01*
X33952381Y-72135905D02*
X34761905Y-72135905D01*
X34857143Y-72088286D01*
X34904762Y-72040667D01*
X34952381Y-71945429D01*
X34952381Y-71754952D01*
X34904762Y-71659714D01*
X34857143Y-71612095D01*
X34761905Y-71564476D01*
X33952381Y-71564476D01*
X33952381Y-70612095D02*
X33952381Y-71088286D01*
X34428571Y-71135905D01*
X34380952Y-71088286D01*
X34333333Y-70993048D01*
X34333333Y-70754952D01*
X34380952Y-70659714D01*
X34428571Y-70612095D01*
X34523810Y-70564476D01*
X34761905Y-70564476D01*
X34857143Y-70612095D01*
X34904762Y-70659714D01*
X34952381Y-70754952D01*
X34952381Y-70993048D01*
X34904762Y-71088286D01*
X34857143Y-71135905D01*
X56558381Y-72135905D02*
X57367905Y-72135905D01*
X57463143Y-72088286D01*
X57510762Y-72040667D01*
X57558381Y-71945429D01*
X57558381Y-71754952D01*
X57510762Y-71659714D01*
X57463143Y-71612095D01*
X57367905Y-71564476D01*
X56558381Y-71564476D01*
X56558381Y-70659714D02*
X56558381Y-70850191D01*
X56606000Y-70945429D01*
X56653619Y-70993048D01*
X56796476Y-71088286D01*
X56986952Y-71135905D01*
X57367905Y-71135905D01*
X57463143Y-71088286D01*
X57510762Y-71040667D01*
X57558381Y-70945429D01*
X57558381Y-70754952D01*
X57510762Y-70659714D01*
X57463143Y-70612095D01*
X57367905Y-70564476D01*
X57129810Y-70564476D01*
X57034571Y-70612095D01*
X56986952Y-70659714D01*
X56939333Y-70754952D01*
X56939333Y-70945429D01*
X56986952Y-71040667D01*
X57034571Y-71088286D01*
X57129810Y-71135905D01*
X57602381Y-65206428D02*
X57126190Y-65539762D01*
X57602381Y-65777857D02*
X56602381Y-65777857D01*
X56602381Y-65396904D01*
X56650000Y-65301666D01*
X56697619Y-65254047D01*
X56792857Y-65206428D01*
X56935714Y-65206428D01*
X57030952Y-65254047D01*
X57078571Y-65301666D01*
X57126190Y-65396904D01*
X57126190Y-65777857D01*
X56602381Y-64301666D02*
X56602381Y-64777857D01*
X57078571Y-64825476D01*
X57030952Y-64777857D01*
X56983333Y-64682619D01*
X56983333Y-64444523D01*
X57030952Y-64349285D01*
X57078571Y-64301666D01*
X57173810Y-64254047D01*
X57411905Y-64254047D01*
X57507143Y-64301666D01*
X57554762Y-64349285D01*
X57602381Y-64444523D01*
X57602381Y-64682619D01*
X57554762Y-64777857D01*
X57507143Y-64825476D01*
X57316667Y-63873095D02*
X57316667Y-63396904D01*
X57602381Y-63968333D02*
X56602381Y-63635000D01*
X57602381Y-63301666D01*
X57602381Y-62444523D02*
X57602381Y-63015952D01*
X57602381Y-62730238D02*
X56602381Y-62730238D01*
X56745238Y-62825476D01*
X56840476Y-62920714D01*
X56888095Y-63015952D01*
X57602381Y-79628857D02*
X57126190Y-79962191D01*
X57602381Y-80200286D02*
X56602381Y-80200286D01*
X56602381Y-79819333D01*
X56650000Y-79724095D01*
X56697619Y-79676476D01*
X56792857Y-79628857D01*
X56935714Y-79628857D01*
X57030952Y-79676476D01*
X57078571Y-79724095D01*
X57126190Y-79819333D01*
X57126190Y-80200286D01*
X56602381Y-78724095D02*
X56602381Y-79200286D01*
X57078571Y-79247905D01*
X57030952Y-79200286D01*
X56983333Y-79105048D01*
X56983333Y-78866952D01*
X57030952Y-78771714D01*
X57078571Y-78724095D01*
X57173810Y-78676476D01*
X57411905Y-78676476D01*
X57507143Y-78724095D01*
X57554762Y-78771714D01*
X57602381Y-78866952D01*
X57602381Y-79105048D01*
X57554762Y-79200286D01*
X57507143Y-79247905D01*
X57078571Y-77914571D02*
X57126190Y-77771714D01*
X57173810Y-77724095D01*
X57269048Y-77676476D01*
X57411905Y-77676476D01*
X57507143Y-77724095D01*
X57554762Y-77771714D01*
X57602381Y-77866952D01*
X57602381Y-78247905D01*
X56602381Y-78247905D01*
X56602381Y-77914571D01*
X56650000Y-77819333D01*
X56697619Y-77771714D01*
X56792857Y-77724095D01*
X56888095Y-77724095D01*
X56983333Y-77771714D01*
X57030952Y-77819333D01*
X57078571Y-77914571D01*
X57078571Y-78247905D01*
X57602381Y-76724095D02*
X57602381Y-77295524D01*
X57602381Y-77009810D02*
X56602381Y-77009810D01*
X56745238Y-77105048D01*
X56840476Y-77200286D01*
X56888095Y-77295524D01*
X57602381Y-58292857D02*
X57126190Y-58626191D01*
X57602381Y-58864286D02*
X56602381Y-58864286D01*
X56602381Y-58483333D01*
X56650000Y-58388095D01*
X56697619Y-58340476D01*
X56792857Y-58292857D01*
X56935714Y-58292857D01*
X57030952Y-58340476D01*
X57078571Y-58388095D01*
X57126190Y-58483333D01*
X57126190Y-58864286D01*
X56602381Y-57959524D02*
X56602381Y-57292857D01*
X57602381Y-57721429D01*
X57078571Y-56578571D02*
X57126190Y-56435714D01*
X57173810Y-56388095D01*
X57269048Y-56340476D01*
X57411905Y-56340476D01*
X57507143Y-56388095D01*
X57554762Y-56435714D01*
X57602381Y-56530952D01*
X57602381Y-56911905D01*
X56602381Y-56911905D01*
X56602381Y-56578571D01*
X56650000Y-56483333D01*
X56697619Y-56435714D01*
X56792857Y-56388095D01*
X56888095Y-56388095D01*
X56983333Y-56435714D01*
X57030952Y-56483333D01*
X57078571Y-56578571D01*
X57078571Y-56911905D01*
X57602381Y-55388095D02*
X57602381Y-55959524D01*
X57602381Y-55673810D02*
X56602381Y-55673810D01*
X56745238Y-55769048D01*
X56840476Y-55864286D01*
X56888095Y-55959524D01*
X57602381Y-43870428D02*
X57126190Y-44203762D01*
X57602381Y-44441857D02*
X56602381Y-44441857D01*
X56602381Y-44060904D01*
X56650000Y-43965666D01*
X56697619Y-43918047D01*
X56792857Y-43870428D01*
X56935714Y-43870428D01*
X57030952Y-43918047D01*
X57078571Y-43965666D01*
X57126190Y-44060904D01*
X57126190Y-44441857D01*
X56602381Y-43537095D02*
X56602381Y-42870428D01*
X57602381Y-43299000D01*
X57316667Y-42537095D02*
X57316667Y-42060904D01*
X57602381Y-42632333D02*
X56602381Y-42299000D01*
X57602381Y-41965666D01*
X57602381Y-41108523D02*
X57602381Y-41679952D01*
X57602381Y-41394238D02*
X56602381Y-41394238D01*
X56745238Y-41489476D01*
X56840476Y-41584714D01*
X56888095Y-41679952D01*
X56558381Y-50799905D02*
X57367905Y-50799905D01*
X57463143Y-50752286D01*
X57510762Y-50704667D01*
X57558381Y-50609429D01*
X57558381Y-50418952D01*
X57510762Y-50323714D01*
X57463143Y-50276095D01*
X57367905Y-50228476D01*
X56558381Y-50228476D01*
X56986952Y-49609429D02*
X56939333Y-49704667D01*
X56891714Y-49752286D01*
X56796476Y-49799905D01*
X56748857Y-49799905D01*
X56653619Y-49752286D01*
X56606000Y-49704667D01*
X56558381Y-49609429D01*
X56558381Y-49418952D01*
X56606000Y-49323714D01*
X56653619Y-49276095D01*
X56748857Y-49228476D01*
X56796476Y-49228476D01*
X56891714Y-49276095D01*
X56939333Y-49323714D01*
X56986952Y-49418952D01*
X56986952Y-49609429D01*
X57034571Y-49704667D01*
X57082190Y-49752286D01*
X57177429Y-49799905D01*
X57367905Y-49799905D01*
X57463143Y-49752286D01*
X57510762Y-49704667D01*
X57558381Y-49609429D01*
X57558381Y-49418952D01*
X57510762Y-49323714D01*
X57463143Y-49276095D01*
X57367905Y-49228476D01*
X57177429Y-49228476D01*
X57082190Y-49276095D01*
X57034571Y-49323714D01*
X56986952Y-49418952D01*
X33952381Y-50799905D02*
X34761905Y-50799905D01*
X34857143Y-50752286D01*
X34904762Y-50704667D01*
X34952381Y-50609429D01*
X34952381Y-50418952D01*
X34904762Y-50323714D01*
X34857143Y-50276095D01*
X34761905Y-50228476D01*
X33952381Y-50228476D01*
X33952381Y-49847524D02*
X33952381Y-49180857D01*
X34952381Y-49609429D01*
X34996381Y-43870428D02*
X34520190Y-44203762D01*
X34996381Y-44441857D02*
X33996381Y-44441857D01*
X33996381Y-44060904D01*
X34044000Y-43965666D01*
X34091619Y-43918047D01*
X34186857Y-43870428D01*
X34329714Y-43870428D01*
X34424952Y-43918047D01*
X34472571Y-43965666D01*
X34520190Y-44060904D01*
X34520190Y-44441857D01*
X33996381Y-43013285D02*
X33996381Y-43203762D01*
X34044000Y-43299000D01*
X34091619Y-43346619D01*
X34234476Y-43441857D01*
X34424952Y-43489476D01*
X34805905Y-43489476D01*
X34901143Y-43441857D01*
X34948762Y-43394238D01*
X34996381Y-43299000D01*
X34996381Y-43108523D01*
X34948762Y-43013285D01*
X34901143Y-42965666D01*
X34805905Y-42918047D01*
X34567810Y-42918047D01*
X34472571Y-42965666D01*
X34424952Y-43013285D01*
X34377333Y-43108523D01*
X34377333Y-43299000D01*
X34424952Y-43394238D01*
X34472571Y-43441857D01*
X34567810Y-43489476D01*
X34710667Y-42537095D02*
X34710667Y-42060904D01*
X34996381Y-42632333D02*
X33996381Y-42299000D01*
X34996381Y-41965666D01*
X34996381Y-41108523D02*
X34996381Y-41679952D01*
X34996381Y-41394238D02*
X33996381Y-41394238D01*
X34139238Y-41489476D01*
X34234476Y-41584714D01*
X34282095Y-41679952D01*
X34996381Y-58292857D02*
X34520190Y-58626191D01*
X34996381Y-58864286D02*
X33996381Y-58864286D01*
X33996381Y-58483333D01*
X34044000Y-58388095D01*
X34091619Y-58340476D01*
X34186857Y-58292857D01*
X34329714Y-58292857D01*
X34424952Y-58340476D01*
X34472571Y-58388095D01*
X34520190Y-58483333D01*
X34520190Y-58864286D01*
X33996381Y-57435714D02*
X33996381Y-57626191D01*
X34044000Y-57721429D01*
X34091619Y-57769048D01*
X34234476Y-57864286D01*
X34424952Y-57911905D01*
X34805905Y-57911905D01*
X34901143Y-57864286D01*
X34948762Y-57816667D01*
X34996381Y-57721429D01*
X34996381Y-57530952D01*
X34948762Y-57435714D01*
X34901143Y-57388095D01*
X34805905Y-57340476D01*
X34567810Y-57340476D01*
X34472571Y-57388095D01*
X34424952Y-57435714D01*
X34377333Y-57530952D01*
X34377333Y-57721429D01*
X34424952Y-57816667D01*
X34472571Y-57864286D01*
X34567810Y-57911905D01*
X34472571Y-56578571D02*
X34520190Y-56435714D01*
X34567810Y-56388095D01*
X34663048Y-56340476D01*
X34805905Y-56340476D01*
X34901143Y-56388095D01*
X34948762Y-56435714D01*
X34996381Y-56530952D01*
X34996381Y-56911905D01*
X33996381Y-56911905D01*
X33996381Y-56578571D01*
X34044000Y-56483333D01*
X34091619Y-56435714D01*
X34186857Y-56388095D01*
X34282095Y-56388095D01*
X34377333Y-56435714D01*
X34424952Y-56483333D01*
X34472571Y-56578571D01*
X34472571Y-56911905D01*
X34996381Y-55388095D02*
X34996381Y-55959524D01*
X34996381Y-55673810D02*
X33996381Y-55673810D01*
X34139238Y-55769048D01*
X34234476Y-55864286D01*
X34282095Y-55959524D01*
X34996381Y-100964857D02*
X34520190Y-101298191D01*
X34996381Y-101536286D02*
X33996381Y-101536286D01*
X33996381Y-101155333D01*
X34044000Y-101060095D01*
X34091619Y-101012476D01*
X34186857Y-100964857D01*
X34329714Y-100964857D01*
X34424952Y-101012476D01*
X34472571Y-101060095D01*
X34520190Y-101155333D01*
X34520190Y-101536286D01*
X34091619Y-100583905D02*
X34044000Y-100536286D01*
X33996381Y-100441048D01*
X33996381Y-100202952D01*
X34044000Y-100107714D01*
X34091619Y-100060095D01*
X34186857Y-100012476D01*
X34282095Y-100012476D01*
X34424952Y-100060095D01*
X34996381Y-100631524D01*
X34996381Y-100012476D01*
X34472571Y-99250571D02*
X34520190Y-99107714D01*
X34567810Y-99060095D01*
X34663048Y-99012476D01*
X34805905Y-99012476D01*
X34901143Y-99060095D01*
X34948762Y-99107714D01*
X34996381Y-99202952D01*
X34996381Y-99583905D01*
X33996381Y-99583905D01*
X33996381Y-99250571D01*
X34044000Y-99155333D01*
X34091619Y-99107714D01*
X34186857Y-99060095D01*
X34282095Y-99060095D01*
X34377333Y-99107714D01*
X34424952Y-99155333D01*
X34472571Y-99250571D01*
X34472571Y-99583905D01*
X34996381Y-98060095D02*
X34996381Y-98631524D01*
X34996381Y-98345810D02*
X33996381Y-98345810D01*
X34139238Y-98441048D01*
X34234476Y-98536286D01*
X34282095Y-98631524D01*
X34996381Y-86542428D02*
X34520190Y-86875762D01*
X34996381Y-87113857D02*
X33996381Y-87113857D01*
X33996381Y-86732904D01*
X34044000Y-86637666D01*
X34091619Y-86590047D01*
X34186857Y-86542428D01*
X34329714Y-86542428D01*
X34424952Y-86590047D01*
X34472571Y-86637666D01*
X34520190Y-86732904D01*
X34520190Y-87113857D01*
X34091619Y-86161476D02*
X34044000Y-86113857D01*
X33996381Y-86018619D01*
X33996381Y-85780523D01*
X34044000Y-85685285D01*
X34091619Y-85637666D01*
X34186857Y-85590047D01*
X34282095Y-85590047D01*
X34424952Y-85637666D01*
X34996381Y-86209095D01*
X34996381Y-85590047D01*
X34710667Y-85209095D02*
X34710667Y-84732904D01*
X34996381Y-85304333D02*
X33996381Y-84971000D01*
X34996381Y-84637666D01*
X34996381Y-83780523D02*
X34996381Y-84351952D01*
X34996381Y-84066238D02*
X33996381Y-84066238D01*
X34139238Y-84161476D01*
X34234476Y-84256714D01*
X34282095Y-84351952D01*
X33952381Y-93471905D02*
X34761905Y-93471905D01*
X34857143Y-93424286D01*
X34904762Y-93376667D01*
X34952381Y-93281429D01*
X34952381Y-93090952D01*
X34904762Y-92995714D01*
X34857143Y-92948095D01*
X34761905Y-92900476D01*
X33952381Y-92900476D01*
X33952381Y-92519524D02*
X33952381Y-91900476D01*
X34333333Y-92233810D01*
X34333333Y-92090952D01*
X34380952Y-91995714D01*
X34428571Y-91948095D01*
X34523810Y-91900476D01*
X34761905Y-91900476D01*
X34857143Y-91948095D01*
X34904762Y-91995714D01*
X34952381Y-92090952D01*
X34952381Y-92376667D01*
X34904762Y-92471905D01*
X34857143Y-92519524D01*
X56558381Y-93471905D02*
X57367905Y-93471905D01*
X57463143Y-93424286D01*
X57510762Y-93376667D01*
X57558381Y-93281429D01*
X57558381Y-93090952D01*
X57510762Y-92995714D01*
X57463143Y-92948095D01*
X57367905Y-92900476D01*
X56558381Y-92900476D01*
X56891714Y-91995714D02*
X57558381Y-91995714D01*
X56510762Y-92233810D02*
X57225048Y-92471905D01*
X57225048Y-91852857D01*
X57602381Y-86542428D02*
X57126190Y-86875762D01*
X57602381Y-87113857D02*
X56602381Y-87113857D01*
X56602381Y-86732904D01*
X56650000Y-86637666D01*
X56697619Y-86590047D01*
X56792857Y-86542428D01*
X56935714Y-86542428D01*
X57030952Y-86590047D01*
X57078571Y-86637666D01*
X57126190Y-86732904D01*
X57126190Y-87113857D01*
X56602381Y-86209095D02*
X56602381Y-85590047D01*
X56983333Y-85923381D01*
X56983333Y-85780523D01*
X57030952Y-85685285D01*
X57078571Y-85637666D01*
X57173810Y-85590047D01*
X57411905Y-85590047D01*
X57507143Y-85637666D01*
X57554762Y-85685285D01*
X57602381Y-85780523D01*
X57602381Y-86066238D01*
X57554762Y-86161476D01*
X57507143Y-86209095D01*
X57316667Y-85209095D02*
X57316667Y-84732904D01*
X57602381Y-85304333D02*
X56602381Y-84971000D01*
X57602381Y-84637666D01*
X57602381Y-83780523D02*
X57602381Y-84351952D01*
X57602381Y-84066238D02*
X56602381Y-84066238D01*
X56745238Y-84161476D01*
X56840476Y-84256714D01*
X56888095Y-84351952D01*
X57602381Y-100964857D02*
X57126190Y-101298191D01*
X57602381Y-101536286D02*
X56602381Y-101536286D01*
X56602381Y-101155333D01*
X56650000Y-101060095D01*
X56697619Y-101012476D01*
X56792857Y-100964857D01*
X56935714Y-100964857D01*
X57030952Y-101012476D01*
X57078571Y-101060095D01*
X57126190Y-101155333D01*
X57126190Y-101536286D01*
X56602381Y-100631524D02*
X56602381Y-100012476D01*
X56983333Y-100345810D01*
X56983333Y-100202952D01*
X57030952Y-100107714D01*
X57078571Y-100060095D01*
X57173810Y-100012476D01*
X57411905Y-100012476D01*
X57507143Y-100060095D01*
X57554762Y-100107714D01*
X57602381Y-100202952D01*
X57602381Y-100488667D01*
X57554762Y-100583905D01*
X57507143Y-100631524D01*
X57078571Y-99250571D02*
X57126190Y-99107714D01*
X57173810Y-99060095D01*
X57269048Y-99012476D01*
X57411905Y-99012476D01*
X57507143Y-99060095D01*
X57554762Y-99107714D01*
X57602381Y-99202952D01*
X57602381Y-99583905D01*
X56602381Y-99583905D01*
X56602381Y-99250571D01*
X56650000Y-99155333D01*
X56697619Y-99107714D01*
X56792857Y-99060095D01*
X56888095Y-99060095D01*
X56983333Y-99107714D01*
X57030952Y-99155333D01*
X57078571Y-99250571D01*
X57078571Y-99583905D01*
X57602381Y-98060095D02*
X57602381Y-98631524D01*
X57602381Y-98345810D02*
X56602381Y-98345810D01*
X56745238Y-98441048D01*
X56840476Y-98536286D01*
X56888095Y-98631524D01*
X57602381Y-122300857D02*
X57126190Y-122634191D01*
X57602381Y-122872286D02*
X56602381Y-122872286D01*
X56602381Y-122491333D01*
X56650000Y-122396095D01*
X56697619Y-122348476D01*
X56792857Y-122300857D01*
X56935714Y-122300857D01*
X57030952Y-122348476D01*
X57078571Y-122396095D01*
X57126190Y-122491333D01*
X57126190Y-122872286D01*
X57602381Y-121348476D02*
X57602381Y-121919905D01*
X57602381Y-121634191D02*
X56602381Y-121634191D01*
X56745238Y-121729429D01*
X56840476Y-121824667D01*
X56888095Y-121919905D01*
X57078571Y-120586571D02*
X57126190Y-120443714D01*
X57173810Y-120396095D01*
X57269048Y-120348476D01*
X57411905Y-120348476D01*
X57507143Y-120396095D01*
X57554762Y-120443714D01*
X57602381Y-120538952D01*
X57602381Y-120919905D01*
X56602381Y-120919905D01*
X56602381Y-120586571D01*
X56650000Y-120491333D01*
X56697619Y-120443714D01*
X56792857Y-120396095D01*
X56888095Y-120396095D01*
X56983333Y-120443714D01*
X57030952Y-120491333D01*
X57078571Y-120586571D01*
X57078571Y-120919905D01*
X57602381Y-119396095D02*
X57602381Y-119967524D01*
X57602381Y-119681810D02*
X56602381Y-119681810D01*
X56745238Y-119777048D01*
X56840476Y-119872286D01*
X56888095Y-119967524D01*
X57602381Y-107878428D02*
X57126190Y-108211762D01*
X57602381Y-108449857D02*
X56602381Y-108449857D01*
X56602381Y-108068904D01*
X56650000Y-107973666D01*
X56697619Y-107926047D01*
X56792857Y-107878428D01*
X56935714Y-107878428D01*
X57030952Y-107926047D01*
X57078571Y-107973666D01*
X57126190Y-108068904D01*
X57126190Y-108449857D01*
X57602381Y-106926047D02*
X57602381Y-107497476D01*
X57602381Y-107211762D02*
X56602381Y-107211762D01*
X56745238Y-107307000D01*
X56840476Y-107402238D01*
X56888095Y-107497476D01*
X57316667Y-106545095D02*
X57316667Y-106068904D01*
X57602381Y-106640333D02*
X56602381Y-106307000D01*
X57602381Y-105973666D01*
X57602381Y-105116523D02*
X57602381Y-105687952D01*
X57602381Y-105402238D02*
X56602381Y-105402238D01*
X56745238Y-105497476D01*
X56840476Y-105592714D01*
X56888095Y-105687952D01*
X56558381Y-114807905D02*
X57367905Y-114807905D01*
X57463143Y-114760286D01*
X57510762Y-114712667D01*
X57558381Y-114617429D01*
X57558381Y-114426952D01*
X57510762Y-114331714D01*
X57463143Y-114284095D01*
X57367905Y-114236476D01*
X56558381Y-114236476D01*
X56653619Y-113807905D02*
X56606000Y-113760286D01*
X56558381Y-113665048D01*
X56558381Y-113426952D01*
X56606000Y-113331714D01*
X56653619Y-113284095D01*
X56748857Y-113236476D01*
X56844095Y-113236476D01*
X56986952Y-113284095D01*
X57558381Y-113855524D01*
X57558381Y-113236476D01*
X31289667Y-96226381D02*
X31289667Y-96940667D01*
X31242047Y-97083524D01*
X31146809Y-97178762D01*
X31003952Y-97226381D01*
X30908714Y-97226381D01*
X32289667Y-97226381D02*
X31718238Y-97226381D01*
X32003952Y-97226381D02*
X32003952Y-96226381D01*
X31908714Y-96369238D01*
X31813476Y-96464476D01*
X31718238Y-96512095D01*
X33952381Y-114807905D02*
X34761905Y-114807905D01*
X34857143Y-114760286D01*
X34904762Y-114712667D01*
X34952381Y-114617429D01*
X34952381Y-114426952D01*
X34904762Y-114331714D01*
X34857143Y-114284095D01*
X34761905Y-114236476D01*
X33952381Y-114236476D01*
X34952381Y-113236476D02*
X34952381Y-113807905D01*
X34952381Y-113522191D02*
X33952381Y-113522191D01*
X34095238Y-113617429D01*
X34190476Y-113712667D01*
X34238095Y-113807905D01*
X34996381Y-107878428D02*
X34520190Y-108211762D01*
X34996381Y-108449857D02*
X33996381Y-108449857D01*
X33996381Y-108068904D01*
X34044000Y-107973666D01*
X34091619Y-107926047D01*
X34186857Y-107878428D01*
X34329714Y-107878428D01*
X34424952Y-107926047D01*
X34472571Y-107973666D01*
X34520190Y-108068904D01*
X34520190Y-108449857D01*
X33996381Y-107259381D02*
X33996381Y-107164142D01*
X34044000Y-107068904D01*
X34091619Y-107021285D01*
X34186857Y-106973666D01*
X34377333Y-106926047D01*
X34615429Y-106926047D01*
X34805905Y-106973666D01*
X34901143Y-107021285D01*
X34948762Y-107068904D01*
X34996381Y-107164142D01*
X34996381Y-107259381D01*
X34948762Y-107354619D01*
X34901143Y-107402238D01*
X34805905Y-107449857D01*
X34615429Y-107497476D01*
X34377333Y-107497476D01*
X34186857Y-107449857D01*
X34091619Y-107402238D01*
X34044000Y-107354619D01*
X33996381Y-107259381D01*
X34710667Y-106545095D02*
X34710667Y-106068904D01*
X34996381Y-106640333D02*
X33996381Y-106307000D01*
X34996381Y-105973666D01*
X34996381Y-105116523D02*
X34996381Y-105687952D01*
X34996381Y-105402238D02*
X33996381Y-105402238D01*
X34139238Y-105497476D01*
X34234476Y-105592714D01*
X34282095Y-105687952D01*
X34996381Y-122300857D02*
X34520190Y-122634191D01*
X34996381Y-122872286D02*
X33996381Y-122872286D01*
X33996381Y-122491333D01*
X34044000Y-122396095D01*
X34091619Y-122348476D01*
X34186857Y-122300857D01*
X34329714Y-122300857D01*
X34424952Y-122348476D01*
X34472571Y-122396095D01*
X34520190Y-122491333D01*
X34520190Y-122872286D01*
X33996381Y-121681810D02*
X33996381Y-121586571D01*
X34044000Y-121491333D01*
X34091619Y-121443714D01*
X34186857Y-121396095D01*
X34377333Y-121348476D01*
X34615429Y-121348476D01*
X34805905Y-121396095D01*
X34901143Y-121443714D01*
X34948762Y-121491333D01*
X34996381Y-121586571D01*
X34996381Y-121681810D01*
X34948762Y-121777048D01*
X34901143Y-121824667D01*
X34805905Y-121872286D01*
X34615429Y-121919905D01*
X34377333Y-121919905D01*
X34186857Y-121872286D01*
X34091619Y-121824667D01*
X34044000Y-121777048D01*
X33996381Y-121681810D01*
X34472571Y-120586571D02*
X34520190Y-120443714D01*
X34567810Y-120396095D01*
X34663048Y-120348476D01*
X34805905Y-120348476D01*
X34901143Y-120396095D01*
X34948762Y-120443714D01*
X34996381Y-120538952D01*
X34996381Y-120919905D01*
X33996381Y-120919905D01*
X33996381Y-120586571D01*
X34044000Y-120491333D01*
X34091619Y-120443714D01*
X34186857Y-120396095D01*
X34282095Y-120396095D01*
X34377333Y-120443714D01*
X34424952Y-120491333D01*
X34472571Y-120586571D01*
X34472571Y-120919905D01*
X34996381Y-119396095D02*
X34996381Y-119967524D01*
X34996381Y-119681810D02*
X33996381Y-119681810D01*
X34139238Y-119777048D01*
X34234476Y-119872286D01*
X34282095Y-119967524D01*
X32305667Y-72477381D02*
X32305667Y-73191667D01*
X32258047Y-73334524D01*
X32162809Y-73429762D01*
X32019952Y-73477381D01*
X31924714Y-73477381D01*
X32734238Y-72572619D02*
X32781857Y-72525000D01*
X32877095Y-72477381D01*
X33115191Y-72477381D01*
X33210429Y-72525000D01*
X33258048Y-72572619D01*
X33305667Y-72667857D01*
X33305667Y-72763095D01*
X33258048Y-72905952D01*
X32686619Y-73477381D01*
X33305667Y-73477381D01*
M02*
