G04 #@! TF.FileFunction,Soldermask,Top*
%FSLAX46Y46*%
G04 Gerber Fmt 4.6, Leading zero omitted, Abs format (unit mm)*
G04 Created by KiCad (PCBNEW 4.0.7) date 05/24/18 14:20:47*
%MOMM*%
%LPD*%
G01*
G04 APERTURE LIST*
%ADD10C,0.100000*%
%ADD11R,1.801600X1.801600*%
%ADD12O,1.801600X1.801600*%
%ADD13R,1.701600X1.701600*%
%ADD14O,1.701600X1.701600*%
%ADD15C,3.301600*%
G04 APERTURE END LIST*
D10*
D11*
X37084000Y-66421000D03*
D12*
X39624000Y-66421000D03*
X42164000Y-66421000D03*
X44704000Y-66421000D03*
D11*
X37084000Y-52070000D03*
D12*
X39624000Y-52070000D03*
X42164000Y-52070000D03*
X44704000Y-52070000D03*
D13*
X36830000Y-63119000D03*
D14*
X54610000Y-55499000D03*
X39370000Y-63119000D03*
X52070000Y-55499000D03*
X41910000Y-63119000D03*
X49530000Y-55499000D03*
X44450000Y-63119000D03*
X46990000Y-55499000D03*
X46990000Y-63119000D03*
X44450000Y-55499000D03*
X49530000Y-63119000D03*
X41910000Y-55499000D03*
X52070000Y-63119000D03*
X39370000Y-55499000D03*
X54610000Y-63119000D03*
X36830000Y-55499000D03*
D13*
X59436000Y-62992000D03*
D14*
X77216000Y-55372000D03*
X61976000Y-62992000D03*
X74676000Y-55372000D03*
X64516000Y-62992000D03*
X72136000Y-55372000D03*
X67056000Y-62992000D03*
X69596000Y-55372000D03*
X69596000Y-62992000D03*
X67056000Y-55372000D03*
X72136000Y-62992000D03*
X64516000Y-55372000D03*
X74676000Y-62992000D03*
X61976000Y-55372000D03*
X77216000Y-62992000D03*
X59436000Y-55372000D03*
D11*
X59690000Y-51943000D03*
D12*
X62230000Y-51943000D03*
X64770000Y-51943000D03*
X67310000Y-51943000D03*
D11*
X59690000Y-66294000D03*
D12*
X62230000Y-66294000D03*
X64770000Y-66294000D03*
X67310000Y-66294000D03*
D11*
X37084000Y-84582000D03*
D12*
X39624000Y-84582000D03*
X42164000Y-84582000D03*
X44704000Y-84582000D03*
D11*
X37084000Y-70231000D03*
D12*
X39624000Y-70231000D03*
X42164000Y-70231000D03*
X44704000Y-70231000D03*
D13*
X36830000Y-81280000D03*
D14*
X54610000Y-73660000D03*
X39370000Y-81280000D03*
X52070000Y-73660000D03*
X41910000Y-81280000D03*
X49530000Y-73660000D03*
X44450000Y-81280000D03*
X46990000Y-73660000D03*
X46990000Y-81280000D03*
X44450000Y-73660000D03*
X49530000Y-81280000D03*
X41910000Y-73660000D03*
X52070000Y-81280000D03*
X39370000Y-73660000D03*
X54610000Y-81280000D03*
X36830000Y-73660000D03*
D13*
X59436000Y-81153000D03*
D14*
X77216000Y-73533000D03*
X61976000Y-81153000D03*
X74676000Y-73533000D03*
X64516000Y-81153000D03*
X72136000Y-73533000D03*
X67056000Y-81153000D03*
X69596000Y-73533000D03*
X69596000Y-81153000D03*
X67056000Y-73533000D03*
X72136000Y-81153000D03*
X64516000Y-73533000D03*
X74676000Y-81153000D03*
X61976000Y-73533000D03*
X77216000Y-81153000D03*
X59436000Y-73533000D03*
D11*
X59690000Y-70104000D03*
D12*
X62230000Y-70104000D03*
X64770000Y-70104000D03*
X67310000Y-70104000D03*
D11*
X59690000Y-84455000D03*
D12*
X62230000Y-84455000D03*
X64770000Y-84455000D03*
X67310000Y-84455000D03*
D11*
X37084000Y-102870000D03*
D12*
X39624000Y-102870000D03*
X42164000Y-102870000D03*
X44704000Y-102870000D03*
D11*
X37084000Y-88519000D03*
D12*
X39624000Y-88519000D03*
X42164000Y-88519000D03*
X44704000Y-88519000D03*
D13*
X36830000Y-99568000D03*
D14*
X54610000Y-91948000D03*
X39370000Y-99568000D03*
X52070000Y-91948000D03*
X41910000Y-99568000D03*
X49530000Y-91948000D03*
X44450000Y-99568000D03*
X46990000Y-91948000D03*
X46990000Y-99568000D03*
X44450000Y-91948000D03*
X49530000Y-99568000D03*
X41910000Y-91948000D03*
X52070000Y-99568000D03*
X39370000Y-91948000D03*
X54610000Y-99568000D03*
X36830000Y-91948000D03*
D13*
X59436000Y-99441000D03*
D14*
X77216000Y-91821000D03*
X61976000Y-99441000D03*
X74676000Y-91821000D03*
X64516000Y-99441000D03*
X72136000Y-91821000D03*
X67056000Y-99441000D03*
X69596000Y-91821000D03*
X69596000Y-99441000D03*
X67056000Y-91821000D03*
X72136000Y-99441000D03*
X64516000Y-91821000D03*
X74676000Y-99441000D03*
X61976000Y-91821000D03*
X77216000Y-99441000D03*
X59436000Y-91821000D03*
D11*
X59690000Y-88392000D03*
D12*
X62230000Y-88392000D03*
X64770000Y-88392000D03*
X67310000Y-88392000D03*
D11*
X59690000Y-102743000D03*
D12*
X62230000Y-102743000D03*
X64770000Y-102743000D03*
X67310000Y-102743000D03*
D11*
X59690000Y-121031000D03*
D12*
X62230000Y-121031000D03*
X64770000Y-121031000D03*
X67310000Y-121031000D03*
D11*
X59690000Y-106680000D03*
D12*
X62230000Y-106680000D03*
X64770000Y-106680000D03*
X67310000Y-106680000D03*
D13*
X59436000Y-117729000D03*
D14*
X77216000Y-110109000D03*
X61976000Y-117729000D03*
X74676000Y-110109000D03*
X64516000Y-117729000D03*
X72136000Y-110109000D03*
X67056000Y-117729000D03*
X69596000Y-110109000D03*
X69596000Y-117729000D03*
X67056000Y-110109000D03*
X72136000Y-117729000D03*
X64516000Y-110109000D03*
X74676000Y-117729000D03*
X61976000Y-110109000D03*
X77216000Y-117729000D03*
X59436000Y-110109000D03*
D13*
X36830000Y-117856000D03*
D14*
X54610000Y-110236000D03*
X39370000Y-117856000D03*
X52070000Y-110236000D03*
X41910000Y-117856000D03*
X49530000Y-110236000D03*
X44450000Y-117856000D03*
X46990000Y-110236000D03*
X46990000Y-117856000D03*
X44450000Y-110236000D03*
X49530000Y-117856000D03*
X41910000Y-110236000D03*
X52070000Y-117856000D03*
X39370000Y-110236000D03*
X54610000Y-117856000D03*
X36830000Y-110236000D03*
D11*
X28448000Y-129286000D03*
D12*
X28448000Y-126746000D03*
X28448000Y-124206000D03*
X28448000Y-121666000D03*
X28448000Y-119126000D03*
X28448000Y-116586000D03*
X28448000Y-114046000D03*
X28448000Y-111506000D03*
X28448000Y-108966000D03*
X28448000Y-106426000D03*
X28448000Y-103886000D03*
X28448000Y-101346000D03*
X28448000Y-98806000D03*
D11*
X37084000Y-106807000D03*
D12*
X39624000Y-106807000D03*
X42164000Y-106807000D03*
X44704000Y-106807000D03*
D11*
X37084000Y-121158000D03*
D12*
X39624000Y-121158000D03*
X42164000Y-121158000D03*
X44704000Y-121158000D03*
D11*
X27305000Y-74930000D03*
D12*
X29845000Y-74930000D03*
X27305000Y-77470000D03*
X29845000Y-77470000D03*
X27305000Y-80010000D03*
X29845000Y-80010000D03*
X27305000Y-82550000D03*
X29845000Y-82550000D03*
X27305000Y-85090000D03*
X29845000Y-85090000D03*
X27305000Y-87630000D03*
X29845000Y-87630000D03*
X27305000Y-90170000D03*
X29845000Y-90170000D03*
X27305000Y-92710000D03*
X29845000Y-92710000D03*
D15*
X28321000Y-134493000D03*
X80772000Y-134493000D03*
X28321000Y-49911000D03*
X80772000Y-49911000D03*
M02*
