G04 #@! TF.FileFunction,Copper,L1,Top,Signal*
%FSLAX46Y46*%
G04 Gerber Fmt 4.6, Leading zero omitted, Abs format (unit mm)*
G04 Created by KiCad (PCBNEW 4.0.7) date 05/24/18 14:20:47*
%MOMM*%
%LPD*%
G01*
G04 APERTURE LIST*
%ADD10C,0.100000*%
%ADD11R,1.700000X1.700000*%
%ADD12O,1.700000X1.700000*%
%ADD13R,1.600000X1.600000*%
%ADD14O,1.600000X1.600000*%
%ADD15C,0.685800*%
%ADD16C,0.254000*%
%ADD17C,0.203200*%
%ADD18C,1.270000*%
G04 APERTURE END LIST*
D10*
D11*
X37084000Y-66421000D03*
D12*
X39624000Y-66421000D03*
X42164000Y-66421000D03*
X44704000Y-66421000D03*
D11*
X37084000Y-52070000D03*
D12*
X39624000Y-52070000D03*
X42164000Y-52070000D03*
X44704000Y-52070000D03*
D13*
X36830000Y-63119000D03*
D14*
X54610000Y-55499000D03*
X39370000Y-63119000D03*
X52070000Y-55499000D03*
X41910000Y-63119000D03*
X49530000Y-55499000D03*
X44450000Y-63119000D03*
X46990000Y-55499000D03*
X46990000Y-63119000D03*
X44450000Y-55499000D03*
X49530000Y-63119000D03*
X41910000Y-55499000D03*
X52070000Y-63119000D03*
X39370000Y-55499000D03*
X54610000Y-63119000D03*
X36830000Y-55499000D03*
D13*
X59436000Y-62992000D03*
D14*
X77216000Y-55372000D03*
X61976000Y-62992000D03*
X74676000Y-55372000D03*
X64516000Y-62992000D03*
X72136000Y-55372000D03*
X67056000Y-62992000D03*
X69596000Y-55372000D03*
X69596000Y-62992000D03*
X67056000Y-55372000D03*
X72136000Y-62992000D03*
X64516000Y-55372000D03*
X74676000Y-62992000D03*
X61976000Y-55372000D03*
X77216000Y-62992000D03*
X59436000Y-55372000D03*
D11*
X59690000Y-51943000D03*
D12*
X62230000Y-51943000D03*
X64770000Y-51943000D03*
X67310000Y-51943000D03*
D11*
X59690000Y-66294000D03*
D12*
X62230000Y-66294000D03*
X64770000Y-66294000D03*
X67310000Y-66294000D03*
D11*
X37084000Y-84582000D03*
D12*
X39624000Y-84582000D03*
X42164000Y-84582000D03*
X44704000Y-84582000D03*
D11*
X37084000Y-70231000D03*
D12*
X39624000Y-70231000D03*
X42164000Y-70231000D03*
X44704000Y-70231000D03*
D13*
X36830000Y-81280000D03*
D14*
X54610000Y-73660000D03*
X39370000Y-81280000D03*
X52070000Y-73660000D03*
X41910000Y-81280000D03*
X49530000Y-73660000D03*
X44450000Y-81280000D03*
X46990000Y-73660000D03*
X46990000Y-81280000D03*
X44450000Y-73660000D03*
X49530000Y-81280000D03*
X41910000Y-73660000D03*
X52070000Y-81280000D03*
X39370000Y-73660000D03*
X54610000Y-81280000D03*
X36830000Y-73660000D03*
D13*
X59436000Y-81153000D03*
D14*
X77216000Y-73533000D03*
X61976000Y-81153000D03*
X74676000Y-73533000D03*
X64516000Y-81153000D03*
X72136000Y-73533000D03*
X67056000Y-81153000D03*
X69596000Y-73533000D03*
X69596000Y-81153000D03*
X67056000Y-73533000D03*
X72136000Y-81153000D03*
X64516000Y-73533000D03*
X74676000Y-81153000D03*
X61976000Y-73533000D03*
X77216000Y-81153000D03*
X59436000Y-73533000D03*
D11*
X59690000Y-70104000D03*
D12*
X62230000Y-70104000D03*
X64770000Y-70104000D03*
X67310000Y-70104000D03*
D11*
X59690000Y-84455000D03*
D12*
X62230000Y-84455000D03*
X64770000Y-84455000D03*
X67310000Y-84455000D03*
D11*
X37084000Y-102870000D03*
D12*
X39624000Y-102870000D03*
X42164000Y-102870000D03*
X44704000Y-102870000D03*
D11*
X37084000Y-88519000D03*
D12*
X39624000Y-88519000D03*
X42164000Y-88519000D03*
X44704000Y-88519000D03*
D13*
X36830000Y-99568000D03*
D14*
X54610000Y-91948000D03*
X39370000Y-99568000D03*
X52070000Y-91948000D03*
X41910000Y-99568000D03*
X49530000Y-91948000D03*
X44450000Y-99568000D03*
X46990000Y-91948000D03*
X46990000Y-99568000D03*
X44450000Y-91948000D03*
X49530000Y-99568000D03*
X41910000Y-91948000D03*
X52070000Y-99568000D03*
X39370000Y-91948000D03*
X54610000Y-99568000D03*
X36830000Y-91948000D03*
D13*
X59436000Y-99441000D03*
D14*
X77216000Y-91821000D03*
X61976000Y-99441000D03*
X74676000Y-91821000D03*
X64516000Y-99441000D03*
X72136000Y-91821000D03*
X67056000Y-99441000D03*
X69596000Y-91821000D03*
X69596000Y-99441000D03*
X67056000Y-91821000D03*
X72136000Y-99441000D03*
X64516000Y-91821000D03*
X74676000Y-99441000D03*
X61976000Y-91821000D03*
X77216000Y-99441000D03*
X59436000Y-91821000D03*
D11*
X59690000Y-88392000D03*
D12*
X62230000Y-88392000D03*
X64770000Y-88392000D03*
X67310000Y-88392000D03*
D11*
X59690000Y-102743000D03*
D12*
X62230000Y-102743000D03*
X64770000Y-102743000D03*
X67310000Y-102743000D03*
D11*
X59690000Y-121031000D03*
D12*
X62230000Y-121031000D03*
X64770000Y-121031000D03*
X67310000Y-121031000D03*
D11*
X59690000Y-106680000D03*
D12*
X62230000Y-106680000D03*
X64770000Y-106680000D03*
X67310000Y-106680000D03*
D13*
X59436000Y-117729000D03*
D14*
X77216000Y-110109000D03*
X61976000Y-117729000D03*
X74676000Y-110109000D03*
X64516000Y-117729000D03*
X72136000Y-110109000D03*
X67056000Y-117729000D03*
X69596000Y-110109000D03*
X69596000Y-117729000D03*
X67056000Y-110109000D03*
X72136000Y-117729000D03*
X64516000Y-110109000D03*
X74676000Y-117729000D03*
X61976000Y-110109000D03*
X77216000Y-117729000D03*
X59436000Y-110109000D03*
D13*
X36830000Y-117856000D03*
D14*
X54610000Y-110236000D03*
X39370000Y-117856000D03*
X52070000Y-110236000D03*
X41910000Y-117856000D03*
X49530000Y-110236000D03*
X44450000Y-117856000D03*
X46990000Y-110236000D03*
X46990000Y-117856000D03*
X44450000Y-110236000D03*
X49530000Y-117856000D03*
X41910000Y-110236000D03*
X52070000Y-117856000D03*
X39370000Y-110236000D03*
X54610000Y-117856000D03*
X36830000Y-110236000D03*
D11*
X28448000Y-129286000D03*
D12*
X28448000Y-126746000D03*
X28448000Y-124206000D03*
X28448000Y-121666000D03*
X28448000Y-119126000D03*
X28448000Y-116586000D03*
X28448000Y-114046000D03*
X28448000Y-111506000D03*
X28448000Y-108966000D03*
X28448000Y-106426000D03*
X28448000Y-103886000D03*
X28448000Y-101346000D03*
X28448000Y-98806000D03*
D11*
X37084000Y-106807000D03*
D12*
X39624000Y-106807000D03*
X42164000Y-106807000D03*
X44704000Y-106807000D03*
D11*
X37084000Y-121158000D03*
D12*
X39624000Y-121158000D03*
X42164000Y-121158000D03*
X44704000Y-121158000D03*
D11*
X27305000Y-74930000D03*
D12*
X29845000Y-74930000D03*
X27305000Y-77470000D03*
X29845000Y-77470000D03*
X27305000Y-80010000D03*
X29845000Y-80010000D03*
X27305000Y-82550000D03*
X29845000Y-82550000D03*
X27305000Y-85090000D03*
X29845000Y-85090000D03*
X27305000Y-87630000D03*
X29845000Y-87630000D03*
X27305000Y-90170000D03*
X29845000Y-90170000D03*
X27305000Y-92710000D03*
X29845000Y-92710000D03*
D15*
X50800000Y-124206000D03*
X53340000Y-126746000D03*
X55880000Y-129286000D03*
X56896000Y-58928000D03*
D16*
X50800000Y-91948000D02*
X49530000Y-91948000D01*
X50800000Y-73660000D02*
X49530000Y-73660000D01*
X50800000Y-110236000D02*
X49530000Y-110236000D01*
X50800000Y-124206000D02*
X50800000Y-110236000D01*
X50800000Y-110236000D02*
X50800000Y-91948000D01*
X50800000Y-91948000D02*
X50800000Y-73660000D01*
X50800000Y-73660000D02*
X50800000Y-55499000D01*
X50800000Y-55499000D02*
X49530000Y-55499000D01*
X53340000Y-91948000D02*
X52070000Y-91948000D01*
X53340000Y-73660000D02*
X52070000Y-73660000D01*
X53340000Y-110236000D02*
X52070000Y-110236000D01*
X53340000Y-126746000D02*
X53340000Y-110236000D01*
X53340000Y-110236000D02*
X53340000Y-91948000D01*
X53340000Y-91948000D02*
X53340000Y-73660000D01*
X53340000Y-73660000D02*
X53340000Y-55499000D01*
X53340000Y-55499000D02*
X52070000Y-55499000D01*
X55880000Y-91948000D02*
X54610000Y-91948000D01*
X55880000Y-73660000D02*
X54610000Y-73660000D01*
X55880000Y-110236000D02*
X54610000Y-110236000D01*
X55880000Y-129286000D02*
X55880000Y-110236000D01*
X55880000Y-110236000D02*
X55880000Y-91948000D01*
X55880000Y-91948000D02*
X55880000Y-73660000D01*
X55880000Y-73660000D02*
X55880000Y-55499000D01*
X55880000Y-55499000D02*
X54610000Y-55499000D01*
X39370000Y-110236000D02*
X39370000Y-109601000D01*
X39370000Y-109601000D02*
X42164000Y-106807000D01*
D17*
X39370000Y-109601000D02*
X42164000Y-106807000D01*
D16*
X46990000Y-117856000D02*
X45212000Y-119634000D01*
X45212000Y-119634000D02*
X40005000Y-119634000D01*
X40005000Y-119634000D02*
X39624000Y-120015000D01*
X39624000Y-120015000D02*
X39624000Y-121158000D01*
D17*
X39624000Y-121158000D02*
X39624000Y-120015000D01*
X40005000Y-119634000D02*
X45212000Y-119634000D01*
X39624000Y-120015000D02*
X40005000Y-119634000D01*
X61976000Y-109474000D02*
X64770000Y-106680000D01*
D16*
X61976000Y-109474000D02*
X64770000Y-106680000D01*
X61976000Y-110109000D02*
X61976000Y-109474000D01*
D17*
X62230000Y-119888000D02*
X62611000Y-119507000D01*
X62611000Y-119507000D02*
X67818000Y-119507000D01*
X62230000Y-121031000D02*
X62230000Y-119888000D01*
D16*
X62230000Y-119888000D02*
X62230000Y-121031000D01*
X62611000Y-119507000D02*
X62230000Y-119888000D01*
X67818000Y-119507000D02*
X62611000Y-119507000D01*
X69596000Y-117729000D02*
X67818000Y-119507000D01*
D17*
X39370000Y-91313000D02*
X42164000Y-88519000D01*
D16*
X39370000Y-91313000D02*
X42164000Y-88519000D01*
X39370000Y-91948000D02*
X39370000Y-91313000D01*
D17*
X39624000Y-101727000D02*
X40005000Y-101346000D01*
X40005000Y-101346000D02*
X45212000Y-101346000D01*
X39624000Y-102870000D02*
X39624000Y-101727000D01*
D16*
X39624000Y-101727000D02*
X39624000Y-102870000D01*
X40005000Y-101346000D02*
X39624000Y-101727000D01*
X45212000Y-101346000D02*
X40005000Y-101346000D01*
X46990000Y-99568000D02*
X45212000Y-101346000D01*
X61976000Y-91821000D02*
X61976000Y-91186000D01*
X61976000Y-91186000D02*
X64770000Y-88392000D01*
D17*
X61976000Y-91186000D02*
X64770000Y-88392000D01*
D16*
X69596000Y-99441000D02*
X67818000Y-101219000D01*
X67818000Y-101219000D02*
X62611000Y-101219000D01*
X62611000Y-101219000D02*
X62230000Y-101600000D01*
X62230000Y-101600000D02*
X62230000Y-102743000D01*
D17*
X62230000Y-102743000D02*
X62230000Y-101600000D01*
X62611000Y-101219000D02*
X67818000Y-101219000D01*
X62230000Y-101600000D02*
X62611000Y-101219000D01*
X39370000Y-73025000D02*
X42164000Y-70231000D01*
D16*
X39370000Y-73025000D02*
X42164000Y-70231000D01*
X39370000Y-73660000D02*
X39370000Y-73025000D01*
D17*
X39624000Y-83439000D02*
X40005000Y-83058000D01*
X40005000Y-83058000D02*
X45212000Y-83058000D01*
X39624000Y-84582000D02*
X39624000Y-83439000D01*
D16*
X39624000Y-83439000D02*
X39624000Y-84582000D01*
X40005000Y-83058000D02*
X39624000Y-83439000D01*
X45212000Y-83058000D02*
X40005000Y-83058000D01*
X46990000Y-81280000D02*
X45212000Y-83058000D01*
X61976000Y-73533000D02*
X61976000Y-72898000D01*
X61976000Y-72898000D02*
X64770000Y-70104000D01*
D17*
X61976000Y-72898000D02*
X64770000Y-70104000D01*
D16*
X69596000Y-81153000D02*
X67818000Y-82931000D01*
X67818000Y-82931000D02*
X62611000Y-82931000D01*
X62611000Y-82931000D02*
X62230000Y-83312000D01*
X62230000Y-83312000D02*
X62230000Y-84455000D01*
D17*
X62230000Y-84455000D02*
X62230000Y-83312000D01*
X62611000Y-82931000D02*
X67818000Y-82931000D01*
X62230000Y-83312000D02*
X62611000Y-82931000D01*
X39370000Y-54864000D02*
X42164000Y-52070000D01*
D16*
X39370000Y-54864000D02*
X42164000Y-52070000D01*
X39370000Y-55499000D02*
X39370000Y-54864000D01*
D17*
X39624000Y-65278000D02*
X40005000Y-64897000D01*
X40005000Y-64897000D02*
X45212000Y-64897000D01*
X39624000Y-66421000D02*
X39624000Y-65278000D01*
D16*
X39624000Y-65278000D02*
X39624000Y-66421000D01*
X40005000Y-64897000D02*
X39624000Y-65278000D01*
X45212000Y-64897000D02*
X40005000Y-64897000D01*
X46990000Y-63119000D02*
X45212000Y-64897000D01*
X61976000Y-55372000D02*
X61976000Y-54737000D01*
X61976000Y-54737000D02*
X64770000Y-51943000D01*
D17*
X61976000Y-54737000D02*
X64770000Y-51943000D01*
D16*
X69596000Y-62992000D02*
X67818000Y-64770000D01*
X67818000Y-64770000D02*
X62611000Y-64770000D01*
X62611000Y-64770000D02*
X62230000Y-65151000D01*
X62230000Y-65151000D02*
X62230000Y-66294000D01*
D17*
X62230000Y-66294000D02*
X62230000Y-65151000D01*
X62611000Y-64770000D02*
X67818000Y-64770000D01*
X62230000Y-65151000D02*
X62611000Y-64770000D01*
D18*
X59436000Y-73533000D02*
X57023000Y-73533000D01*
X57277000Y-73406000D02*
X57023000Y-73406000D01*
X57150000Y-73406000D02*
X57277000Y-73406000D01*
X57023000Y-73533000D02*
X57150000Y-73406000D01*
X59436000Y-110109000D02*
X57023000Y-110109000D01*
X59436000Y-91821000D02*
X57023000Y-91821000D01*
X57023000Y-110109000D02*
X57023000Y-110109000D01*
X57023000Y-110109000D02*
X57023000Y-91821000D01*
X57023000Y-91821000D02*
X57023000Y-73406000D01*
X57023000Y-73406000D02*
X57023000Y-59055000D01*
X57023000Y-59055000D02*
X56896000Y-58928000D01*
X36830000Y-110236000D02*
X31115000Y-110236000D01*
X30861000Y-98806000D02*
X28448000Y-98806000D01*
X30988000Y-98933000D02*
X30861000Y-98806000D01*
X30988000Y-110109000D02*
X30988000Y-98933000D01*
X31115000Y-110236000D02*
X30988000Y-110109000D01*
X36830000Y-91948000D02*
X36830000Y-92710000D01*
X36830000Y-92710000D02*
X29845000Y-92710000D01*
X29845000Y-74930000D02*
X36830000Y-74930000D01*
X36830000Y-74930000D02*
X36830000Y-73660000D01*
X29845000Y-74930000D02*
X29845000Y-55499000D01*
X29845000Y-55499000D02*
X36830000Y-55499000D01*
D16*
G36*
X84126000Y-137847000D02*
X24967000Y-137847000D01*
X24967000Y-134935619D01*
X26085613Y-134935619D01*
X26425155Y-135757372D01*
X27053321Y-136386636D01*
X27874481Y-136727611D01*
X28763619Y-136728387D01*
X29585372Y-136388845D01*
X30214636Y-135760679D01*
X30555611Y-134939519D01*
X30555614Y-134935619D01*
X78536613Y-134935619D01*
X78876155Y-135757372D01*
X79504321Y-136386636D01*
X80325481Y-136727611D01*
X81214619Y-136728387D01*
X82036372Y-136388845D01*
X82665636Y-135760679D01*
X83006611Y-134939519D01*
X83007387Y-134050381D01*
X82667845Y-133228628D01*
X82039679Y-132599364D01*
X81218519Y-132258389D01*
X80329381Y-132257613D01*
X79507628Y-132597155D01*
X78878364Y-133225321D01*
X78537389Y-134046481D01*
X78536613Y-134935619D01*
X30555614Y-134935619D01*
X30556387Y-134050381D01*
X30216845Y-133228628D01*
X29588679Y-132599364D01*
X28767519Y-132258389D01*
X27878381Y-132257613D01*
X27056628Y-132597155D01*
X26427364Y-133225321D01*
X26086389Y-134046481D01*
X26085613Y-134935619D01*
X24967000Y-134935619D01*
X24967000Y-98806000D01*
X26933907Y-98806000D01*
X27046946Y-99374285D01*
X27368853Y-99856054D01*
X27850622Y-100177961D01*
X28418907Y-100291000D01*
X28477093Y-100291000D01*
X29045378Y-100177961D01*
X29197974Y-100076000D01*
X29718000Y-100076000D01*
X29718000Y-103121578D01*
X29527147Y-102835946D01*
X29045378Y-102514039D01*
X28477093Y-102401000D01*
X28418907Y-102401000D01*
X27850622Y-102514039D01*
X27368853Y-102835946D01*
X27046946Y-103317715D01*
X26933907Y-103886000D01*
X27046946Y-104454285D01*
X27368853Y-104936054D01*
X27698026Y-105156000D01*
X27368853Y-105375946D01*
X27046946Y-105857715D01*
X26933907Y-106426000D01*
X27046946Y-106994285D01*
X27368853Y-107476054D01*
X27698026Y-107696000D01*
X27368853Y-107915946D01*
X27046946Y-108397715D01*
X26933907Y-108966000D01*
X27046946Y-109534285D01*
X27368853Y-110016054D01*
X27698026Y-110236000D01*
X27368853Y-110455946D01*
X27046946Y-110937715D01*
X26933907Y-111506000D01*
X27046946Y-112074285D01*
X27368853Y-112556054D01*
X27698026Y-112776000D01*
X27368853Y-112995946D01*
X27046946Y-113477715D01*
X26933907Y-114046000D01*
X27046946Y-114614285D01*
X27368853Y-115096054D01*
X27698026Y-115316000D01*
X27368853Y-115535946D01*
X27046946Y-116017715D01*
X26933907Y-116586000D01*
X27046946Y-117154285D01*
X27368853Y-117636054D01*
X27698026Y-117856000D01*
X27368853Y-118075946D01*
X27046946Y-118557715D01*
X26933907Y-119126000D01*
X27046946Y-119694285D01*
X27368853Y-120176054D01*
X27698026Y-120396000D01*
X27368853Y-120615946D01*
X27046946Y-121097715D01*
X26933907Y-121666000D01*
X27046946Y-122234285D01*
X27368853Y-122716054D01*
X27698026Y-122936000D01*
X27368853Y-123155946D01*
X27046946Y-123637715D01*
X26933907Y-124206000D01*
X27046946Y-124774285D01*
X27368853Y-125256054D01*
X27698026Y-125476000D01*
X27368853Y-125695946D01*
X27046946Y-126177715D01*
X26933907Y-126746000D01*
X27046946Y-127314285D01*
X27368853Y-127796054D01*
X27410452Y-127823850D01*
X27362683Y-127832838D01*
X27146559Y-127971910D01*
X27001569Y-128184110D01*
X26950560Y-128436000D01*
X26950560Y-130136000D01*
X26994838Y-130371317D01*
X27133910Y-130587441D01*
X27346110Y-130732431D01*
X27598000Y-130783440D01*
X29298000Y-130783440D01*
X29533317Y-130739162D01*
X29749441Y-130600090D01*
X29894431Y-130387890D01*
X29945440Y-130136000D01*
X29945440Y-128436000D01*
X29901162Y-128200683D01*
X29762090Y-127984559D01*
X29549890Y-127839569D01*
X29482459Y-127825914D01*
X29527147Y-127796054D01*
X29849054Y-127314285D01*
X29962093Y-126746000D01*
X29849054Y-126177715D01*
X29527147Y-125695946D01*
X29197974Y-125476000D01*
X29527147Y-125256054D01*
X29849054Y-124774285D01*
X29962093Y-124206000D01*
X29849054Y-123637715D01*
X29527147Y-123155946D01*
X29197974Y-122936000D01*
X29527147Y-122716054D01*
X29849054Y-122234285D01*
X29962093Y-121666000D01*
X29849054Y-121097715D01*
X29527147Y-120615946D01*
X29197974Y-120396000D01*
X29527147Y-120176054D01*
X29849054Y-119694285D01*
X29962093Y-119126000D01*
X29849054Y-118557715D01*
X29527147Y-118075946D01*
X29197974Y-117856000D01*
X29527147Y-117636054D01*
X29849054Y-117154285D01*
X29868604Y-117056000D01*
X35382560Y-117056000D01*
X35382560Y-118656000D01*
X35426838Y-118891317D01*
X35565910Y-119107441D01*
X35778110Y-119252431D01*
X36030000Y-119303440D01*
X37630000Y-119303440D01*
X37865317Y-119259162D01*
X38081441Y-119120090D01*
X38226431Y-118907890D01*
X38257815Y-118752911D01*
X38355302Y-118898811D01*
X38820849Y-119209880D01*
X39263451Y-119297919D01*
X39085185Y-119476185D01*
X38920004Y-119723395D01*
X38891505Y-119866667D01*
X38573946Y-120078853D01*
X38546150Y-120120452D01*
X38537162Y-120072683D01*
X38398090Y-119856559D01*
X38185890Y-119711569D01*
X37934000Y-119660560D01*
X36234000Y-119660560D01*
X35998683Y-119704838D01*
X35782559Y-119843910D01*
X35637569Y-120056110D01*
X35586560Y-120308000D01*
X35586560Y-122008000D01*
X35630838Y-122243317D01*
X35769910Y-122459441D01*
X35982110Y-122604431D01*
X36234000Y-122655440D01*
X37934000Y-122655440D01*
X38169317Y-122611162D01*
X38385441Y-122472090D01*
X38530431Y-122259890D01*
X38544086Y-122192459D01*
X38573946Y-122237147D01*
X39055715Y-122559054D01*
X39624000Y-122672093D01*
X40192285Y-122559054D01*
X40674054Y-122237147D01*
X40894000Y-121907974D01*
X41113946Y-122237147D01*
X41595715Y-122559054D01*
X42164000Y-122672093D01*
X42732285Y-122559054D01*
X43214054Y-122237147D01*
X43434000Y-121907974D01*
X43653946Y-122237147D01*
X44135715Y-122559054D01*
X44704000Y-122672093D01*
X45272285Y-122559054D01*
X45754054Y-122237147D01*
X46075961Y-121755378D01*
X46189000Y-121187093D01*
X46189000Y-121128907D01*
X46075961Y-120560622D01*
X45790392Y-120133238D01*
X46668473Y-119255157D01*
X46990000Y-119319113D01*
X47539151Y-119209880D01*
X48004698Y-118898811D01*
X48315767Y-118433264D01*
X48425000Y-117884113D01*
X48425000Y-117827887D01*
X48315767Y-117278736D01*
X48004698Y-116813189D01*
X47539151Y-116502120D01*
X46990000Y-116392887D01*
X46440849Y-116502120D01*
X45975302Y-116813189D01*
X45720000Y-117195275D01*
X45464698Y-116813189D01*
X44999151Y-116502120D01*
X44450000Y-116392887D01*
X43900849Y-116502120D01*
X43435302Y-116813189D01*
X43180000Y-117195275D01*
X42924698Y-116813189D01*
X42459151Y-116502120D01*
X41910000Y-116392887D01*
X41360849Y-116502120D01*
X40895302Y-116813189D01*
X40640000Y-117195275D01*
X40384698Y-116813189D01*
X39919151Y-116502120D01*
X39370000Y-116392887D01*
X38820849Y-116502120D01*
X38355302Y-116813189D01*
X38258899Y-116957465D01*
X38233162Y-116820683D01*
X38094090Y-116604559D01*
X37881890Y-116459569D01*
X37630000Y-116408560D01*
X36030000Y-116408560D01*
X35794683Y-116452838D01*
X35578559Y-116591910D01*
X35433569Y-116804110D01*
X35382560Y-117056000D01*
X29868604Y-117056000D01*
X29962093Y-116586000D01*
X29849054Y-116017715D01*
X29527147Y-115535946D01*
X29197974Y-115316000D01*
X29527147Y-115096054D01*
X29849054Y-114614285D01*
X29962093Y-114046000D01*
X29849054Y-113477715D01*
X29527147Y-112995946D01*
X29197974Y-112776000D01*
X29527147Y-112556054D01*
X29849054Y-112074285D01*
X29962093Y-111506000D01*
X29849054Y-110937715D01*
X29527147Y-110455946D01*
X29197974Y-110236000D01*
X29527147Y-110016054D01*
X29718000Y-109730422D01*
X29718000Y-110108995D01*
X29717999Y-110109000D01*
X29814673Y-110595008D01*
X30089974Y-111007026D01*
X30216974Y-111134026D01*
X30628992Y-111409327D01*
X31115000Y-111506000D01*
X36155314Y-111506000D01*
X36280849Y-111589880D01*
X36830000Y-111699113D01*
X37379151Y-111589880D01*
X37844698Y-111278811D01*
X38100000Y-110896725D01*
X38355302Y-111278811D01*
X38820849Y-111589880D01*
X39370000Y-111699113D01*
X39919151Y-111589880D01*
X40384698Y-111278811D01*
X40640000Y-110896725D01*
X40895302Y-111278811D01*
X41360849Y-111589880D01*
X41910000Y-111699113D01*
X42459151Y-111589880D01*
X42924698Y-111278811D01*
X43180000Y-110896725D01*
X43435302Y-111278811D01*
X43900849Y-111589880D01*
X44450000Y-111699113D01*
X44999151Y-111589880D01*
X45464698Y-111278811D01*
X45720000Y-110896725D01*
X45975302Y-111278811D01*
X46440849Y-111589880D01*
X46990000Y-111699113D01*
X47539151Y-111589880D01*
X48004698Y-111278811D01*
X48260000Y-110896725D01*
X48515302Y-111278811D01*
X48980849Y-111589880D01*
X49530000Y-111699113D01*
X50038000Y-111598065D01*
X50038000Y-123584917D01*
X49971460Y-123651341D01*
X49822270Y-124010630D01*
X49821931Y-124399663D01*
X49970493Y-124759212D01*
X50245341Y-125034540D01*
X50604630Y-125183730D01*
X50993663Y-125184069D01*
X51353212Y-125035507D01*
X51628540Y-124760659D01*
X51777730Y-124401370D01*
X51778069Y-124012337D01*
X51629507Y-123652788D01*
X51562000Y-123585163D01*
X51562000Y-111598065D01*
X52070000Y-111699113D01*
X52578000Y-111598065D01*
X52578000Y-126124917D01*
X52511460Y-126191341D01*
X52362270Y-126550630D01*
X52361931Y-126939663D01*
X52510493Y-127299212D01*
X52785341Y-127574540D01*
X53144630Y-127723730D01*
X53533663Y-127724069D01*
X53893212Y-127575507D01*
X54168540Y-127300659D01*
X54317730Y-126941370D01*
X54318069Y-126552337D01*
X54169507Y-126192788D01*
X54102000Y-126125163D01*
X54102000Y-111598065D01*
X54610000Y-111699113D01*
X55118000Y-111598065D01*
X55118000Y-128664917D01*
X55051460Y-128731341D01*
X54902270Y-129090630D01*
X54901931Y-129479663D01*
X55050493Y-129839212D01*
X55325341Y-130114540D01*
X55684630Y-130263730D01*
X56073663Y-130264069D01*
X56433212Y-130115507D01*
X56708540Y-129840659D01*
X56857730Y-129481370D01*
X56858069Y-129092337D01*
X56709507Y-128732788D01*
X56642000Y-128665163D01*
X56642000Y-116929000D01*
X57988560Y-116929000D01*
X57988560Y-118529000D01*
X58032838Y-118764317D01*
X58171910Y-118980441D01*
X58384110Y-119125431D01*
X58636000Y-119176440D01*
X60236000Y-119176440D01*
X60471317Y-119132162D01*
X60687441Y-118993090D01*
X60832431Y-118780890D01*
X60863815Y-118625911D01*
X60961302Y-118771811D01*
X61426849Y-119082880D01*
X61869451Y-119170919D01*
X61691185Y-119349185D01*
X61526004Y-119596395D01*
X61497505Y-119739667D01*
X61179946Y-119951853D01*
X61152150Y-119993452D01*
X61143162Y-119945683D01*
X61004090Y-119729559D01*
X60791890Y-119584569D01*
X60540000Y-119533560D01*
X58840000Y-119533560D01*
X58604683Y-119577838D01*
X58388559Y-119716910D01*
X58243569Y-119929110D01*
X58192560Y-120181000D01*
X58192560Y-121881000D01*
X58236838Y-122116317D01*
X58375910Y-122332441D01*
X58588110Y-122477431D01*
X58840000Y-122528440D01*
X60540000Y-122528440D01*
X60775317Y-122484162D01*
X60991441Y-122345090D01*
X61136431Y-122132890D01*
X61150086Y-122065459D01*
X61179946Y-122110147D01*
X61661715Y-122432054D01*
X62230000Y-122545093D01*
X62798285Y-122432054D01*
X63280054Y-122110147D01*
X63500000Y-121780974D01*
X63719946Y-122110147D01*
X64201715Y-122432054D01*
X64770000Y-122545093D01*
X65338285Y-122432054D01*
X65820054Y-122110147D01*
X66040000Y-121780974D01*
X66259946Y-122110147D01*
X66741715Y-122432054D01*
X67310000Y-122545093D01*
X67878285Y-122432054D01*
X68360054Y-122110147D01*
X68681961Y-121628378D01*
X68795000Y-121060093D01*
X68795000Y-121001907D01*
X68681961Y-120433622D01*
X68396392Y-120006238D01*
X69274473Y-119128157D01*
X69596000Y-119192113D01*
X70145151Y-119082880D01*
X70610698Y-118771811D01*
X70921767Y-118306264D01*
X71031000Y-117757113D01*
X71031000Y-117700887D01*
X70921767Y-117151736D01*
X70610698Y-116686189D01*
X70145151Y-116375120D01*
X69596000Y-116265887D01*
X69046849Y-116375120D01*
X68581302Y-116686189D01*
X68326000Y-117068275D01*
X68070698Y-116686189D01*
X67605151Y-116375120D01*
X67056000Y-116265887D01*
X66506849Y-116375120D01*
X66041302Y-116686189D01*
X65786000Y-117068275D01*
X65530698Y-116686189D01*
X65065151Y-116375120D01*
X64516000Y-116265887D01*
X63966849Y-116375120D01*
X63501302Y-116686189D01*
X63246000Y-117068275D01*
X62990698Y-116686189D01*
X62525151Y-116375120D01*
X61976000Y-116265887D01*
X61426849Y-116375120D01*
X60961302Y-116686189D01*
X60864899Y-116830465D01*
X60839162Y-116693683D01*
X60700090Y-116477559D01*
X60487890Y-116332569D01*
X60236000Y-116281560D01*
X58636000Y-116281560D01*
X58400683Y-116325838D01*
X58184559Y-116464910D01*
X58039569Y-116677110D01*
X57988560Y-116929000D01*
X56642000Y-116929000D01*
X56642000Y-111303214D01*
X57023000Y-111379000D01*
X58761314Y-111379000D01*
X58886849Y-111462880D01*
X59436000Y-111572113D01*
X59985151Y-111462880D01*
X60450698Y-111151811D01*
X60706000Y-110769725D01*
X60961302Y-111151811D01*
X61426849Y-111462880D01*
X61976000Y-111572113D01*
X62525151Y-111462880D01*
X62990698Y-111151811D01*
X63246000Y-110769725D01*
X63501302Y-111151811D01*
X63966849Y-111462880D01*
X64516000Y-111572113D01*
X65065151Y-111462880D01*
X65530698Y-111151811D01*
X65786000Y-110769725D01*
X66041302Y-111151811D01*
X66506849Y-111462880D01*
X67056000Y-111572113D01*
X67605151Y-111462880D01*
X68070698Y-111151811D01*
X68326000Y-110769725D01*
X68581302Y-111151811D01*
X69046849Y-111462880D01*
X69596000Y-111572113D01*
X70145151Y-111462880D01*
X70610698Y-111151811D01*
X70866000Y-110769725D01*
X71121302Y-111151811D01*
X71586849Y-111462880D01*
X72136000Y-111572113D01*
X72685151Y-111462880D01*
X73150698Y-111151811D01*
X73406000Y-110769725D01*
X73661302Y-111151811D01*
X74126849Y-111462880D01*
X74676000Y-111572113D01*
X75225151Y-111462880D01*
X75690698Y-111151811D01*
X75946000Y-110769725D01*
X76201302Y-111151811D01*
X76666849Y-111462880D01*
X77216000Y-111572113D01*
X77765151Y-111462880D01*
X78230698Y-111151811D01*
X78541767Y-110686264D01*
X78651000Y-110137113D01*
X78651000Y-110080887D01*
X78541767Y-109531736D01*
X78230698Y-109066189D01*
X77765151Y-108755120D01*
X77216000Y-108645887D01*
X76666849Y-108755120D01*
X76201302Y-109066189D01*
X75946000Y-109448275D01*
X75690698Y-109066189D01*
X75225151Y-108755120D01*
X74676000Y-108645887D01*
X74126849Y-108755120D01*
X73661302Y-109066189D01*
X73406000Y-109448275D01*
X73150698Y-109066189D01*
X72685151Y-108755120D01*
X72136000Y-108645887D01*
X71586849Y-108755120D01*
X71121302Y-109066189D01*
X70866000Y-109448275D01*
X70610698Y-109066189D01*
X70145151Y-108755120D01*
X69596000Y-108645887D01*
X69046849Y-108755120D01*
X68581302Y-109066189D01*
X68326000Y-109448275D01*
X68070698Y-109066189D01*
X67605151Y-108755120D01*
X67056000Y-108645887D01*
X66506849Y-108755120D01*
X66041302Y-109066189D01*
X65786000Y-109448275D01*
X65530698Y-109066189D01*
X65065151Y-108755120D01*
X64516000Y-108645887D01*
X63966849Y-108755120D01*
X63501302Y-109066189D01*
X63246000Y-109448275D01*
X63179251Y-109348379D01*
X64405951Y-108121679D01*
X64770000Y-108194093D01*
X65338285Y-108081054D01*
X65820054Y-107759147D01*
X66040000Y-107429974D01*
X66259946Y-107759147D01*
X66741715Y-108081054D01*
X67310000Y-108194093D01*
X67878285Y-108081054D01*
X68360054Y-107759147D01*
X68681961Y-107277378D01*
X68795000Y-106709093D01*
X68795000Y-106650907D01*
X68681961Y-106082622D01*
X68360054Y-105600853D01*
X67878285Y-105278946D01*
X67310000Y-105165907D01*
X66741715Y-105278946D01*
X66259946Y-105600853D01*
X66040000Y-105930026D01*
X65820054Y-105600853D01*
X65338285Y-105278946D01*
X64770000Y-105165907D01*
X64201715Y-105278946D01*
X63719946Y-105600853D01*
X63500000Y-105930026D01*
X63280054Y-105600853D01*
X62798285Y-105278946D01*
X62230000Y-105165907D01*
X61661715Y-105278946D01*
X61179946Y-105600853D01*
X61152150Y-105642452D01*
X61143162Y-105594683D01*
X61004090Y-105378559D01*
X60791890Y-105233569D01*
X60540000Y-105182560D01*
X58840000Y-105182560D01*
X58604683Y-105226838D01*
X58388559Y-105365910D01*
X58293000Y-105505765D01*
X58293000Y-103915595D01*
X58375910Y-104044441D01*
X58588110Y-104189431D01*
X58840000Y-104240440D01*
X60540000Y-104240440D01*
X60775317Y-104196162D01*
X60991441Y-104057090D01*
X61136431Y-103844890D01*
X61150086Y-103777459D01*
X61179946Y-103822147D01*
X61661715Y-104144054D01*
X62230000Y-104257093D01*
X62798285Y-104144054D01*
X63280054Y-103822147D01*
X63500000Y-103492974D01*
X63719946Y-103822147D01*
X64201715Y-104144054D01*
X64770000Y-104257093D01*
X65338285Y-104144054D01*
X65820054Y-103822147D01*
X66040000Y-103492974D01*
X66259946Y-103822147D01*
X66741715Y-104144054D01*
X67310000Y-104257093D01*
X67878285Y-104144054D01*
X68360054Y-103822147D01*
X68681961Y-103340378D01*
X68795000Y-102772093D01*
X68795000Y-102713907D01*
X68681961Y-102145622D01*
X68396392Y-101718238D01*
X69274473Y-100840157D01*
X69596000Y-100904113D01*
X70145151Y-100794880D01*
X70610698Y-100483811D01*
X70921767Y-100018264D01*
X71031000Y-99469113D01*
X71031000Y-99412887D01*
X70921767Y-98863736D01*
X70610698Y-98398189D01*
X70145151Y-98087120D01*
X69596000Y-97977887D01*
X69046849Y-98087120D01*
X68581302Y-98398189D01*
X68326000Y-98780275D01*
X68070698Y-98398189D01*
X67605151Y-98087120D01*
X67056000Y-97977887D01*
X66506849Y-98087120D01*
X66041302Y-98398189D01*
X65786000Y-98780275D01*
X65530698Y-98398189D01*
X65065151Y-98087120D01*
X64516000Y-97977887D01*
X63966849Y-98087120D01*
X63501302Y-98398189D01*
X63246000Y-98780275D01*
X62990698Y-98398189D01*
X62525151Y-98087120D01*
X61976000Y-97977887D01*
X61426849Y-98087120D01*
X60961302Y-98398189D01*
X60864899Y-98542465D01*
X60839162Y-98405683D01*
X60700090Y-98189559D01*
X60487890Y-98044569D01*
X60236000Y-97993560D01*
X58636000Y-97993560D01*
X58400683Y-98037838D01*
X58293000Y-98107130D01*
X58293000Y-93091000D01*
X58761314Y-93091000D01*
X58886849Y-93174880D01*
X59436000Y-93284113D01*
X59985151Y-93174880D01*
X60450698Y-92863811D01*
X60706000Y-92481725D01*
X60961302Y-92863811D01*
X61426849Y-93174880D01*
X61976000Y-93284113D01*
X62525151Y-93174880D01*
X62990698Y-92863811D01*
X63246000Y-92481725D01*
X63501302Y-92863811D01*
X63966849Y-93174880D01*
X64516000Y-93284113D01*
X65065151Y-93174880D01*
X65530698Y-92863811D01*
X65786000Y-92481725D01*
X66041302Y-92863811D01*
X66506849Y-93174880D01*
X67056000Y-93284113D01*
X67605151Y-93174880D01*
X68070698Y-92863811D01*
X68326000Y-92481725D01*
X68581302Y-92863811D01*
X69046849Y-93174880D01*
X69596000Y-93284113D01*
X70145151Y-93174880D01*
X70610698Y-92863811D01*
X70866000Y-92481725D01*
X71121302Y-92863811D01*
X71586849Y-93174880D01*
X72136000Y-93284113D01*
X72685151Y-93174880D01*
X73150698Y-92863811D01*
X73406000Y-92481725D01*
X73661302Y-92863811D01*
X74126849Y-93174880D01*
X74676000Y-93284113D01*
X75225151Y-93174880D01*
X75690698Y-92863811D01*
X75946000Y-92481725D01*
X76201302Y-92863811D01*
X76666849Y-93174880D01*
X77216000Y-93284113D01*
X77765151Y-93174880D01*
X78230698Y-92863811D01*
X78541767Y-92398264D01*
X78651000Y-91849113D01*
X78651000Y-91792887D01*
X78541767Y-91243736D01*
X78230698Y-90778189D01*
X77765151Y-90467120D01*
X77216000Y-90357887D01*
X76666849Y-90467120D01*
X76201302Y-90778189D01*
X75946000Y-91160275D01*
X75690698Y-90778189D01*
X75225151Y-90467120D01*
X74676000Y-90357887D01*
X74126849Y-90467120D01*
X73661302Y-90778189D01*
X73406000Y-91160275D01*
X73150698Y-90778189D01*
X72685151Y-90467120D01*
X72136000Y-90357887D01*
X71586849Y-90467120D01*
X71121302Y-90778189D01*
X70866000Y-91160275D01*
X70610698Y-90778189D01*
X70145151Y-90467120D01*
X69596000Y-90357887D01*
X69046849Y-90467120D01*
X68581302Y-90778189D01*
X68326000Y-91160275D01*
X68070698Y-90778189D01*
X67605151Y-90467120D01*
X67056000Y-90357887D01*
X66506849Y-90467120D01*
X66041302Y-90778189D01*
X65786000Y-91160275D01*
X65530698Y-90778189D01*
X65065151Y-90467120D01*
X64516000Y-90357887D01*
X63966849Y-90467120D01*
X63501302Y-90778189D01*
X63246000Y-91160275D01*
X63179251Y-91060379D01*
X64405951Y-89833679D01*
X64770000Y-89906093D01*
X65338285Y-89793054D01*
X65820054Y-89471147D01*
X66040000Y-89141974D01*
X66259946Y-89471147D01*
X66741715Y-89793054D01*
X67310000Y-89906093D01*
X67878285Y-89793054D01*
X68360054Y-89471147D01*
X68681961Y-88989378D01*
X68795000Y-88421093D01*
X68795000Y-88362907D01*
X68681961Y-87794622D01*
X68360054Y-87312853D01*
X67878285Y-86990946D01*
X67310000Y-86877907D01*
X66741715Y-86990946D01*
X66259946Y-87312853D01*
X66040000Y-87642026D01*
X65820054Y-87312853D01*
X65338285Y-86990946D01*
X64770000Y-86877907D01*
X64201715Y-86990946D01*
X63719946Y-87312853D01*
X63500000Y-87642026D01*
X63280054Y-87312853D01*
X62798285Y-86990946D01*
X62230000Y-86877907D01*
X61661715Y-86990946D01*
X61179946Y-87312853D01*
X61152150Y-87354452D01*
X61143162Y-87306683D01*
X61004090Y-87090559D01*
X60791890Y-86945569D01*
X60540000Y-86894560D01*
X58840000Y-86894560D01*
X58604683Y-86938838D01*
X58388559Y-87077910D01*
X58293000Y-87217765D01*
X58293000Y-85627595D01*
X58375910Y-85756441D01*
X58588110Y-85901431D01*
X58840000Y-85952440D01*
X60540000Y-85952440D01*
X60775317Y-85908162D01*
X60991441Y-85769090D01*
X61136431Y-85556890D01*
X61150086Y-85489459D01*
X61179946Y-85534147D01*
X61661715Y-85856054D01*
X62230000Y-85969093D01*
X62798285Y-85856054D01*
X63280054Y-85534147D01*
X63500000Y-85204974D01*
X63719946Y-85534147D01*
X64201715Y-85856054D01*
X64770000Y-85969093D01*
X65338285Y-85856054D01*
X65820054Y-85534147D01*
X66040000Y-85204974D01*
X66259946Y-85534147D01*
X66741715Y-85856054D01*
X67310000Y-85969093D01*
X67878285Y-85856054D01*
X68360054Y-85534147D01*
X68681961Y-85052378D01*
X68795000Y-84484093D01*
X68795000Y-84425907D01*
X68681961Y-83857622D01*
X68396392Y-83430238D01*
X69274473Y-82552157D01*
X69596000Y-82616113D01*
X70145151Y-82506880D01*
X70610698Y-82195811D01*
X70921767Y-81730264D01*
X71031000Y-81181113D01*
X71031000Y-81124887D01*
X70921767Y-80575736D01*
X70610698Y-80110189D01*
X70145151Y-79799120D01*
X69596000Y-79689887D01*
X69046849Y-79799120D01*
X68581302Y-80110189D01*
X68326000Y-80492275D01*
X68070698Y-80110189D01*
X67605151Y-79799120D01*
X67056000Y-79689887D01*
X66506849Y-79799120D01*
X66041302Y-80110189D01*
X65786000Y-80492275D01*
X65530698Y-80110189D01*
X65065151Y-79799120D01*
X64516000Y-79689887D01*
X63966849Y-79799120D01*
X63501302Y-80110189D01*
X63246000Y-80492275D01*
X62990698Y-80110189D01*
X62525151Y-79799120D01*
X61976000Y-79689887D01*
X61426849Y-79799120D01*
X60961302Y-80110189D01*
X60864899Y-80254465D01*
X60839162Y-80117683D01*
X60700090Y-79901559D01*
X60487890Y-79756569D01*
X60236000Y-79705560D01*
X58636000Y-79705560D01*
X58400683Y-79749838D01*
X58293000Y-79819130D01*
X58293000Y-74803000D01*
X58761314Y-74803000D01*
X58886849Y-74886880D01*
X59436000Y-74996113D01*
X59985151Y-74886880D01*
X60450698Y-74575811D01*
X60706000Y-74193725D01*
X60961302Y-74575811D01*
X61426849Y-74886880D01*
X61976000Y-74996113D01*
X62525151Y-74886880D01*
X62990698Y-74575811D01*
X63246000Y-74193725D01*
X63501302Y-74575811D01*
X63966849Y-74886880D01*
X64516000Y-74996113D01*
X65065151Y-74886880D01*
X65530698Y-74575811D01*
X65786000Y-74193725D01*
X66041302Y-74575811D01*
X66506849Y-74886880D01*
X67056000Y-74996113D01*
X67605151Y-74886880D01*
X68070698Y-74575811D01*
X68326000Y-74193725D01*
X68581302Y-74575811D01*
X69046849Y-74886880D01*
X69596000Y-74996113D01*
X70145151Y-74886880D01*
X70610698Y-74575811D01*
X70866000Y-74193725D01*
X71121302Y-74575811D01*
X71586849Y-74886880D01*
X72136000Y-74996113D01*
X72685151Y-74886880D01*
X73150698Y-74575811D01*
X73406000Y-74193725D01*
X73661302Y-74575811D01*
X74126849Y-74886880D01*
X74676000Y-74996113D01*
X75225151Y-74886880D01*
X75690698Y-74575811D01*
X75946000Y-74193725D01*
X76201302Y-74575811D01*
X76666849Y-74886880D01*
X77216000Y-74996113D01*
X77765151Y-74886880D01*
X78230698Y-74575811D01*
X78541767Y-74110264D01*
X78651000Y-73561113D01*
X78651000Y-73504887D01*
X78541767Y-72955736D01*
X78230698Y-72490189D01*
X77765151Y-72179120D01*
X77216000Y-72069887D01*
X76666849Y-72179120D01*
X76201302Y-72490189D01*
X75946000Y-72872275D01*
X75690698Y-72490189D01*
X75225151Y-72179120D01*
X74676000Y-72069887D01*
X74126849Y-72179120D01*
X73661302Y-72490189D01*
X73406000Y-72872275D01*
X73150698Y-72490189D01*
X72685151Y-72179120D01*
X72136000Y-72069887D01*
X71586849Y-72179120D01*
X71121302Y-72490189D01*
X70866000Y-72872275D01*
X70610698Y-72490189D01*
X70145151Y-72179120D01*
X69596000Y-72069887D01*
X69046849Y-72179120D01*
X68581302Y-72490189D01*
X68326000Y-72872275D01*
X68070698Y-72490189D01*
X67605151Y-72179120D01*
X67056000Y-72069887D01*
X66506849Y-72179120D01*
X66041302Y-72490189D01*
X65786000Y-72872275D01*
X65530698Y-72490189D01*
X65065151Y-72179120D01*
X64516000Y-72069887D01*
X63966849Y-72179120D01*
X63501302Y-72490189D01*
X63246000Y-72872275D01*
X63179251Y-72772379D01*
X64405951Y-71545679D01*
X64770000Y-71618093D01*
X65338285Y-71505054D01*
X65820054Y-71183147D01*
X66040000Y-70853974D01*
X66259946Y-71183147D01*
X66741715Y-71505054D01*
X67310000Y-71618093D01*
X67878285Y-71505054D01*
X68360054Y-71183147D01*
X68681961Y-70701378D01*
X68795000Y-70133093D01*
X68795000Y-70074907D01*
X68681961Y-69506622D01*
X68360054Y-69024853D01*
X67878285Y-68702946D01*
X67310000Y-68589907D01*
X66741715Y-68702946D01*
X66259946Y-69024853D01*
X66040000Y-69354026D01*
X65820054Y-69024853D01*
X65338285Y-68702946D01*
X64770000Y-68589907D01*
X64201715Y-68702946D01*
X63719946Y-69024853D01*
X63500000Y-69354026D01*
X63280054Y-69024853D01*
X62798285Y-68702946D01*
X62230000Y-68589907D01*
X61661715Y-68702946D01*
X61179946Y-69024853D01*
X61152150Y-69066452D01*
X61143162Y-69018683D01*
X61004090Y-68802559D01*
X60791890Y-68657569D01*
X60540000Y-68606560D01*
X58840000Y-68606560D01*
X58604683Y-68650838D01*
X58388559Y-68789910D01*
X58293000Y-68929765D01*
X58293000Y-67466595D01*
X58375910Y-67595441D01*
X58588110Y-67740431D01*
X58840000Y-67791440D01*
X60540000Y-67791440D01*
X60775317Y-67747162D01*
X60991441Y-67608090D01*
X61136431Y-67395890D01*
X61150086Y-67328459D01*
X61179946Y-67373147D01*
X61661715Y-67695054D01*
X62230000Y-67808093D01*
X62798285Y-67695054D01*
X63280054Y-67373147D01*
X63500000Y-67043974D01*
X63719946Y-67373147D01*
X64201715Y-67695054D01*
X64770000Y-67808093D01*
X65338285Y-67695054D01*
X65820054Y-67373147D01*
X66040000Y-67043974D01*
X66259946Y-67373147D01*
X66741715Y-67695054D01*
X67310000Y-67808093D01*
X67878285Y-67695054D01*
X68360054Y-67373147D01*
X68681961Y-66891378D01*
X68795000Y-66323093D01*
X68795000Y-66264907D01*
X68681961Y-65696622D01*
X68396392Y-65269238D01*
X69274473Y-64391157D01*
X69596000Y-64455113D01*
X70145151Y-64345880D01*
X70610698Y-64034811D01*
X70921767Y-63569264D01*
X71031000Y-63020113D01*
X71031000Y-62963887D01*
X70921767Y-62414736D01*
X70610698Y-61949189D01*
X70145151Y-61638120D01*
X69596000Y-61528887D01*
X69046849Y-61638120D01*
X68581302Y-61949189D01*
X68326000Y-62331275D01*
X68070698Y-61949189D01*
X67605151Y-61638120D01*
X67056000Y-61528887D01*
X66506849Y-61638120D01*
X66041302Y-61949189D01*
X65786000Y-62331275D01*
X65530698Y-61949189D01*
X65065151Y-61638120D01*
X64516000Y-61528887D01*
X63966849Y-61638120D01*
X63501302Y-61949189D01*
X63246000Y-62331275D01*
X62990698Y-61949189D01*
X62525151Y-61638120D01*
X61976000Y-61528887D01*
X61426849Y-61638120D01*
X60961302Y-61949189D01*
X60864899Y-62093465D01*
X60839162Y-61956683D01*
X60700090Y-61740559D01*
X60487890Y-61595569D01*
X60236000Y-61544560D01*
X58636000Y-61544560D01*
X58400683Y-61588838D01*
X58293000Y-61658130D01*
X58293000Y-59055000D01*
X58196327Y-58568992D01*
X57921026Y-58156974D01*
X57794026Y-58029974D01*
X57382008Y-57754673D01*
X56896000Y-57657999D01*
X56642000Y-57708523D01*
X56642000Y-55499000D01*
X56611147Y-55343887D01*
X58001000Y-55343887D01*
X58001000Y-55400113D01*
X58110233Y-55949264D01*
X58421302Y-56414811D01*
X58886849Y-56725880D01*
X59436000Y-56835113D01*
X59985151Y-56725880D01*
X60450698Y-56414811D01*
X60706000Y-56032725D01*
X60961302Y-56414811D01*
X61426849Y-56725880D01*
X61976000Y-56835113D01*
X62525151Y-56725880D01*
X62990698Y-56414811D01*
X63246000Y-56032725D01*
X63501302Y-56414811D01*
X63966849Y-56725880D01*
X64516000Y-56835113D01*
X65065151Y-56725880D01*
X65530698Y-56414811D01*
X65786000Y-56032725D01*
X66041302Y-56414811D01*
X66506849Y-56725880D01*
X67056000Y-56835113D01*
X67605151Y-56725880D01*
X68070698Y-56414811D01*
X68326000Y-56032725D01*
X68581302Y-56414811D01*
X69046849Y-56725880D01*
X69596000Y-56835113D01*
X70145151Y-56725880D01*
X70610698Y-56414811D01*
X70866000Y-56032725D01*
X71121302Y-56414811D01*
X71586849Y-56725880D01*
X72136000Y-56835113D01*
X72685151Y-56725880D01*
X73150698Y-56414811D01*
X73406000Y-56032725D01*
X73661302Y-56414811D01*
X74126849Y-56725880D01*
X74676000Y-56835113D01*
X75225151Y-56725880D01*
X75690698Y-56414811D01*
X75946000Y-56032725D01*
X76201302Y-56414811D01*
X76666849Y-56725880D01*
X77216000Y-56835113D01*
X77765151Y-56725880D01*
X78230698Y-56414811D01*
X78541767Y-55949264D01*
X78651000Y-55400113D01*
X78651000Y-55343887D01*
X78541767Y-54794736D01*
X78230698Y-54329189D01*
X77765151Y-54018120D01*
X77216000Y-53908887D01*
X76666849Y-54018120D01*
X76201302Y-54329189D01*
X75946000Y-54711275D01*
X75690698Y-54329189D01*
X75225151Y-54018120D01*
X74676000Y-53908887D01*
X74126849Y-54018120D01*
X73661302Y-54329189D01*
X73406000Y-54711275D01*
X73150698Y-54329189D01*
X72685151Y-54018120D01*
X72136000Y-53908887D01*
X71586849Y-54018120D01*
X71121302Y-54329189D01*
X70866000Y-54711275D01*
X70610698Y-54329189D01*
X70145151Y-54018120D01*
X69596000Y-53908887D01*
X69046849Y-54018120D01*
X68581302Y-54329189D01*
X68326000Y-54711275D01*
X68070698Y-54329189D01*
X67605151Y-54018120D01*
X67056000Y-53908887D01*
X66506849Y-54018120D01*
X66041302Y-54329189D01*
X65786000Y-54711275D01*
X65530698Y-54329189D01*
X65065151Y-54018120D01*
X64516000Y-53908887D01*
X63966849Y-54018120D01*
X63501302Y-54329189D01*
X63246000Y-54711275D01*
X63179251Y-54611379D01*
X64405951Y-53384679D01*
X64770000Y-53457093D01*
X65338285Y-53344054D01*
X65820054Y-53022147D01*
X66040000Y-52692974D01*
X66259946Y-53022147D01*
X66741715Y-53344054D01*
X67310000Y-53457093D01*
X67878285Y-53344054D01*
X68360054Y-53022147D01*
X68681961Y-52540378D01*
X68795000Y-51972093D01*
X68795000Y-51913907D01*
X68681961Y-51345622D01*
X68360054Y-50863853D01*
X67878285Y-50541946D01*
X67310000Y-50428907D01*
X66741715Y-50541946D01*
X66259946Y-50863853D01*
X66040000Y-51193026D01*
X65820054Y-50863853D01*
X65338285Y-50541946D01*
X64770000Y-50428907D01*
X64201715Y-50541946D01*
X63719946Y-50863853D01*
X63500000Y-51193026D01*
X63280054Y-50863853D01*
X62798285Y-50541946D01*
X62230000Y-50428907D01*
X61661715Y-50541946D01*
X61179946Y-50863853D01*
X61152150Y-50905452D01*
X61143162Y-50857683D01*
X61004090Y-50641559D01*
X60791890Y-50496569D01*
X60540000Y-50445560D01*
X58840000Y-50445560D01*
X58604683Y-50489838D01*
X58388559Y-50628910D01*
X58243569Y-50841110D01*
X58192560Y-51093000D01*
X58192560Y-52793000D01*
X58236838Y-53028317D01*
X58375910Y-53244441D01*
X58588110Y-53389431D01*
X58840000Y-53440440D01*
X60540000Y-53440440D01*
X60775317Y-53396162D01*
X60991441Y-53257090D01*
X61136431Y-53044890D01*
X61150086Y-52977459D01*
X61179946Y-53022147D01*
X61661715Y-53344054D01*
X62186858Y-53448512D01*
X61664527Y-53970843D01*
X61426849Y-54018120D01*
X60961302Y-54329189D01*
X60706000Y-54711275D01*
X60450698Y-54329189D01*
X59985151Y-54018120D01*
X59436000Y-53908887D01*
X58886849Y-54018120D01*
X58421302Y-54329189D01*
X58110233Y-54794736D01*
X58001000Y-55343887D01*
X56611147Y-55343887D01*
X56583996Y-55207395D01*
X56418815Y-54960185D01*
X56171605Y-54795004D01*
X55880000Y-54737000D01*
X55812330Y-54737000D01*
X55624698Y-54456189D01*
X55159151Y-54145120D01*
X54610000Y-54035887D01*
X54060849Y-54145120D01*
X53595302Y-54456189D01*
X53399731Y-54748881D01*
X53340000Y-54737000D01*
X53272330Y-54737000D01*
X53084698Y-54456189D01*
X52619151Y-54145120D01*
X52070000Y-54035887D01*
X51520849Y-54145120D01*
X51055302Y-54456189D01*
X50859731Y-54748881D01*
X50800000Y-54737000D01*
X50732330Y-54737000D01*
X50544698Y-54456189D01*
X50079151Y-54145120D01*
X49530000Y-54035887D01*
X48980849Y-54145120D01*
X48515302Y-54456189D01*
X48260000Y-54838275D01*
X48004698Y-54456189D01*
X47539151Y-54145120D01*
X46990000Y-54035887D01*
X46440849Y-54145120D01*
X45975302Y-54456189D01*
X45720000Y-54838275D01*
X45464698Y-54456189D01*
X44999151Y-54145120D01*
X44450000Y-54035887D01*
X43900849Y-54145120D01*
X43435302Y-54456189D01*
X43180000Y-54838275D01*
X42924698Y-54456189D01*
X42459151Y-54145120D01*
X41910000Y-54035887D01*
X41360849Y-54145120D01*
X40895302Y-54456189D01*
X40640000Y-54838275D01*
X40573251Y-54738379D01*
X41799951Y-53511679D01*
X42164000Y-53584093D01*
X42732285Y-53471054D01*
X43214054Y-53149147D01*
X43434000Y-52819974D01*
X43653946Y-53149147D01*
X44135715Y-53471054D01*
X44704000Y-53584093D01*
X45272285Y-53471054D01*
X45754054Y-53149147D01*
X46075961Y-52667378D01*
X46189000Y-52099093D01*
X46189000Y-52040907D01*
X46075961Y-51472622D01*
X45754054Y-50990853D01*
X45272285Y-50668946D01*
X44704000Y-50555907D01*
X44135715Y-50668946D01*
X43653946Y-50990853D01*
X43434000Y-51320026D01*
X43214054Y-50990853D01*
X42732285Y-50668946D01*
X42164000Y-50555907D01*
X41595715Y-50668946D01*
X41113946Y-50990853D01*
X40894000Y-51320026D01*
X40674054Y-50990853D01*
X40192285Y-50668946D01*
X39624000Y-50555907D01*
X39055715Y-50668946D01*
X38573946Y-50990853D01*
X38546150Y-51032452D01*
X38537162Y-50984683D01*
X38398090Y-50768559D01*
X38185890Y-50623569D01*
X37934000Y-50572560D01*
X36234000Y-50572560D01*
X35998683Y-50616838D01*
X35782559Y-50755910D01*
X35637569Y-50968110D01*
X35586560Y-51220000D01*
X35586560Y-52920000D01*
X35630838Y-53155317D01*
X35769910Y-53371441D01*
X35982110Y-53516431D01*
X36234000Y-53567440D01*
X37934000Y-53567440D01*
X38169317Y-53523162D01*
X38385441Y-53384090D01*
X38530431Y-53171890D01*
X38544086Y-53104459D01*
X38573946Y-53149147D01*
X39055715Y-53471054D01*
X39580858Y-53575512D01*
X39058527Y-54097843D01*
X38820849Y-54145120D01*
X38355302Y-54456189D01*
X38100000Y-54838275D01*
X37844698Y-54456189D01*
X37379151Y-54145120D01*
X36830000Y-54035887D01*
X36280849Y-54145120D01*
X36155314Y-54229000D01*
X29845000Y-54229000D01*
X29358992Y-54325673D01*
X28946974Y-54600974D01*
X28671673Y-55012992D01*
X28575000Y-55499000D01*
X28575000Y-74165578D01*
X28443946Y-74361715D01*
X28330907Y-74930000D01*
X28443946Y-75498285D01*
X28765853Y-75980054D01*
X29095026Y-76200000D01*
X28765853Y-76419946D01*
X28443946Y-76901715D01*
X28330907Y-77470000D01*
X28443946Y-78038285D01*
X28765853Y-78520054D01*
X29095026Y-78740000D01*
X28765853Y-78959946D01*
X28443946Y-79441715D01*
X28330907Y-80010000D01*
X28443946Y-80578285D01*
X28765853Y-81060054D01*
X29095026Y-81280000D01*
X28765853Y-81499946D01*
X28443946Y-81981715D01*
X28330907Y-82550000D01*
X28443946Y-83118285D01*
X28765853Y-83600054D01*
X29095026Y-83820000D01*
X28765853Y-84039946D01*
X28443946Y-84521715D01*
X28330907Y-85090000D01*
X28443946Y-85658285D01*
X28765853Y-86140054D01*
X29095026Y-86360000D01*
X28765853Y-86579946D01*
X28443946Y-87061715D01*
X28330907Y-87630000D01*
X28443946Y-88198285D01*
X28765853Y-88680054D01*
X29095026Y-88900000D01*
X28765853Y-89119946D01*
X28443946Y-89601715D01*
X28330907Y-90170000D01*
X28443946Y-90738285D01*
X28765853Y-91220054D01*
X29095026Y-91440000D01*
X28765853Y-91659946D01*
X28443946Y-92141715D01*
X28330907Y-92710000D01*
X28443946Y-93278285D01*
X28765853Y-93760054D01*
X29247622Y-94081961D01*
X29815907Y-94195000D01*
X29874093Y-94195000D01*
X30442378Y-94081961D01*
X30594974Y-93980000D01*
X36830000Y-93980000D01*
X37316008Y-93883327D01*
X37728026Y-93608026D01*
X38003327Y-93196008D01*
X38100000Y-92710000D01*
X38100000Y-92608725D01*
X38355302Y-92990811D01*
X38820849Y-93301880D01*
X39370000Y-93411113D01*
X39919151Y-93301880D01*
X40384698Y-92990811D01*
X40640000Y-92608725D01*
X40895302Y-92990811D01*
X41360849Y-93301880D01*
X41910000Y-93411113D01*
X42459151Y-93301880D01*
X42924698Y-92990811D01*
X43180000Y-92608725D01*
X43435302Y-92990811D01*
X43900849Y-93301880D01*
X44450000Y-93411113D01*
X44999151Y-93301880D01*
X45464698Y-92990811D01*
X45720000Y-92608725D01*
X45975302Y-92990811D01*
X46440849Y-93301880D01*
X46990000Y-93411113D01*
X47539151Y-93301880D01*
X48004698Y-92990811D01*
X48260000Y-92608725D01*
X48515302Y-92990811D01*
X48980849Y-93301880D01*
X49530000Y-93411113D01*
X50038000Y-93310065D01*
X50038000Y-108873935D01*
X49530000Y-108772887D01*
X48980849Y-108882120D01*
X48515302Y-109193189D01*
X48260000Y-109575275D01*
X48004698Y-109193189D01*
X47539151Y-108882120D01*
X46990000Y-108772887D01*
X46440849Y-108882120D01*
X45975302Y-109193189D01*
X45720000Y-109575275D01*
X45464698Y-109193189D01*
X44999151Y-108882120D01*
X44450000Y-108772887D01*
X43900849Y-108882120D01*
X43435302Y-109193189D01*
X43180000Y-109575275D01*
X42924698Y-109193189D01*
X42459151Y-108882120D01*
X41910000Y-108772887D01*
X41360849Y-108882120D01*
X40895302Y-109193189D01*
X40640000Y-109575275D01*
X40573251Y-109475379D01*
X41799951Y-108248679D01*
X42164000Y-108321093D01*
X42732285Y-108208054D01*
X43214054Y-107886147D01*
X43434000Y-107556974D01*
X43653946Y-107886147D01*
X44135715Y-108208054D01*
X44704000Y-108321093D01*
X45272285Y-108208054D01*
X45754054Y-107886147D01*
X46075961Y-107404378D01*
X46189000Y-106836093D01*
X46189000Y-106777907D01*
X46075961Y-106209622D01*
X45754054Y-105727853D01*
X45272285Y-105405946D01*
X44704000Y-105292907D01*
X44135715Y-105405946D01*
X43653946Y-105727853D01*
X43434000Y-106057026D01*
X43214054Y-105727853D01*
X42732285Y-105405946D01*
X42164000Y-105292907D01*
X41595715Y-105405946D01*
X41113946Y-105727853D01*
X40894000Y-106057026D01*
X40674054Y-105727853D01*
X40192285Y-105405946D01*
X39624000Y-105292907D01*
X39055715Y-105405946D01*
X38573946Y-105727853D01*
X38546150Y-105769452D01*
X38537162Y-105721683D01*
X38398090Y-105505559D01*
X38185890Y-105360569D01*
X37934000Y-105309560D01*
X36234000Y-105309560D01*
X35998683Y-105353838D01*
X35782559Y-105492910D01*
X35637569Y-105705110D01*
X35586560Y-105957000D01*
X35586560Y-107657000D01*
X35630838Y-107892317D01*
X35769910Y-108108441D01*
X35982110Y-108253431D01*
X36234000Y-108304440D01*
X37934000Y-108304440D01*
X38169317Y-108260162D01*
X38385441Y-108121090D01*
X38530431Y-107908890D01*
X38544086Y-107841459D01*
X38573946Y-107886147D01*
X39055715Y-108208054D01*
X39580858Y-108312512D01*
X39058527Y-108834843D01*
X38820849Y-108882120D01*
X38355302Y-109193189D01*
X38100000Y-109575275D01*
X37844698Y-109193189D01*
X37379151Y-108882120D01*
X36830000Y-108772887D01*
X36280849Y-108882120D01*
X36155314Y-108966000D01*
X32258000Y-108966000D01*
X32258000Y-98933000D01*
X32225180Y-98768000D01*
X35382560Y-98768000D01*
X35382560Y-100368000D01*
X35426838Y-100603317D01*
X35565910Y-100819441D01*
X35778110Y-100964431D01*
X36030000Y-101015440D01*
X37630000Y-101015440D01*
X37865317Y-100971162D01*
X38081441Y-100832090D01*
X38226431Y-100619890D01*
X38257815Y-100464911D01*
X38355302Y-100610811D01*
X38820849Y-100921880D01*
X39263451Y-101009919D01*
X39085185Y-101188185D01*
X38920004Y-101435395D01*
X38891505Y-101578667D01*
X38573946Y-101790853D01*
X38546150Y-101832452D01*
X38537162Y-101784683D01*
X38398090Y-101568559D01*
X38185890Y-101423569D01*
X37934000Y-101372560D01*
X36234000Y-101372560D01*
X35998683Y-101416838D01*
X35782559Y-101555910D01*
X35637569Y-101768110D01*
X35586560Y-102020000D01*
X35586560Y-103720000D01*
X35630838Y-103955317D01*
X35769910Y-104171441D01*
X35982110Y-104316431D01*
X36234000Y-104367440D01*
X37934000Y-104367440D01*
X38169317Y-104323162D01*
X38385441Y-104184090D01*
X38530431Y-103971890D01*
X38544086Y-103904459D01*
X38573946Y-103949147D01*
X39055715Y-104271054D01*
X39624000Y-104384093D01*
X40192285Y-104271054D01*
X40674054Y-103949147D01*
X40894000Y-103619974D01*
X41113946Y-103949147D01*
X41595715Y-104271054D01*
X42164000Y-104384093D01*
X42732285Y-104271054D01*
X43214054Y-103949147D01*
X43434000Y-103619974D01*
X43653946Y-103949147D01*
X44135715Y-104271054D01*
X44704000Y-104384093D01*
X45272285Y-104271054D01*
X45754054Y-103949147D01*
X46075961Y-103467378D01*
X46189000Y-102899093D01*
X46189000Y-102840907D01*
X46075961Y-102272622D01*
X45790392Y-101845238D01*
X46668473Y-100967157D01*
X46990000Y-101031113D01*
X47539151Y-100921880D01*
X48004698Y-100610811D01*
X48315767Y-100145264D01*
X48425000Y-99596113D01*
X48425000Y-99539887D01*
X48315767Y-98990736D01*
X48004698Y-98525189D01*
X47539151Y-98214120D01*
X46990000Y-98104887D01*
X46440849Y-98214120D01*
X45975302Y-98525189D01*
X45720000Y-98907275D01*
X45464698Y-98525189D01*
X44999151Y-98214120D01*
X44450000Y-98104887D01*
X43900849Y-98214120D01*
X43435302Y-98525189D01*
X43180000Y-98907275D01*
X42924698Y-98525189D01*
X42459151Y-98214120D01*
X41910000Y-98104887D01*
X41360849Y-98214120D01*
X40895302Y-98525189D01*
X40640000Y-98907275D01*
X40384698Y-98525189D01*
X39919151Y-98214120D01*
X39370000Y-98104887D01*
X38820849Y-98214120D01*
X38355302Y-98525189D01*
X38258899Y-98669465D01*
X38233162Y-98532683D01*
X38094090Y-98316559D01*
X37881890Y-98171569D01*
X37630000Y-98120560D01*
X36030000Y-98120560D01*
X35794683Y-98164838D01*
X35578559Y-98303910D01*
X35433569Y-98516110D01*
X35382560Y-98768000D01*
X32225180Y-98768000D01*
X32161327Y-98446992D01*
X31886026Y-98034974D01*
X31759026Y-97907974D01*
X31347008Y-97632673D01*
X30861000Y-97535999D01*
X30860995Y-97536000D01*
X29197974Y-97536000D01*
X29045378Y-97434039D01*
X28477093Y-97321000D01*
X28418907Y-97321000D01*
X27850622Y-97434039D01*
X27368853Y-97755946D01*
X27046946Y-98237715D01*
X26933907Y-98806000D01*
X24967000Y-98806000D01*
X24967000Y-50353619D01*
X26085613Y-50353619D01*
X26425155Y-51175372D01*
X27053321Y-51804636D01*
X27874481Y-52145611D01*
X28763619Y-52146387D01*
X29585372Y-51806845D01*
X30214636Y-51178679D01*
X30555611Y-50357519D01*
X30555614Y-50353619D01*
X78536613Y-50353619D01*
X78876155Y-51175372D01*
X79504321Y-51804636D01*
X80325481Y-52145611D01*
X81214619Y-52146387D01*
X82036372Y-51806845D01*
X82665636Y-51178679D01*
X83006611Y-50357519D01*
X83007387Y-49468381D01*
X82667845Y-48646628D01*
X82039679Y-48017364D01*
X81218519Y-47676389D01*
X80329381Y-47675613D01*
X79507628Y-48015155D01*
X78878364Y-48643321D01*
X78537389Y-49464481D01*
X78536613Y-50353619D01*
X30555614Y-50353619D01*
X30556387Y-49468381D01*
X30216845Y-48646628D01*
X29588679Y-48017364D01*
X28767519Y-47676389D01*
X27878381Y-47675613D01*
X27056628Y-48015155D01*
X26427364Y-48643321D01*
X26086389Y-49464481D01*
X26085613Y-50353619D01*
X24967000Y-50353619D01*
X24967000Y-46557000D01*
X84126000Y-46557000D01*
X84126000Y-137847000D01*
X84126000Y-137847000D01*
G37*
X84126000Y-137847000D02*
X24967000Y-137847000D01*
X24967000Y-134935619D01*
X26085613Y-134935619D01*
X26425155Y-135757372D01*
X27053321Y-136386636D01*
X27874481Y-136727611D01*
X28763619Y-136728387D01*
X29585372Y-136388845D01*
X30214636Y-135760679D01*
X30555611Y-134939519D01*
X30555614Y-134935619D01*
X78536613Y-134935619D01*
X78876155Y-135757372D01*
X79504321Y-136386636D01*
X80325481Y-136727611D01*
X81214619Y-136728387D01*
X82036372Y-136388845D01*
X82665636Y-135760679D01*
X83006611Y-134939519D01*
X83007387Y-134050381D01*
X82667845Y-133228628D01*
X82039679Y-132599364D01*
X81218519Y-132258389D01*
X80329381Y-132257613D01*
X79507628Y-132597155D01*
X78878364Y-133225321D01*
X78537389Y-134046481D01*
X78536613Y-134935619D01*
X30555614Y-134935619D01*
X30556387Y-134050381D01*
X30216845Y-133228628D01*
X29588679Y-132599364D01*
X28767519Y-132258389D01*
X27878381Y-132257613D01*
X27056628Y-132597155D01*
X26427364Y-133225321D01*
X26086389Y-134046481D01*
X26085613Y-134935619D01*
X24967000Y-134935619D01*
X24967000Y-98806000D01*
X26933907Y-98806000D01*
X27046946Y-99374285D01*
X27368853Y-99856054D01*
X27850622Y-100177961D01*
X28418907Y-100291000D01*
X28477093Y-100291000D01*
X29045378Y-100177961D01*
X29197974Y-100076000D01*
X29718000Y-100076000D01*
X29718000Y-103121578D01*
X29527147Y-102835946D01*
X29045378Y-102514039D01*
X28477093Y-102401000D01*
X28418907Y-102401000D01*
X27850622Y-102514039D01*
X27368853Y-102835946D01*
X27046946Y-103317715D01*
X26933907Y-103886000D01*
X27046946Y-104454285D01*
X27368853Y-104936054D01*
X27698026Y-105156000D01*
X27368853Y-105375946D01*
X27046946Y-105857715D01*
X26933907Y-106426000D01*
X27046946Y-106994285D01*
X27368853Y-107476054D01*
X27698026Y-107696000D01*
X27368853Y-107915946D01*
X27046946Y-108397715D01*
X26933907Y-108966000D01*
X27046946Y-109534285D01*
X27368853Y-110016054D01*
X27698026Y-110236000D01*
X27368853Y-110455946D01*
X27046946Y-110937715D01*
X26933907Y-111506000D01*
X27046946Y-112074285D01*
X27368853Y-112556054D01*
X27698026Y-112776000D01*
X27368853Y-112995946D01*
X27046946Y-113477715D01*
X26933907Y-114046000D01*
X27046946Y-114614285D01*
X27368853Y-115096054D01*
X27698026Y-115316000D01*
X27368853Y-115535946D01*
X27046946Y-116017715D01*
X26933907Y-116586000D01*
X27046946Y-117154285D01*
X27368853Y-117636054D01*
X27698026Y-117856000D01*
X27368853Y-118075946D01*
X27046946Y-118557715D01*
X26933907Y-119126000D01*
X27046946Y-119694285D01*
X27368853Y-120176054D01*
X27698026Y-120396000D01*
X27368853Y-120615946D01*
X27046946Y-121097715D01*
X26933907Y-121666000D01*
X27046946Y-122234285D01*
X27368853Y-122716054D01*
X27698026Y-122936000D01*
X27368853Y-123155946D01*
X27046946Y-123637715D01*
X26933907Y-124206000D01*
X27046946Y-124774285D01*
X27368853Y-125256054D01*
X27698026Y-125476000D01*
X27368853Y-125695946D01*
X27046946Y-126177715D01*
X26933907Y-126746000D01*
X27046946Y-127314285D01*
X27368853Y-127796054D01*
X27410452Y-127823850D01*
X27362683Y-127832838D01*
X27146559Y-127971910D01*
X27001569Y-128184110D01*
X26950560Y-128436000D01*
X26950560Y-130136000D01*
X26994838Y-130371317D01*
X27133910Y-130587441D01*
X27346110Y-130732431D01*
X27598000Y-130783440D01*
X29298000Y-130783440D01*
X29533317Y-130739162D01*
X29749441Y-130600090D01*
X29894431Y-130387890D01*
X29945440Y-130136000D01*
X29945440Y-128436000D01*
X29901162Y-128200683D01*
X29762090Y-127984559D01*
X29549890Y-127839569D01*
X29482459Y-127825914D01*
X29527147Y-127796054D01*
X29849054Y-127314285D01*
X29962093Y-126746000D01*
X29849054Y-126177715D01*
X29527147Y-125695946D01*
X29197974Y-125476000D01*
X29527147Y-125256054D01*
X29849054Y-124774285D01*
X29962093Y-124206000D01*
X29849054Y-123637715D01*
X29527147Y-123155946D01*
X29197974Y-122936000D01*
X29527147Y-122716054D01*
X29849054Y-122234285D01*
X29962093Y-121666000D01*
X29849054Y-121097715D01*
X29527147Y-120615946D01*
X29197974Y-120396000D01*
X29527147Y-120176054D01*
X29849054Y-119694285D01*
X29962093Y-119126000D01*
X29849054Y-118557715D01*
X29527147Y-118075946D01*
X29197974Y-117856000D01*
X29527147Y-117636054D01*
X29849054Y-117154285D01*
X29868604Y-117056000D01*
X35382560Y-117056000D01*
X35382560Y-118656000D01*
X35426838Y-118891317D01*
X35565910Y-119107441D01*
X35778110Y-119252431D01*
X36030000Y-119303440D01*
X37630000Y-119303440D01*
X37865317Y-119259162D01*
X38081441Y-119120090D01*
X38226431Y-118907890D01*
X38257815Y-118752911D01*
X38355302Y-118898811D01*
X38820849Y-119209880D01*
X39263451Y-119297919D01*
X39085185Y-119476185D01*
X38920004Y-119723395D01*
X38891505Y-119866667D01*
X38573946Y-120078853D01*
X38546150Y-120120452D01*
X38537162Y-120072683D01*
X38398090Y-119856559D01*
X38185890Y-119711569D01*
X37934000Y-119660560D01*
X36234000Y-119660560D01*
X35998683Y-119704838D01*
X35782559Y-119843910D01*
X35637569Y-120056110D01*
X35586560Y-120308000D01*
X35586560Y-122008000D01*
X35630838Y-122243317D01*
X35769910Y-122459441D01*
X35982110Y-122604431D01*
X36234000Y-122655440D01*
X37934000Y-122655440D01*
X38169317Y-122611162D01*
X38385441Y-122472090D01*
X38530431Y-122259890D01*
X38544086Y-122192459D01*
X38573946Y-122237147D01*
X39055715Y-122559054D01*
X39624000Y-122672093D01*
X40192285Y-122559054D01*
X40674054Y-122237147D01*
X40894000Y-121907974D01*
X41113946Y-122237147D01*
X41595715Y-122559054D01*
X42164000Y-122672093D01*
X42732285Y-122559054D01*
X43214054Y-122237147D01*
X43434000Y-121907974D01*
X43653946Y-122237147D01*
X44135715Y-122559054D01*
X44704000Y-122672093D01*
X45272285Y-122559054D01*
X45754054Y-122237147D01*
X46075961Y-121755378D01*
X46189000Y-121187093D01*
X46189000Y-121128907D01*
X46075961Y-120560622D01*
X45790392Y-120133238D01*
X46668473Y-119255157D01*
X46990000Y-119319113D01*
X47539151Y-119209880D01*
X48004698Y-118898811D01*
X48315767Y-118433264D01*
X48425000Y-117884113D01*
X48425000Y-117827887D01*
X48315767Y-117278736D01*
X48004698Y-116813189D01*
X47539151Y-116502120D01*
X46990000Y-116392887D01*
X46440849Y-116502120D01*
X45975302Y-116813189D01*
X45720000Y-117195275D01*
X45464698Y-116813189D01*
X44999151Y-116502120D01*
X44450000Y-116392887D01*
X43900849Y-116502120D01*
X43435302Y-116813189D01*
X43180000Y-117195275D01*
X42924698Y-116813189D01*
X42459151Y-116502120D01*
X41910000Y-116392887D01*
X41360849Y-116502120D01*
X40895302Y-116813189D01*
X40640000Y-117195275D01*
X40384698Y-116813189D01*
X39919151Y-116502120D01*
X39370000Y-116392887D01*
X38820849Y-116502120D01*
X38355302Y-116813189D01*
X38258899Y-116957465D01*
X38233162Y-116820683D01*
X38094090Y-116604559D01*
X37881890Y-116459569D01*
X37630000Y-116408560D01*
X36030000Y-116408560D01*
X35794683Y-116452838D01*
X35578559Y-116591910D01*
X35433569Y-116804110D01*
X35382560Y-117056000D01*
X29868604Y-117056000D01*
X29962093Y-116586000D01*
X29849054Y-116017715D01*
X29527147Y-115535946D01*
X29197974Y-115316000D01*
X29527147Y-115096054D01*
X29849054Y-114614285D01*
X29962093Y-114046000D01*
X29849054Y-113477715D01*
X29527147Y-112995946D01*
X29197974Y-112776000D01*
X29527147Y-112556054D01*
X29849054Y-112074285D01*
X29962093Y-111506000D01*
X29849054Y-110937715D01*
X29527147Y-110455946D01*
X29197974Y-110236000D01*
X29527147Y-110016054D01*
X29718000Y-109730422D01*
X29718000Y-110108995D01*
X29717999Y-110109000D01*
X29814673Y-110595008D01*
X30089974Y-111007026D01*
X30216974Y-111134026D01*
X30628992Y-111409327D01*
X31115000Y-111506000D01*
X36155314Y-111506000D01*
X36280849Y-111589880D01*
X36830000Y-111699113D01*
X37379151Y-111589880D01*
X37844698Y-111278811D01*
X38100000Y-110896725D01*
X38355302Y-111278811D01*
X38820849Y-111589880D01*
X39370000Y-111699113D01*
X39919151Y-111589880D01*
X40384698Y-111278811D01*
X40640000Y-110896725D01*
X40895302Y-111278811D01*
X41360849Y-111589880D01*
X41910000Y-111699113D01*
X42459151Y-111589880D01*
X42924698Y-111278811D01*
X43180000Y-110896725D01*
X43435302Y-111278811D01*
X43900849Y-111589880D01*
X44450000Y-111699113D01*
X44999151Y-111589880D01*
X45464698Y-111278811D01*
X45720000Y-110896725D01*
X45975302Y-111278811D01*
X46440849Y-111589880D01*
X46990000Y-111699113D01*
X47539151Y-111589880D01*
X48004698Y-111278811D01*
X48260000Y-110896725D01*
X48515302Y-111278811D01*
X48980849Y-111589880D01*
X49530000Y-111699113D01*
X50038000Y-111598065D01*
X50038000Y-123584917D01*
X49971460Y-123651341D01*
X49822270Y-124010630D01*
X49821931Y-124399663D01*
X49970493Y-124759212D01*
X50245341Y-125034540D01*
X50604630Y-125183730D01*
X50993663Y-125184069D01*
X51353212Y-125035507D01*
X51628540Y-124760659D01*
X51777730Y-124401370D01*
X51778069Y-124012337D01*
X51629507Y-123652788D01*
X51562000Y-123585163D01*
X51562000Y-111598065D01*
X52070000Y-111699113D01*
X52578000Y-111598065D01*
X52578000Y-126124917D01*
X52511460Y-126191341D01*
X52362270Y-126550630D01*
X52361931Y-126939663D01*
X52510493Y-127299212D01*
X52785341Y-127574540D01*
X53144630Y-127723730D01*
X53533663Y-127724069D01*
X53893212Y-127575507D01*
X54168540Y-127300659D01*
X54317730Y-126941370D01*
X54318069Y-126552337D01*
X54169507Y-126192788D01*
X54102000Y-126125163D01*
X54102000Y-111598065D01*
X54610000Y-111699113D01*
X55118000Y-111598065D01*
X55118000Y-128664917D01*
X55051460Y-128731341D01*
X54902270Y-129090630D01*
X54901931Y-129479663D01*
X55050493Y-129839212D01*
X55325341Y-130114540D01*
X55684630Y-130263730D01*
X56073663Y-130264069D01*
X56433212Y-130115507D01*
X56708540Y-129840659D01*
X56857730Y-129481370D01*
X56858069Y-129092337D01*
X56709507Y-128732788D01*
X56642000Y-128665163D01*
X56642000Y-116929000D01*
X57988560Y-116929000D01*
X57988560Y-118529000D01*
X58032838Y-118764317D01*
X58171910Y-118980441D01*
X58384110Y-119125431D01*
X58636000Y-119176440D01*
X60236000Y-119176440D01*
X60471317Y-119132162D01*
X60687441Y-118993090D01*
X60832431Y-118780890D01*
X60863815Y-118625911D01*
X60961302Y-118771811D01*
X61426849Y-119082880D01*
X61869451Y-119170919D01*
X61691185Y-119349185D01*
X61526004Y-119596395D01*
X61497505Y-119739667D01*
X61179946Y-119951853D01*
X61152150Y-119993452D01*
X61143162Y-119945683D01*
X61004090Y-119729559D01*
X60791890Y-119584569D01*
X60540000Y-119533560D01*
X58840000Y-119533560D01*
X58604683Y-119577838D01*
X58388559Y-119716910D01*
X58243569Y-119929110D01*
X58192560Y-120181000D01*
X58192560Y-121881000D01*
X58236838Y-122116317D01*
X58375910Y-122332441D01*
X58588110Y-122477431D01*
X58840000Y-122528440D01*
X60540000Y-122528440D01*
X60775317Y-122484162D01*
X60991441Y-122345090D01*
X61136431Y-122132890D01*
X61150086Y-122065459D01*
X61179946Y-122110147D01*
X61661715Y-122432054D01*
X62230000Y-122545093D01*
X62798285Y-122432054D01*
X63280054Y-122110147D01*
X63500000Y-121780974D01*
X63719946Y-122110147D01*
X64201715Y-122432054D01*
X64770000Y-122545093D01*
X65338285Y-122432054D01*
X65820054Y-122110147D01*
X66040000Y-121780974D01*
X66259946Y-122110147D01*
X66741715Y-122432054D01*
X67310000Y-122545093D01*
X67878285Y-122432054D01*
X68360054Y-122110147D01*
X68681961Y-121628378D01*
X68795000Y-121060093D01*
X68795000Y-121001907D01*
X68681961Y-120433622D01*
X68396392Y-120006238D01*
X69274473Y-119128157D01*
X69596000Y-119192113D01*
X70145151Y-119082880D01*
X70610698Y-118771811D01*
X70921767Y-118306264D01*
X71031000Y-117757113D01*
X71031000Y-117700887D01*
X70921767Y-117151736D01*
X70610698Y-116686189D01*
X70145151Y-116375120D01*
X69596000Y-116265887D01*
X69046849Y-116375120D01*
X68581302Y-116686189D01*
X68326000Y-117068275D01*
X68070698Y-116686189D01*
X67605151Y-116375120D01*
X67056000Y-116265887D01*
X66506849Y-116375120D01*
X66041302Y-116686189D01*
X65786000Y-117068275D01*
X65530698Y-116686189D01*
X65065151Y-116375120D01*
X64516000Y-116265887D01*
X63966849Y-116375120D01*
X63501302Y-116686189D01*
X63246000Y-117068275D01*
X62990698Y-116686189D01*
X62525151Y-116375120D01*
X61976000Y-116265887D01*
X61426849Y-116375120D01*
X60961302Y-116686189D01*
X60864899Y-116830465D01*
X60839162Y-116693683D01*
X60700090Y-116477559D01*
X60487890Y-116332569D01*
X60236000Y-116281560D01*
X58636000Y-116281560D01*
X58400683Y-116325838D01*
X58184559Y-116464910D01*
X58039569Y-116677110D01*
X57988560Y-116929000D01*
X56642000Y-116929000D01*
X56642000Y-111303214D01*
X57023000Y-111379000D01*
X58761314Y-111379000D01*
X58886849Y-111462880D01*
X59436000Y-111572113D01*
X59985151Y-111462880D01*
X60450698Y-111151811D01*
X60706000Y-110769725D01*
X60961302Y-111151811D01*
X61426849Y-111462880D01*
X61976000Y-111572113D01*
X62525151Y-111462880D01*
X62990698Y-111151811D01*
X63246000Y-110769725D01*
X63501302Y-111151811D01*
X63966849Y-111462880D01*
X64516000Y-111572113D01*
X65065151Y-111462880D01*
X65530698Y-111151811D01*
X65786000Y-110769725D01*
X66041302Y-111151811D01*
X66506849Y-111462880D01*
X67056000Y-111572113D01*
X67605151Y-111462880D01*
X68070698Y-111151811D01*
X68326000Y-110769725D01*
X68581302Y-111151811D01*
X69046849Y-111462880D01*
X69596000Y-111572113D01*
X70145151Y-111462880D01*
X70610698Y-111151811D01*
X70866000Y-110769725D01*
X71121302Y-111151811D01*
X71586849Y-111462880D01*
X72136000Y-111572113D01*
X72685151Y-111462880D01*
X73150698Y-111151811D01*
X73406000Y-110769725D01*
X73661302Y-111151811D01*
X74126849Y-111462880D01*
X74676000Y-111572113D01*
X75225151Y-111462880D01*
X75690698Y-111151811D01*
X75946000Y-110769725D01*
X76201302Y-111151811D01*
X76666849Y-111462880D01*
X77216000Y-111572113D01*
X77765151Y-111462880D01*
X78230698Y-111151811D01*
X78541767Y-110686264D01*
X78651000Y-110137113D01*
X78651000Y-110080887D01*
X78541767Y-109531736D01*
X78230698Y-109066189D01*
X77765151Y-108755120D01*
X77216000Y-108645887D01*
X76666849Y-108755120D01*
X76201302Y-109066189D01*
X75946000Y-109448275D01*
X75690698Y-109066189D01*
X75225151Y-108755120D01*
X74676000Y-108645887D01*
X74126849Y-108755120D01*
X73661302Y-109066189D01*
X73406000Y-109448275D01*
X73150698Y-109066189D01*
X72685151Y-108755120D01*
X72136000Y-108645887D01*
X71586849Y-108755120D01*
X71121302Y-109066189D01*
X70866000Y-109448275D01*
X70610698Y-109066189D01*
X70145151Y-108755120D01*
X69596000Y-108645887D01*
X69046849Y-108755120D01*
X68581302Y-109066189D01*
X68326000Y-109448275D01*
X68070698Y-109066189D01*
X67605151Y-108755120D01*
X67056000Y-108645887D01*
X66506849Y-108755120D01*
X66041302Y-109066189D01*
X65786000Y-109448275D01*
X65530698Y-109066189D01*
X65065151Y-108755120D01*
X64516000Y-108645887D01*
X63966849Y-108755120D01*
X63501302Y-109066189D01*
X63246000Y-109448275D01*
X63179251Y-109348379D01*
X64405951Y-108121679D01*
X64770000Y-108194093D01*
X65338285Y-108081054D01*
X65820054Y-107759147D01*
X66040000Y-107429974D01*
X66259946Y-107759147D01*
X66741715Y-108081054D01*
X67310000Y-108194093D01*
X67878285Y-108081054D01*
X68360054Y-107759147D01*
X68681961Y-107277378D01*
X68795000Y-106709093D01*
X68795000Y-106650907D01*
X68681961Y-106082622D01*
X68360054Y-105600853D01*
X67878285Y-105278946D01*
X67310000Y-105165907D01*
X66741715Y-105278946D01*
X66259946Y-105600853D01*
X66040000Y-105930026D01*
X65820054Y-105600853D01*
X65338285Y-105278946D01*
X64770000Y-105165907D01*
X64201715Y-105278946D01*
X63719946Y-105600853D01*
X63500000Y-105930026D01*
X63280054Y-105600853D01*
X62798285Y-105278946D01*
X62230000Y-105165907D01*
X61661715Y-105278946D01*
X61179946Y-105600853D01*
X61152150Y-105642452D01*
X61143162Y-105594683D01*
X61004090Y-105378559D01*
X60791890Y-105233569D01*
X60540000Y-105182560D01*
X58840000Y-105182560D01*
X58604683Y-105226838D01*
X58388559Y-105365910D01*
X58293000Y-105505765D01*
X58293000Y-103915595D01*
X58375910Y-104044441D01*
X58588110Y-104189431D01*
X58840000Y-104240440D01*
X60540000Y-104240440D01*
X60775317Y-104196162D01*
X60991441Y-104057090D01*
X61136431Y-103844890D01*
X61150086Y-103777459D01*
X61179946Y-103822147D01*
X61661715Y-104144054D01*
X62230000Y-104257093D01*
X62798285Y-104144054D01*
X63280054Y-103822147D01*
X63500000Y-103492974D01*
X63719946Y-103822147D01*
X64201715Y-104144054D01*
X64770000Y-104257093D01*
X65338285Y-104144054D01*
X65820054Y-103822147D01*
X66040000Y-103492974D01*
X66259946Y-103822147D01*
X66741715Y-104144054D01*
X67310000Y-104257093D01*
X67878285Y-104144054D01*
X68360054Y-103822147D01*
X68681961Y-103340378D01*
X68795000Y-102772093D01*
X68795000Y-102713907D01*
X68681961Y-102145622D01*
X68396392Y-101718238D01*
X69274473Y-100840157D01*
X69596000Y-100904113D01*
X70145151Y-100794880D01*
X70610698Y-100483811D01*
X70921767Y-100018264D01*
X71031000Y-99469113D01*
X71031000Y-99412887D01*
X70921767Y-98863736D01*
X70610698Y-98398189D01*
X70145151Y-98087120D01*
X69596000Y-97977887D01*
X69046849Y-98087120D01*
X68581302Y-98398189D01*
X68326000Y-98780275D01*
X68070698Y-98398189D01*
X67605151Y-98087120D01*
X67056000Y-97977887D01*
X66506849Y-98087120D01*
X66041302Y-98398189D01*
X65786000Y-98780275D01*
X65530698Y-98398189D01*
X65065151Y-98087120D01*
X64516000Y-97977887D01*
X63966849Y-98087120D01*
X63501302Y-98398189D01*
X63246000Y-98780275D01*
X62990698Y-98398189D01*
X62525151Y-98087120D01*
X61976000Y-97977887D01*
X61426849Y-98087120D01*
X60961302Y-98398189D01*
X60864899Y-98542465D01*
X60839162Y-98405683D01*
X60700090Y-98189559D01*
X60487890Y-98044569D01*
X60236000Y-97993560D01*
X58636000Y-97993560D01*
X58400683Y-98037838D01*
X58293000Y-98107130D01*
X58293000Y-93091000D01*
X58761314Y-93091000D01*
X58886849Y-93174880D01*
X59436000Y-93284113D01*
X59985151Y-93174880D01*
X60450698Y-92863811D01*
X60706000Y-92481725D01*
X60961302Y-92863811D01*
X61426849Y-93174880D01*
X61976000Y-93284113D01*
X62525151Y-93174880D01*
X62990698Y-92863811D01*
X63246000Y-92481725D01*
X63501302Y-92863811D01*
X63966849Y-93174880D01*
X64516000Y-93284113D01*
X65065151Y-93174880D01*
X65530698Y-92863811D01*
X65786000Y-92481725D01*
X66041302Y-92863811D01*
X66506849Y-93174880D01*
X67056000Y-93284113D01*
X67605151Y-93174880D01*
X68070698Y-92863811D01*
X68326000Y-92481725D01*
X68581302Y-92863811D01*
X69046849Y-93174880D01*
X69596000Y-93284113D01*
X70145151Y-93174880D01*
X70610698Y-92863811D01*
X70866000Y-92481725D01*
X71121302Y-92863811D01*
X71586849Y-93174880D01*
X72136000Y-93284113D01*
X72685151Y-93174880D01*
X73150698Y-92863811D01*
X73406000Y-92481725D01*
X73661302Y-92863811D01*
X74126849Y-93174880D01*
X74676000Y-93284113D01*
X75225151Y-93174880D01*
X75690698Y-92863811D01*
X75946000Y-92481725D01*
X76201302Y-92863811D01*
X76666849Y-93174880D01*
X77216000Y-93284113D01*
X77765151Y-93174880D01*
X78230698Y-92863811D01*
X78541767Y-92398264D01*
X78651000Y-91849113D01*
X78651000Y-91792887D01*
X78541767Y-91243736D01*
X78230698Y-90778189D01*
X77765151Y-90467120D01*
X77216000Y-90357887D01*
X76666849Y-90467120D01*
X76201302Y-90778189D01*
X75946000Y-91160275D01*
X75690698Y-90778189D01*
X75225151Y-90467120D01*
X74676000Y-90357887D01*
X74126849Y-90467120D01*
X73661302Y-90778189D01*
X73406000Y-91160275D01*
X73150698Y-90778189D01*
X72685151Y-90467120D01*
X72136000Y-90357887D01*
X71586849Y-90467120D01*
X71121302Y-90778189D01*
X70866000Y-91160275D01*
X70610698Y-90778189D01*
X70145151Y-90467120D01*
X69596000Y-90357887D01*
X69046849Y-90467120D01*
X68581302Y-90778189D01*
X68326000Y-91160275D01*
X68070698Y-90778189D01*
X67605151Y-90467120D01*
X67056000Y-90357887D01*
X66506849Y-90467120D01*
X66041302Y-90778189D01*
X65786000Y-91160275D01*
X65530698Y-90778189D01*
X65065151Y-90467120D01*
X64516000Y-90357887D01*
X63966849Y-90467120D01*
X63501302Y-90778189D01*
X63246000Y-91160275D01*
X63179251Y-91060379D01*
X64405951Y-89833679D01*
X64770000Y-89906093D01*
X65338285Y-89793054D01*
X65820054Y-89471147D01*
X66040000Y-89141974D01*
X66259946Y-89471147D01*
X66741715Y-89793054D01*
X67310000Y-89906093D01*
X67878285Y-89793054D01*
X68360054Y-89471147D01*
X68681961Y-88989378D01*
X68795000Y-88421093D01*
X68795000Y-88362907D01*
X68681961Y-87794622D01*
X68360054Y-87312853D01*
X67878285Y-86990946D01*
X67310000Y-86877907D01*
X66741715Y-86990946D01*
X66259946Y-87312853D01*
X66040000Y-87642026D01*
X65820054Y-87312853D01*
X65338285Y-86990946D01*
X64770000Y-86877907D01*
X64201715Y-86990946D01*
X63719946Y-87312853D01*
X63500000Y-87642026D01*
X63280054Y-87312853D01*
X62798285Y-86990946D01*
X62230000Y-86877907D01*
X61661715Y-86990946D01*
X61179946Y-87312853D01*
X61152150Y-87354452D01*
X61143162Y-87306683D01*
X61004090Y-87090559D01*
X60791890Y-86945569D01*
X60540000Y-86894560D01*
X58840000Y-86894560D01*
X58604683Y-86938838D01*
X58388559Y-87077910D01*
X58293000Y-87217765D01*
X58293000Y-85627595D01*
X58375910Y-85756441D01*
X58588110Y-85901431D01*
X58840000Y-85952440D01*
X60540000Y-85952440D01*
X60775317Y-85908162D01*
X60991441Y-85769090D01*
X61136431Y-85556890D01*
X61150086Y-85489459D01*
X61179946Y-85534147D01*
X61661715Y-85856054D01*
X62230000Y-85969093D01*
X62798285Y-85856054D01*
X63280054Y-85534147D01*
X63500000Y-85204974D01*
X63719946Y-85534147D01*
X64201715Y-85856054D01*
X64770000Y-85969093D01*
X65338285Y-85856054D01*
X65820054Y-85534147D01*
X66040000Y-85204974D01*
X66259946Y-85534147D01*
X66741715Y-85856054D01*
X67310000Y-85969093D01*
X67878285Y-85856054D01*
X68360054Y-85534147D01*
X68681961Y-85052378D01*
X68795000Y-84484093D01*
X68795000Y-84425907D01*
X68681961Y-83857622D01*
X68396392Y-83430238D01*
X69274473Y-82552157D01*
X69596000Y-82616113D01*
X70145151Y-82506880D01*
X70610698Y-82195811D01*
X70921767Y-81730264D01*
X71031000Y-81181113D01*
X71031000Y-81124887D01*
X70921767Y-80575736D01*
X70610698Y-80110189D01*
X70145151Y-79799120D01*
X69596000Y-79689887D01*
X69046849Y-79799120D01*
X68581302Y-80110189D01*
X68326000Y-80492275D01*
X68070698Y-80110189D01*
X67605151Y-79799120D01*
X67056000Y-79689887D01*
X66506849Y-79799120D01*
X66041302Y-80110189D01*
X65786000Y-80492275D01*
X65530698Y-80110189D01*
X65065151Y-79799120D01*
X64516000Y-79689887D01*
X63966849Y-79799120D01*
X63501302Y-80110189D01*
X63246000Y-80492275D01*
X62990698Y-80110189D01*
X62525151Y-79799120D01*
X61976000Y-79689887D01*
X61426849Y-79799120D01*
X60961302Y-80110189D01*
X60864899Y-80254465D01*
X60839162Y-80117683D01*
X60700090Y-79901559D01*
X60487890Y-79756569D01*
X60236000Y-79705560D01*
X58636000Y-79705560D01*
X58400683Y-79749838D01*
X58293000Y-79819130D01*
X58293000Y-74803000D01*
X58761314Y-74803000D01*
X58886849Y-74886880D01*
X59436000Y-74996113D01*
X59985151Y-74886880D01*
X60450698Y-74575811D01*
X60706000Y-74193725D01*
X60961302Y-74575811D01*
X61426849Y-74886880D01*
X61976000Y-74996113D01*
X62525151Y-74886880D01*
X62990698Y-74575811D01*
X63246000Y-74193725D01*
X63501302Y-74575811D01*
X63966849Y-74886880D01*
X64516000Y-74996113D01*
X65065151Y-74886880D01*
X65530698Y-74575811D01*
X65786000Y-74193725D01*
X66041302Y-74575811D01*
X66506849Y-74886880D01*
X67056000Y-74996113D01*
X67605151Y-74886880D01*
X68070698Y-74575811D01*
X68326000Y-74193725D01*
X68581302Y-74575811D01*
X69046849Y-74886880D01*
X69596000Y-74996113D01*
X70145151Y-74886880D01*
X70610698Y-74575811D01*
X70866000Y-74193725D01*
X71121302Y-74575811D01*
X71586849Y-74886880D01*
X72136000Y-74996113D01*
X72685151Y-74886880D01*
X73150698Y-74575811D01*
X73406000Y-74193725D01*
X73661302Y-74575811D01*
X74126849Y-74886880D01*
X74676000Y-74996113D01*
X75225151Y-74886880D01*
X75690698Y-74575811D01*
X75946000Y-74193725D01*
X76201302Y-74575811D01*
X76666849Y-74886880D01*
X77216000Y-74996113D01*
X77765151Y-74886880D01*
X78230698Y-74575811D01*
X78541767Y-74110264D01*
X78651000Y-73561113D01*
X78651000Y-73504887D01*
X78541767Y-72955736D01*
X78230698Y-72490189D01*
X77765151Y-72179120D01*
X77216000Y-72069887D01*
X76666849Y-72179120D01*
X76201302Y-72490189D01*
X75946000Y-72872275D01*
X75690698Y-72490189D01*
X75225151Y-72179120D01*
X74676000Y-72069887D01*
X74126849Y-72179120D01*
X73661302Y-72490189D01*
X73406000Y-72872275D01*
X73150698Y-72490189D01*
X72685151Y-72179120D01*
X72136000Y-72069887D01*
X71586849Y-72179120D01*
X71121302Y-72490189D01*
X70866000Y-72872275D01*
X70610698Y-72490189D01*
X70145151Y-72179120D01*
X69596000Y-72069887D01*
X69046849Y-72179120D01*
X68581302Y-72490189D01*
X68326000Y-72872275D01*
X68070698Y-72490189D01*
X67605151Y-72179120D01*
X67056000Y-72069887D01*
X66506849Y-72179120D01*
X66041302Y-72490189D01*
X65786000Y-72872275D01*
X65530698Y-72490189D01*
X65065151Y-72179120D01*
X64516000Y-72069887D01*
X63966849Y-72179120D01*
X63501302Y-72490189D01*
X63246000Y-72872275D01*
X63179251Y-72772379D01*
X64405951Y-71545679D01*
X64770000Y-71618093D01*
X65338285Y-71505054D01*
X65820054Y-71183147D01*
X66040000Y-70853974D01*
X66259946Y-71183147D01*
X66741715Y-71505054D01*
X67310000Y-71618093D01*
X67878285Y-71505054D01*
X68360054Y-71183147D01*
X68681961Y-70701378D01*
X68795000Y-70133093D01*
X68795000Y-70074907D01*
X68681961Y-69506622D01*
X68360054Y-69024853D01*
X67878285Y-68702946D01*
X67310000Y-68589907D01*
X66741715Y-68702946D01*
X66259946Y-69024853D01*
X66040000Y-69354026D01*
X65820054Y-69024853D01*
X65338285Y-68702946D01*
X64770000Y-68589907D01*
X64201715Y-68702946D01*
X63719946Y-69024853D01*
X63500000Y-69354026D01*
X63280054Y-69024853D01*
X62798285Y-68702946D01*
X62230000Y-68589907D01*
X61661715Y-68702946D01*
X61179946Y-69024853D01*
X61152150Y-69066452D01*
X61143162Y-69018683D01*
X61004090Y-68802559D01*
X60791890Y-68657569D01*
X60540000Y-68606560D01*
X58840000Y-68606560D01*
X58604683Y-68650838D01*
X58388559Y-68789910D01*
X58293000Y-68929765D01*
X58293000Y-67466595D01*
X58375910Y-67595441D01*
X58588110Y-67740431D01*
X58840000Y-67791440D01*
X60540000Y-67791440D01*
X60775317Y-67747162D01*
X60991441Y-67608090D01*
X61136431Y-67395890D01*
X61150086Y-67328459D01*
X61179946Y-67373147D01*
X61661715Y-67695054D01*
X62230000Y-67808093D01*
X62798285Y-67695054D01*
X63280054Y-67373147D01*
X63500000Y-67043974D01*
X63719946Y-67373147D01*
X64201715Y-67695054D01*
X64770000Y-67808093D01*
X65338285Y-67695054D01*
X65820054Y-67373147D01*
X66040000Y-67043974D01*
X66259946Y-67373147D01*
X66741715Y-67695054D01*
X67310000Y-67808093D01*
X67878285Y-67695054D01*
X68360054Y-67373147D01*
X68681961Y-66891378D01*
X68795000Y-66323093D01*
X68795000Y-66264907D01*
X68681961Y-65696622D01*
X68396392Y-65269238D01*
X69274473Y-64391157D01*
X69596000Y-64455113D01*
X70145151Y-64345880D01*
X70610698Y-64034811D01*
X70921767Y-63569264D01*
X71031000Y-63020113D01*
X71031000Y-62963887D01*
X70921767Y-62414736D01*
X70610698Y-61949189D01*
X70145151Y-61638120D01*
X69596000Y-61528887D01*
X69046849Y-61638120D01*
X68581302Y-61949189D01*
X68326000Y-62331275D01*
X68070698Y-61949189D01*
X67605151Y-61638120D01*
X67056000Y-61528887D01*
X66506849Y-61638120D01*
X66041302Y-61949189D01*
X65786000Y-62331275D01*
X65530698Y-61949189D01*
X65065151Y-61638120D01*
X64516000Y-61528887D01*
X63966849Y-61638120D01*
X63501302Y-61949189D01*
X63246000Y-62331275D01*
X62990698Y-61949189D01*
X62525151Y-61638120D01*
X61976000Y-61528887D01*
X61426849Y-61638120D01*
X60961302Y-61949189D01*
X60864899Y-62093465D01*
X60839162Y-61956683D01*
X60700090Y-61740559D01*
X60487890Y-61595569D01*
X60236000Y-61544560D01*
X58636000Y-61544560D01*
X58400683Y-61588838D01*
X58293000Y-61658130D01*
X58293000Y-59055000D01*
X58196327Y-58568992D01*
X57921026Y-58156974D01*
X57794026Y-58029974D01*
X57382008Y-57754673D01*
X56896000Y-57657999D01*
X56642000Y-57708523D01*
X56642000Y-55499000D01*
X56611147Y-55343887D01*
X58001000Y-55343887D01*
X58001000Y-55400113D01*
X58110233Y-55949264D01*
X58421302Y-56414811D01*
X58886849Y-56725880D01*
X59436000Y-56835113D01*
X59985151Y-56725880D01*
X60450698Y-56414811D01*
X60706000Y-56032725D01*
X60961302Y-56414811D01*
X61426849Y-56725880D01*
X61976000Y-56835113D01*
X62525151Y-56725880D01*
X62990698Y-56414811D01*
X63246000Y-56032725D01*
X63501302Y-56414811D01*
X63966849Y-56725880D01*
X64516000Y-56835113D01*
X65065151Y-56725880D01*
X65530698Y-56414811D01*
X65786000Y-56032725D01*
X66041302Y-56414811D01*
X66506849Y-56725880D01*
X67056000Y-56835113D01*
X67605151Y-56725880D01*
X68070698Y-56414811D01*
X68326000Y-56032725D01*
X68581302Y-56414811D01*
X69046849Y-56725880D01*
X69596000Y-56835113D01*
X70145151Y-56725880D01*
X70610698Y-56414811D01*
X70866000Y-56032725D01*
X71121302Y-56414811D01*
X71586849Y-56725880D01*
X72136000Y-56835113D01*
X72685151Y-56725880D01*
X73150698Y-56414811D01*
X73406000Y-56032725D01*
X73661302Y-56414811D01*
X74126849Y-56725880D01*
X74676000Y-56835113D01*
X75225151Y-56725880D01*
X75690698Y-56414811D01*
X75946000Y-56032725D01*
X76201302Y-56414811D01*
X76666849Y-56725880D01*
X77216000Y-56835113D01*
X77765151Y-56725880D01*
X78230698Y-56414811D01*
X78541767Y-55949264D01*
X78651000Y-55400113D01*
X78651000Y-55343887D01*
X78541767Y-54794736D01*
X78230698Y-54329189D01*
X77765151Y-54018120D01*
X77216000Y-53908887D01*
X76666849Y-54018120D01*
X76201302Y-54329189D01*
X75946000Y-54711275D01*
X75690698Y-54329189D01*
X75225151Y-54018120D01*
X74676000Y-53908887D01*
X74126849Y-54018120D01*
X73661302Y-54329189D01*
X73406000Y-54711275D01*
X73150698Y-54329189D01*
X72685151Y-54018120D01*
X72136000Y-53908887D01*
X71586849Y-54018120D01*
X71121302Y-54329189D01*
X70866000Y-54711275D01*
X70610698Y-54329189D01*
X70145151Y-54018120D01*
X69596000Y-53908887D01*
X69046849Y-54018120D01*
X68581302Y-54329189D01*
X68326000Y-54711275D01*
X68070698Y-54329189D01*
X67605151Y-54018120D01*
X67056000Y-53908887D01*
X66506849Y-54018120D01*
X66041302Y-54329189D01*
X65786000Y-54711275D01*
X65530698Y-54329189D01*
X65065151Y-54018120D01*
X64516000Y-53908887D01*
X63966849Y-54018120D01*
X63501302Y-54329189D01*
X63246000Y-54711275D01*
X63179251Y-54611379D01*
X64405951Y-53384679D01*
X64770000Y-53457093D01*
X65338285Y-53344054D01*
X65820054Y-53022147D01*
X66040000Y-52692974D01*
X66259946Y-53022147D01*
X66741715Y-53344054D01*
X67310000Y-53457093D01*
X67878285Y-53344054D01*
X68360054Y-53022147D01*
X68681961Y-52540378D01*
X68795000Y-51972093D01*
X68795000Y-51913907D01*
X68681961Y-51345622D01*
X68360054Y-50863853D01*
X67878285Y-50541946D01*
X67310000Y-50428907D01*
X66741715Y-50541946D01*
X66259946Y-50863853D01*
X66040000Y-51193026D01*
X65820054Y-50863853D01*
X65338285Y-50541946D01*
X64770000Y-50428907D01*
X64201715Y-50541946D01*
X63719946Y-50863853D01*
X63500000Y-51193026D01*
X63280054Y-50863853D01*
X62798285Y-50541946D01*
X62230000Y-50428907D01*
X61661715Y-50541946D01*
X61179946Y-50863853D01*
X61152150Y-50905452D01*
X61143162Y-50857683D01*
X61004090Y-50641559D01*
X60791890Y-50496569D01*
X60540000Y-50445560D01*
X58840000Y-50445560D01*
X58604683Y-50489838D01*
X58388559Y-50628910D01*
X58243569Y-50841110D01*
X58192560Y-51093000D01*
X58192560Y-52793000D01*
X58236838Y-53028317D01*
X58375910Y-53244441D01*
X58588110Y-53389431D01*
X58840000Y-53440440D01*
X60540000Y-53440440D01*
X60775317Y-53396162D01*
X60991441Y-53257090D01*
X61136431Y-53044890D01*
X61150086Y-52977459D01*
X61179946Y-53022147D01*
X61661715Y-53344054D01*
X62186858Y-53448512D01*
X61664527Y-53970843D01*
X61426849Y-54018120D01*
X60961302Y-54329189D01*
X60706000Y-54711275D01*
X60450698Y-54329189D01*
X59985151Y-54018120D01*
X59436000Y-53908887D01*
X58886849Y-54018120D01*
X58421302Y-54329189D01*
X58110233Y-54794736D01*
X58001000Y-55343887D01*
X56611147Y-55343887D01*
X56583996Y-55207395D01*
X56418815Y-54960185D01*
X56171605Y-54795004D01*
X55880000Y-54737000D01*
X55812330Y-54737000D01*
X55624698Y-54456189D01*
X55159151Y-54145120D01*
X54610000Y-54035887D01*
X54060849Y-54145120D01*
X53595302Y-54456189D01*
X53399731Y-54748881D01*
X53340000Y-54737000D01*
X53272330Y-54737000D01*
X53084698Y-54456189D01*
X52619151Y-54145120D01*
X52070000Y-54035887D01*
X51520849Y-54145120D01*
X51055302Y-54456189D01*
X50859731Y-54748881D01*
X50800000Y-54737000D01*
X50732330Y-54737000D01*
X50544698Y-54456189D01*
X50079151Y-54145120D01*
X49530000Y-54035887D01*
X48980849Y-54145120D01*
X48515302Y-54456189D01*
X48260000Y-54838275D01*
X48004698Y-54456189D01*
X47539151Y-54145120D01*
X46990000Y-54035887D01*
X46440849Y-54145120D01*
X45975302Y-54456189D01*
X45720000Y-54838275D01*
X45464698Y-54456189D01*
X44999151Y-54145120D01*
X44450000Y-54035887D01*
X43900849Y-54145120D01*
X43435302Y-54456189D01*
X43180000Y-54838275D01*
X42924698Y-54456189D01*
X42459151Y-54145120D01*
X41910000Y-54035887D01*
X41360849Y-54145120D01*
X40895302Y-54456189D01*
X40640000Y-54838275D01*
X40573251Y-54738379D01*
X41799951Y-53511679D01*
X42164000Y-53584093D01*
X42732285Y-53471054D01*
X43214054Y-53149147D01*
X43434000Y-52819974D01*
X43653946Y-53149147D01*
X44135715Y-53471054D01*
X44704000Y-53584093D01*
X45272285Y-53471054D01*
X45754054Y-53149147D01*
X46075961Y-52667378D01*
X46189000Y-52099093D01*
X46189000Y-52040907D01*
X46075961Y-51472622D01*
X45754054Y-50990853D01*
X45272285Y-50668946D01*
X44704000Y-50555907D01*
X44135715Y-50668946D01*
X43653946Y-50990853D01*
X43434000Y-51320026D01*
X43214054Y-50990853D01*
X42732285Y-50668946D01*
X42164000Y-50555907D01*
X41595715Y-50668946D01*
X41113946Y-50990853D01*
X40894000Y-51320026D01*
X40674054Y-50990853D01*
X40192285Y-50668946D01*
X39624000Y-50555907D01*
X39055715Y-50668946D01*
X38573946Y-50990853D01*
X38546150Y-51032452D01*
X38537162Y-50984683D01*
X38398090Y-50768559D01*
X38185890Y-50623569D01*
X37934000Y-50572560D01*
X36234000Y-50572560D01*
X35998683Y-50616838D01*
X35782559Y-50755910D01*
X35637569Y-50968110D01*
X35586560Y-51220000D01*
X35586560Y-52920000D01*
X35630838Y-53155317D01*
X35769910Y-53371441D01*
X35982110Y-53516431D01*
X36234000Y-53567440D01*
X37934000Y-53567440D01*
X38169317Y-53523162D01*
X38385441Y-53384090D01*
X38530431Y-53171890D01*
X38544086Y-53104459D01*
X38573946Y-53149147D01*
X39055715Y-53471054D01*
X39580858Y-53575512D01*
X39058527Y-54097843D01*
X38820849Y-54145120D01*
X38355302Y-54456189D01*
X38100000Y-54838275D01*
X37844698Y-54456189D01*
X37379151Y-54145120D01*
X36830000Y-54035887D01*
X36280849Y-54145120D01*
X36155314Y-54229000D01*
X29845000Y-54229000D01*
X29358992Y-54325673D01*
X28946974Y-54600974D01*
X28671673Y-55012992D01*
X28575000Y-55499000D01*
X28575000Y-74165578D01*
X28443946Y-74361715D01*
X28330907Y-74930000D01*
X28443946Y-75498285D01*
X28765853Y-75980054D01*
X29095026Y-76200000D01*
X28765853Y-76419946D01*
X28443946Y-76901715D01*
X28330907Y-77470000D01*
X28443946Y-78038285D01*
X28765853Y-78520054D01*
X29095026Y-78740000D01*
X28765853Y-78959946D01*
X28443946Y-79441715D01*
X28330907Y-80010000D01*
X28443946Y-80578285D01*
X28765853Y-81060054D01*
X29095026Y-81280000D01*
X28765853Y-81499946D01*
X28443946Y-81981715D01*
X28330907Y-82550000D01*
X28443946Y-83118285D01*
X28765853Y-83600054D01*
X29095026Y-83820000D01*
X28765853Y-84039946D01*
X28443946Y-84521715D01*
X28330907Y-85090000D01*
X28443946Y-85658285D01*
X28765853Y-86140054D01*
X29095026Y-86360000D01*
X28765853Y-86579946D01*
X28443946Y-87061715D01*
X28330907Y-87630000D01*
X28443946Y-88198285D01*
X28765853Y-88680054D01*
X29095026Y-88900000D01*
X28765853Y-89119946D01*
X28443946Y-89601715D01*
X28330907Y-90170000D01*
X28443946Y-90738285D01*
X28765853Y-91220054D01*
X29095026Y-91440000D01*
X28765853Y-91659946D01*
X28443946Y-92141715D01*
X28330907Y-92710000D01*
X28443946Y-93278285D01*
X28765853Y-93760054D01*
X29247622Y-94081961D01*
X29815907Y-94195000D01*
X29874093Y-94195000D01*
X30442378Y-94081961D01*
X30594974Y-93980000D01*
X36830000Y-93980000D01*
X37316008Y-93883327D01*
X37728026Y-93608026D01*
X38003327Y-93196008D01*
X38100000Y-92710000D01*
X38100000Y-92608725D01*
X38355302Y-92990811D01*
X38820849Y-93301880D01*
X39370000Y-93411113D01*
X39919151Y-93301880D01*
X40384698Y-92990811D01*
X40640000Y-92608725D01*
X40895302Y-92990811D01*
X41360849Y-93301880D01*
X41910000Y-93411113D01*
X42459151Y-93301880D01*
X42924698Y-92990811D01*
X43180000Y-92608725D01*
X43435302Y-92990811D01*
X43900849Y-93301880D01*
X44450000Y-93411113D01*
X44999151Y-93301880D01*
X45464698Y-92990811D01*
X45720000Y-92608725D01*
X45975302Y-92990811D01*
X46440849Y-93301880D01*
X46990000Y-93411113D01*
X47539151Y-93301880D01*
X48004698Y-92990811D01*
X48260000Y-92608725D01*
X48515302Y-92990811D01*
X48980849Y-93301880D01*
X49530000Y-93411113D01*
X50038000Y-93310065D01*
X50038000Y-108873935D01*
X49530000Y-108772887D01*
X48980849Y-108882120D01*
X48515302Y-109193189D01*
X48260000Y-109575275D01*
X48004698Y-109193189D01*
X47539151Y-108882120D01*
X46990000Y-108772887D01*
X46440849Y-108882120D01*
X45975302Y-109193189D01*
X45720000Y-109575275D01*
X45464698Y-109193189D01*
X44999151Y-108882120D01*
X44450000Y-108772887D01*
X43900849Y-108882120D01*
X43435302Y-109193189D01*
X43180000Y-109575275D01*
X42924698Y-109193189D01*
X42459151Y-108882120D01*
X41910000Y-108772887D01*
X41360849Y-108882120D01*
X40895302Y-109193189D01*
X40640000Y-109575275D01*
X40573251Y-109475379D01*
X41799951Y-108248679D01*
X42164000Y-108321093D01*
X42732285Y-108208054D01*
X43214054Y-107886147D01*
X43434000Y-107556974D01*
X43653946Y-107886147D01*
X44135715Y-108208054D01*
X44704000Y-108321093D01*
X45272285Y-108208054D01*
X45754054Y-107886147D01*
X46075961Y-107404378D01*
X46189000Y-106836093D01*
X46189000Y-106777907D01*
X46075961Y-106209622D01*
X45754054Y-105727853D01*
X45272285Y-105405946D01*
X44704000Y-105292907D01*
X44135715Y-105405946D01*
X43653946Y-105727853D01*
X43434000Y-106057026D01*
X43214054Y-105727853D01*
X42732285Y-105405946D01*
X42164000Y-105292907D01*
X41595715Y-105405946D01*
X41113946Y-105727853D01*
X40894000Y-106057026D01*
X40674054Y-105727853D01*
X40192285Y-105405946D01*
X39624000Y-105292907D01*
X39055715Y-105405946D01*
X38573946Y-105727853D01*
X38546150Y-105769452D01*
X38537162Y-105721683D01*
X38398090Y-105505559D01*
X38185890Y-105360569D01*
X37934000Y-105309560D01*
X36234000Y-105309560D01*
X35998683Y-105353838D01*
X35782559Y-105492910D01*
X35637569Y-105705110D01*
X35586560Y-105957000D01*
X35586560Y-107657000D01*
X35630838Y-107892317D01*
X35769910Y-108108441D01*
X35982110Y-108253431D01*
X36234000Y-108304440D01*
X37934000Y-108304440D01*
X38169317Y-108260162D01*
X38385441Y-108121090D01*
X38530431Y-107908890D01*
X38544086Y-107841459D01*
X38573946Y-107886147D01*
X39055715Y-108208054D01*
X39580858Y-108312512D01*
X39058527Y-108834843D01*
X38820849Y-108882120D01*
X38355302Y-109193189D01*
X38100000Y-109575275D01*
X37844698Y-109193189D01*
X37379151Y-108882120D01*
X36830000Y-108772887D01*
X36280849Y-108882120D01*
X36155314Y-108966000D01*
X32258000Y-108966000D01*
X32258000Y-98933000D01*
X32225180Y-98768000D01*
X35382560Y-98768000D01*
X35382560Y-100368000D01*
X35426838Y-100603317D01*
X35565910Y-100819441D01*
X35778110Y-100964431D01*
X36030000Y-101015440D01*
X37630000Y-101015440D01*
X37865317Y-100971162D01*
X38081441Y-100832090D01*
X38226431Y-100619890D01*
X38257815Y-100464911D01*
X38355302Y-100610811D01*
X38820849Y-100921880D01*
X39263451Y-101009919D01*
X39085185Y-101188185D01*
X38920004Y-101435395D01*
X38891505Y-101578667D01*
X38573946Y-101790853D01*
X38546150Y-101832452D01*
X38537162Y-101784683D01*
X38398090Y-101568559D01*
X38185890Y-101423569D01*
X37934000Y-101372560D01*
X36234000Y-101372560D01*
X35998683Y-101416838D01*
X35782559Y-101555910D01*
X35637569Y-101768110D01*
X35586560Y-102020000D01*
X35586560Y-103720000D01*
X35630838Y-103955317D01*
X35769910Y-104171441D01*
X35982110Y-104316431D01*
X36234000Y-104367440D01*
X37934000Y-104367440D01*
X38169317Y-104323162D01*
X38385441Y-104184090D01*
X38530431Y-103971890D01*
X38544086Y-103904459D01*
X38573946Y-103949147D01*
X39055715Y-104271054D01*
X39624000Y-104384093D01*
X40192285Y-104271054D01*
X40674054Y-103949147D01*
X40894000Y-103619974D01*
X41113946Y-103949147D01*
X41595715Y-104271054D01*
X42164000Y-104384093D01*
X42732285Y-104271054D01*
X43214054Y-103949147D01*
X43434000Y-103619974D01*
X43653946Y-103949147D01*
X44135715Y-104271054D01*
X44704000Y-104384093D01*
X45272285Y-104271054D01*
X45754054Y-103949147D01*
X46075961Y-103467378D01*
X46189000Y-102899093D01*
X46189000Y-102840907D01*
X46075961Y-102272622D01*
X45790392Y-101845238D01*
X46668473Y-100967157D01*
X46990000Y-101031113D01*
X47539151Y-100921880D01*
X48004698Y-100610811D01*
X48315767Y-100145264D01*
X48425000Y-99596113D01*
X48425000Y-99539887D01*
X48315767Y-98990736D01*
X48004698Y-98525189D01*
X47539151Y-98214120D01*
X46990000Y-98104887D01*
X46440849Y-98214120D01*
X45975302Y-98525189D01*
X45720000Y-98907275D01*
X45464698Y-98525189D01*
X44999151Y-98214120D01*
X44450000Y-98104887D01*
X43900849Y-98214120D01*
X43435302Y-98525189D01*
X43180000Y-98907275D01*
X42924698Y-98525189D01*
X42459151Y-98214120D01*
X41910000Y-98104887D01*
X41360849Y-98214120D01*
X40895302Y-98525189D01*
X40640000Y-98907275D01*
X40384698Y-98525189D01*
X39919151Y-98214120D01*
X39370000Y-98104887D01*
X38820849Y-98214120D01*
X38355302Y-98525189D01*
X38258899Y-98669465D01*
X38233162Y-98532683D01*
X38094090Y-98316559D01*
X37881890Y-98171569D01*
X37630000Y-98120560D01*
X36030000Y-98120560D01*
X35794683Y-98164838D01*
X35578559Y-98303910D01*
X35433569Y-98516110D01*
X35382560Y-98768000D01*
X32225180Y-98768000D01*
X32161327Y-98446992D01*
X31886026Y-98034974D01*
X31759026Y-97907974D01*
X31347008Y-97632673D01*
X30861000Y-97535999D01*
X30860995Y-97536000D01*
X29197974Y-97536000D01*
X29045378Y-97434039D01*
X28477093Y-97321000D01*
X28418907Y-97321000D01*
X27850622Y-97434039D01*
X27368853Y-97755946D01*
X27046946Y-98237715D01*
X26933907Y-98806000D01*
X24967000Y-98806000D01*
X24967000Y-50353619D01*
X26085613Y-50353619D01*
X26425155Y-51175372D01*
X27053321Y-51804636D01*
X27874481Y-52145611D01*
X28763619Y-52146387D01*
X29585372Y-51806845D01*
X30214636Y-51178679D01*
X30555611Y-50357519D01*
X30555614Y-50353619D01*
X78536613Y-50353619D01*
X78876155Y-51175372D01*
X79504321Y-51804636D01*
X80325481Y-52145611D01*
X81214619Y-52146387D01*
X82036372Y-51806845D01*
X82665636Y-51178679D01*
X83006611Y-50357519D01*
X83007387Y-49468381D01*
X82667845Y-48646628D01*
X82039679Y-48017364D01*
X81218519Y-47676389D01*
X80329381Y-47675613D01*
X79507628Y-48015155D01*
X78878364Y-48643321D01*
X78537389Y-49464481D01*
X78536613Y-50353619D01*
X30555614Y-50353619D01*
X30556387Y-49468381D01*
X30216845Y-48646628D01*
X29588679Y-48017364D01*
X28767519Y-47676389D01*
X27878381Y-47675613D01*
X27056628Y-48015155D01*
X26427364Y-48643321D01*
X26086389Y-49464481D01*
X26085613Y-50353619D01*
X24967000Y-50353619D01*
X24967000Y-46557000D01*
X84126000Y-46557000D01*
X84126000Y-137847000D01*
G36*
X52578000Y-108873935D02*
X52070000Y-108772887D01*
X51562000Y-108873935D01*
X51562000Y-93310065D01*
X52070000Y-93411113D01*
X52578000Y-93310065D01*
X52578000Y-108873935D01*
X52578000Y-108873935D01*
G37*
X52578000Y-108873935D02*
X52070000Y-108772887D01*
X51562000Y-108873935D01*
X51562000Y-93310065D01*
X52070000Y-93411113D01*
X52578000Y-93310065D01*
X52578000Y-108873935D01*
G36*
X55118000Y-108873935D02*
X54610000Y-108772887D01*
X54102000Y-108873935D01*
X54102000Y-93310065D01*
X54610000Y-93411113D01*
X55118000Y-93310065D01*
X55118000Y-108873935D01*
X55118000Y-108873935D01*
G37*
X55118000Y-108873935D02*
X54610000Y-108772887D01*
X54102000Y-108873935D01*
X54102000Y-93310065D01*
X54610000Y-93411113D01*
X55118000Y-93310065D01*
X55118000Y-108873935D01*
G36*
X48515302Y-74702811D02*
X48980849Y-75013880D01*
X49530000Y-75123113D01*
X50038000Y-75022065D01*
X50038000Y-90585935D01*
X49530000Y-90484887D01*
X48980849Y-90594120D01*
X48515302Y-90905189D01*
X48260000Y-91287275D01*
X48004698Y-90905189D01*
X47539151Y-90594120D01*
X46990000Y-90484887D01*
X46440849Y-90594120D01*
X45975302Y-90905189D01*
X45720000Y-91287275D01*
X45464698Y-90905189D01*
X44999151Y-90594120D01*
X44450000Y-90484887D01*
X43900849Y-90594120D01*
X43435302Y-90905189D01*
X43180000Y-91287275D01*
X42924698Y-90905189D01*
X42459151Y-90594120D01*
X41910000Y-90484887D01*
X41360849Y-90594120D01*
X40895302Y-90905189D01*
X40640000Y-91287275D01*
X40573251Y-91187379D01*
X41799951Y-89960679D01*
X42164000Y-90033093D01*
X42732285Y-89920054D01*
X43214054Y-89598147D01*
X43434000Y-89268974D01*
X43653946Y-89598147D01*
X44135715Y-89920054D01*
X44704000Y-90033093D01*
X45272285Y-89920054D01*
X45754054Y-89598147D01*
X46075961Y-89116378D01*
X46189000Y-88548093D01*
X46189000Y-88489907D01*
X46075961Y-87921622D01*
X45754054Y-87439853D01*
X45272285Y-87117946D01*
X44704000Y-87004907D01*
X44135715Y-87117946D01*
X43653946Y-87439853D01*
X43434000Y-87769026D01*
X43214054Y-87439853D01*
X42732285Y-87117946D01*
X42164000Y-87004907D01*
X41595715Y-87117946D01*
X41113946Y-87439853D01*
X40894000Y-87769026D01*
X40674054Y-87439853D01*
X40192285Y-87117946D01*
X39624000Y-87004907D01*
X39055715Y-87117946D01*
X38573946Y-87439853D01*
X38546150Y-87481452D01*
X38537162Y-87433683D01*
X38398090Y-87217559D01*
X38185890Y-87072569D01*
X37934000Y-87021560D01*
X36234000Y-87021560D01*
X35998683Y-87065838D01*
X35782559Y-87204910D01*
X35637569Y-87417110D01*
X35586560Y-87669000D01*
X35586560Y-89369000D01*
X35630838Y-89604317D01*
X35769910Y-89820441D01*
X35982110Y-89965431D01*
X36234000Y-90016440D01*
X37934000Y-90016440D01*
X38169317Y-89972162D01*
X38385441Y-89833090D01*
X38530431Y-89620890D01*
X38544086Y-89553459D01*
X38573946Y-89598147D01*
X39055715Y-89920054D01*
X39580858Y-90024512D01*
X39058527Y-90546843D01*
X38820849Y-90594120D01*
X38355302Y-90905189D01*
X38100000Y-91287275D01*
X37844698Y-90905189D01*
X37379151Y-90594120D01*
X36830000Y-90484887D01*
X36280849Y-90594120D01*
X35815302Y-90905189D01*
X35504233Y-91370736D01*
X35490456Y-91440000D01*
X30594974Y-91440000D01*
X30924147Y-91220054D01*
X31246054Y-90738285D01*
X31359093Y-90170000D01*
X31246054Y-89601715D01*
X30924147Y-89119946D01*
X30594974Y-88900000D01*
X30924147Y-88680054D01*
X31246054Y-88198285D01*
X31359093Y-87630000D01*
X31246054Y-87061715D01*
X30924147Y-86579946D01*
X30594974Y-86360000D01*
X30924147Y-86140054D01*
X31246054Y-85658285D01*
X31359093Y-85090000D01*
X31246054Y-84521715D01*
X30924147Y-84039946D01*
X30594974Y-83820000D01*
X30924147Y-83600054D01*
X31246054Y-83118285D01*
X31359093Y-82550000D01*
X31246054Y-81981715D01*
X30924147Y-81499946D01*
X30594974Y-81280000D01*
X30924147Y-81060054D01*
X31246054Y-80578285D01*
X31265604Y-80480000D01*
X35382560Y-80480000D01*
X35382560Y-82080000D01*
X35426838Y-82315317D01*
X35565910Y-82531441D01*
X35778110Y-82676431D01*
X36030000Y-82727440D01*
X37630000Y-82727440D01*
X37865317Y-82683162D01*
X38081441Y-82544090D01*
X38226431Y-82331890D01*
X38257815Y-82176911D01*
X38355302Y-82322811D01*
X38820849Y-82633880D01*
X39263451Y-82721919D01*
X39085185Y-82900185D01*
X38920004Y-83147395D01*
X38891505Y-83290667D01*
X38573946Y-83502853D01*
X38546150Y-83544452D01*
X38537162Y-83496683D01*
X38398090Y-83280559D01*
X38185890Y-83135569D01*
X37934000Y-83084560D01*
X36234000Y-83084560D01*
X35998683Y-83128838D01*
X35782559Y-83267910D01*
X35637569Y-83480110D01*
X35586560Y-83732000D01*
X35586560Y-85432000D01*
X35630838Y-85667317D01*
X35769910Y-85883441D01*
X35982110Y-86028431D01*
X36234000Y-86079440D01*
X37934000Y-86079440D01*
X38169317Y-86035162D01*
X38385441Y-85896090D01*
X38530431Y-85683890D01*
X38544086Y-85616459D01*
X38573946Y-85661147D01*
X39055715Y-85983054D01*
X39624000Y-86096093D01*
X40192285Y-85983054D01*
X40674054Y-85661147D01*
X40894000Y-85331974D01*
X41113946Y-85661147D01*
X41595715Y-85983054D01*
X42164000Y-86096093D01*
X42732285Y-85983054D01*
X43214054Y-85661147D01*
X43434000Y-85331974D01*
X43653946Y-85661147D01*
X44135715Y-85983054D01*
X44704000Y-86096093D01*
X45272285Y-85983054D01*
X45754054Y-85661147D01*
X46075961Y-85179378D01*
X46189000Y-84611093D01*
X46189000Y-84552907D01*
X46075961Y-83984622D01*
X45790392Y-83557238D01*
X46668473Y-82679157D01*
X46990000Y-82743113D01*
X47539151Y-82633880D01*
X48004698Y-82322811D01*
X48315767Y-81857264D01*
X48425000Y-81308113D01*
X48425000Y-81251887D01*
X48315767Y-80702736D01*
X48004698Y-80237189D01*
X47539151Y-79926120D01*
X46990000Y-79816887D01*
X46440849Y-79926120D01*
X45975302Y-80237189D01*
X45720000Y-80619275D01*
X45464698Y-80237189D01*
X44999151Y-79926120D01*
X44450000Y-79816887D01*
X43900849Y-79926120D01*
X43435302Y-80237189D01*
X43180000Y-80619275D01*
X42924698Y-80237189D01*
X42459151Y-79926120D01*
X41910000Y-79816887D01*
X41360849Y-79926120D01*
X40895302Y-80237189D01*
X40640000Y-80619275D01*
X40384698Y-80237189D01*
X39919151Y-79926120D01*
X39370000Y-79816887D01*
X38820849Y-79926120D01*
X38355302Y-80237189D01*
X38258899Y-80381465D01*
X38233162Y-80244683D01*
X38094090Y-80028559D01*
X37881890Y-79883569D01*
X37630000Y-79832560D01*
X36030000Y-79832560D01*
X35794683Y-79876838D01*
X35578559Y-80015910D01*
X35433569Y-80228110D01*
X35382560Y-80480000D01*
X31265604Y-80480000D01*
X31359093Y-80010000D01*
X31246054Y-79441715D01*
X30924147Y-78959946D01*
X30594974Y-78740000D01*
X30924147Y-78520054D01*
X31246054Y-78038285D01*
X31359093Y-77470000D01*
X31246054Y-76901715D01*
X30924147Y-76419946D01*
X30594974Y-76200000D01*
X36830000Y-76200000D01*
X37316008Y-76103327D01*
X37728026Y-75828026D01*
X38003327Y-75416008D01*
X38100000Y-74930000D01*
X38100000Y-74320725D01*
X38355302Y-74702811D01*
X38820849Y-75013880D01*
X39370000Y-75123113D01*
X39919151Y-75013880D01*
X40384698Y-74702811D01*
X40640000Y-74320725D01*
X40895302Y-74702811D01*
X41360849Y-75013880D01*
X41910000Y-75123113D01*
X42459151Y-75013880D01*
X42924698Y-74702811D01*
X43180000Y-74320725D01*
X43435302Y-74702811D01*
X43900849Y-75013880D01*
X44450000Y-75123113D01*
X44999151Y-75013880D01*
X45464698Y-74702811D01*
X45720000Y-74320725D01*
X45975302Y-74702811D01*
X46440849Y-75013880D01*
X46990000Y-75123113D01*
X47539151Y-75013880D01*
X48004698Y-74702811D01*
X48260000Y-74320725D01*
X48515302Y-74702811D01*
X48515302Y-74702811D01*
G37*
X48515302Y-74702811D02*
X48980849Y-75013880D01*
X49530000Y-75123113D01*
X50038000Y-75022065D01*
X50038000Y-90585935D01*
X49530000Y-90484887D01*
X48980849Y-90594120D01*
X48515302Y-90905189D01*
X48260000Y-91287275D01*
X48004698Y-90905189D01*
X47539151Y-90594120D01*
X46990000Y-90484887D01*
X46440849Y-90594120D01*
X45975302Y-90905189D01*
X45720000Y-91287275D01*
X45464698Y-90905189D01*
X44999151Y-90594120D01*
X44450000Y-90484887D01*
X43900849Y-90594120D01*
X43435302Y-90905189D01*
X43180000Y-91287275D01*
X42924698Y-90905189D01*
X42459151Y-90594120D01*
X41910000Y-90484887D01*
X41360849Y-90594120D01*
X40895302Y-90905189D01*
X40640000Y-91287275D01*
X40573251Y-91187379D01*
X41799951Y-89960679D01*
X42164000Y-90033093D01*
X42732285Y-89920054D01*
X43214054Y-89598147D01*
X43434000Y-89268974D01*
X43653946Y-89598147D01*
X44135715Y-89920054D01*
X44704000Y-90033093D01*
X45272285Y-89920054D01*
X45754054Y-89598147D01*
X46075961Y-89116378D01*
X46189000Y-88548093D01*
X46189000Y-88489907D01*
X46075961Y-87921622D01*
X45754054Y-87439853D01*
X45272285Y-87117946D01*
X44704000Y-87004907D01*
X44135715Y-87117946D01*
X43653946Y-87439853D01*
X43434000Y-87769026D01*
X43214054Y-87439853D01*
X42732285Y-87117946D01*
X42164000Y-87004907D01*
X41595715Y-87117946D01*
X41113946Y-87439853D01*
X40894000Y-87769026D01*
X40674054Y-87439853D01*
X40192285Y-87117946D01*
X39624000Y-87004907D01*
X39055715Y-87117946D01*
X38573946Y-87439853D01*
X38546150Y-87481452D01*
X38537162Y-87433683D01*
X38398090Y-87217559D01*
X38185890Y-87072569D01*
X37934000Y-87021560D01*
X36234000Y-87021560D01*
X35998683Y-87065838D01*
X35782559Y-87204910D01*
X35637569Y-87417110D01*
X35586560Y-87669000D01*
X35586560Y-89369000D01*
X35630838Y-89604317D01*
X35769910Y-89820441D01*
X35982110Y-89965431D01*
X36234000Y-90016440D01*
X37934000Y-90016440D01*
X38169317Y-89972162D01*
X38385441Y-89833090D01*
X38530431Y-89620890D01*
X38544086Y-89553459D01*
X38573946Y-89598147D01*
X39055715Y-89920054D01*
X39580858Y-90024512D01*
X39058527Y-90546843D01*
X38820849Y-90594120D01*
X38355302Y-90905189D01*
X38100000Y-91287275D01*
X37844698Y-90905189D01*
X37379151Y-90594120D01*
X36830000Y-90484887D01*
X36280849Y-90594120D01*
X35815302Y-90905189D01*
X35504233Y-91370736D01*
X35490456Y-91440000D01*
X30594974Y-91440000D01*
X30924147Y-91220054D01*
X31246054Y-90738285D01*
X31359093Y-90170000D01*
X31246054Y-89601715D01*
X30924147Y-89119946D01*
X30594974Y-88900000D01*
X30924147Y-88680054D01*
X31246054Y-88198285D01*
X31359093Y-87630000D01*
X31246054Y-87061715D01*
X30924147Y-86579946D01*
X30594974Y-86360000D01*
X30924147Y-86140054D01*
X31246054Y-85658285D01*
X31359093Y-85090000D01*
X31246054Y-84521715D01*
X30924147Y-84039946D01*
X30594974Y-83820000D01*
X30924147Y-83600054D01*
X31246054Y-83118285D01*
X31359093Y-82550000D01*
X31246054Y-81981715D01*
X30924147Y-81499946D01*
X30594974Y-81280000D01*
X30924147Y-81060054D01*
X31246054Y-80578285D01*
X31265604Y-80480000D01*
X35382560Y-80480000D01*
X35382560Y-82080000D01*
X35426838Y-82315317D01*
X35565910Y-82531441D01*
X35778110Y-82676431D01*
X36030000Y-82727440D01*
X37630000Y-82727440D01*
X37865317Y-82683162D01*
X38081441Y-82544090D01*
X38226431Y-82331890D01*
X38257815Y-82176911D01*
X38355302Y-82322811D01*
X38820849Y-82633880D01*
X39263451Y-82721919D01*
X39085185Y-82900185D01*
X38920004Y-83147395D01*
X38891505Y-83290667D01*
X38573946Y-83502853D01*
X38546150Y-83544452D01*
X38537162Y-83496683D01*
X38398090Y-83280559D01*
X38185890Y-83135569D01*
X37934000Y-83084560D01*
X36234000Y-83084560D01*
X35998683Y-83128838D01*
X35782559Y-83267910D01*
X35637569Y-83480110D01*
X35586560Y-83732000D01*
X35586560Y-85432000D01*
X35630838Y-85667317D01*
X35769910Y-85883441D01*
X35982110Y-86028431D01*
X36234000Y-86079440D01*
X37934000Y-86079440D01*
X38169317Y-86035162D01*
X38385441Y-85896090D01*
X38530431Y-85683890D01*
X38544086Y-85616459D01*
X38573946Y-85661147D01*
X39055715Y-85983054D01*
X39624000Y-86096093D01*
X40192285Y-85983054D01*
X40674054Y-85661147D01*
X40894000Y-85331974D01*
X41113946Y-85661147D01*
X41595715Y-85983054D01*
X42164000Y-86096093D01*
X42732285Y-85983054D01*
X43214054Y-85661147D01*
X43434000Y-85331974D01*
X43653946Y-85661147D01*
X44135715Y-85983054D01*
X44704000Y-86096093D01*
X45272285Y-85983054D01*
X45754054Y-85661147D01*
X46075961Y-85179378D01*
X46189000Y-84611093D01*
X46189000Y-84552907D01*
X46075961Y-83984622D01*
X45790392Y-83557238D01*
X46668473Y-82679157D01*
X46990000Y-82743113D01*
X47539151Y-82633880D01*
X48004698Y-82322811D01*
X48315767Y-81857264D01*
X48425000Y-81308113D01*
X48425000Y-81251887D01*
X48315767Y-80702736D01*
X48004698Y-80237189D01*
X47539151Y-79926120D01*
X46990000Y-79816887D01*
X46440849Y-79926120D01*
X45975302Y-80237189D01*
X45720000Y-80619275D01*
X45464698Y-80237189D01*
X44999151Y-79926120D01*
X44450000Y-79816887D01*
X43900849Y-79926120D01*
X43435302Y-80237189D01*
X43180000Y-80619275D01*
X42924698Y-80237189D01*
X42459151Y-79926120D01*
X41910000Y-79816887D01*
X41360849Y-79926120D01*
X40895302Y-80237189D01*
X40640000Y-80619275D01*
X40384698Y-80237189D01*
X39919151Y-79926120D01*
X39370000Y-79816887D01*
X38820849Y-79926120D01*
X38355302Y-80237189D01*
X38258899Y-80381465D01*
X38233162Y-80244683D01*
X38094090Y-80028559D01*
X37881890Y-79883569D01*
X37630000Y-79832560D01*
X36030000Y-79832560D01*
X35794683Y-79876838D01*
X35578559Y-80015910D01*
X35433569Y-80228110D01*
X35382560Y-80480000D01*
X31265604Y-80480000D01*
X31359093Y-80010000D01*
X31246054Y-79441715D01*
X30924147Y-78959946D01*
X30594974Y-78740000D01*
X30924147Y-78520054D01*
X31246054Y-78038285D01*
X31359093Y-77470000D01*
X31246054Y-76901715D01*
X30924147Y-76419946D01*
X30594974Y-76200000D01*
X36830000Y-76200000D01*
X37316008Y-76103327D01*
X37728026Y-75828026D01*
X38003327Y-75416008D01*
X38100000Y-74930000D01*
X38100000Y-74320725D01*
X38355302Y-74702811D01*
X38820849Y-75013880D01*
X39370000Y-75123113D01*
X39919151Y-75013880D01*
X40384698Y-74702811D01*
X40640000Y-74320725D01*
X40895302Y-74702811D01*
X41360849Y-75013880D01*
X41910000Y-75123113D01*
X42459151Y-75013880D01*
X42924698Y-74702811D01*
X43180000Y-74320725D01*
X43435302Y-74702811D01*
X43900849Y-75013880D01*
X44450000Y-75123113D01*
X44999151Y-75013880D01*
X45464698Y-74702811D01*
X45720000Y-74320725D01*
X45975302Y-74702811D01*
X46440849Y-75013880D01*
X46990000Y-75123113D01*
X47539151Y-75013880D01*
X48004698Y-74702811D01*
X48260000Y-74320725D01*
X48515302Y-74702811D01*
G36*
X55118000Y-90585935D02*
X54610000Y-90484887D01*
X54102000Y-90585935D01*
X54102000Y-75022065D01*
X54610000Y-75123113D01*
X55118000Y-75022065D01*
X55118000Y-90585935D01*
X55118000Y-90585935D01*
G37*
X55118000Y-90585935D02*
X54610000Y-90484887D01*
X54102000Y-90585935D01*
X54102000Y-75022065D01*
X54610000Y-75123113D01*
X55118000Y-75022065D01*
X55118000Y-90585935D01*
G36*
X52578000Y-90585935D02*
X52070000Y-90484887D01*
X51562000Y-90585935D01*
X51562000Y-75022065D01*
X52070000Y-75123113D01*
X52578000Y-75022065D01*
X52578000Y-90585935D01*
X52578000Y-90585935D01*
G37*
X52578000Y-90585935D02*
X52070000Y-90484887D01*
X51562000Y-90585935D01*
X51562000Y-75022065D01*
X52070000Y-75123113D01*
X52578000Y-75022065D01*
X52578000Y-90585935D01*
G36*
X48515302Y-56541811D02*
X48980849Y-56852880D01*
X49530000Y-56962113D01*
X50038000Y-56861065D01*
X50038000Y-72297935D01*
X49530000Y-72196887D01*
X48980849Y-72306120D01*
X48515302Y-72617189D01*
X48260000Y-72999275D01*
X48004698Y-72617189D01*
X47539151Y-72306120D01*
X46990000Y-72196887D01*
X46440849Y-72306120D01*
X45975302Y-72617189D01*
X45720000Y-72999275D01*
X45464698Y-72617189D01*
X44999151Y-72306120D01*
X44450000Y-72196887D01*
X43900849Y-72306120D01*
X43435302Y-72617189D01*
X43180000Y-72999275D01*
X42924698Y-72617189D01*
X42459151Y-72306120D01*
X41910000Y-72196887D01*
X41360849Y-72306120D01*
X40895302Y-72617189D01*
X40640000Y-72999275D01*
X40573251Y-72899379D01*
X41799951Y-71672679D01*
X42164000Y-71745093D01*
X42732285Y-71632054D01*
X43214054Y-71310147D01*
X43434000Y-70980974D01*
X43653946Y-71310147D01*
X44135715Y-71632054D01*
X44704000Y-71745093D01*
X45272285Y-71632054D01*
X45754054Y-71310147D01*
X46075961Y-70828378D01*
X46189000Y-70260093D01*
X46189000Y-70201907D01*
X46075961Y-69633622D01*
X45754054Y-69151853D01*
X45272285Y-68829946D01*
X44704000Y-68716907D01*
X44135715Y-68829946D01*
X43653946Y-69151853D01*
X43434000Y-69481026D01*
X43214054Y-69151853D01*
X42732285Y-68829946D01*
X42164000Y-68716907D01*
X41595715Y-68829946D01*
X41113946Y-69151853D01*
X40894000Y-69481026D01*
X40674054Y-69151853D01*
X40192285Y-68829946D01*
X39624000Y-68716907D01*
X39055715Y-68829946D01*
X38573946Y-69151853D01*
X38546150Y-69193452D01*
X38537162Y-69145683D01*
X38398090Y-68929559D01*
X38185890Y-68784569D01*
X37934000Y-68733560D01*
X36234000Y-68733560D01*
X35998683Y-68777838D01*
X35782559Y-68916910D01*
X35637569Y-69129110D01*
X35586560Y-69381000D01*
X35586560Y-71081000D01*
X35630838Y-71316317D01*
X35769910Y-71532441D01*
X35982110Y-71677431D01*
X36234000Y-71728440D01*
X37934000Y-71728440D01*
X38169317Y-71684162D01*
X38385441Y-71545090D01*
X38530431Y-71332890D01*
X38544086Y-71265459D01*
X38573946Y-71310147D01*
X39055715Y-71632054D01*
X39580858Y-71736512D01*
X39058527Y-72258843D01*
X38820849Y-72306120D01*
X38355302Y-72617189D01*
X38100000Y-72999275D01*
X37844698Y-72617189D01*
X37379151Y-72306120D01*
X36830000Y-72196887D01*
X36280849Y-72306120D01*
X35815302Y-72617189D01*
X35504233Y-73082736D01*
X35395000Y-73631887D01*
X35395000Y-73660000D01*
X31115000Y-73660000D01*
X31115000Y-62319000D01*
X35382560Y-62319000D01*
X35382560Y-63919000D01*
X35426838Y-64154317D01*
X35565910Y-64370441D01*
X35778110Y-64515431D01*
X36030000Y-64566440D01*
X37630000Y-64566440D01*
X37865317Y-64522162D01*
X38081441Y-64383090D01*
X38226431Y-64170890D01*
X38257815Y-64015911D01*
X38355302Y-64161811D01*
X38820849Y-64472880D01*
X39263451Y-64560919D01*
X39085185Y-64739185D01*
X38920004Y-64986395D01*
X38891505Y-65129667D01*
X38573946Y-65341853D01*
X38546150Y-65383452D01*
X38537162Y-65335683D01*
X38398090Y-65119559D01*
X38185890Y-64974569D01*
X37934000Y-64923560D01*
X36234000Y-64923560D01*
X35998683Y-64967838D01*
X35782559Y-65106910D01*
X35637569Y-65319110D01*
X35586560Y-65571000D01*
X35586560Y-67271000D01*
X35630838Y-67506317D01*
X35769910Y-67722441D01*
X35982110Y-67867431D01*
X36234000Y-67918440D01*
X37934000Y-67918440D01*
X38169317Y-67874162D01*
X38385441Y-67735090D01*
X38530431Y-67522890D01*
X38544086Y-67455459D01*
X38573946Y-67500147D01*
X39055715Y-67822054D01*
X39624000Y-67935093D01*
X40192285Y-67822054D01*
X40674054Y-67500147D01*
X40894000Y-67170974D01*
X41113946Y-67500147D01*
X41595715Y-67822054D01*
X42164000Y-67935093D01*
X42732285Y-67822054D01*
X43214054Y-67500147D01*
X43434000Y-67170974D01*
X43653946Y-67500147D01*
X44135715Y-67822054D01*
X44704000Y-67935093D01*
X45272285Y-67822054D01*
X45754054Y-67500147D01*
X46075961Y-67018378D01*
X46189000Y-66450093D01*
X46189000Y-66391907D01*
X46075961Y-65823622D01*
X45790392Y-65396238D01*
X46668473Y-64518157D01*
X46990000Y-64582113D01*
X47539151Y-64472880D01*
X48004698Y-64161811D01*
X48315767Y-63696264D01*
X48425000Y-63147113D01*
X48425000Y-63090887D01*
X48315767Y-62541736D01*
X48004698Y-62076189D01*
X47539151Y-61765120D01*
X46990000Y-61655887D01*
X46440849Y-61765120D01*
X45975302Y-62076189D01*
X45720000Y-62458275D01*
X45464698Y-62076189D01*
X44999151Y-61765120D01*
X44450000Y-61655887D01*
X43900849Y-61765120D01*
X43435302Y-62076189D01*
X43180000Y-62458275D01*
X42924698Y-62076189D01*
X42459151Y-61765120D01*
X41910000Y-61655887D01*
X41360849Y-61765120D01*
X40895302Y-62076189D01*
X40640000Y-62458275D01*
X40384698Y-62076189D01*
X39919151Y-61765120D01*
X39370000Y-61655887D01*
X38820849Y-61765120D01*
X38355302Y-62076189D01*
X38258899Y-62220465D01*
X38233162Y-62083683D01*
X38094090Y-61867559D01*
X37881890Y-61722569D01*
X37630000Y-61671560D01*
X36030000Y-61671560D01*
X35794683Y-61715838D01*
X35578559Y-61854910D01*
X35433569Y-62067110D01*
X35382560Y-62319000D01*
X31115000Y-62319000D01*
X31115000Y-56769000D01*
X36155314Y-56769000D01*
X36280849Y-56852880D01*
X36830000Y-56962113D01*
X37379151Y-56852880D01*
X37844698Y-56541811D01*
X38100000Y-56159725D01*
X38355302Y-56541811D01*
X38820849Y-56852880D01*
X39370000Y-56962113D01*
X39919151Y-56852880D01*
X40384698Y-56541811D01*
X40640000Y-56159725D01*
X40895302Y-56541811D01*
X41360849Y-56852880D01*
X41910000Y-56962113D01*
X42459151Y-56852880D01*
X42924698Y-56541811D01*
X43180000Y-56159725D01*
X43435302Y-56541811D01*
X43900849Y-56852880D01*
X44450000Y-56962113D01*
X44999151Y-56852880D01*
X45464698Y-56541811D01*
X45720000Y-56159725D01*
X45975302Y-56541811D01*
X46440849Y-56852880D01*
X46990000Y-56962113D01*
X47539151Y-56852880D01*
X48004698Y-56541811D01*
X48260000Y-56159725D01*
X48515302Y-56541811D01*
X48515302Y-56541811D01*
G37*
X48515302Y-56541811D02*
X48980849Y-56852880D01*
X49530000Y-56962113D01*
X50038000Y-56861065D01*
X50038000Y-72297935D01*
X49530000Y-72196887D01*
X48980849Y-72306120D01*
X48515302Y-72617189D01*
X48260000Y-72999275D01*
X48004698Y-72617189D01*
X47539151Y-72306120D01*
X46990000Y-72196887D01*
X46440849Y-72306120D01*
X45975302Y-72617189D01*
X45720000Y-72999275D01*
X45464698Y-72617189D01*
X44999151Y-72306120D01*
X44450000Y-72196887D01*
X43900849Y-72306120D01*
X43435302Y-72617189D01*
X43180000Y-72999275D01*
X42924698Y-72617189D01*
X42459151Y-72306120D01*
X41910000Y-72196887D01*
X41360849Y-72306120D01*
X40895302Y-72617189D01*
X40640000Y-72999275D01*
X40573251Y-72899379D01*
X41799951Y-71672679D01*
X42164000Y-71745093D01*
X42732285Y-71632054D01*
X43214054Y-71310147D01*
X43434000Y-70980974D01*
X43653946Y-71310147D01*
X44135715Y-71632054D01*
X44704000Y-71745093D01*
X45272285Y-71632054D01*
X45754054Y-71310147D01*
X46075961Y-70828378D01*
X46189000Y-70260093D01*
X46189000Y-70201907D01*
X46075961Y-69633622D01*
X45754054Y-69151853D01*
X45272285Y-68829946D01*
X44704000Y-68716907D01*
X44135715Y-68829946D01*
X43653946Y-69151853D01*
X43434000Y-69481026D01*
X43214054Y-69151853D01*
X42732285Y-68829946D01*
X42164000Y-68716907D01*
X41595715Y-68829946D01*
X41113946Y-69151853D01*
X40894000Y-69481026D01*
X40674054Y-69151853D01*
X40192285Y-68829946D01*
X39624000Y-68716907D01*
X39055715Y-68829946D01*
X38573946Y-69151853D01*
X38546150Y-69193452D01*
X38537162Y-69145683D01*
X38398090Y-68929559D01*
X38185890Y-68784569D01*
X37934000Y-68733560D01*
X36234000Y-68733560D01*
X35998683Y-68777838D01*
X35782559Y-68916910D01*
X35637569Y-69129110D01*
X35586560Y-69381000D01*
X35586560Y-71081000D01*
X35630838Y-71316317D01*
X35769910Y-71532441D01*
X35982110Y-71677431D01*
X36234000Y-71728440D01*
X37934000Y-71728440D01*
X38169317Y-71684162D01*
X38385441Y-71545090D01*
X38530431Y-71332890D01*
X38544086Y-71265459D01*
X38573946Y-71310147D01*
X39055715Y-71632054D01*
X39580858Y-71736512D01*
X39058527Y-72258843D01*
X38820849Y-72306120D01*
X38355302Y-72617189D01*
X38100000Y-72999275D01*
X37844698Y-72617189D01*
X37379151Y-72306120D01*
X36830000Y-72196887D01*
X36280849Y-72306120D01*
X35815302Y-72617189D01*
X35504233Y-73082736D01*
X35395000Y-73631887D01*
X35395000Y-73660000D01*
X31115000Y-73660000D01*
X31115000Y-62319000D01*
X35382560Y-62319000D01*
X35382560Y-63919000D01*
X35426838Y-64154317D01*
X35565910Y-64370441D01*
X35778110Y-64515431D01*
X36030000Y-64566440D01*
X37630000Y-64566440D01*
X37865317Y-64522162D01*
X38081441Y-64383090D01*
X38226431Y-64170890D01*
X38257815Y-64015911D01*
X38355302Y-64161811D01*
X38820849Y-64472880D01*
X39263451Y-64560919D01*
X39085185Y-64739185D01*
X38920004Y-64986395D01*
X38891505Y-65129667D01*
X38573946Y-65341853D01*
X38546150Y-65383452D01*
X38537162Y-65335683D01*
X38398090Y-65119559D01*
X38185890Y-64974569D01*
X37934000Y-64923560D01*
X36234000Y-64923560D01*
X35998683Y-64967838D01*
X35782559Y-65106910D01*
X35637569Y-65319110D01*
X35586560Y-65571000D01*
X35586560Y-67271000D01*
X35630838Y-67506317D01*
X35769910Y-67722441D01*
X35982110Y-67867431D01*
X36234000Y-67918440D01*
X37934000Y-67918440D01*
X38169317Y-67874162D01*
X38385441Y-67735090D01*
X38530431Y-67522890D01*
X38544086Y-67455459D01*
X38573946Y-67500147D01*
X39055715Y-67822054D01*
X39624000Y-67935093D01*
X40192285Y-67822054D01*
X40674054Y-67500147D01*
X40894000Y-67170974D01*
X41113946Y-67500147D01*
X41595715Y-67822054D01*
X42164000Y-67935093D01*
X42732285Y-67822054D01*
X43214054Y-67500147D01*
X43434000Y-67170974D01*
X43653946Y-67500147D01*
X44135715Y-67822054D01*
X44704000Y-67935093D01*
X45272285Y-67822054D01*
X45754054Y-67500147D01*
X46075961Y-67018378D01*
X46189000Y-66450093D01*
X46189000Y-66391907D01*
X46075961Y-65823622D01*
X45790392Y-65396238D01*
X46668473Y-64518157D01*
X46990000Y-64582113D01*
X47539151Y-64472880D01*
X48004698Y-64161811D01*
X48315767Y-63696264D01*
X48425000Y-63147113D01*
X48425000Y-63090887D01*
X48315767Y-62541736D01*
X48004698Y-62076189D01*
X47539151Y-61765120D01*
X46990000Y-61655887D01*
X46440849Y-61765120D01*
X45975302Y-62076189D01*
X45720000Y-62458275D01*
X45464698Y-62076189D01*
X44999151Y-61765120D01*
X44450000Y-61655887D01*
X43900849Y-61765120D01*
X43435302Y-62076189D01*
X43180000Y-62458275D01*
X42924698Y-62076189D01*
X42459151Y-61765120D01*
X41910000Y-61655887D01*
X41360849Y-61765120D01*
X40895302Y-62076189D01*
X40640000Y-62458275D01*
X40384698Y-62076189D01*
X39919151Y-61765120D01*
X39370000Y-61655887D01*
X38820849Y-61765120D01*
X38355302Y-62076189D01*
X38258899Y-62220465D01*
X38233162Y-62083683D01*
X38094090Y-61867559D01*
X37881890Y-61722569D01*
X37630000Y-61671560D01*
X36030000Y-61671560D01*
X35794683Y-61715838D01*
X35578559Y-61854910D01*
X35433569Y-62067110D01*
X35382560Y-62319000D01*
X31115000Y-62319000D01*
X31115000Y-56769000D01*
X36155314Y-56769000D01*
X36280849Y-56852880D01*
X36830000Y-56962113D01*
X37379151Y-56852880D01*
X37844698Y-56541811D01*
X38100000Y-56159725D01*
X38355302Y-56541811D01*
X38820849Y-56852880D01*
X39370000Y-56962113D01*
X39919151Y-56852880D01*
X40384698Y-56541811D01*
X40640000Y-56159725D01*
X40895302Y-56541811D01*
X41360849Y-56852880D01*
X41910000Y-56962113D01*
X42459151Y-56852880D01*
X42924698Y-56541811D01*
X43180000Y-56159725D01*
X43435302Y-56541811D01*
X43900849Y-56852880D01*
X44450000Y-56962113D01*
X44999151Y-56852880D01*
X45464698Y-56541811D01*
X45720000Y-56159725D01*
X45975302Y-56541811D01*
X46440849Y-56852880D01*
X46990000Y-56962113D01*
X47539151Y-56852880D01*
X48004698Y-56541811D01*
X48260000Y-56159725D01*
X48515302Y-56541811D01*
G36*
X55118000Y-72297935D02*
X54610000Y-72196887D01*
X54102000Y-72297935D01*
X54102000Y-56861065D01*
X54610000Y-56962113D01*
X55118000Y-56861065D01*
X55118000Y-72297935D01*
X55118000Y-72297935D01*
G37*
X55118000Y-72297935D02*
X54610000Y-72196887D01*
X54102000Y-72297935D01*
X54102000Y-56861065D01*
X54610000Y-56962113D01*
X55118000Y-56861065D01*
X55118000Y-72297935D01*
G36*
X52578000Y-72297935D02*
X52070000Y-72196887D01*
X51562000Y-72297935D01*
X51562000Y-56861065D01*
X52070000Y-56962113D01*
X52578000Y-56861065D01*
X52578000Y-72297935D01*
X52578000Y-72297935D01*
G37*
X52578000Y-72297935D02*
X52070000Y-72196887D01*
X51562000Y-72297935D01*
X51562000Y-56861065D01*
X52070000Y-56962113D01*
X52578000Y-56861065D01*
X52578000Y-72297935D01*
M02*
